%TF.GenerationSoftware,KiCad,Pcbnew,(6.0.0-rc1-314-g10be483430)*%
%TF.CreationDate,2021-12-21T20:43:16+01:00*%
%TF.ProjectId,ma12070p_amp_v1,6d613132-3037-4307-905f-616d705f7631,rev?*%
%TF.SameCoordinates,Original*%
%TF.FileFunction,Copper,L2,Bot*%
%TF.FilePolarity,Positive*%
%FSLAX45Y45*%
G04 Gerber Fmt 4.5, Leading zero omitted, Abs format (unit mm)*
G04 Created by KiCad (PCBNEW (6.0.0-rc1-314-g10be483430)) date 2021-12-21 20:43:16*
%MOMM*%
%LPD*%
G01*
G04 APERTURE LIST*
%TA.AperFunction,Profile*%
%ADD10C,0.050000*%
%TD*%
%TA.AperFunction,NonConductor*%
%ADD11C,0.200000*%
%TD*%
%TA.AperFunction,ComponentPad*%
%ADD12C,1.600000*%
%TD*%
%TA.AperFunction,ComponentPad*%
%ADD13R,1.700000X1.700000*%
%TD*%
%TA.AperFunction,ComponentPad*%
%ADD14O,1.700000X1.700000*%
%TD*%
%TA.AperFunction,ComponentPad*%
%ADD15R,2.600000X2.600000*%
%TD*%
%TA.AperFunction,ComponentPad*%
%ADD16C,2.600000*%
%TD*%
%TA.AperFunction,ComponentPad*%
%ADD17C,1.700000*%
%TD*%
%TA.AperFunction,ComponentPad*%
%ADD18C,8.000000*%
%TD*%
%TA.AperFunction,ComponentPad*%
%ADD19R,2.000000X2.000000*%
%TD*%
%TA.AperFunction,ComponentPad*%
%ADD20C,2.000000*%
%TD*%
%TA.AperFunction,ComponentPad*%
%ADD21R,1.422400X1.422400*%
%TD*%
%TA.AperFunction,ComponentPad*%
%ADD22C,1.422400*%
%TD*%
%TA.AperFunction,ViaPad*%
%ADD23C,0.800000*%
%TD*%
%TA.AperFunction,ViaPad*%
%ADD24C,1.000000*%
%TD*%
%TA.AperFunction,Conductor*%
%ADD25C,3.810000*%
%TD*%
%TA.AperFunction,Conductor*%
%ADD26C,2.540000*%
%TD*%
%TA.AperFunction,Conductor*%
%ADD27C,1.270000*%
%TD*%
%TA.AperFunction,Conductor*%
%ADD28C,0.300000*%
%TD*%
%TA.AperFunction,Conductor*%
%ADD29C,1.000000*%
%TD*%
G04 APERTURE END LIST*
D10*
X21500000Y-4700000D02*
G75*
G03*
X21000000Y-4200000I-500000J0D01*
G01*
X21000000Y-12700000D02*
G75*
G03*
X21500000Y-12200000I0J500000D01*
G01*
X11000000Y-12200000D02*
G75*
G03*
X11500000Y-12700000I500000J0D01*
G01*
X11500000Y-4199375D02*
G75*
G03*
X11000000Y-4675000I0J-500625D01*
G01*
X11000000Y-12200000D02*
X11000000Y-4675000D01*
X21000000Y-12700000D02*
X11500000Y-12700000D01*
X21500000Y-4700000D02*
X21500000Y-12200000D01*
X11500000Y-4199375D02*
X21000000Y-4200000D01*
D11*
X21500000Y-4725625D02*
G75*
G03*
X21000000Y-4200000I-500000J25000D01*
G01*
X21500000Y-12175625D02*
X21500000Y-4725625D01*
X11000566Y-4724407D02*
X11000000Y-12200625D01*
X11000000Y-12200625D02*
G75*
G03*
X11500000Y-12700625I500000J0D01*
G01*
X11500000Y-12700625D02*
X21025000Y-12700625D01*
X11500000Y-4200625D02*
G75*
G03*
X11000566Y-4724407I0J-500000D01*
G01*
X11500000Y-4200625D02*
X21000000Y-4200000D01*
X21025000Y-12700625D02*
G75*
G03*
X21500000Y-12175625I-25000J500000D01*
G01*
D12*
%TO.P,C27,1*%
%TO.N,Net-(C27-Pad1)*%
X19050000Y-11400000D03*
%TO.P,C27,2*%
%TO.N,GND*%
X19550000Y-11400000D03*
%TD*%
D13*
%TO.P,CONN4,1,Pin_1*%
%TO.N,Net-(C43-Pad1)*%
X12025000Y-8242500D03*
D14*
%TO.P,CONN4,2,Pin_2*%
%TO.N,Net-(C44-Pad1)*%
X12025000Y-8496500D03*
%TO.P,CONN4,3,Pin_3*%
%TO.N,GND*%
X12025000Y-8750500D03*
%TO.P,CONN4,4,Pin_4*%
%TO.N,Net-(C46-Pad2)*%
X12025000Y-9004500D03*
%TO.P,CONN4,5,Pin_5*%
%TO.N,Net-(C45-Pad1)*%
X12025000Y-9258500D03*
%TD*%
D13*
%TO.P,CONN3,1,Pin_1*%
%TO.N,SDL*%
X12025000Y-9917500D03*
D14*
%TO.P,CONN3,2,Pin_2*%
%TO.N,SDA*%
X12025000Y-10171500D03*
%TO.P,CONN3,3,Pin_3*%
%TO.N,GND*%
X12025000Y-10425500D03*
%TO.P,CONN3,4,Pin_4*%
%TO.N,ENABLE*%
X12025000Y-10679500D03*
%TO.P,CONN3,5,Pin_5*%
%TO.N,MUTE*%
X12025000Y-10933500D03*
%TD*%
D15*
%TO.P,CONN2,1,Pin_1*%
%TO.N,Net-(C9-Pad2)*%
X20869500Y-8050000D03*
D16*
%TO.P,CONN2,2,Pin_2*%
%TO.N,Net-(C13-Pad1)*%
X20869500Y-8550000D03*
%TO.P,CONN2,3,Pin_3*%
%TO.N,Net-(C24-Pad2)*%
X20869500Y-9050000D03*
%TO.P,CONN2,4,Pin_4*%
%TO.N,Net-(C28-Pad1)*%
X20869500Y-9550000D03*
%TD*%
D17*
%TO.P,L2,1,1*%
%TO.N,Net-(C9-Pad2)*%
X18050000Y-6800000D03*
%TO.P,L2,2,2*%
%TO.N,OUT0B*%
X17550000Y-6800000D03*
%TD*%
D12*
%TO.P,C23,1*%
%TO.N,Net-(C23-Pad1)*%
X19050000Y-10100000D03*
%TO.P,C23,2*%
%TO.N,GND*%
X19550000Y-10100000D03*
%TD*%
D17*
%TO.P,L4,1,1*%
%TO.N,Net-(C13-Pad1)*%
X18050000Y-8100000D03*
%TO.P,L4,2,2*%
%TO.N,OUT0A*%
X17550000Y-8100000D03*
%TD*%
D18*
%TO.P,H2,1,1*%
%TO.N,GND*%
X11500000Y-4700000D03*
%TD*%
D12*
%TO.P,C12,1*%
%TO.N,Net-(C12-Pad1)*%
X19050000Y-7500000D03*
%TO.P,C12,2*%
%TO.N,GND*%
X19550000Y-7500000D03*
%TD*%
D18*
%TO.P,H4,1,1*%
%TO.N,GND*%
X21000000Y-4700000D03*
%TD*%
D12*
%TO.P,C8,1*%
%TO.N,Net-(C8-Pad1)*%
X19050000Y-6200000D03*
%TO.P,C8,2*%
%TO.N,GND*%
X19550000Y-6200000D03*
%TD*%
D19*
%TO.P,C2,1*%
%TO.N,PVDD*%
X15163232Y-6725000D03*
D20*
%TO.P,C2,2*%
%TO.N,GND*%
X15663232Y-6725000D03*
%TD*%
D17*
%TO.P,L6,1,1*%
%TO.N,Net-(C28-Pad1)*%
X18050000Y-10800000D03*
%TO.P,L6,2,2*%
%TO.N,OUT1B*%
X17550000Y-10800000D03*
%TD*%
D12*
%TO.P,C24,1*%
%TO.N,GND*%
X19550000Y-9500000D03*
%TO.P,C24,2*%
%TO.N,Net-(C24-Pad2)*%
X19050000Y-9500000D03*
%TD*%
D18*
%TO.P,H3,1,1*%
%TO.N,GND*%
X11500000Y-12200000D03*
%TD*%
D19*
%TO.P,C1,1*%
%TO.N,PVDD*%
X15163232Y-10850000D03*
D20*
%TO.P,C1,2*%
%TO.N,GND*%
X15663232Y-10850000D03*
%TD*%
D17*
%TO.P,L5,1,1*%
%TO.N,Net-(C24-Pad2)*%
X18050000Y-9500000D03*
%TO.P,L5,2,2*%
%TO.N,OUT1A*%
X17550000Y-9500000D03*
%TD*%
D12*
%TO.P,C9,1*%
%TO.N,GND*%
X19550000Y-6800000D03*
%TO.P,C9,2*%
%TO.N,Net-(C9-Pad2)*%
X19050000Y-6800000D03*
%TD*%
%TO.P,C28,1*%
%TO.N,Net-(C28-Pad1)*%
X19050000Y-10800000D03*
%TO.P,C28,2*%
%TO.N,GND*%
X19550000Y-10800000D03*
%TD*%
D18*
%TO.P,H1,1,1*%
%TO.N,GND*%
X21000000Y-12200000D03*
%TD*%
D21*
%TO.P,L3,1,1*%
%TO.N,Net-(C14-Pad2)*%
X14610010Y-6200000D03*
D22*
%TO.P,L3,2,2*%
%TO.N,IC_5V*%
X14259490Y-6200000D03*
%TD*%
D12*
%TO.P,C13,1*%
%TO.N,Net-(C13-Pad1)*%
X19050000Y-8100000D03*
%TO.P,C13,2*%
%TO.N,GND*%
X19550000Y-8100000D03*
%TD*%
D15*
%TO.P,CONN1,1,Pin_1*%
%TO.N,Net-(CONN1-Pad1)*%
X11650000Y-6975000D03*
D16*
%TO.P,CONN1,2,Pin_2*%
%TO.N,GND*%
X11650000Y-7475000D03*
%TD*%
D23*
%TO.N,GND*%
X14925000Y-8725000D03*
X14800000Y-9000000D03*
X15200000Y-8875000D03*
X15075000Y-8875000D03*
X14925000Y-9000000D03*
X14800000Y-8725000D03*
X15075000Y-9000000D03*
X15200000Y-9000000D03*
X14925000Y-8875000D03*
X15075000Y-8600000D03*
X14800000Y-8600000D03*
X15200000Y-8725000D03*
X14925000Y-8600000D03*
X15200000Y-8600000D03*
X15075000Y-8725000D03*
X14800000Y-8875000D03*
%TO.N,*%
X24700000Y-4700000D03*
%TO.N,OUT0B*%
X14900000Y-8450000D03*
%TO.N,OUT0A*%
X15200000Y-8450000D03*
%TO.N,OUT1A*%
X15200000Y-9150000D03*
%TO.N,OUT1B*%
X14900000Y-9150000D03*
%TO.N,OUT0B*%
X14900000Y-8230000D03*
%TO.N,OUT0A*%
X15200000Y-8230000D03*
%TO.N,OUT1A*%
X15200000Y-9375000D03*
%TO.N,OUT1B*%
X14900000Y-9375000D03*
%TO.N,GND*%
X14025000Y-6425000D03*
X13025000Y-7975000D03*
X14200000Y-7375000D03*
X14275000Y-10250000D03*
X13025000Y-9725000D03*
X13025000Y-8650000D03*
X13025000Y-8350000D03*
X14025000Y-9675000D03*
X16650000Y-5875000D03*
X13875000Y-10650000D03*
X16550000Y-9050000D03*
X15350000Y-5325000D03*
X13700000Y-6350000D03*
X14425000Y-4900000D03*
X15350000Y-5050000D03*
X13700000Y-5925000D03*
X14225000Y-4900000D03*
X16550000Y-7900000D03*
X12475000Y-10450000D03*
X14275000Y-5250000D03*
X14750000Y-7375000D03*
X12575000Y-7075000D03*
X13050000Y-10450000D03*
X14850000Y-10175000D03*
X13050000Y-5200000D03*
X14925000Y-5325000D03*
X15825000Y-8625000D03*
X13400000Y-7725000D03*
X14175000Y-5125000D03*
X14075000Y-5625000D03*
X12475000Y-9125000D03*
X14725000Y-10175000D03*
X12475000Y-9975000D03*
X14925000Y-5050000D03*
X14175000Y-5250000D03*
X14250000Y-8900000D03*
X12350000Y-5750000D03*
X14025000Y-4900000D03*
X11425000Y-5900000D03*
X14075000Y-5825000D03*
X13050000Y-5500000D03*
X14350000Y-8275000D03*
X16550000Y-8550000D03*
X15975000Y-5875000D03*
X12475000Y-10825000D03*
X14925000Y-5675000D03*
X14848638Y-7374225D03*
X14275000Y-5125000D03*
X16350000Y-10650000D03*
X13075000Y-5900000D03*
X14650000Y-5050000D03*
X12850000Y-7300000D03*
X14650000Y-4900000D03*
X13075000Y-6200000D03*
X16525000Y-10000000D03*
X15350000Y-5675000D03*
X13400000Y-7900000D03*
X13025000Y-8950000D03*
%TO.N,ENABLE*%
X14500000Y-10250000D03*
X14500000Y-9400000D03*
%TO.N,MUTE*%
X14625000Y-9400000D03*
X14600000Y-10250000D03*
D24*
%TO.N,PVDD*%
X12852500Y-5950000D03*
X13525000Y-5700000D03*
D23*
X14610000Y-5300000D03*
X13975000Y-5425000D03*
D24*
X12850000Y-6300000D03*
X12675000Y-6550000D03*
X12677500Y-5775000D03*
%TO.N,VDD*%
X16575000Y-10900000D03*
X12825000Y-10275000D03*
X15787500Y-8962500D03*
X12825000Y-10800000D03*
X12850000Y-7775000D03*
X15575000Y-9175000D03*
X12825000Y-9950000D03*
X12825000Y-9525000D03*
D23*
%TO.N,ERR*%
X14550000Y-8200000D03*
X14550000Y-7150000D03*
%TO.N,CLIP*%
X14675000Y-8200000D03*
X14675000Y-7150000D03*
D24*
%TO.N,Net-(C45-Pad1)*%
X13350000Y-9100000D03*
X13550000Y-10450000D03*
%TD*%
D25*
%TO.N,PVDD*%
X13012500Y-6912500D02*
X13025000Y-6925000D01*
D26*
%TO.N,OUT0B*%
X14900000Y-7750000D02*
X14900000Y-8230000D01*
D25*
X15425000Y-7225000D02*
X14900000Y-7750000D01*
X17125000Y-7225000D02*
X15425000Y-7225000D01*
D26*
%TO.N,OUT0A*%
X15595000Y-8230000D02*
X15200000Y-8230000D01*
D25*
X17420000Y-8230000D02*
X15595000Y-8230000D01*
X17550000Y-8100000D02*
X17420000Y-8230000D01*
D26*
%TO.N,OUT1A*%
X15900000Y-9375000D02*
X15200000Y-9375000D01*
%TO.N,OUT1B*%
X14900000Y-9800000D02*
X14900000Y-9375000D01*
D25*
%TO.N,OUT0B*%
X17550000Y-6800000D02*
X17125000Y-7225000D01*
%TO.N,OUT1A*%
X15900000Y-9375000D02*
X17425000Y-9375000D01*
%TO.N,OUT1B*%
X15450000Y-10350000D02*
X14900000Y-9800000D01*
X17100000Y-10350000D02*
X15450000Y-10350000D01*
X17550000Y-10800000D02*
X17100000Y-10350000D01*
%TO.N,OUT1A*%
X17425000Y-9375000D02*
X17550000Y-9500000D01*
D27*
%TO.N,VDD*%
X12825000Y-7800000D02*
X12850000Y-7775000D01*
X12825000Y-9525000D02*
X12825000Y-7800000D01*
X12825000Y-9525000D02*
X12825000Y-9950000D01*
D28*
%TO.N,ENABLE*%
X14500000Y-10250000D02*
X14500000Y-9400000D01*
%TO.N,MUTE*%
X14625000Y-9400000D02*
X14600000Y-9425000D01*
X14600000Y-9425000D02*
X14600000Y-10250000D01*
D25*
%TO.N,PVDD*%
X13487500Y-6912500D02*
X13012500Y-6912500D01*
D27*
X12975000Y-5700000D02*
X13525000Y-5700000D01*
D25*
X13700000Y-10125000D02*
X14425000Y-10850000D01*
X13700000Y-7125000D02*
X13700000Y-7600000D01*
X14100000Y-6725000D02*
X13900000Y-6925000D01*
D26*
X12850000Y-6300000D02*
X12850000Y-6375000D01*
X12852500Y-5950000D02*
X12852500Y-6297500D01*
D25*
X13700000Y-7125000D02*
X13487500Y-6912500D01*
D29*
X13975000Y-5425000D02*
X14485000Y-5425000D01*
D25*
X12677500Y-5775000D02*
X12677500Y-6547500D01*
X14425000Y-10850000D02*
X15163232Y-10850000D01*
X13025000Y-6925000D02*
X13900000Y-6925000D01*
D27*
X13875000Y-5425000D02*
X13600000Y-5700000D01*
D25*
X13700000Y-7600000D02*
X13700000Y-10125000D01*
D27*
X13975000Y-5425000D02*
X13875000Y-5425000D01*
D25*
X12677500Y-6577500D02*
X13700000Y-7600000D01*
D29*
X14485000Y-5425000D02*
X14610000Y-5300000D01*
D27*
X12852500Y-5822500D02*
X12975000Y-5700000D01*
D25*
X12677500Y-6547500D02*
X12677500Y-6577500D01*
X15163232Y-6725000D02*
X14100000Y-6725000D01*
D27*
X12852500Y-5950000D02*
X12852500Y-5822500D01*
D26*
X12677500Y-5775000D02*
X12852500Y-5950000D01*
D27*
X13600000Y-5700000D02*
X13525000Y-5700000D01*
D25*
X12677500Y-6547500D02*
X12675000Y-6550000D01*
X13900000Y-6925000D02*
X13700000Y-7125000D01*
D26*
X12852500Y-6297500D02*
X12850000Y-6300000D01*
X12850000Y-6375000D02*
X12675000Y-6550000D01*
D27*
%TO.N,VDD*%
X12825000Y-10800000D02*
X12825000Y-11025000D01*
X16000000Y-11475000D02*
X16575000Y-10900000D01*
X12825000Y-11025000D02*
X13275000Y-11475000D01*
X12825000Y-10275000D02*
X12825000Y-10800000D01*
X12825000Y-9950000D02*
X12825000Y-10275000D01*
D28*
X15787500Y-8962500D02*
X15575000Y-9175000D01*
D27*
X13275000Y-11475000D02*
X16000000Y-11475000D01*
D28*
%TO.N,ERR*%
X14550000Y-7150000D02*
X14550000Y-8200000D01*
%TO.N,CLIP*%
X14675000Y-7150000D02*
X14625000Y-7200000D01*
X14625000Y-7925000D02*
X14675000Y-7975000D01*
X14625000Y-7200000D02*
X14625000Y-7925000D01*
X14675000Y-7975000D02*
X14675000Y-8200000D01*
%TO.N,Net-(C45-Pad1)*%
X13350000Y-10250000D02*
X13350000Y-9100000D01*
X13550000Y-10450000D02*
X13350000Y-10250000D01*
%TD*%
%TA.AperFunction,Conductor*%
%TO.N,GND*%
G36*
X20825493Y-4262812D02*
G01*
X20830142Y-4268177D01*
X20831153Y-4275204D01*
X20828204Y-4281663D01*
X20823361Y-4285111D01*
X20813840Y-4288919D01*
X20813319Y-4289155D01*
X20777348Y-4307483D01*
X20776851Y-4307766D01*
X20742690Y-4329278D01*
X20742220Y-4329604D01*
X20710149Y-4354124D01*
X20709711Y-4354492D01*
X20700991Y-4362511D01*
X20700172Y-4363871D01*
X20700174Y-4363914D01*
X20700710Y-4364789D01*
X21335069Y-4999148D01*
X21336413Y-4999882D01*
X21337397Y-4999190D01*
X21357361Y-4975566D01*
X21357710Y-4975113D01*
X21380866Y-4942042D01*
X21381172Y-4941561D01*
X21401235Y-4906528D01*
X21401496Y-4906020D01*
X21415144Y-4876211D01*
X21419798Y-4870850D01*
X21426612Y-4868856D01*
X21433422Y-4870863D01*
X21438066Y-4876233D01*
X21439200Y-4881456D01*
X21439200Y-12018952D01*
X21437200Y-12025764D01*
X21431834Y-12030413D01*
X21424807Y-12031424D01*
X21418349Y-12028474D01*
X21415036Y-12023956D01*
X21405723Y-12002434D01*
X21405472Y-12001920D01*
X21386147Y-11966475D01*
X21385851Y-11965986D01*
X21363393Y-11932439D01*
X21363054Y-11931979D01*
X21337683Y-11900649D01*
X21336396Y-11899923D01*
X21336260Y-11899930D01*
X21335527Y-11900394D01*
X20700772Y-12535149D01*
X20700011Y-12536543D01*
X20700019Y-12536656D01*
X20700517Y-12537414D01*
X20702540Y-12539354D01*
X20702968Y-12539728D01*
X20734522Y-12564917D01*
X20734980Y-12565250D01*
X20768687Y-12587476D01*
X20769176Y-12587768D01*
X20804754Y-12606844D01*
X20805272Y-12607092D01*
X20825376Y-12615626D01*
X20830865Y-12620129D01*
X20833048Y-12626885D01*
X20831233Y-12633748D01*
X20825994Y-12638541D01*
X20820453Y-12639825D01*
X11679716Y-12639825D01*
X11672904Y-12637824D01*
X11668255Y-12632459D01*
X11667244Y-12625431D01*
X11670194Y-12618973D01*
X11674632Y-12615696D01*
X11700395Y-12604333D01*
X11700905Y-12604080D01*
X11736214Y-12584507D01*
X11736702Y-12584207D01*
X11770090Y-12561517D01*
X11770551Y-12561172D01*
X11799183Y-12537654D01*
X11800029Y-12536411D01*
X11799404Y-12535325D01*
X11464192Y-12200113D01*
X11536441Y-12200113D01*
X11536454Y-12200296D01*
X11536879Y-12200958D01*
X11835069Y-12499148D01*
X11836413Y-12499882D01*
X11837397Y-12499190D01*
X11857361Y-12475566D01*
X11857710Y-12475113D01*
X11880866Y-12442042D01*
X11881172Y-12441561D01*
X11901235Y-12406528D01*
X11901496Y-12406020D01*
X11918302Y-12369313D01*
X11918516Y-12368783D01*
X11931925Y-12330705D01*
X11932091Y-12330157D01*
X11941994Y-12291021D01*
X11942109Y-12290460D01*
X11948424Y-12250585D01*
X11948488Y-12250019D01*
X11950783Y-12215464D01*
X20548996Y-12215464D01*
X20549016Y-12216034D01*
X20552254Y-12256275D01*
X20552326Y-12256843D01*
X20559197Y-12296623D01*
X20559320Y-12297183D01*
X20569769Y-12336179D01*
X20569941Y-12336722D01*
X20583882Y-12374611D01*
X20584103Y-12375136D01*
X20601419Y-12411605D01*
X20601688Y-12412110D01*
X20622239Y-12446861D01*
X20622550Y-12447336D01*
X20646167Y-12480081D01*
X20646521Y-12480528D01*
X20662553Y-12498970D01*
X20663866Y-12499811D01*
X20664857Y-12499222D01*
X20962798Y-12201281D01*
X20963559Y-12199887D01*
X20963546Y-12199703D01*
X20963121Y-12199042D01*
X20665042Y-11900963D01*
X20663648Y-11900202D01*
X20663629Y-11900203D01*
X20662747Y-11900801D01*
X20652474Y-11912130D01*
X20652109Y-11912571D01*
X20627814Y-11944812D01*
X20627491Y-11945284D01*
X20606217Y-11979595D01*
X20605938Y-11980095D01*
X20587862Y-12016190D01*
X20587629Y-12016715D01*
X20572899Y-12054301D01*
X20572715Y-12054842D01*
X20561452Y-12093610D01*
X20561318Y-12094165D01*
X20553614Y-12133795D01*
X20553531Y-12134359D01*
X20549451Y-12174523D01*
X20549419Y-12175096D01*
X20548996Y-12215464D01*
X11950783Y-12215464D01*
X11951171Y-12209626D01*
X11951184Y-12209275D01*
X11951280Y-12200177D01*
X11951273Y-12199822D01*
X11949437Y-12159384D01*
X11949385Y-12158816D01*
X11943906Y-12118818D01*
X11943804Y-12118258D01*
X11934722Y-12078920D01*
X11934568Y-12078370D01*
X11921959Y-12040018D01*
X11921756Y-12039484D01*
X11905723Y-12002434D01*
X11905472Y-12001920D01*
X11886147Y-11966475D01*
X11885851Y-11965986D01*
X11863393Y-11932439D01*
X11863054Y-11931979D01*
X11837683Y-11900649D01*
X11836396Y-11899923D01*
X11836260Y-11899930D01*
X11835527Y-11900394D01*
X11537202Y-12198719D01*
X11536441Y-12200113D01*
X11464192Y-12200113D01*
X11165042Y-11900963D01*
X11163648Y-11900202D01*
X11163629Y-11900203D01*
X11162747Y-11900801D01*
X11152474Y-11912130D01*
X11152109Y-11912571D01*
X11127814Y-11944812D01*
X11127491Y-11945284D01*
X11106217Y-11979595D01*
X11105938Y-11980095D01*
X11087862Y-12016190D01*
X11087629Y-12016714D01*
X11085145Y-12023053D01*
X11080797Y-12028665D01*
X11074105Y-12031036D01*
X11067194Y-12029413D01*
X11062257Y-12024311D01*
X11060814Y-12018454D01*
X11060826Y-11863871D01*
X11200172Y-11863871D01*
X11200173Y-11863914D01*
X11200710Y-11864789D01*
X11498719Y-12162798D01*
X11500113Y-12163559D01*
X11500296Y-12163546D01*
X11500958Y-12163121D01*
X11799094Y-11864985D01*
X11799702Y-11863871D01*
X20700172Y-11863871D01*
X20700174Y-11863914D01*
X20700710Y-11864789D01*
X20998719Y-12162798D01*
X21000113Y-12163559D01*
X21000297Y-12163546D01*
X21000958Y-12163121D01*
X21299094Y-11864985D01*
X21299835Y-11863628D01*
X21299161Y-11862662D01*
X21278053Y-11844571D01*
X21277604Y-11844220D01*
X21244697Y-11820834D01*
X21244215Y-11820523D01*
X21209324Y-11800217D01*
X21208818Y-11799952D01*
X21172230Y-11782890D01*
X21171700Y-11782672D01*
X21133717Y-11768997D01*
X21133171Y-11768828D01*
X21094104Y-11758652D01*
X21093545Y-11758533D01*
X21053715Y-11751940D01*
X21053149Y-11751872D01*
X21012885Y-11748915D01*
X21012315Y-11748899D01*
X20971949Y-11749604D01*
X20971380Y-11749640D01*
X20931246Y-11754000D01*
X20930679Y-11754088D01*
X20891106Y-11762067D01*
X20890551Y-11762205D01*
X20851863Y-11773739D01*
X20851322Y-11773927D01*
X20813840Y-11788919D01*
X20813319Y-11789155D01*
X20777348Y-11807483D01*
X20776851Y-11807765D01*
X20742690Y-11829278D01*
X20742220Y-11829604D01*
X20710149Y-11854124D01*
X20709711Y-11854492D01*
X20700991Y-11862511D01*
X20700172Y-11863871D01*
X11799702Y-11863871D01*
X11799835Y-11863628D01*
X11799161Y-11862662D01*
X11778053Y-11844571D01*
X11777604Y-11844220D01*
X11744697Y-11820834D01*
X11744215Y-11820523D01*
X11709324Y-11800217D01*
X11708818Y-11799952D01*
X11672230Y-11782890D01*
X11671700Y-11782672D01*
X11633717Y-11768997D01*
X11633171Y-11768828D01*
X11594104Y-11758652D01*
X11593545Y-11758533D01*
X11553715Y-11751940D01*
X11553149Y-11751872D01*
X11512885Y-11748915D01*
X11512315Y-11748899D01*
X11471949Y-11749604D01*
X11471380Y-11749640D01*
X11431246Y-11754000D01*
X11430679Y-11754088D01*
X11391106Y-11762067D01*
X11390551Y-11762205D01*
X11351863Y-11773739D01*
X11351322Y-11773927D01*
X11313840Y-11788919D01*
X11313319Y-11789155D01*
X11277347Y-11807483D01*
X11276851Y-11807765D01*
X11242690Y-11829278D01*
X11242220Y-11829604D01*
X11210149Y-11854124D01*
X11209711Y-11854492D01*
X11200991Y-11862511D01*
X11200172Y-11863871D01*
X11060826Y-11863871D01*
X11060896Y-10930170D01*
X11888725Y-10930170D01*
X11888755Y-10930685D01*
X11888755Y-10930685D01*
X11889819Y-10949148D01*
X11890011Y-10952472D01*
X11890125Y-10952976D01*
X11890125Y-10952977D01*
X11890822Y-10956070D01*
X11894922Y-10974264D01*
X11903327Y-10994962D01*
X11903596Y-10995402D01*
X11914710Y-11013538D01*
X11914999Y-11014009D01*
X11929625Y-11030894D01*
X11946813Y-11045163D01*
X11966100Y-11056434D01*
X11966582Y-11056618D01*
X11966583Y-11056618D01*
X11968839Y-11057480D01*
X11986969Y-11064403D01*
X11987476Y-11064506D01*
X11987476Y-11064506D01*
X11995109Y-11066059D01*
X12008860Y-11068857D01*
X12009377Y-11068876D01*
X12009377Y-11068876D01*
X12030667Y-11069656D01*
X12030668Y-11069656D01*
X12031184Y-11069675D01*
X12031696Y-11069610D01*
X12031696Y-11069610D01*
X12052829Y-11066903D01*
X12052829Y-11066903D01*
X12053342Y-11066837D01*
X12053837Y-11066688D01*
X12074243Y-11060566D01*
X12074243Y-11060566D01*
X12074738Y-11060417D01*
X12094799Y-11050590D01*
X12112986Y-11037617D01*
X12113484Y-11037121D01*
X12122631Y-11028006D01*
X12710199Y-11028006D01*
X12711240Y-11036797D01*
X12711274Y-11037119D01*
X12712083Y-11045928D01*
X12712240Y-11046484D01*
X12712306Y-11046841D01*
X12712525Y-11047942D01*
X12712602Y-11048303D01*
X12712670Y-11048877D01*
X12715294Y-11057328D01*
X12715385Y-11057637D01*
X12717788Y-11066155D01*
X12718043Y-11066674D01*
X12718176Y-11067019D01*
X12718590Y-11068057D01*
X12718730Y-11068395D01*
X12718902Y-11068947D01*
X12719171Y-11069459D01*
X12719171Y-11069459D01*
X12723020Y-11076775D01*
X12723169Y-11077068D01*
X12727083Y-11085004D01*
X12727429Y-11085467D01*
X12727625Y-11085787D01*
X12728217Y-11086726D01*
X12728418Y-11087035D01*
X12728687Y-11087546D01*
X12734166Y-11094496D01*
X12734363Y-11094753D01*
X12739312Y-11101380D01*
X12739312Y-11101381D01*
X12739657Y-11101843D01*
X12740081Y-11102234D01*
X12740081Y-11102235D01*
X12745697Y-11107426D01*
X12746054Y-11107769D01*
X13191116Y-11552831D01*
X13191679Y-11553433D01*
X13195949Y-11558302D01*
X13196402Y-11558659D01*
X13196403Y-11558659D01*
X13202896Y-11563778D01*
X13203152Y-11563986D01*
X13205255Y-11565734D01*
X13209954Y-11569643D01*
X13210458Y-11569925D01*
X13210761Y-11570133D01*
X13211685Y-11570751D01*
X13212000Y-11570955D01*
X13212454Y-11571313D01*
X13212964Y-11571582D01*
X13212965Y-11571582D01*
X13220282Y-11575431D01*
X13220571Y-11575588D01*
X13228290Y-11579911D01*
X13228838Y-11580097D01*
X13229178Y-11580249D01*
X13230199Y-11580687D01*
X13230542Y-11580829D01*
X13231053Y-11581098D01*
X13231604Y-11581269D01*
X13231604Y-11581269D01*
X13239500Y-11583721D01*
X13239813Y-11583823D01*
X13245128Y-11585627D01*
X13248191Y-11586667D01*
X13248762Y-11586750D01*
X13249114Y-11586834D01*
X13250215Y-11587083D01*
X13250572Y-11587159D01*
X13251123Y-11587330D01*
X13251696Y-11587398D01*
X13251697Y-11587398D01*
X13256526Y-11587970D01*
X13259912Y-11588371D01*
X13260234Y-11588413D01*
X13268990Y-11589682D01*
X13277205Y-11589360D01*
X13277700Y-11589350D01*
X15995719Y-11589350D01*
X15996544Y-11589377D01*
X16003006Y-11589801D01*
X16011797Y-11588760D01*
X16012119Y-11588726D01*
X16020928Y-11587917D01*
X16021484Y-11587760D01*
X16021841Y-11587694D01*
X16022941Y-11587475D01*
X16023303Y-11587398D01*
X16023876Y-11587330D01*
X16032328Y-11584706D01*
X16032637Y-11584615D01*
X16041155Y-11582212D01*
X16041674Y-11581956D01*
X16042019Y-11581824D01*
X16043057Y-11581410D01*
X16043395Y-11581270D01*
X16043947Y-11581098D01*
X16051775Y-11576980D01*
X16052068Y-11576830D01*
X16054586Y-11575589D01*
X16060004Y-11572917D01*
X16060467Y-11572571D01*
X16060787Y-11572375D01*
X16061726Y-11571783D01*
X16062035Y-11571582D01*
X16062546Y-11571313D01*
X16069496Y-11565834D01*
X16069753Y-11565637D01*
X16076380Y-11560688D01*
X16076381Y-11560688D01*
X16076843Y-11560343D01*
X16082426Y-11554303D01*
X16082769Y-11553946D01*
X16236715Y-11400000D01*
X18918650Y-11400000D01*
X18920646Y-11422809D01*
X18920788Y-11423340D01*
X18920788Y-11423340D01*
X18924503Y-11437202D01*
X18926572Y-11444924D01*
X18926804Y-11445422D01*
X18926804Y-11445422D01*
X18936015Y-11465176D01*
X18936015Y-11465177D01*
X18936248Y-11465675D01*
X18949380Y-11484430D01*
X18965570Y-11500620D01*
X18966021Y-11500935D01*
X18966021Y-11500936D01*
X18973839Y-11506410D01*
X18984325Y-11513752D01*
X18984823Y-11513985D01*
X18984824Y-11513985D01*
X19004477Y-11523149D01*
X19005076Y-11523428D01*
X19005607Y-11523571D01*
X19005607Y-11523571D01*
X19026660Y-11529212D01*
X19026660Y-11529212D01*
X19027191Y-11529354D01*
X19050000Y-11531350D01*
X19072809Y-11529354D01*
X19073340Y-11529212D01*
X19073340Y-11529212D01*
X19094393Y-11523571D01*
X19094394Y-11523571D01*
X19094924Y-11523428D01*
X19095524Y-11523149D01*
X19115176Y-11513985D01*
X19115177Y-11513985D01*
X19115675Y-11513752D01*
X19123024Y-11508606D01*
X19477849Y-11508606D01*
X19478779Y-11509808D01*
X19483899Y-11513393D01*
X19484849Y-11513941D01*
X19504595Y-11523149D01*
X19505624Y-11523524D01*
X19526669Y-11529162D01*
X19527748Y-11529353D01*
X19549453Y-11531252D01*
X19550548Y-11531252D01*
X19572252Y-11529353D01*
X19573331Y-11529162D01*
X19594376Y-11523524D01*
X19595405Y-11523149D01*
X19615151Y-11513941D01*
X19616101Y-11513393D01*
X19621305Y-11509749D01*
X19622142Y-11508701D01*
X19621436Y-11507357D01*
X19551281Y-11437202D01*
X19549887Y-11436441D01*
X19549704Y-11436454D01*
X19549042Y-11436879D01*
X19478492Y-11507429D01*
X19477849Y-11508606D01*
X19123024Y-11508606D01*
X19126161Y-11506410D01*
X19133979Y-11500936D01*
X19133979Y-11500935D01*
X19134430Y-11500620D01*
X19150620Y-11484430D01*
X19163752Y-11465675D01*
X19163985Y-11465177D01*
X19163985Y-11465176D01*
X19173196Y-11445422D01*
X19173196Y-11445422D01*
X19173428Y-11444924D01*
X19175498Y-11437202D01*
X19179212Y-11423340D01*
X19179212Y-11423340D01*
X19179354Y-11422809D01*
X19181302Y-11400547D01*
X19418748Y-11400547D01*
X19420647Y-11422252D01*
X19420838Y-11423331D01*
X19426476Y-11444376D01*
X19426851Y-11445405D01*
X19436059Y-11465151D01*
X19436607Y-11466101D01*
X19440251Y-11471305D01*
X19441299Y-11472142D01*
X19442643Y-11471436D01*
X19512798Y-11401281D01*
X19513436Y-11400113D01*
X19586441Y-11400113D01*
X19586454Y-11400296D01*
X19586879Y-11400958D01*
X19657429Y-11471508D01*
X19658606Y-11472151D01*
X19659808Y-11471221D01*
X19663393Y-11466101D01*
X19663941Y-11465151D01*
X19673149Y-11445405D01*
X19673524Y-11444376D01*
X19679163Y-11423331D01*
X19679353Y-11422252D01*
X19681252Y-11400547D01*
X19681252Y-11399452D01*
X19679353Y-11377748D01*
X19679163Y-11376669D01*
X19673524Y-11355624D01*
X19673149Y-11354595D01*
X19663941Y-11334849D01*
X19663393Y-11333899D01*
X19659749Y-11328695D01*
X19658701Y-11327858D01*
X19657357Y-11328564D01*
X19587202Y-11398719D01*
X19586441Y-11400113D01*
X19513436Y-11400113D01*
X19513559Y-11399887D01*
X19513546Y-11399703D01*
X19513121Y-11399042D01*
X19442571Y-11328492D01*
X19441394Y-11327849D01*
X19440192Y-11328779D01*
X19436607Y-11333899D01*
X19436059Y-11334849D01*
X19426851Y-11354595D01*
X19426476Y-11355624D01*
X19420838Y-11376669D01*
X19420647Y-11377748D01*
X19418748Y-11399452D01*
X19418748Y-11400547D01*
X19181302Y-11400547D01*
X19181350Y-11400000D01*
X19179354Y-11377191D01*
X19175698Y-11363546D01*
X19173571Y-11355607D01*
X19173571Y-11355606D01*
X19173428Y-11355076D01*
X19163997Y-11334849D01*
X19163985Y-11334824D01*
X19163985Y-11334823D01*
X19163752Y-11334325D01*
X19150620Y-11315570D01*
X19134430Y-11299380D01*
X19133979Y-11299064D01*
X19133979Y-11299064D01*
X19122889Y-11291299D01*
X19477858Y-11291299D01*
X19478564Y-11292643D01*
X19548719Y-11362798D01*
X19550113Y-11363559D01*
X19550297Y-11363546D01*
X19550958Y-11363121D01*
X19621508Y-11292571D01*
X19622151Y-11291394D01*
X19621221Y-11290192D01*
X19616101Y-11286607D01*
X19615151Y-11286059D01*
X19595405Y-11276851D01*
X19594376Y-11276476D01*
X19573331Y-11270837D01*
X19572252Y-11270647D01*
X19550548Y-11268748D01*
X19549453Y-11268748D01*
X19527748Y-11270647D01*
X19526669Y-11270837D01*
X19505624Y-11276476D01*
X19504595Y-11276851D01*
X19484849Y-11286059D01*
X19483899Y-11286607D01*
X19478695Y-11290251D01*
X19477858Y-11291299D01*
X19122889Y-11291299D01*
X19121392Y-11290251D01*
X19115675Y-11286248D01*
X19115177Y-11286015D01*
X19115176Y-11286015D01*
X19095423Y-11276804D01*
X19095422Y-11276804D01*
X19094924Y-11276572D01*
X19094394Y-11276429D01*
X19094393Y-11276429D01*
X19073340Y-11270788D01*
X19073340Y-11270788D01*
X19072809Y-11270646D01*
X19050000Y-11268650D01*
X19027191Y-11270646D01*
X19026660Y-11270788D01*
X19026660Y-11270788D01*
X19005607Y-11276429D01*
X19005607Y-11276429D01*
X19005076Y-11276572D01*
X19004578Y-11276804D01*
X19004578Y-11276804D01*
X18984824Y-11286015D01*
X18984823Y-11286015D01*
X18984325Y-11286248D01*
X18978608Y-11290251D01*
X18966021Y-11299064D01*
X18966021Y-11299064D01*
X18965570Y-11299380D01*
X18949380Y-11315570D01*
X18936248Y-11334325D01*
X18936015Y-11334823D01*
X18936015Y-11334824D01*
X18936003Y-11334849D01*
X18926572Y-11355076D01*
X18926429Y-11355606D01*
X18926429Y-11355607D01*
X18924302Y-11363546D01*
X18920646Y-11377191D01*
X18918650Y-11400000D01*
X16236715Y-11400000D01*
X16659628Y-10977088D01*
X16660282Y-10976301D01*
X16669273Y-10965491D01*
X16669643Y-10965046D01*
X16678336Y-10949524D01*
X16679629Y-10947214D01*
X16679629Y-10947214D01*
X16679911Y-10946710D01*
X16680097Y-10946163D01*
X16680097Y-10946162D01*
X16686481Y-10927356D01*
X16686481Y-10927355D01*
X16686667Y-10926809D01*
X16689682Y-10906010D01*
X16688913Y-10886431D01*
X16688880Y-10885588D01*
X16688880Y-10885588D01*
X16688857Y-10885010D01*
X16688730Y-10884447D01*
X16688730Y-10884447D01*
X16684347Y-10865076D01*
X16684347Y-10865075D01*
X16684219Y-10864513D01*
X16682908Y-10861462D01*
X16676151Y-10845734D01*
X16676151Y-10845734D01*
X16675923Y-10845203D01*
X16665299Y-10829302D01*
X16664568Y-10828209D01*
X16664247Y-10827729D01*
X16650966Y-10814095D01*
X16649986Y-10813089D01*
X16649583Y-10812675D01*
X16632420Y-10800546D01*
X16613334Y-10791747D01*
X16592965Y-10786574D01*
X16571994Y-10785199D01*
X16551123Y-10787670D01*
X16531053Y-10793902D01*
X16512454Y-10803687D01*
X16512001Y-10804044D01*
X16512000Y-10804045D01*
X16508684Y-10806659D01*
X16498960Y-10814325D01*
X15956325Y-11356959D01*
X15950094Y-11360362D01*
X15947416Y-11360650D01*
X13327584Y-11360650D01*
X13320772Y-11358650D01*
X13318675Y-11356959D01*
X12943040Y-10981325D01*
X12939638Y-10975094D01*
X12939350Y-10972416D01*
X12939350Y-7850965D01*
X12941350Y-7844152D01*
X12942263Y-7842908D01*
X12944273Y-7840490D01*
X12944273Y-7840490D01*
X12944642Y-7840046D01*
X12954911Y-7821710D01*
X12955097Y-7821163D01*
X12955097Y-7821162D01*
X12961481Y-7802356D01*
X12961481Y-7802355D01*
X12961667Y-7801809D01*
X12962801Y-7793990D01*
X12963175Y-7791410D01*
X12964682Y-7781010D01*
X12963857Y-7760010D01*
X12963730Y-7759447D01*
X12963730Y-7759447D01*
X12959347Y-7740075D01*
X12959347Y-7740075D01*
X12959219Y-7739512D01*
X12957826Y-7736270D01*
X12951151Y-7720734D01*
X12951151Y-7720734D01*
X12950923Y-7720203D01*
X12939247Y-7702729D01*
X12924583Y-7687675D01*
X12907420Y-7675546D01*
X12888334Y-7666747D01*
X12867965Y-7661574D01*
X12846994Y-7660199D01*
X12826123Y-7662670D01*
X12806053Y-7668902D01*
X12787454Y-7678687D01*
X12773959Y-7689325D01*
X12773697Y-7689587D01*
X12747169Y-7716116D01*
X12746567Y-7716680D01*
X12741698Y-7720949D01*
X12741341Y-7721403D01*
X12741340Y-7721403D01*
X12736220Y-7727898D01*
X12736012Y-7728155D01*
X12730727Y-7734510D01*
X12730726Y-7734510D01*
X12730357Y-7734954D01*
X12730075Y-7735457D01*
X12729869Y-7735758D01*
X12729249Y-7736685D01*
X12729045Y-7737000D01*
X12728687Y-7737454D01*
X12728418Y-7737964D01*
X12728418Y-7737965D01*
X12724569Y-7745282D01*
X12724412Y-7745571D01*
X12720088Y-7753290D01*
X12719903Y-7753838D01*
X12719751Y-7754178D01*
X12719313Y-7755199D01*
X12719170Y-7755542D01*
X12718902Y-7756053D01*
X12718731Y-7756604D01*
X12718730Y-7756604D01*
X12716279Y-7764500D01*
X12716177Y-7764813D01*
X12713333Y-7773191D01*
X12713250Y-7773762D01*
X12713166Y-7774114D01*
X12712917Y-7775215D01*
X12712841Y-7775572D01*
X12712670Y-7776123D01*
X12712602Y-7776696D01*
X12712602Y-7776697D01*
X12711630Y-7784910D01*
X12711587Y-7785234D01*
X12710317Y-7793990D01*
X12710340Y-7794566D01*
X12710640Y-7802205D01*
X12710650Y-7802700D01*
X12710650Y-11020720D01*
X12710623Y-11021544D01*
X12710199Y-11028006D01*
X12122631Y-11028006D01*
X12126093Y-11024556D01*
X12128810Y-11021849D01*
X12134759Y-11013569D01*
X12141543Y-11004128D01*
X12141845Y-11003708D01*
X12143953Y-10999443D01*
X12151514Y-10984145D01*
X12151514Y-10984145D01*
X12151743Y-10983681D01*
X12158237Y-10962307D01*
X12161153Y-10940159D01*
X12161235Y-10936784D01*
X12161307Y-10933837D01*
X12161307Y-10933836D01*
X12161316Y-10933500D01*
X12159485Y-10911236D01*
X12154043Y-10889570D01*
X12145135Y-10869084D01*
X12140489Y-10861902D01*
X12133282Y-10850762D01*
X12133282Y-10850761D01*
X12133001Y-10850328D01*
X12117967Y-10833805D01*
X12117562Y-10833485D01*
X12117561Y-10833485D01*
X12100841Y-10820280D01*
X12100841Y-10820280D01*
X12100436Y-10819960D01*
X12096305Y-10817680D01*
X12091308Y-10812636D01*
X12089831Y-10805692D01*
X12092343Y-10799052D01*
X12095078Y-10796391D01*
X12101788Y-10791605D01*
X12112986Y-10783617D01*
X12118876Y-10777748D01*
X12128443Y-10768214D01*
X12128810Y-10767849D01*
X12131892Y-10763559D01*
X12141543Y-10750128D01*
X12141845Y-10749708D01*
X12146341Y-10740611D01*
X12151514Y-10730145D01*
X12151514Y-10730145D01*
X12151743Y-10729681D01*
X12158237Y-10708307D01*
X12161153Y-10686159D01*
X12161316Y-10679500D01*
X12159485Y-10657236D01*
X12154043Y-10635570D01*
X12145135Y-10615084D01*
X12133001Y-10596328D01*
X12117967Y-10579805D01*
X12117562Y-10579485D01*
X12117561Y-10579485D01*
X12100841Y-10566280D01*
X12100841Y-10566280D01*
X12100436Y-10565960D01*
X12096257Y-10563653D01*
X12091260Y-10558610D01*
X12089783Y-10551665D01*
X12092294Y-10545025D01*
X12095029Y-10542364D01*
X12112533Y-10529879D01*
X12113320Y-10529214D01*
X12128405Y-10514181D01*
X12129073Y-10513397D01*
X12141500Y-10496102D01*
X12142031Y-10495218D01*
X12151467Y-10476127D01*
X12151847Y-10475167D01*
X12158038Y-10454791D01*
X12158255Y-10453784D01*
X12158399Y-10452696D01*
X12158177Y-10451278D01*
X12156862Y-10450900D01*
X11893322Y-10450900D01*
X11891969Y-10451297D01*
X11891826Y-10452297D01*
X11894856Y-10465745D01*
X11895164Y-10466728D01*
X11903177Y-10486460D01*
X11903641Y-10487379D01*
X11914769Y-10505539D01*
X11915378Y-10506370D01*
X11929321Y-10522467D01*
X11930058Y-10523188D01*
X11946443Y-10536792D01*
X11947288Y-10537383D01*
X11954197Y-10541420D01*
X11959069Y-10546584D01*
X11960376Y-10553563D01*
X11957703Y-10560140D01*
X11953658Y-10563475D01*
X11952361Y-10564151D01*
X11951947Y-10564461D01*
X11951947Y-10564461D01*
X11937835Y-10575057D01*
X11934496Y-10577564D01*
X11929707Y-10582576D01*
X11921327Y-10591344D01*
X11919063Y-10593714D01*
X11906474Y-10612168D01*
X11897069Y-10632431D01*
X11891099Y-10653957D01*
X11888725Y-10676170D01*
X11888755Y-10676685D01*
X11888755Y-10676685D01*
X11889840Y-10695501D01*
X11890011Y-10698472D01*
X11890125Y-10698976D01*
X11890125Y-10698977D01*
X11890516Y-10700712D01*
X11894922Y-10720264D01*
X11903327Y-10740962D01*
X11903596Y-10741402D01*
X11910989Y-10753466D01*
X11914999Y-10760009D01*
X11929625Y-10776894D01*
X11946813Y-10791163D01*
X11953859Y-10795281D01*
X11954144Y-10795448D01*
X11959017Y-10800611D01*
X11960324Y-10807590D01*
X11957651Y-10814167D01*
X11953605Y-10817503D01*
X11952361Y-10818151D01*
X11951947Y-10818461D01*
X11951947Y-10818461D01*
X11934910Y-10831253D01*
X11934496Y-10831564D01*
X11934139Y-10831937D01*
X11920957Y-10845732D01*
X11919063Y-10847714D01*
X11918771Y-10848141D01*
X11918771Y-10848141D01*
X11916629Y-10851281D01*
X11906474Y-10866168D01*
X11902772Y-10874145D01*
X11899818Y-10880509D01*
X11897069Y-10886431D01*
X11891099Y-10907957D01*
X11888725Y-10930170D01*
X11060896Y-10930170D01*
X11060954Y-10168170D01*
X11888725Y-10168170D01*
X11888755Y-10168685D01*
X11888755Y-10168685D01*
X11889670Y-10184554D01*
X11890011Y-10190472D01*
X11890125Y-10190976D01*
X11890125Y-10190977D01*
X11892339Y-10200802D01*
X11894922Y-10212264D01*
X11899361Y-10223196D01*
X11901784Y-10229163D01*
X11903327Y-10232962D01*
X11908402Y-10241244D01*
X11914401Y-10251034D01*
X11914999Y-10252009D01*
X11929625Y-10268894D01*
X11946813Y-10283163D01*
X11953645Y-10287156D01*
X11954195Y-10287477D01*
X11959068Y-10292641D01*
X11960375Y-10299620D01*
X11957702Y-10306197D01*
X11953656Y-10309533D01*
X11952846Y-10309955D01*
X11951974Y-10310504D01*
X11934943Y-10323291D01*
X11934173Y-10323975D01*
X11919459Y-10339372D01*
X11918810Y-10340173D01*
X11906810Y-10357765D01*
X11906300Y-10358662D01*
X11897334Y-10377978D01*
X11896977Y-10378947D01*
X11891439Y-10398918D01*
X11891591Y-10399761D01*
X11892829Y-10400100D01*
X12156834Y-10400100D01*
X12158187Y-10399703D01*
X12158318Y-10398795D01*
X12154121Y-10382088D01*
X12153789Y-10381112D01*
X12145297Y-10361581D01*
X12144810Y-10360674D01*
X12133243Y-10342793D01*
X12132614Y-10341976D01*
X12118281Y-10326224D01*
X12117527Y-10325522D01*
X12100814Y-10312322D01*
X12099956Y-10311752D01*
X12096260Y-10309712D01*
X12091263Y-10304669D01*
X12089786Y-10297725D01*
X12092297Y-10291084D01*
X12095033Y-10288423D01*
X12098833Y-10285713D01*
X12112986Y-10275617D01*
X12114084Y-10274523D01*
X12126208Y-10262442D01*
X12128810Y-10259849D01*
X12134759Y-10251569D01*
X12141543Y-10242128D01*
X12141845Y-10241708D01*
X12144420Y-10236498D01*
X12151514Y-10222145D01*
X12151514Y-10222145D01*
X12151743Y-10221681D01*
X12158237Y-10200307D01*
X12161153Y-10178159D01*
X12161259Y-10173828D01*
X12161307Y-10171837D01*
X12161307Y-10171836D01*
X12161316Y-10171500D01*
X12159485Y-10149236D01*
X12154043Y-10127570D01*
X12145135Y-10107084D01*
X12133001Y-10088328D01*
X12132653Y-10087945D01*
X12118280Y-10072149D01*
X12115175Y-10065764D01*
X12116014Y-10058714D01*
X12120532Y-10053238D01*
X12123176Y-10051871D01*
X12133830Y-10047877D01*
X12134670Y-10047562D01*
X12146326Y-10038826D01*
X12155061Y-10027171D01*
X12160174Y-10013532D01*
X12160850Y-10007313D01*
X12160850Y-9827687D01*
X12160174Y-9821468D01*
X12155061Y-9807830D01*
X12146326Y-9796174D01*
X12134670Y-9787439D01*
X12121032Y-9782326D01*
X12114813Y-9781650D01*
X11935187Y-9781650D01*
X11928968Y-9782326D01*
X11915329Y-9787439D01*
X11903674Y-9796174D01*
X11894938Y-9807830D01*
X11889825Y-9821468D01*
X11889150Y-9827687D01*
X11889150Y-10007313D01*
X11889825Y-10013532D01*
X11894938Y-10027171D01*
X11903674Y-10038826D01*
X11915329Y-10047562D01*
X11916170Y-10047877D01*
X11916170Y-10047877D01*
X11927045Y-10051954D01*
X11932722Y-10056218D01*
X11935192Y-10062874D01*
X11933671Y-10069809D01*
X11931732Y-10072457D01*
X11919063Y-10085714D01*
X11906474Y-10104168D01*
X11903708Y-10110128D01*
X11897579Y-10123331D01*
X11897069Y-10124431D01*
X11891099Y-10145957D01*
X11888725Y-10168170D01*
X11060954Y-10168170D01*
X11061023Y-9255170D01*
X11888725Y-9255170D01*
X11888755Y-9255685D01*
X11888755Y-9255685D01*
X11889567Y-9269778D01*
X11890011Y-9277472D01*
X11890125Y-9277976D01*
X11890125Y-9277977D01*
X11892112Y-9286794D01*
X11894922Y-9299264D01*
X11903327Y-9319962D01*
X11908088Y-9327731D01*
X11911074Y-9332605D01*
X11914999Y-9339009D01*
X11929625Y-9355894D01*
X11946813Y-9370163D01*
X11966100Y-9381434D01*
X11966582Y-9381618D01*
X11966583Y-9381618D01*
X11967727Y-9382055D01*
X11986969Y-9389403D01*
X11987476Y-9389506D01*
X11987476Y-9389506D01*
X11995732Y-9391186D01*
X12008860Y-9393857D01*
X12009377Y-9393876D01*
X12009377Y-9393876D01*
X12030667Y-9394656D01*
X12030668Y-9394656D01*
X12031184Y-9394675D01*
X12031696Y-9394610D01*
X12031696Y-9394610D01*
X12052829Y-9391903D01*
X12052829Y-9391903D01*
X12053342Y-9391837D01*
X12054859Y-9391382D01*
X12074243Y-9385566D01*
X12074243Y-9385566D01*
X12074738Y-9385417D01*
X12094799Y-9375590D01*
X12112986Y-9362617D01*
X12128810Y-9346849D01*
X12130501Y-9344495D01*
X12141543Y-9329128D01*
X12141845Y-9328708D01*
X12151443Y-9309287D01*
X12151514Y-9309145D01*
X12151514Y-9309145D01*
X12151743Y-9308681D01*
X12158237Y-9287307D01*
X12161153Y-9265159D01*
X12161316Y-9258500D01*
X12159485Y-9236236D01*
X12154043Y-9214570D01*
X12145135Y-9194084D01*
X12138237Y-9183421D01*
X12133282Y-9175762D01*
X12133282Y-9175761D01*
X12133001Y-9175328D01*
X12117967Y-9158805D01*
X12117562Y-9158485D01*
X12117561Y-9158485D01*
X12100841Y-9145280D01*
X12100841Y-9145280D01*
X12100436Y-9144960D01*
X12096305Y-9142680D01*
X12091308Y-9137636D01*
X12089831Y-9130692D01*
X12092343Y-9124052D01*
X12095078Y-9121391D01*
X12100849Y-9117275D01*
X12112986Y-9108617D01*
X12128810Y-9092849D01*
X12130710Y-9090204D01*
X12141543Y-9075128D01*
X12141845Y-9074708D01*
X12142327Y-9073733D01*
X12151514Y-9055145D01*
X12151514Y-9055145D01*
X12151743Y-9054681D01*
X12158237Y-9033307D01*
X12161153Y-9011159D01*
X12161271Y-9006327D01*
X12161307Y-9004837D01*
X12161307Y-9004836D01*
X12161316Y-9004500D01*
X12159485Y-8982236D01*
X12154043Y-8960570D01*
X12145135Y-8940084D01*
X12133001Y-8921328D01*
X12117967Y-8904805D01*
X12117562Y-8904485D01*
X12117561Y-8904485D01*
X12100841Y-8891280D01*
X12100841Y-8891280D01*
X12100436Y-8890960D01*
X12099728Y-8890569D01*
X12096257Y-8888653D01*
X12091260Y-8883610D01*
X12089783Y-8876665D01*
X12092294Y-8870025D01*
X12095029Y-8867364D01*
X12112533Y-8854879D01*
X12113320Y-8854214D01*
X12128405Y-8839181D01*
X12129073Y-8838397D01*
X12141500Y-8821102D01*
X12142031Y-8820218D01*
X12151467Y-8801127D01*
X12151847Y-8800167D01*
X12158038Y-8779791D01*
X12158255Y-8778784D01*
X12158399Y-8777696D01*
X12158177Y-8776278D01*
X12156862Y-8775900D01*
X11893322Y-8775900D01*
X11891969Y-8776297D01*
X11891826Y-8777297D01*
X11894856Y-8790745D01*
X11895164Y-8791728D01*
X11903177Y-8811460D01*
X11903641Y-8812379D01*
X11914769Y-8830539D01*
X11915378Y-8831370D01*
X11929321Y-8847467D01*
X11930058Y-8848188D01*
X11946443Y-8861792D01*
X11947288Y-8862383D01*
X11954197Y-8866420D01*
X11959069Y-8871584D01*
X11960376Y-8878563D01*
X11957703Y-8885140D01*
X11953658Y-8888475D01*
X11952361Y-8889151D01*
X11951947Y-8889461D01*
X11951947Y-8889461D01*
X11945897Y-8894004D01*
X11934496Y-8902564D01*
X11919063Y-8918714D01*
X11906474Y-8937168D01*
X11897069Y-8957431D01*
X11891099Y-8978957D01*
X11888725Y-9001170D01*
X11888755Y-9001685D01*
X11888755Y-9001685D01*
X11889833Y-9020378D01*
X11890011Y-9023472D01*
X11890125Y-9023976D01*
X11890125Y-9023977D01*
X11891273Y-9029071D01*
X11894922Y-9045264D01*
X11903327Y-9065962D01*
X11906803Y-9071635D01*
X11912986Y-9081725D01*
X11914999Y-9085009D01*
X11929625Y-9101894D01*
X11946813Y-9116163D01*
X11950448Y-9118288D01*
X11954144Y-9120448D01*
X11959017Y-9125611D01*
X11960324Y-9132590D01*
X11957651Y-9139167D01*
X11953605Y-9142503D01*
X11952361Y-9143151D01*
X11951947Y-9143461D01*
X11951947Y-9143461D01*
X11934910Y-9156253D01*
X11934496Y-9156564D01*
X11932660Y-9158485D01*
X11920830Y-9170865D01*
X11919063Y-9172714D01*
X11918771Y-9173141D01*
X11918771Y-9173141D01*
X11914590Y-9179271D01*
X11906474Y-9191168D01*
X11905076Y-9194181D01*
X11897331Y-9210866D01*
X11897069Y-9211431D01*
X11891099Y-9232957D01*
X11888725Y-9255170D01*
X11061023Y-9255170D01*
X11061081Y-8493170D01*
X11888725Y-8493170D01*
X11888755Y-8493685D01*
X11888755Y-8493685D01*
X11889360Y-8504185D01*
X11890011Y-8515472D01*
X11890125Y-8515976D01*
X11890125Y-8515977D01*
X11890695Y-8518508D01*
X11894922Y-8537264D01*
X11903327Y-8557962D01*
X11903596Y-8558402D01*
X11911992Y-8572102D01*
X11914999Y-8577009D01*
X11929625Y-8593894D01*
X11946813Y-8608163D01*
X11952655Y-8611578D01*
X11954195Y-8612477D01*
X11959068Y-8617641D01*
X11960375Y-8624620D01*
X11957702Y-8631197D01*
X11953656Y-8634533D01*
X11952846Y-8634955D01*
X11951974Y-8635504D01*
X11934943Y-8648291D01*
X11934173Y-8648975D01*
X11919459Y-8664372D01*
X11918810Y-8665173D01*
X11906810Y-8682765D01*
X11906300Y-8683662D01*
X11897334Y-8702978D01*
X11896977Y-8703947D01*
X11891439Y-8723918D01*
X11891591Y-8724761D01*
X11892829Y-8725100D01*
X12156834Y-8725100D01*
X12158187Y-8724703D01*
X12158318Y-8723795D01*
X12154121Y-8707088D01*
X12153789Y-8706112D01*
X12145297Y-8686581D01*
X12144810Y-8685674D01*
X12133243Y-8667793D01*
X12132614Y-8666976D01*
X12118281Y-8651224D01*
X12117527Y-8650522D01*
X12100814Y-8637322D01*
X12099956Y-8636752D01*
X12096260Y-8634712D01*
X12091263Y-8629669D01*
X12089786Y-8622725D01*
X12092297Y-8616084D01*
X12095033Y-8613423D01*
X12097620Y-8611578D01*
X12112986Y-8600617D01*
X12115145Y-8598466D01*
X12128443Y-8585214D01*
X12128810Y-8584849D01*
X12134759Y-8576569D01*
X12141543Y-8567128D01*
X12141845Y-8566708D01*
X12145412Y-8559492D01*
X12151514Y-8547145D01*
X12151514Y-8547145D01*
X12151743Y-8546681D01*
X12158237Y-8525307D01*
X12161153Y-8503159D01*
X12161316Y-8496500D01*
X12159485Y-8474236D01*
X12154043Y-8452570D01*
X12145135Y-8432084D01*
X12137078Y-8419630D01*
X12133282Y-8413762D01*
X12133282Y-8413761D01*
X12133001Y-8413328D01*
X12132653Y-8412945D01*
X12118280Y-8397149D01*
X12115175Y-8390764D01*
X12116014Y-8383714D01*
X12120532Y-8378237D01*
X12123176Y-8376871D01*
X12133830Y-8372877D01*
X12134670Y-8372561D01*
X12146326Y-8363826D01*
X12155061Y-8352170D01*
X12160174Y-8338532D01*
X12160850Y-8332313D01*
X12160850Y-8152687D01*
X12160174Y-8146468D01*
X12155061Y-8132829D01*
X12146326Y-8121174D01*
X12134670Y-8112438D01*
X12121032Y-8107325D01*
X12114813Y-8106650D01*
X11935187Y-8106650D01*
X11928968Y-8107325D01*
X11915329Y-8112438D01*
X11903674Y-8121174D01*
X11894938Y-8132829D01*
X11889825Y-8146468D01*
X11889150Y-8152687D01*
X11889150Y-8332313D01*
X11889825Y-8338532D01*
X11894938Y-8352170D01*
X11903674Y-8363826D01*
X11915329Y-8372561D01*
X11916170Y-8372877D01*
X11916170Y-8372877D01*
X11927045Y-8376953D01*
X11932722Y-8381218D01*
X11935192Y-8387874D01*
X11933671Y-8394809D01*
X11931732Y-8397457D01*
X11919063Y-8410714D01*
X11918771Y-8411141D01*
X11918771Y-8411141D01*
X11913155Y-8419374D01*
X11906474Y-8429168D01*
X11904900Y-8432559D01*
X11897775Y-8447910D01*
X11897069Y-8449431D01*
X11891099Y-8470957D01*
X11891044Y-8471471D01*
X11890946Y-8472391D01*
X11888725Y-8493170D01*
X11061081Y-8493170D01*
X11061147Y-7619491D01*
X11541984Y-7619491D01*
X11542855Y-7620643D01*
X11553545Y-7628481D01*
X11554335Y-7628974D01*
X11577290Y-7641052D01*
X11578145Y-7641424D01*
X11602633Y-7649975D01*
X11603534Y-7650216D01*
X11629017Y-7655054D01*
X11629942Y-7655160D01*
X11655861Y-7656178D01*
X11656792Y-7656146D01*
X11682575Y-7653322D01*
X11683493Y-7653152D01*
X11708576Y-7646548D01*
X11709457Y-7646244D01*
X11733288Y-7636006D01*
X11734117Y-7635575D01*
X11756172Y-7621927D01*
X11756927Y-7621378D01*
X11757456Y-7620930D01*
X11758300Y-7619650D01*
X11757693Y-7618614D01*
X11651281Y-7512202D01*
X11649887Y-7511441D01*
X11649703Y-7511454D01*
X11649042Y-7511879D01*
X11542650Y-7618271D01*
X11541984Y-7619491D01*
X11061147Y-7619491D01*
X11061158Y-7470721D01*
X11468777Y-7470721D01*
X11470022Y-7496629D01*
X11470136Y-7497554D01*
X11475196Y-7522994D01*
X11475445Y-7523892D01*
X11484209Y-7548303D01*
X11484589Y-7549157D01*
X11496866Y-7572004D01*
X11497367Y-7572790D01*
X11504372Y-7582172D01*
X11505498Y-7583016D01*
X11506740Y-7582339D01*
X11612798Y-7476281D01*
X11613436Y-7475113D01*
X11686441Y-7475113D01*
X11686454Y-7475296D01*
X11686879Y-7475958D01*
X11793609Y-7582688D01*
X11794847Y-7583364D01*
X11795681Y-7582740D01*
X11809083Y-7561905D01*
X11809527Y-7561086D01*
X11820181Y-7537437D01*
X11820500Y-7536560D01*
X11827540Y-7511597D01*
X11827726Y-7510683D01*
X11831019Y-7484802D01*
X11831067Y-7484173D01*
X11831299Y-7475316D01*
X11831284Y-7474685D01*
X11829350Y-7448666D01*
X11829212Y-7447746D01*
X11823488Y-7422447D01*
X11823215Y-7421556D01*
X11813814Y-7397381D01*
X11813413Y-7396540D01*
X11800542Y-7374020D01*
X11800021Y-7373248D01*
X11795700Y-7367766D01*
X11794507Y-7366919D01*
X11793354Y-7367567D01*
X11687202Y-7473719D01*
X11686441Y-7475113D01*
X11613436Y-7475113D01*
X11613559Y-7474887D01*
X11613546Y-7474703D01*
X11613121Y-7474042D01*
X11506582Y-7367503D01*
X11505251Y-7366776D01*
X11504247Y-7367488D01*
X11502694Y-7369356D01*
X11502153Y-7370113D01*
X11488696Y-7392289D01*
X11488274Y-7393119D01*
X11478243Y-7417039D01*
X11477947Y-7417924D01*
X11471563Y-7443062D01*
X11471401Y-7443982D01*
X11468802Y-7469788D01*
X11468777Y-7470721D01*
X11061158Y-7470721D01*
X11061169Y-7330269D01*
X11541710Y-7330269D01*
X11542167Y-7331246D01*
X11648719Y-7437798D01*
X11650113Y-7438559D01*
X11650296Y-7438546D01*
X11650958Y-7438121D01*
X11757435Y-7331644D01*
X11758073Y-7330475D01*
X11757132Y-7329264D01*
X11742404Y-7319047D01*
X11741601Y-7318574D01*
X11718338Y-7307102D01*
X11717474Y-7306753D01*
X11692770Y-7298845D01*
X11691864Y-7298627D01*
X11666263Y-7294458D01*
X11665334Y-7294377D01*
X11639399Y-7294037D01*
X11638468Y-7294094D01*
X11612768Y-7297592D01*
X11611855Y-7297786D01*
X11586954Y-7305044D01*
X11586080Y-7305371D01*
X11562525Y-7316230D01*
X11561710Y-7316682D01*
X11542624Y-7329195D01*
X11541710Y-7330269D01*
X11061169Y-7330269D01*
X11061185Y-7109813D01*
X11469150Y-7109813D01*
X11469825Y-7116032D01*
X11474938Y-7129670D01*
X11483674Y-7141326D01*
X11495329Y-7150061D01*
X11508968Y-7155174D01*
X11515187Y-7155850D01*
X11784813Y-7155850D01*
X11791032Y-7155174D01*
X11804670Y-7150061D01*
X11816326Y-7141326D01*
X11825061Y-7129670D01*
X11830174Y-7116032D01*
X11830850Y-7109813D01*
X11830850Y-6840187D01*
X11830174Y-6833968D01*
X11825061Y-6820329D01*
X11816326Y-6808674D01*
X11804670Y-6799938D01*
X11791032Y-6794825D01*
X11784813Y-6794150D01*
X11515187Y-6794150D01*
X11508968Y-6794825D01*
X11495329Y-6799938D01*
X11483674Y-6808674D01*
X11474938Y-6820329D01*
X11469825Y-6833968D01*
X11469150Y-6840187D01*
X11469150Y-7109813D01*
X11061185Y-7109813D01*
X11061228Y-6544935D01*
X12433206Y-6544935D01*
X12434522Y-6575700D01*
X12434590Y-6576095D01*
X12434590Y-6576095D01*
X12435969Y-6584119D01*
X12436151Y-6586242D01*
X12436157Y-6592706D01*
X12436157Y-6592707D01*
X12436157Y-6593107D01*
X12436653Y-6596950D01*
X12437078Y-6600242D01*
X12437155Y-6601051D01*
X12437613Y-6608230D01*
X12437689Y-6608624D01*
X12437690Y-6608624D01*
X12439022Y-6615510D01*
X12439148Y-6616292D01*
X12439762Y-6621050D01*
X12440096Y-6623647D01*
X12440198Y-6624034D01*
X12440198Y-6624034D01*
X12441916Y-6630606D01*
X12442096Y-6631400D01*
X12443462Y-6638462D01*
X12443691Y-6639155D01*
X12445785Y-6645504D01*
X12446009Y-6646264D01*
X12447884Y-6653438D01*
X12450574Y-6660112D01*
X12450853Y-6660874D01*
X12453106Y-6667706D01*
X12454512Y-6670647D01*
X12456304Y-6674396D01*
X12456623Y-6675121D01*
X12457207Y-6676572D01*
X12459395Y-6681999D01*
X12459590Y-6682348D01*
X12459590Y-6682348D01*
X12462910Y-6688276D01*
X12463284Y-6688998D01*
X12465027Y-6692643D01*
X12466386Y-6695487D01*
X12466604Y-6695824D01*
X12466604Y-6695825D01*
X12470410Y-6701718D01*
X12470818Y-6702396D01*
X12472665Y-6705694D01*
X12474441Y-6708865D01*
X12474679Y-6709187D01*
X12478725Y-6714644D01*
X12479188Y-6715313D01*
X12480446Y-6717262D01*
X12483090Y-6721356D01*
X12487871Y-6727024D01*
X12488361Y-6727643D01*
X12489203Y-6728779D01*
X12492778Y-6733602D01*
X12498457Y-6739777D01*
X12499182Y-6740502D01*
X12499903Y-6741287D01*
X12502486Y-6744349D01*
X12502944Y-6744893D01*
X12503241Y-6745164D01*
X12503241Y-6745165D01*
X12510397Y-6751734D01*
X12510786Y-6752107D01*
X12830888Y-7072209D01*
X12831022Y-7072352D01*
X12831088Y-7072436D01*
X12831311Y-7072659D01*
X12843428Y-7084755D01*
X12843539Y-7084873D01*
X12843588Y-7084936D01*
X12843759Y-7085107D01*
X12859516Y-7100837D01*
X12859516Y-7100837D01*
X12859524Y-7100844D01*
X13454959Y-7696280D01*
X13458362Y-7702511D01*
X13458650Y-7705189D01*
X13458650Y-9038980D01*
X13456650Y-9045792D01*
X13451284Y-9050441D01*
X13444257Y-9051452D01*
X13437799Y-9048502D01*
X13434925Y-9044895D01*
X13434696Y-9044465D01*
X13434407Y-9043920D01*
X13425750Y-9033307D01*
X13422296Y-9029071D01*
X13422296Y-9029071D01*
X13421906Y-9028594D01*
X13421272Y-9028069D01*
X13407142Y-9016380D01*
X13407142Y-9016380D01*
X13406667Y-9015987D01*
X13389270Y-9006580D01*
X13370377Y-9000732D01*
X13369764Y-9000667D01*
X13369764Y-9000667D01*
X13351320Y-8998729D01*
X13351320Y-8998729D01*
X13350707Y-8998665D01*
X13342458Y-8999415D01*
X13331625Y-9000401D01*
X13331625Y-9000401D01*
X13331011Y-9000457D01*
X13330421Y-9000631D01*
X13330420Y-9000631D01*
X13321920Y-9003133D01*
X13312038Y-9006041D01*
X13311492Y-9006326D01*
X13311492Y-9006327D01*
X13302889Y-9010824D01*
X13294511Y-9015204D01*
X13279097Y-9027597D01*
X13266385Y-9042747D01*
X13266088Y-9043287D01*
X13266087Y-9043288D01*
X13261599Y-9051452D01*
X13256857Y-9060079D01*
X13256671Y-9060665D01*
X13256670Y-9060666D01*
X13251996Y-9075401D01*
X13250876Y-9078931D01*
X13248672Y-9098585D01*
X13248723Y-9099200D01*
X13250241Y-9117275D01*
X13250327Y-9118293D01*
X13252014Y-9124177D01*
X13255340Y-9135776D01*
X13255778Y-9137305D01*
X13256060Y-9137854D01*
X13264323Y-9153931D01*
X13264819Y-9154896D01*
X13277103Y-9170395D01*
X13277573Y-9170795D01*
X13277573Y-9170795D01*
X13279716Y-9172619D01*
X13283608Y-9178557D01*
X13284150Y-9182214D01*
X13284150Y-10241794D01*
X13284094Y-10242980D01*
X13283921Y-10243754D01*
X13283946Y-10244546D01*
X13284144Y-10250837D01*
X13284150Y-10251233D01*
X13284150Y-10254143D01*
X13284206Y-10254583D01*
X13284299Y-10255766D01*
X13284444Y-10260383D01*
X13284955Y-10262144D01*
X13285042Y-10262442D01*
X13285443Y-10264378D01*
X13285712Y-10266506D01*
X13286003Y-10267243D01*
X13286003Y-10267243D01*
X13287413Y-10270802D01*
X13287796Y-10271923D01*
X13289085Y-10276360D01*
X13290177Y-10278207D01*
X13291047Y-10279981D01*
X13291836Y-10281976D01*
X13292889Y-10283424D01*
X13294552Y-10285713D01*
X13295203Y-10286705D01*
X13297151Y-10289998D01*
X13297151Y-10289998D01*
X13297555Y-10290681D01*
X13299071Y-10292197D01*
X13300355Y-10293700D01*
X13301616Y-10295436D01*
X13304383Y-10297725D01*
X13305175Y-10298380D01*
X13306053Y-10299179D01*
X13445068Y-10438195D01*
X13448471Y-10444426D01*
X13448621Y-10447355D01*
X13448749Y-10447356D01*
X13448741Y-10447973D01*
X13448672Y-10448585D01*
X13448723Y-10449200D01*
X13450113Y-10465745D01*
X13450327Y-10468293D01*
X13450497Y-10468886D01*
X13455536Y-10486460D01*
X13455778Y-10487305D01*
X13464819Y-10504896D01*
X13477103Y-10520395D01*
X13477573Y-10520795D01*
X13477573Y-10520795D01*
X13490665Y-10531937D01*
X13492165Y-10533214D01*
X13509429Y-10542862D01*
X13528239Y-10548974D01*
X13547878Y-10551316D01*
X13548491Y-10551269D01*
X13548491Y-10551269D01*
X13566983Y-10549846D01*
X13566983Y-10549846D01*
X13567597Y-10549798D01*
X13586646Y-10544480D01*
X13587197Y-10544202D01*
X13587197Y-10544202D01*
X13603749Y-10535840D01*
X13603750Y-10535840D01*
X13604300Y-10535563D01*
X13619885Y-10523386D01*
X13631600Y-10509814D01*
X13632405Y-10508881D01*
X13632405Y-10508881D01*
X13632808Y-10508415D01*
X13642577Y-10491218D01*
X13648820Y-10472451D01*
X13651298Y-10452830D01*
X13651338Y-10450000D01*
X13651304Y-10449650D01*
X13651304Y-10449649D01*
X13651256Y-10449165D01*
X13652582Y-10442191D01*
X13657468Y-10437040D01*
X13664363Y-10435348D01*
X13671078Y-10437653D01*
X13672705Y-10439026D01*
X14243388Y-11009708D01*
X14243522Y-11009852D01*
X14243588Y-11009936D01*
X14243812Y-11010160D01*
X14259573Y-11025894D01*
X14259573Y-11025894D01*
X14259581Y-11025901D01*
X14259848Y-11026168D01*
X14259777Y-11026239D01*
X14259780Y-11026244D01*
X14259852Y-11026172D01*
X14265381Y-11031691D01*
X14271078Y-11036087D01*
X14271701Y-11036600D01*
X14277104Y-11041355D01*
X14282739Y-11045163D01*
X14283248Y-11045507D01*
X14283889Y-11045970D01*
X14289442Y-11050255D01*
X14289443Y-11050255D01*
X14289761Y-11050500D01*
X14290107Y-11050703D01*
X14290107Y-11050703D01*
X14295968Y-11054135D01*
X14296657Y-11054568D01*
X14302617Y-11058596D01*
X14302975Y-11058777D01*
X14302976Y-11058777D01*
X14309239Y-11061934D01*
X14309934Y-11062312D01*
X14315986Y-11065856D01*
X14315987Y-11065857D01*
X14316334Y-11066059D01*
X14322956Y-11068877D01*
X14323691Y-11069218D01*
X14329755Y-11072275D01*
X14329756Y-11072275D01*
X14330114Y-11072456D01*
X14330493Y-11072590D01*
X14330493Y-11072590D01*
X14337105Y-11074925D01*
X14337843Y-11075211D01*
X14344668Y-11078116D01*
X14345054Y-11078224D01*
X14345054Y-11078224D01*
X14351591Y-11080068D01*
X14352366Y-11080314D01*
X14358771Y-11082576D01*
X14358772Y-11082576D01*
X14359150Y-11082709D01*
X14366401Y-11084271D01*
X14367167Y-11084461D01*
X14374304Y-11086474D01*
X14374702Y-11086533D01*
X14374703Y-11086533D01*
X14378438Y-11087088D01*
X14381421Y-11087531D01*
X14382218Y-11087676D01*
X14389253Y-11089190D01*
X14395013Y-11089679D01*
X14396643Y-11089818D01*
X14397429Y-11089909D01*
X14404433Y-11090950D01*
X14404433Y-11090950D01*
X14404763Y-11090999D01*
X14405096Y-11091013D01*
X14405096Y-11091013D01*
X14408763Y-11091166D01*
X14413144Y-11091350D01*
X14414170Y-11091350D01*
X14415235Y-11091395D01*
X14419935Y-11091794D01*
X14420335Y-11091777D01*
X14420335Y-11091777D01*
X14430040Y-11091362D01*
X14430579Y-11091350D01*
X15171022Y-11091350D01*
X15183482Y-11090555D01*
X15193562Y-11089912D01*
X15193562Y-11089912D01*
X15193962Y-11089887D01*
X15194356Y-11089810D01*
X15223801Y-11084114D01*
X15223801Y-11084114D01*
X15224194Y-11084038D01*
X15238091Y-11079455D01*
X15253056Y-11074520D01*
X15253057Y-11074520D01*
X15253438Y-11074394D01*
X15281220Y-11061114D01*
X15281556Y-11060896D01*
X15281556Y-11060896D01*
X15306751Y-11044628D01*
X15306752Y-11044628D01*
X15307088Y-11044410D01*
X15326534Y-11028006D01*
X15330317Y-11024815D01*
X15330318Y-11024815D01*
X15330625Y-11024556D01*
X15333390Y-11021544D01*
X15351176Y-11002167D01*
X15351177Y-11002167D01*
X15351448Y-11001871D01*
X15369220Y-10976724D01*
X15371054Y-10973267D01*
X15576448Y-10973267D01*
X15577021Y-10974032D01*
X15594136Y-10984521D01*
X15595016Y-10984969D01*
X15616031Y-10993673D01*
X15616970Y-10993978D01*
X15639088Y-10999289D01*
X15640062Y-10999443D01*
X15662739Y-11001228D01*
X15663725Y-11001228D01*
X15686402Y-10999443D01*
X15687377Y-10999289D01*
X15709495Y-10993978D01*
X15710433Y-10993673D01*
X15731449Y-10984969D01*
X15732328Y-10984521D01*
X15749077Y-10974257D01*
X15750023Y-10973211D01*
X15749645Y-10972333D01*
X15664513Y-10887202D01*
X15663119Y-10886441D01*
X15662936Y-10886454D01*
X15662274Y-10886879D01*
X15577124Y-10972029D01*
X15576448Y-10973267D01*
X15371054Y-10973267D01*
X15383652Y-10949524D01*
X15394512Y-10920709D01*
X15397416Y-10908471D01*
X15401529Y-10891140D01*
X15401529Y-10891140D01*
X15401622Y-10890749D01*
X15404867Y-10860128D01*
X15404663Y-10850762D01*
X15404657Y-10850493D01*
X15512005Y-10850493D01*
X15513789Y-10873170D01*
X15513944Y-10874145D01*
X15519254Y-10896263D01*
X15519559Y-10897201D01*
X15528264Y-10918216D01*
X15528712Y-10919096D01*
X15538975Y-10935845D01*
X15540021Y-10936791D01*
X15540899Y-10936412D01*
X15626030Y-10851281D01*
X15626668Y-10850113D01*
X15699673Y-10850113D01*
X15699686Y-10850297D01*
X15700111Y-10850958D01*
X15785261Y-10936108D01*
X15786499Y-10936784D01*
X15787264Y-10936211D01*
X15797753Y-10919096D01*
X15798201Y-10918216D01*
X15806906Y-10897201D01*
X15807211Y-10896263D01*
X15812521Y-10874145D01*
X15812675Y-10873170D01*
X15814460Y-10850493D01*
X15814460Y-10849507D01*
X15812675Y-10826830D01*
X15812521Y-10825855D01*
X15807211Y-10803737D01*
X15806906Y-10802799D01*
X15798201Y-10781784D01*
X15797753Y-10780904D01*
X15787489Y-10764156D01*
X15786443Y-10763209D01*
X15785566Y-10763588D01*
X15700434Y-10848719D01*
X15699673Y-10850113D01*
X15626668Y-10850113D01*
X15626791Y-10849887D01*
X15626778Y-10849704D01*
X15626353Y-10849042D01*
X15541203Y-10763892D01*
X15539965Y-10763216D01*
X15539200Y-10763789D01*
X15528712Y-10780904D01*
X15528264Y-10781784D01*
X15519559Y-10802799D01*
X15519254Y-10803737D01*
X15513944Y-10825855D01*
X15513789Y-10826830D01*
X15512005Y-10849507D01*
X15512005Y-10850493D01*
X15404657Y-10850493D01*
X15404204Y-10829744D01*
X15404204Y-10829743D01*
X15404195Y-10829342D01*
X15399617Y-10798892D01*
X15399133Y-10797185D01*
X15393456Y-10777191D01*
X15391207Y-10769270D01*
X15390756Y-10768214D01*
X15385778Y-10756572D01*
X15379101Y-10740957D01*
X15370773Y-10726789D01*
X15576442Y-10726789D01*
X15576820Y-10727667D01*
X15661951Y-10812798D01*
X15663345Y-10813559D01*
X15663529Y-10813546D01*
X15664190Y-10813121D01*
X15749340Y-10727971D01*
X15750016Y-10726733D01*
X15749444Y-10725968D01*
X15732328Y-10715480D01*
X15731449Y-10715031D01*
X15710433Y-10706327D01*
X15709495Y-10706022D01*
X15687377Y-10700712D01*
X15686402Y-10700557D01*
X15663725Y-10698773D01*
X15662739Y-10698773D01*
X15640062Y-10700557D01*
X15639088Y-10700712D01*
X15616970Y-10706022D01*
X15616031Y-10706327D01*
X15595016Y-10715031D01*
X15594136Y-10715480D01*
X15577388Y-10725743D01*
X15576442Y-10726789D01*
X15370773Y-10726789D01*
X15363496Y-10714411D01*
X15344644Y-10690064D01*
X15330726Y-10676170D01*
X15323136Y-10668593D01*
X15322852Y-10668309D01*
X15321667Y-10667396D01*
X15298791Y-10649746D01*
X15298790Y-10649746D01*
X15298471Y-10649500D01*
X15288485Y-10643653D01*
X15272245Y-10634144D01*
X15272245Y-10634144D01*
X15271899Y-10633941D01*
X15271530Y-10633784D01*
X15271530Y-10633784D01*
X15243934Y-10622042D01*
X15243564Y-10621885D01*
X15230872Y-10618305D01*
X15214315Y-10613635D01*
X15214314Y-10613635D01*
X15213928Y-10613526D01*
X15200246Y-10611494D01*
X15183799Y-10609050D01*
X15183799Y-10609050D01*
X15183469Y-10609001D01*
X15183136Y-10608987D01*
X15183136Y-10608987D01*
X15179469Y-10608834D01*
X15175088Y-10608650D01*
X14530189Y-10608650D01*
X14523377Y-10606650D01*
X14521280Y-10604960D01*
X14166320Y-10250000D01*
X14408650Y-10250000D01*
X14408719Y-10250657D01*
X14410302Y-10265720D01*
X14410646Y-10268993D01*
X14416547Y-10287156D01*
X14416878Y-10287728D01*
X14416878Y-10287728D01*
X14418188Y-10289998D01*
X14426096Y-10303694D01*
X14426538Y-10304185D01*
X14426538Y-10304185D01*
X14431733Y-10309955D01*
X14438875Y-10317887D01*
X14446312Y-10323291D01*
X14450000Y-10325970D01*
X14454325Y-10329112D01*
X14454928Y-10329380D01*
X14454928Y-10329380D01*
X14455125Y-10329468D01*
X14471771Y-10336879D01*
X14481111Y-10338865D01*
X14489806Y-10340713D01*
X14489806Y-10340713D01*
X14490451Y-10340850D01*
X14509549Y-10340850D01*
X14510194Y-10340713D01*
X14510194Y-10340713D01*
X14518889Y-10338865D01*
X14528229Y-10336879D01*
X14544875Y-10329468D01*
X14551912Y-10328525D01*
X14555125Y-10329468D01*
X14571771Y-10336879D01*
X14581111Y-10338865D01*
X14589806Y-10340713D01*
X14589806Y-10340713D01*
X14590451Y-10340850D01*
X14609549Y-10340850D01*
X14610194Y-10340713D01*
X14610194Y-10340713D01*
X14618889Y-10338865D01*
X14628229Y-10336879D01*
X14644875Y-10329468D01*
X14645072Y-10329380D01*
X14645072Y-10329380D01*
X14645675Y-10329112D01*
X14650000Y-10325970D01*
X14653687Y-10323291D01*
X14661125Y-10317887D01*
X14668267Y-10309955D01*
X14673462Y-10304185D01*
X14673462Y-10304185D01*
X14673904Y-10303694D01*
X14681812Y-10289998D01*
X14683122Y-10287728D01*
X14683122Y-10287728D01*
X14683453Y-10287156D01*
X14689354Y-10268993D01*
X14689698Y-10265720D01*
X14691281Y-10250657D01*
X14691350Y-10250000D01*
X14690649Y-10243325D01*
X14689423Y-10231664D01*
X14689423Y-10231663D01*
X14689354Y-10231007D01*
X14683453Y-10212844D01*
X14683118Y-10212264D01*
X14676395Y-10200620D01*
X14673904Y-10196306D01*
X14669086Y-10190955D01*
X14666015Y-10184554D01*
X14665850Y-10182524D01*
X14665850Y-9924135D01*
X14667850Y-9917323D01*
X14673216Y-9912673D01*
X14680243Y-9911663D01*
X14686701Y-9914612D01*
X14689443Y-9917978D01*
X14696941Y-9931365D01*
X14715278Y-9956102D01*
X14720957Y-9962277D01*
X14721052Y-9962373D01*
X15268389Y-10509709D01*
X15268523Y-10509852D01*
X15268588Y-10509936D01*
X15268810Y-10510158D01*
X15284516Y-10525836D01*
X15284515Y-10525836D01*
X15284523Y-10525844D01*
X15284848Y-10526168D01*
X15284763Y-10526253D01*
X15284766Y-10526259D01*
X15284853Y-10526173D01*
X15290381Y-10531691D01*
X15290699Y-10531937D01*
X15290699Y-10531937D01*
X15296076Y-10536085D01*
X15296703Y-10536602D01*
X15302104Y-10541355D01*
X15307535Y-10545025D01*
X15308248Y-10545507D01*
X15308889Y-10545970D01*
X15314442Y-10550255D01*
X15314443Y-10550255D01*
X15314761Y-10550500D01*
X15315107Y-10550703D01*
X15315107Y-10550703D01*
X15320968Y-10554135D01*
X15321657Y-10554568D01*
X15327617Y-10558596D01*
X15330679Y-10560140D01*
X15334240Y-10561934D01*
X15334933Y-10562312D01*
X15341334Y-10566059D01*
X15341703Y-10566216D01*
X15341704Y-10566217D01*
X15347952Y-10568875D01*
X15348689Y-10569218D01*
X15354756Y-10572276D01*
X15354757Y-10572276D01*
X15355114Y-10572456D01*
X15355492Y-10572589D01*
X15355492Y-10572589D01*
X15362107Y-10574925D01*
X15362845Y-10575212D01*
X15369668Y-10578116D01*
X15376594Y-10580069D01*
X15377366Y-10580314D01*
X15383771Y-10582576D01*
X15383772Y-10582576D01*
X15384150Y-10582709D01*
X15388612Y-10583670D01*
X15391398Y-10584270D01*
X15392166Y-10584461D01*
X15398918Y-10586365D01*
X15399304Y-10586474D01*
X15406421Y-10587531D01*
X15407218Y-10587676D01*
X15414253Y-10589190D01*
X15420013Y-10589679D01*
X15421643Y-10589818D01*
X15422429Y-10589909D01*
X15429433Y-10590950D01*
X15429433Y-10590950D01*
X15429763Y-10590999D01*
X15430096Y-10591013D01*
X15430096Y-10591013D01*
X15433763Y-10591166D01*
X15438144Y-10591350D01*
X15439170Y-10591350D01*
X15440235Y-10591395D01*
X15444935Y-10591794D01*
X15445335Y-10591777D01*
X15445335Y-10591777D01*
X15455041Y-10591362D01*
X15455580Y-10591350D01*
X16994811Y-10591350D01*
X17001623Y-10593350D01*
X17003720Y-10595041D01*
X17384848Y-10976168D01*
X17384998Y-10976300D01*
X17384998Y-10976301D01*
X17386955Y-10978023D01*
X17402104Y-10991355D01*
X17410647Y-10997128D01*
X17427284Y-11008371D01*
X17427285Y-11008372D01*
X17427617Y-11008596D01*
X17455115Y-11022456D01*
X17455493Y-11022589D01*
X17455493Y-11022590D01*
X17483771Y-11032576D01*
X17483772Y-11032576D01*
X17484150Y-11032709D01*
X17484542Y-11032794D01*
X17484541Y-11032794D01*
X17513862Y-11039106D01*
X17513862Y-11039106D01*
X17514253Y-11039190D01*
X17514651Y-11039224D01*
X17514652Y-11039224D01*
X17533208Y-11040799D01*
X17544935Y-11041794D01*
X17545335Y-11041777D01*
X17545335Y-11041777D01*
X17559275Y-11041180D01*
X17575700Y-11040478D01*
X17606048Y-11035263D01*
X17618620Y-11031407D01*
X17635103Y-11026352D01*
X17635103Y-11026352D01*
X17635487Y-11026234D01*
X17635853Y-11026069D01*
X17635853Y-11026069D01*
X17655247Y-11017291D01*
X17663540Y-11013538D01*
X17689753Y-10997380D01*
X17713700Y-10978023D01*
X17716841Y-10974743D01*
X17734716Y-10956070D01*
X17734716Y-10956069D01*
X17734994Y-10955779D01*
X17737064Y-10952977D01*
X17751680Y-10933188D01*
X17753288Y-10931011D01*
X17754044Y-10929656D01*
X17762784Y-10913985D01*
X17768288Y-10904118D01*
X17769564Y-10900936D01*
X17779598Y-10875911D01*
X17779748Y-10875537D01*
X17787484Y-10845732D01*
X17788116Y-10840764D01*
X17791319Y-10815584D01*
X17791370Y-10815186D01*
X17791369Y-10814167D01*
X17791354Y-10796670D01*
X17913725Y-10796670D01*
X17913755Y-10797185D01*
X17913755Y-10797185D01*
X17914655Y-10812798D01*
X17915011Y-10818972D01*
X17915125Y-10819476D01*
X17915125Y-10819477D01*
X17917112Y-10828294D01*
X17919922Y-10840764D01*
X17923935Y-10850645D01*
X17927947Y-10860526D01*
X17928327Y-10861462D01*
X17939999Y-10880509D01*
X17954625Y-10897394D01*
X17969361Y-10909628D01*
X17971298Y-10911236D01*
X17971813Y-10911663D01*
X17991100Y-10922934D01*
X17991583Y-10923118D01*
X17991583Y-10923118D01*
X17998861Y-10925898D01*
X18011969Y-10930903D01*
X18012476Y-10931006D01*
X18012476Y-10931006D01*
X18023202Y-10933188D01*
X18033860Y-10935357D01*
X18034377Y-10935376D01*
X18034377Y-10935376D01*
X18055667Y-10936156D01*
X18055668Y-10936156D01*
X18056184Y-10936175D01*
X18056696Y-10936110D01*
X18056696Y-10936110D01*
X18077829Y-10933403D01*
X18077829Y-10933403D01*
X18078342Y-10933337D01*
X18085017Y-10931334D01*
X18099243Y-10927066D01*
X18099243Y-10927066D01*
X18099738Y-10926917D01*
X18119799Y-10917090D01*
X18137986Y-10904117D01*
X18141179Y-10900936D01*
X18151803Y-10890348D01*
X18153810Y-10888349D01*
X18156209Y-10885010D01*
X18166544Y-10870628D01*
X18166845Y-10870208D01*
X18168842Y-10866168D01*
X18176514Y-10850645D01*
X18176514Y-10850645D01*
X18176743Y-10850181D01*
X18183237Y-10828807D01*
X18186153Y-10806659D01*
X18186247Y-10802799D01*
X18186307Y-10800337D01*
X18186307Y-10800336D01*
X18186316Y-10800000D01*
X18918650Y-10800000D01*
X18920646Y-10822809D01*
X18920788Y-10823340D01*
X18920788Y-10823340D01*
X18925585Y-10841243D01*
X18926572Y-10844924D01*
X18926804Y-10845422D01*
X18926804Y-10845423D01*
X18936015Y-10865176D01*
X18936015Y-10865177D01*
X18936248Y-10865675D01*
X18938635Y-10869084D01*
X18946908Y-10880899D01*
X18949380Y-10884430D01*
X18965570Y-10900620D01*
X18966021Y-10900936D01*
X18966021Y-10900936D01*
X18973268Y-10906010D01*
X18984325Y-10913752D01*
X18984823Y-10913985D01*
X18984824Y-10913985D01*
X19004477Y-10923149D01*
X19005076Y-10923428D01*
X19005607Y-10923571D01*
X19005607Y-10923571D01*
X19026660Y-10929212D01*
X19026660Y-10929212D01*
X19027191Y-10929354D01*
X19050000Y-10931350D01*
X19072809Y-10929354D01*
X19073340Y-10929212D01*
X19073340Y-10929212D01*
X19094393Y-10923571D01*
X19094394Y-10923571D01*
X19094924Y-10923428D01*
X19095524Y-10923149D01*
X19115176Y-10913985D01*
X19115177Y-10913985D01*
X19115675Y-10913752D01*
X19123024Y-10908606D01*
X19477849Y-10908606D01*
X19478779Y-10909808D01*
X19483899Y-10913393D01*
X19484849Y-10913941D01*
X19504595Y-10923149D01*
X19505624Y-10923524D01*
X19526669Y-10929163D01*
X19527748Y-10929353D01*
X19549453Y-10931252D01*
X19550548Y-10931252D01*
X19572252Y-10929353D01*
X19573331Y-10929163D01*
X19594376Y-10923524D01*
X19595405Y-10923149D01*
X19615151Y-10913941D01*
X19616101Y-10913393D01*
X19621305Y-10909749D01*
X19622142Y-10908701D01*
X19621436Y-10907357D01*
X19551281Y-10837202D01*
X19549887Y-10836441D01*
X19549704Y-10836454D01*
X19549042Y-10836879D01*
X19478492Y-10907429D01*
X19477849Y-10908606D01*
X19123024Y-10908606D01*
X19126732Y-10906010D01*
X19133979Y-10900936D01*
X19133979Y-10900936D01*
X19134430Y-10900620D01*
X19150620Y-10884430D01*
X19153092Y-10880899D01*
X19161365Y-10869084D01*
X19163752Y-10865675D01*
X19163985Y-10865177D01*
X19163985Y-10865176D01*
X19173196Y-10845423D01*
X19173196Y-10845422D01*
X19173428Y-10844924D01*
X19174415Y-10841243D01*
X19179212Y-10823340D01*
X19179212Y-10823340D01*
X19179354Y-10822809D01*
X19181302Y-10800548D01*
X19418748Y-10800548D01*
X19420647Y-10822252D01*
X19420838Y-10823331D01*
X19426476Y-10844376D01*
X19426851Y-10845405D01*
X19436059Y-10865151D01*
X19436607Y-10866101D01*
X19440251Y-10871305D01*
X19441299Y-10872142D01*
X19442643Y-10871436D01*
X19512798Y-10801281D01*
X19513436Y-10800113D01*
X19586441Y-10800113D01*
X19586454Y-10800297D01*
X19586879Y-10800958D01*
X19657429Y-10871508D01*
X19658606Y-10872151D01*
X19659808Y-10871221D01*
X19663393Y-10866101D01*
X19663941Y-10865151D01*
X19673149Y-10845405D01*
X19673524Y-10844376D01*
X19679163Y-10823331D01*
X19679353Y-10822252D01*
X19681252Y-10800548D01*
X19681252Y-10799453D01*
X19679353Y-10777748D01*
X19679163Y-10776669D01*
X19673524Y-10755624D01*
X19673149Y-10754595D01*
X19663941Y-10734849D01*
X19663393Y-10733899D01*
X19659749Y-10728695D01*
X19658701Y-10727858D01*
X19657357Y-10728564D01*
X19587202Y-10798719D01*
X19586441Y-10800113D01*
X19513436Y-10800113D01*
X19513559Y-10799887D01*
X19513546Y-10799704D01*
X19513121Y-10799042D01*
X19442571Y-10728492D01*
X19441394Y-10727849D01*
X19440192Y-10728779D01*
X19436607Y-10733899D01*
X19436059Y-10734849D01*
X19426851Y-10754595D01*
X19426476Y-10755624D01*
X19420838Y-10776669D01*
X19420647Y-10777748D01*
X19418748Y-10799453D01*
X19418748Y-10800548D01*
X19181302Y-10800548D01*
X19181350Y-10800000D01*
X19179354Y-10777191D01*
X19178759Y-10774971D01*
X19173571Y-10755607D01*
X19173571Y-10755607D01*
X19173428Y-10755076D01*
X19173196Y-10754578D01*
X19163985Y-10734824D01*
X19163985Y-10734823D01*
X19163752Y-10734325D01*
X19153553Y-10719760D01*
X19150936Y-10716021D01*
X19150936Y-10716021D01*
X19150620Y-10715570D01*
X19134430Y-10699380D01*
X19133979Y-10699065D01*
X19133979Y-10699064D01*
X19122889Y-10691299D01*
X19477858Y-10691299D01*
X19478564Y-10692643D01*
X19548719Y-10762798D01*
X19550113Y-10763559D01*
X19550297Y-10763546D01*
X19550958Y-10763121D01*
X19621508Y-10692571D01*
X19622151Y-10691394D01*
X19621221Y-10690192D01*
X19616101Y-10686607D01*
X19615151Y-10686059D01*
X19595405Y-10676851D01*
X19594376Y-10676476D01*
X19573331Y-10670838D01*
X19572252Y-10670647D01*
X19550548Y-10668748D01*
X19549453Y-10668748D01*
X19527748Y-10670647D01*
X19526669Y-10670838D01*
X19505624Y-10676476D01*
X19504595Y-10676851D01*
X19484849Y-10686059D01*
X19483899Y-10686607D01*
X19478695Y-10690251D01*
X19477858Y-10691299D01*
X19122889Y-10691299D01*
X19115675Y-10686248D01*
X19115177Y-10686015D01*
X19115176Y-10686015D01*
X19095423Y-10676804D01*
X19095422Y-10676804D01*
X19094924Y-10676572D01*
X19094394Y-10676429D01*
X19094393Y-10676429D01*
X19073340Y-10670788D01*
X19073340Y-10670788D01*
X19072809Y-10670646D01*
X19050000Y-10668650D01*
X19027191Y-10670646D01*
X19026660Y-10670788D01*
X19026660Y-10670788D01*
X19005607Y-10676429D01*
X19005607Y-10676429D01*
X19005076Y-10676572D01*
X19004578Y-10676804D01*
X19004578Y-10676804D01*
X18984824Y-10686015D01*
X18984823Y-10686015D01*
X18984325Y-10686248D01*
X18977111Y-10691299D01*
X18966021Y-10699064D01*
X18966021Y-10699065D01*
X18965570Y-10699380D01*
X18949380Y-10715570D01*
X18949065Y-10716021D01*
X18949064Y-10716021D01*
X18946447Y-10719760D01*
X18936248Y-10734325D01*
X18936015Y-10734823D01*
X18936015Y-10734824D01*
X18926804Y-10754578D01*
X18926572Y-10755076D01*
X18926429Y-10755607D01*
X18926429Y-10755607D01*
X18921241Y-10774971D01*
X18920646Y-10777191D01*
X18918650Y-10800000D01*
X18186316Y-10800000D01*
X18184485Y-10777736D01*
X18179043Y-10756070D01*
X18170135Y-10735584D01*
X18160224Y-10720264D01*
X18158282Y-10717262D01*
X18158282Y-10717261D01*
X18158001Y-10716828D01*
X18142967Y-10700305D01*
X18142562Y-10699985D01*
X18142562Y-10699985D01*
X18125841Y-10686780D01*
X18125841Y-10686780D01*
X18125436Y-10686460D01*
X18124709Y-10686059D01*
X18120214Y-10683577D01*
X18105879Y-10675664D01*
X18105392Y-10675491D01*
X18105392Y-10675491D01*
X18085309Y-10668380D01*
X18085308Y-10668379D01*
X18084821Y-10668207D01*
X18084312Y-10668116D01*
X18084312Y-10668116D01*
X18063337Y-10664380D01*
X18063337Y-10664380D01*
X18062828Y-10664289D01*
X18055445Y-10664199D01*
X18041008Y-10664023D01*
X18041008Y-10664023D01*
X18040491Y-10664017D01*
X18018409Y-10667396D01*
X17997176Y-10674336D01*
X17977361Y-10684651D01*
X17976947Y-10684961D01*
X17976947Y-10684961D01*
X17962909Y-10695501D01*
X17959497Y-10698064D01*
X17959139Y-10698437D01*
X17949234Y-10708802D01*
X17944063Y-10714214D01*
X17943772Y-10714641D01*
X17943771Y-10714641D01*
X17942830Y-10716021D01*
X17931474Y-10732668D01*
X17929900Y-10736059D01*
X17923565Y-10749708D01*
X17922069Y-10752931D01*
X17916099Y-10774457D01*
X17913725Y-10796670D01*
X17791354Y-10796670D01*
X17791346Y-10787841D01*
X17791343Y-10784393D01*
X17790418Y-10777224D01*
X17787455Y-10754251D01*
X17787455Y-10754250D01*
X17787404Y-10753853D01*
X17787293Y-10753430D01*
X17781988Y-10733138D01*
X17779616Y-10724062D01*
X17779465Y-10723689D01*
X17768256Y-10695874D01*
X17768255Y-10695874D01*
X17768105Y-10695501D01*
X17753059Y-10668635D01*
X17752818Y-10668309D01*
X17734920Y-10644165D01*
X17734722Y-10643898D01*
X17729043Y-10637723D01*
X17281612Y-10190292D01*
X17281478Y-10190149D01*
X17281412Y-10190064D01*
X17265427Y-10174107D01*
X17265427Y-10174106D01*
X17265419Y-10174099D01*
X17265152Y-10173832D01*
X17265223Y-10173761D01*
X17265220Y-10173757D01*
X17265148Y-10173828D01*
X17259904Y-10168593D01*
X17259619Y-10168309D01*
X17253922Y-10163914D01*
X17253299Y-10163400D01*
X17247896Y-10158645D01*
X17241752Y-10154493D01*
X17241111Y-10154030D01*
X17235558Y-10149745D01*
X17235557Y-10149745D01*
X17235239Y-10149500D01*
X17234789Y-10149236D01*
X17229032Y-10145865D01*
X17228343Y-10145432D01*
X17227592Y-10144924D01*
X17222383Y-10141404D01*
X17222025Y-10141223D01*
X17222024Y-10141223D01*
X17215762Y-10138066D01*
X17215066Y-10137688D01*
X17214236Y-10137202D01*
X17208666Y-10133941D01*
X17202044Y-10131123D01*
X17201309Y-10130782D01*
X17195933Y-10128072D01*
X17194886Y-10127544D01*
X17194508Y-10127411D01*
X17194507Y-10127410D01*
X17189703Y-10125714D01*
X17187892Y-10125075D01*
X17187158Y-10124789D01*
X17180332Y-10121885D01*
X17179946Y-10121776D01*
X17179946Y-10121776D01*
X17173408Y-10119932D01*
X17172633Y-10119686D01*
X17166229Y-10117425D01*
X17166229Y-10117425D01*
X17165850Y-10117291D01*
X17158599Y-10115730D01*
X17157833Y-10115539D01*
X17150696Y-10113526D01*
X17150298Y-10113467D01*
X17150297Y-10113467D01*
X17146562Y-10112912D01*
X17143579Y-10112469D01*
X17142782Y-10112324D01*
X17135747Y-10110810D01*
X17129987Y-10110321D01*
X17128357Y-10110183D01*
X17127571Y-10110091D01*
X17120567Y-10109050D01*
X17120567Y-10109050D01*
X17120237Y-10109001D01*
X17119904Y-10108987D01*
X17119904Y-10108987D01*
X17116237Y-10108834D01*
X17111856Y-10108650D01*
X17110830Y-10108650D01*
X17109765Y-10108605D01*
X17109666Y-10108597D01*
X17105065Y-10108206D01*
X17104665Y-10108223D01*
X17104665Y-10108223D01*
X17094960Y-10108639D01*
X17094421Y-10108650D01*
X15555189Y-10108650D01*
X15548377Y-10106650D01*
X15546280Y-10104960D01*
X15541320Y-10100000D01*
X18918650Y-10100000D01*
X18920646Y-10122809D01*
X18920788Y-10123340D01*
X18920788Y-10123340D01*
X18925628Y-10141404D01*
X18926572Y-10144924D01*
X18926804Y-10145422D01*
X18926804Y-10145423D01*
X18936015Y-10165176D01*
X18936015Y-10165177D01*
X18936248Y-10165675D01*
X18940562Y-10171837D01*
X18948046Y-10182524D01*
X18949380Y-10184430D01*
X18965570Y-10200620D01*
X18966021Y-10200936D01*
X18966021Y-10200936D01*
X18966556Y-10201310D01*
X18984325Y-10213752D01*
X18984823Y-10213985D01*
X18984824Y-10213985D01*
X19002555Y-10222253D01*
X19005076Y-10223428D01*
X19005607Y-10223571D01*
X19005607Y-10223571D01*
X19026660Y-10229212D01*
X19026660Y-10229212D01*
X19027191Y-10229354D01*
X19050000Y-10231350D01*
X19072809Y-10229354D01*
X19073340Y-10229212D01*
X19073340Y-10229212D01*
X19094393Y-10223571D01*
X19094394Y-10223571D01*
X19094924Y-10223428D01*
X19097445Y-10222253D01*
X19115176Y-10213985D01*
X19115177Y-10213985D01*
X19115675Y-10213752D01*
X19123024Y-10208606D01*
X19477849Y-10208606D01*
X19478779Y-10209808D01*
X19483899Y-10213393D01*
X19484849Y-10213941D01*
X19504595Y-10223149D01*
X19505624Y-10223524D01*
X19526669Y-10229163D01*
X19527748Y-10229353D01*
X19549453Y-10231252D01*
X19550548Y-10231252D01*
X19572252Y-10229353D01*
X19573331Y-10229163D01*
X19594376Y-10223524D01*
X19595405Y-10223149D01*
X19615151Y-10213941D01*
X19616101Y-10213393D01*
X19621305Y-10209749D01*
X19622142Y-10208701D01*
X19621436Y-10207357D01*
X19551281Y-10137202D01*
X19549887Y-10136441D01*
X19549704Y-10136454D01*
X19549042Y-10136879D01*
X19478492Y-10207429D01*
X19477849Y-10208606D01*
X19123024Y-10208606D01*
X19133444Y-10201310D01*
X19133979Y-10200936D01*
X19133979Y-10200936D01*
X19134430Y-10200620D01*
X19150620Y-10184430D01*
X19151954Y-10182524D01*
X19159438Y-10171837D01*
X19163752Y-10165675D01*
X19163985Y-10165177D01*
X19163985Y-10165176D01*
X19173196Y-10145423D01*
X19173196Y-10145422D01*
X19173428Y-10144924D01*
X19174372Y-10141404D01*
X19179212Y-10123340D01*
X19179212Y-10123340D01*
X19179354Y-10122809D01*
X19181302Y-10100548D01*
X19418748Y-10100548D01*
X19420647Y-10122252D01*
X19420838Y-10123331D01*
X19426476Y-10144376D01*
X19426851Y-10145405D01*
X19436059Y-10165151D01*
X19436607Y-10166101D01*
X19440251Y-10171305D01*
X19441299Y-10172142D01*
X19442643Y-10171436D01*
X19512798Y-10101281D01*
X19513436Y-10100113D01*
X19586441Y-10100113D01*
X19586454Y-10100297D01*
X19586879Y-10100958D01*
X19657429Y-10171508D01*
X19658606Y-10172151D01*
X19659808Y-10171221D01*
X19663393Y-10166101D01*
X19663941Y-10165151D01*
X19673149Y-10145405D01*
X19673524Y-10144376D01*
X19679163Y-10123331D01*
X19679353Y-10122252D01*
X19681252Y-10100548D01*
X19681252Y-10099453D01*
X19679353Y-10077748D01*
X19679163Y-10076669D01*
X19673524Y-10055624D01*
X19673149Y-10054595D01*
X19663941Y-10034849D01*
X19663393Y-10033899D01*
X19659749Y-10028695D01*
X19658701Y-10027858D01*
X19657357Y-10028564D01*
X19587202Y-10098719D01*
X19586441Y-10100113D01*
X19513436Y-10100113D01*
X19513559Y-10099887D01*
X19513546Y-10099704D01*
X19513121Y-10099042D01*
X19442571Y-10028492D01*
X19441394Y-10027849D01*
X19440192Y-10028779D01*
X19436607Y-10033899D01*
X19436059Y-10034849D01*
X19426851Y-10054595D01*
X19426476Y-10055624D01*
X19420838Y-10076669D01*
X19420647Y-10077748D01*
X19418748Y-10099453D01*
X19418748Y-10100548D01*
X19181302Y-10100548D01*
X19181350Y-10100000D01*
X19179354Y-10077191D01*
X19175698Y-10063546D01*
X19173571Y-10055607D01*
X19173571Y-10055607D01*
X19173428Y-10055076D01*
X19172624Y-10053350D01*
X19163985Y-10034824D01*
X19163985Y-10034823D01*
X19163752Y-10034325D01*
X19150620Y-10015570D01*
X19134430Y-9999380D01*
X19133979Y-9999065D01*
X19133979Y-9999064D01*
X19122889Y-9991299D01*
X19477858Y-9991299D01*
X19478564Y-9992643D01*
X19548719Y-10062798D01*
X19550113Y-10063559D01*
X19550297Y-10063546D01*
X19550958Y-10063121D01*
X19621508Y-9992571D01*
X19622151Y-9991394D01*
X19621221Y-9990192D01*
X19616101Y-9986607D01*
X19615151Y-9986059D01*
X19595405Y-9976851D01*
X19594376Y-9976476D01*
X19573331Y-9970838D01*
X19572252Y-9970647D01*
X19550548Y-9968748D01*
X19549453Y-9968748D01*
X19527748Y-9970647D01*
X19526669Y-9970838D01*
X19505624Y-9976476D01*
X19504595Y-9976851D01*
X19484849Y-9986059D01*
X19483899Y-9986607D01*
X19478695Y-9990251D01*
X19477858Y-9991299D01*
X19122889Y-9991299D01*
X19121392Y-9990251D01*
X19115675Y-9986248D01*
X19115177Y-9986015D01*
X19115176Y-9986015D01*
X19095423Y-9976804D01*
X19095422Y-9976804D01*
X19094924Y-9976572D01*
X19094394Y-9976429D01*
X19094393Y-9976429D01*
X19073340Y-9970788D01*
X19073340Y-9970788D01*
X19072809Y-9970646D01*
X19050000Y-9968650D01*
X19027191Y-9970646D01*
X19026660Y-9970788D01*
X19026660Y-9970788D01*
X19005607Y-9976429D01*
X19005607Y-9976429D01*
X19005076Y-9976572D01*
X19004578Y-9976804D01*
X19004578Y-9976804D01*
X18984824Y-9986015D01*
X18984823Y-9986015D01*
X18984325Y-9986248D01*
X18978608Y-9990251D01*
X18966021Y-9999064D01*
X18966021Y-9999065D01*
X18965570Y-9999380D01*
X18949380Y-10015570D01*
X18936248Y-10034325D01*
X18936015Y-10034823D01*
X18936015Y-10034824D01*
X18927376Y-10053350D01*
X18926572Y-10055076D01*
X18926429Y-10055607D01*
X18926429Y-10055607D01*
X18924302Y-10063546D01*
X18920646Y-10077191D01*
X18918650Y-10100000D01*
X15541320Y-10100000D01*
X15081540Y-9640220D01*
X15078138Y-9633989D01*
X15077850Y-9631311D01*
X15077850Y-9531305D01*
X15079850Y-9524493D01*
X15085216Y-9519843D01*
X15092243Y-9518833D01*
X15096987Y-9520533D01*
X15119031Y-9533910D01*
X15119462Y-9534091D01*
X15119462Y-9534091D01*
X15142978Y-9543951D01*
X15142978Y-9543952D01*
X15143409Y-9544132D01*
X15143862Y-9544247D01*
X15143863Y-9544248D01*
X15156612Y-9547485D01*
X15169030Y-9550639D01*
X15190986Y-9552850D01*
X15731320Y-9552850D01*
X15738132Y-9554850D01*
X15739771Y-9556169D01*
X15739794Y-9556142D01*
X15740096Y-9556407D01*
X15740381Y-9556691D01*
X15740699Y-9556936D01*
X15740699Y-9556936D01*
X15764442Y-9575254D01*
X15764442Y-9575254D01*
X15764761Y-9575500D01*
X15765109Y-9575704D01*
X15782961Y-9586157D01*
X15791334Y-9591059D01*
X15791702Y-9591216D01*
X15791702Y-9591216D01*
X15805303Y-9597003D01*
X15819668Y-9603116D01*
X15832360Y-9606695D01*
X15848918Y-9611365D01*
X15848919Y-9611365D01*
X15849304Y-9611474D01*
X15855904Y-9612454D01*
X15879433Y-9615950D01*
X15879433Y-9615950D01*
X15879763Y-9615999D01*
X15880096Y-9616013D01*
X15880096Y-9616013D01*
X15883763Y-9616166D01*
X15888144Y-9616350D01*
X17319811Y-9616350D01*
X17326623Y-9618350D01*
X17328720Y-9620041D01*
X17384848Y-9676168D01*
X17384998Y-9676300D01*
X17384998Y-9676301D01*
X17391476Y-9682002D01*
X17402104Y-9691355D01*
X17410647Y-9697128D01*
X17427284Y-9708371D01*
X17427285Y-9708372D01*
X17427617Y-9708596D01*
X17455115Y-9722456D01*
X17455493Y-9722589D01*
X17455493Y-9722590D01*
X17483771Y-9732576D01*
X17483772Y-9732576D01*
X17484150Y-9732709D01*
X17484542Y-9732794D01*
X17484541Y-9732794D01*
X17513862Y-9739106D01*
X17513862Y-9739106D01*
X17514253Y-9739190D01*
X17514651Y-9739224D01*
X17514652Y-9739224D01*
X17533208Y-9740799D01*
X17544935Y-9741794D01*
X17545335Y-9741777D01*
X17545335Y-9741777D01*
X17559275Y-9741180D01*
X17575700Y-9740478D01*
X17606048Y-9735263D01*
X17628685Y-9728320D01*
X17635103Y-9726352D01*
X17635103Y-9726352D01*
X17635487Y-9726234D01*
X17635853Y-9726069D01*
X17635853Y-9726069D01*
X17663174Y-9713704D01*
X17663540Y-9713538D01*
X17689753Y-9697380D01*
X17713700Y-9678023D01*
X17722012Y-9669341D01*
X17734716Y-9656070D01*
X17734716Y-9656069D01*
X17734994Y-9655779D01*
X17741151Y-9647443D01*
X17753049Y-9631334D01*
X17753288Y-9631011D01*
X17754292Y-9629212D01*
X17761661Y-9615999D01*
X17768288Y-9604118D01*
X17768646Y-9603225D01*
X17779598Y-9575911D01*
X17779748Y-9575537D01*
X17787484Y-9545732D01*
X17787710Y-9543951D01*
X17791319Y-9515584D01*
X17791319Y-9515584D01*
X17791370Y-9515186D01*
X17791354Y-9496670D01*
X17913725Y-9496670D01*
X17913755Y-9497185D01*
X17913755Y-9497185D01*
X17914301Y-9506659D01*
X17915011Y-9518972D01*
X17915125Y-9519476D01*
X17915125Y-9519477D01*
X17915963Y-9523194D01*
X17919922Y-9540764D01*
X17923673Y-9550000D01*
X17926167Y-9556142D01*
X17928327Y-9561462D01*
X17928597Y-9561902D01*
X17937054Y-9575704D01*
X17939999Y-9580509D01*
X17954625Y-9597394D01*
X17971813Y-9611663D01*
X17991100Y-9622934D01*
X17991583Y-9623118D01*
X17991583Y-9623118D01*
X17993276Y-9623765D01*
X18011969Y-9630903D01*
X18012476Y-9631006D01*
X18012476Y-9631006D01*
X18023202Y-9633188D01*
X18033860Y-9635357D01*
X18034377Y-9635376D01*
X18034377Y-9635376D01*
X18055667Y-9636156D01*
X18055668Y-9636156D01*
X18056184Y-9636175D01*
X18056696Y-9636110D01*
X18056696Y-9636110D01*
X18077829Y-9633403D01*
X18077829Y-9633403D01*
X18078342Y-9633337D01*
X18085017Y-9631334D01*
X18099243Y-9627066D01*
X18099243Y-9627066D01*
X18099738Y-9626917D01*
X18119799Y-9617090D01*
X18137986Y-9604117D01*
X18141179Y-9600936D01*
X18146121Y-9596011D01*
X18153810Y-9588349D01*
X18155718Y-9585693D01*
X18166544Y-9570628D01*
X18166845Y-9570208D01*
X18168863Y-9566126D01*
X18176514Y-9550645D01*
X18176514Y-9550645D01*
X18176743Y-9550181D01*
X18183237Y-9528807D01*
X18186153Y-9506659D01*
X18186161Y-9506324D01*
X18186307Y-9500337D01*
X18186307Y-9500336D01*
X18186316Y-9500000D01*
X18918650Y-9500000D01*
X18920646Y-9522809D01*
X18920788Y-9523340D01*
X18920788Y-9523340D01*
X18926390Y-9544248D01*
X18926572Y-9544924D01*
X18926804Y-9545422D01*
X18926804Y-9545423D01*
X18936015Y-9565176D01*
X18936015Y-9565177D01*
X18936248Y-9565675D01*
X18940776Y-9572142D01*
X18946908Y-9580899D01*
X18949380Y-9584430D01*
X18965570Y-9600620D01*
X18966021Y-9600936D01*
X18966021Y-9600936D01*
X18968910Y-9602958D01*
X18984325Y-9613752D01*
X18984823Y-9613985D01*
X18984824Y-9613985D01*
X19004477Y-9623149D01*
X19005076Y-9623428D01*
X19005607Y-9623571D01*
X19005607Y-9623571D01*
X19026660Y-9629212D01*
X19026660Y-9629212D01*
X19027191Y-9629354D01*
X19050000Y-9631350D01*
X19072809Y-9629354D01*
X19073340Y-9629212D01*
X19073340Y-9629212D01*
X19094393Y-9623571D01*
X19094394Y-9623571D01*
X19094924Y-9623428D01*
X19095524Y-9623149D01*
X19115176Y-9613985D01*
X19115177Y-9613985D01*
X19115675Y-9613752D01*
X19123024Y-9608606D01*
X19477849Y-9608606D01*
X19478779Y-9609808D01*
X19483899Y-9613393D01*
X19484849Y-9613941D01*
X19504595Y-9623149D01*
X19505624Y-9623524D01*
X19526669Y-9629163D01*
X19527748Y-9629353D01*
X19549453Y-9631252D01*
X19550548Y-9631252D01*
X19572252Y-9629353D01*
X19573331Y-9629163D01*
X19594376Y-9623524D01*
X19595405Y-9623149D01*
X19615151Y-9613941D01*
X19616101Y-9613393D01*
X19621305Y-9609749D01*
X19622142Y-9608701D01*
X19621436Y-9607357D01*
X19551281Y-9537202D01*
X19549887Y-9536441D01*
X19549704Y-9536454D01*
X19549042Y-9536879D01*
X19478492Y-9607429D01*
X19477849Y-9608606D01*
X19123024Y-9608606D01*
X19131090Y-9602958D01*
X19133979Y-9600936D01*
X19133979Y-9600936D01*
X19134430Y-9600620D01*
X19150620Y-9584430D01*
X19153092Y-9580899D01*
X19159224Y-9572142D01*
X19163752Y-9565675D01*
X19163985Y-9565177D01*
X19163985Y-9565176D01*
X19173196Y-9545423D01*
X19173196Y-9545422D01*
X19173428Y-9544924D01*
X19173610Y-9544248D01*
X19179212Y-9523340D01*
X19179212Y-9523340D01*
X19179354Y-9522809D01*
X19181302Y-9500548D01*
X19418748Y-9500548D01*
X19420647Y-9522252D01*
X19420838Y-9523331D01*
X19426476Y-9544376D01*
X19426851Y-9545405D01*
X19436059Y-9565151D01*
X19436607Y-9566101D01*
X19440251Y-9571305D01*
X19441299Y-9572142D01*
X19442643Y-9571436D01*
X19512798Y-9501281D01*
X19513436Y-9500113D01*
X19586441Y-9500113D01*
X19586454Y-9500297D01*
X19586879Y-9500958D01*
X19657429Y-9571508D01*
X19658606Y-9572151D01*
X19659808Y-9571221D01*
X19663393Y-9566101D01*
X19663941Y-9565151D01*
X19673149Y-9545405D01*
X19673205Y-9545253D01*
X20688205Y-9545253D01*
X20688227Y-9545719D01*
X20688227Y-9545720D01*
X20688418Y-9549685D01*
X20689495Y-9572102D01*
X20694739Y-9598466D01*
X20703822Y-9623765D01*
X20704043Y-9624176D01*
X20704043Y-9624177D01*
X20710681Y-9636530D01*
X20716545Y-9647443D01*
X20716824Y-9647817D01*
X20716825Y-9647818D01*
X20724989Y-9658751D01*
X20732628Y-9668981D01*
X20732959Y-9669309D01*
X20732960Y-9669310D01*
X20751386Y-9687576D01*
X20751718Y-9687905D01*
X20752094Y-9688181D01*
X20752095Y-9688181D01*
X20756423Y-9691355D01*
X20773395Y-9703800D01*
X20773809Y-9704017D01*
X20773809Y-9704017D01*
X20796770Y-9716098D01*
X20797184Y-9716315D01*
X20811435Y-9721292D01*
X20815151Y-9722590D01*
X20822561Y-9725178D01*
X20823021Y-9725265D01*
X20848511Y-9730104D01*
X20848511Y-9730104D01*
X20848970Y-9730191D01*
X20861737Y-9730693D01*
X20875363Y-9731228D01*
X20875363Y-9731228D01*
X20875829Y-9731247D01*
X20886261Y-9730104D01*
X20902084Y-9728371D01*
X20902085Y-9728371D01*
X20902550Y-9728320D01*
X20910025Y-9726352D01*
X20928092Y-9721596D01*
X20928092Y-9721596D01*
X20928544Y-9721477D01*
X20928974Y-9721292D01*
X20952812Y-9711050D01*
X20952812Y-9711050D01*
X20953241Y-9710866D01*
X20975034Y-9697380D01*
X20975702Y-9696967D01*
X20975702Y-9696967D01*
X20976099Y-9696721D01*
X20996615Y-9679353D01*
X21014338Y-9659143D01*
X21016710Y-9655456D01*
X21028627Y-9636929D01*
X21028880Y-9636536D01*
X21039920Y-9612028D01*
X21042052Y-9604469D01*
X21047089Y-9586607D01*
X21047089Y-9586607D01*
X21047216Y-9586157D01*
X21049004Y-9572102D01*
X21050569Y-9559805D01*
X21050569Y-9559804D01*
X21050609Y-9559492D01*
X21050857Y-9550000D01*
X21048865Y-9523194D01*
X21048107Y-9519843D01*
X21043036Y-9497433D01*
X21043036Y-9497433D01*
X21042933Y-9496976D01*
X21033190Y-9471924D01*
X21019852Y-9448586D01*
X21003211Y-9427477D01*
X20983632Y-9409059D01*
X20964089Y-9395501D01*
X20961930Y-9394004D01*
X20961930Y-9394004D01*
X20961546Y-9393737D01*
X20957692Y-9391837D01*
X20937856Y-9382055D01*
X20937856Y-9382055D01*
X20937438Y-9381849D01*
X20936859Y-9381664D01*
X20927262Y-9378591D01*
X20911837Y-9373654D01*
X20911376Y-9373579D01*
X20911376Y-9373579D01*
X20885767Y-9369408D01*
X20885768Y-9369408D01*
X20885306Y-9369333D01*
X20872272Y-9369162D01*
X20858896Y-9368987D01*
X20858896Y-9368987D01*
X20858428Y-9368981D01*
X20831794Y-9372606D01*
X20831345Y-9372737D01*
X20831345Y-9372737D01*
X20824547Y-9374718D01*
X20805987Y-9380128D01*
X20781576Y-9391382D01*
X20777801Y-9393857D01*
X20759488Y-9405863D01*
X20759488Y-9405864D01*
X20759097Y-9406120D01*
X20749549Y-9414641D01*
X20743970Y-9419621D01*
X20739043Y-9424019D01*
X20721854Y-9444685D01*
X20707910Y-9467666D01*
X20707729Y-9468097D01*
X20707729Y-9468097D01*
X20703682Y-9477748D01*
X20697515Y-9492455D01*
X20690898Y-9518508D01*
X20688205Y-9545253D01*
X19673205Y-9545253D01*
X19673524Y-9544376D01*
X19679163Y-9523331D01*
X19679353Y-9522252D01*
X19681252Y-9500548D01*
X19681252Y-9499453D01*
X19679353Y-9477748D01*
X19679163Y-9476669D01*
X19673524Y-9455624D01*
X19673149Y-9454595D01*
X19663941Y-9434849D01*
X19663393Y-9433899D01*
X19659749Y-9428695D01*
X19658701Y-9427858D01*
X19657357Y-9428564D01*
X19587202Y-9498719D01*
X19586441Y-9500113D01*
X19513436Y-9500113D01*
X19513559Y-9499887D01*
X19513546Y-9499704D01*
X19513121Y-9499042D01*
X19442571Y-9428492D01*
X19441394Y-9427849D01*
X19440192Y-9428779D01*
X19436607Y-9433899D01*
X19436059Y-9434849D01*
X19426851Y-9454595D01*
X19426476Y-9455624D01*
X19420838Y-9476669D01*
X19420647Y-9477748D01*
X19418748Y-9499453D01*
X19418748Y-9500548D01*
X19181302Y-9500548D01*
X19181350Y-9500000D01*
X19179354Y-9477191D01*
X19178759Y-9474971D01*
X19173571Y-9455607D01*
X19173571Y-9455607D01*
X19173428Y-9455076D01*
X19173196Y-9454578D01*
X19163985Y-9434824D01*
X19163985Y-9434823D01*
X19163752Y-9434325D01*
X19153017Y-9418993D01*
X19150936Y-9416021D01*
X19150936Y-9416021D01*
X19150620Y-9415570D01*
X19134430Y-9399380D01*
X19133979Y-9399065D01*
X19133979Y-9399064D01*
X19123657Y-9391837D01*
X19122889Y-9391299D01*
X19477858Y-9391299D01*
X19478564Y-9392643D01*
X19548719Y-9462798D01*
X19550113Y-9463559D01*
X19550297Y-9463546D01*
X19550958Y-9463121D01*
X19621508Y-9392571D01*
X19622151Y-9391394D01*
X19621221Y-9390192D01*
X19616101Y-9386607D01*
X19615151Y-9386059D01*
X19595405Y-9376851D01*
X19594376Y-9376476D01*
X19573331Y-9370838D01*
X19572252Y-9370647D01*
X19550548Y-9368748D01*
X19549453Y-9368748D01*
X19527748Y-9370647D01*
X19526669Y-9370838D01*
X19505624Y-9376476D01*
X19504595Y-9376851D01*
X19484849Y-9386059D01*
X19483899Y-9386607D01*
X19478695Y-9390251D01*
X19477858Y-9391299D01*
X19122889Y-9391299D01*
X19115675Y-9386248D01*
X19115177Y-9386015D01*
X19115176Y-9386015D01*
X19095423Y-9376804D01*
X19095422Y-9376804D01*
X19094924Y-9376572D01*
X19094394Y-9376429D01*
X19094393Y-9376429D01*
X19073340Y-9370788D01*
X19073340Y-9370788D01*
X19072809Y-9370646D01*
X19050000Y-9368650D01*
X19027191Y-9370646D01*
X19026660Y-9370788D01*
X19026660Y-9370788D01*
X19005607Y-9376429D01*
X19005607Y-9376429D01*
X19005076Y-9376572D01*
X19004578Y-9376804D01*
X19004578Y-9376804D01*
X18984824Y-9386015D01*
X18984823Y-9386015D01*
X18984325Y-9386248D01*
X18976343Y-9391837D01*
X18966021Y-9399064D01*
X18966021Y-9399065D01*
X18965570Y-9399380D01*
X18949380Y-9415570D01*
X18949065Y-9416021D01*
X18949064Y-9416021D01*
X18946984Y-9418993D01*
X18936248Y-9434325D01*
X18936015Y-9434823D01*
X18936015Y-9434824D01*
X18926804Y-9454578D01*
X18926572Y-9455076D01*
X18926429Y-9455607D01*
X18926429Y-9455607D01*
X18921241Y-9474971D01*
X18920646Y-9477191D01*
X18918650Y-9500000D01*
X18186316Y-9500000D01*
X18184485Y-9477736D01*
X18179043Y-9456070D01*
X18170135Y-9435584D01*
X18158001Y-9416828D01*
X18142967Y-9400305D01*
X18142562Y-9399985D01*
X18142562Y-9399985D01*
X18125841Y-9386780D01*
X18125841Y-9386780D01*
X18125436Y-9386460D01*
X18124709Y-9386059D01*
X18120214Y-9383577D01*
X18105879Y-9375664D01*
X18105392Y-9375491D01*
X18105392Y-9375491D01*
X18085309Y-9368380D01*
X18085308Y-9368379D01*
X18084821Y-9368207D01*
X18084312Y-9368116D01*
X18084312Y-9368116D01*
X18063337Y-9364380D01*
X18063337Y-9364380D01*
X18062828Y-9364289D01*
X18055445Y-9364199D01*
X18041008Y-9364023D01*
X18041008Y-9364023D01*
X18040491Y-9364017D01*
X18018409Y-9367396D01*
X17997176Y-9374336D01*
X17994330Y-9375817D01*
X17983186Y-9381618D01*
X17977361Y-9384651D01*
X17976947Y-9384961D01*
X17976947Y-9384961D01*
X17962909Y-9395501D01*
X17959497Y-9398064D01*
X17959139Y-9398437D01*
X17948989Y-9409059D01*
X17944063Y-9414214D01*
X17943772Y-9414641D01*
X17943771Y-9414641D01*
X17942830Y-9416021D01*
X17931474Y-9432668D01*
X17929126Y-9437728D01*
X17924085Y-9448586D01*
X17922069Y-9452931D01*
X17916099Y-9474457D01*
X17913725Y-9496670D01*
X17791354Y-9496670D01*
X17791343Y-9484393D01*
X17790419Y-9477234D01*
X17787455Y-9454251D01*
X17787455Y-9454250D01*
X17787404Y-9453853D01*
X17787293Y-9453430D01*
X17781988Y-9433138D01*
X17779616Y-9424062D01*
X17777308Y-9418337D01*
X17768256Y-9395874D01*
X17768255Y-9395874D01*
X17768105Y-9395501D01*
X17753059Y-9368635D01*
X17752742Y-9368207D01*
X17734920Y-9344165D01*
X17734722Y-9343898D01*
X17729043Y-9337723D01*
X17606612Y-9215292D01*
X17606478Y-9215149D01*
X17606412Y-9215064D01*
X17590427Y-9199107D01*
X17590427Y-9199106D01*
X17590419Y-9199099D01*
X17590152Y-9198832D01*
X17590223Y-9198761D01*
X17590220Y-9198757D01*
X17590148Y-9198828D01*
X17584904Y-9193593D01*
X17584619Y-9193309D01*
X17578922Y-9188914D01*
X17578299Y-9188400D01*
X17572896Y-9183645D01*
X17566752Y-9179493D01*
X17566111Y-9179030D01*
X17560558Y-9174745D01*
X17560557Y-9174745D01*
X17560239Y-9174500D01*
X17559726Y-9174200D01*
X17554032Y-9170865D01*
X17553343Y-9170432D01*
X17553289Y-9170395D01*
X17547383Y-9166404D01*
X17547025Y-9166223D01*
X17547024Y-9166223D01*
X17540762Y-9163066D01*
X17540066Y-9162688D01*
X17534012Y-9159143D01*
X17533666Y-9158941D01*
X17527044Y-9156123D01*
X17526309Y-9155782D01*
X17523464Y-9154348D01*
X17519886Y-9152544D01*
X17519508Y-9152411D01*
X17519507Y-9152410D01*
X17514396Y-9150606D01*
X17512892Y-9150075D01*
X17512158Y-9149789D01*
X17505332Y-9146885D01*
X17504946Y-9146776D01*
X17504946Y-9146776D01*
X17498408Y-9144932D01*
X17497633Y-9144686D01*
X17491229Y-9142425D01*
X17491229Y-9142425D01*
X17490850Y-9142291D01*
X17483599Y-9140730D01*
X17482833Y-9140539D01*
X17475696Y-9138526D01*
X17475298Y-9138467D01*
X17475297Y-9138467D01*
X17471167Y-9137854D01*
X17468579Y-9137469D01*
X17467782Y-9137324D01*
X17460747Y-9135810D01*
X17454987Y-9135321D01*
X17453357Y-9135183D01*
X17452571Y-9135091D01*
X17445567Y-9134050D01*
X17445567Y-9134050D01*
X17445237Y-9134001D01*
X17444904Y-9133987D01*
X17444904Y-9133987D01*
X17441237Y-9133834D01*
X17436856Y-9133650D01*
X17435830Y-9133650D01*
X17434765Y-9133605D01*
X17434666Y-9133597D01*
X17430065Y-9133206D01*
X17429665Y-9133223D01*
X17429665Y-9133223D01*
X17419960Y-9133639D01*
X17419421Y-9133650D01*
X15892210Y-9133650D01*
X15879750Y-9134445D01*
X15869671Y-9135088D01*
X15869670Y-9135088D01*
X15869270Y-9135113D01*
X15868876Y-9135190D01*
X15868876Y-9135190D01*
X15839431Y-9140886D01*
X15839431Y-9140886D01*
X15839038Y-9140963D01*
X15827747Y-9144686D01*
X15810176Y-9150480D01*
X15810175Y-9150480D01*
X15809794Y-9150606D01*
X15782013Y-9163887D01*
X15781676Y-9164104D01*
X15781676Y-9164104D01*
X15756481Y-9180372D01*
X15756144Y-9180590D01*
X15744111Y-9190740D01*
X15740032Y-9194181D01*
X15733536Y-9197044D01*
X15731908Y-9197150D01*
X15688150Y-9197150D01*
X15681337Y-9195150D01*
X15676688Y-9189784D01*
X15675649Y-9182971D01*
X15676147Y-9179030D01*
X15676298Y-9177830D01*
X15676338Y-9175000D01*
X15676186Y-9173449D01*
X15677512Y-9166474D01*
X15679816Y-9163310D01*
X15775693Y-9067433D01*
X15781924Y-9064030D01*
X15784821Y-9063749D01*
X15785378Y-9063816D01*
X15785991Y-9063769D01*
X15785991Y-9063769D01*
X15804483Y-9062346D01*
X15804483Y-9062346D01*
X15805097Y-9062298D01*
X15824146Y-9056980D01*
X15824697Y-9056702D01*
X15824697Y-9056702D01*
X15841249Y-9048340D01*
X15841250Y-9048340D01*
X15841800Y-9048063D01*
X15845396Y-9045253D01*
X20688205Y-9045253D01*
X20688227Y-9045719D01*
X20688227Y-9045720D01*
X20688768Y-9056980D01*
X20689495Y-9072102D01*
X20694739Y-9098466D01*
X20703822Y-9123765D01*
X20704043Y-9124176D01*
X20704043Y-9124177D01*
X20710340Y-9135894D01*
X20716545Y-9147443D01*
X20716824Y-9147817D01*
X20716825Y-9147818D01*
X20723240Y-9156409D01*
X20732628Y-9168981D01*
X20732959Y-9169309D01*
X20732960Y-9169310D01*
X20750328Y-9186527D01*
X20751718Y-9187905D01*
X20752094Y-9188181D01*
X20752095Y-9188181D01*
X20766615Y-9198828D01*
X20773395Y-9203800D01*
X20773809Y-9204017D01*
X20773809Y-9204017D01*
X20796770Y-9216098D01*
X20797184Y-9216315D01*
X20822561Y-9225178D01*
X20823021Y-9225265D01*
X20848511Y-9230104D01*
X20848511Y-9230104D01*
X20848970Y-9230191D01*
X20861737Y-9230693D01*
X20875363Y-9231228D01*
X20875363Y-9231228D01*
X20875829Y-9231247D01*
X20886261Y-9230104D01*
X20902084Y-9228371D01*
X20902085Y-9228371D01*
X20902550Y-9228320D01*
X20907024Y-9227142D01*
X20928092Y-9221596D01*
X20928092Y-9221596D01*
X20928544Y-9221477D01*
X20933682Y-9219269D01*
X20952812Y-9211050D01*
X20952812Y-9211050D01*
X20953241Y-9210866D01*
X20972245Y-9199106D01*
X20975702Y-9196967D01*
X20975702Y-9196967D01*
X20976099Y-9196721D01*
X20996615Y-9179353D01*
X21014338Y-9159143D01*
X21014762Y-9158485D01*
X21028627Y-9136929D01*
X21028880Y-9136536D01*
X21039920Y-9112028D01*
X21043621Y-9098905D01*
X21047089Y-9086607D01*
X21047089Y-9086607D01*
X21047216Y-9086157D01*
X21048715Y-9074378D01*
X21050569Y-9059805D01*
X21050569Y-9059804D01*
X21050609Y-9059492D01*
X21050618Y-9059150D01*
X21050819Y-9051452D01*
X21050857Y-9050000D01*
X21048865Y-9023194D01*
X21047702Y-9018054D01*
X21043036Y-8997433D01*
X21043036Y-8997433D01*
X21042933Y-8996976D01*
X21033190Y-8971924D01*
X21019852Y-8948586D01*
X21003211Y-8927477D01*
X20983632Y-8909059D01*
X20961546Y-8893737D01*
X20961126Y-8893531D01*
X20937856Y-8882055D01*
X20937856Y-8882055D01*
X20937438Y-8881849D01*
X20932675Y-8880324D01*
X20926020Y-8878194D01*
X20911837Y-8873654D01*
X20911376Y-8873579D01*
X20911376Y-8873579D01*
X20885767Y-8869408D01*
X20885768Y-8869408D01*
X20885306Y-8869333D01*
X20872272Y-8869162D01*
X20858896Y-8868987D01*
X20858896Y-8868987D01*
X20858428Y-8868981D01*
X20831794Y-8872606D01*
X20805987Y-8880128D01*
X20781576Y-8891382D01*
X20781185Y-8891638D01*
X20759488Y-8905863D01*
X20759488Y-8905864D01*
X20759097Y-8906120D01*
X20758748Y-8906431D01*
X20741572Y-8921762D01*
X20739043Y-8924019D01*
X20721854Y-8944685D01*
X20707910Y-8967666D01*
X20707729Y-8968097D01*
X20707729Y-8968097D01*
X20703175Y-8978957D01*
X20697515Y-8992455D01*
X20690898Y-9018508D01*
X20688205Y-9045253D01*
X15845396Y-9045253D01*
X15857385Y-9035886D01*
X15867665Y-9023977D01*
X15869905Y-9021381D01*
X15869905Y-9021381D01*
X15870308Y-9020915D01*
X15880077Y-9003718D01*
X15886320Y-8984951D01*
X15888798Y-8965330D01*
X15888838Y-8962500D01*
X15886908Y-8942817D01*
X15886083Y-8940084D01*
X15881370Y-8924473D01*
X15881192Y-8923883D01*
X15871907Y-8906420D01*
X15864871Y-8897794D01*
X15859796Y-8891571D01*
X15859796Y-8891571D01*
X15859406Y-8891094D01*
X15858772Y-8890569D01*
X15844642Y-8878880D01*
X15844642Y-8878880D01*
X15844167Y-8878487D01*
X15826770Y-8869080D01*
X15807877Y-8863232D01*
X15807264Y-8863167D01*
X15807264Y-8863167D01*
X15788820Y-8861229D01*
X15788820Y-8861229D01*
X15788207Y-8861165D01*
X15779958Y-8861915D01*
X15769125Y-8862901D01*
X15769125Y-8862901D01*
X15768511Y-8862957D01*
X15767921Y-8863131D01*
X15767920Y-8863131D01*
X15757408Y-8866225D01*
X15749538Y-8868541D01*
X15748992Y-8868826D01*
X15748992Y-8868827D01*
X15741883Y-8872543D01*
X15732011Y-8877704D01*
X15716597Y-8890097D01*
X15716201Y-8890569D01*
X15715761Y-8891094D01*
X15703885Y-8905247D01*
X15703588Y-8905787D01*
X15703587Y-8905788D01*
X15696687Y-8918340D01*
X15694357Y-8922579D01*
X15694171Y-8923165D01*
X15694170Y-8923166D01*
X15692904Y-8927157D01*
X15688376Y-8941431D01*
X15686172Y-8961085D01*
X15686223Y-8961700D01*
X15686427Y-8964129D01*
X15685004Y-8971085D01*
X15682781Y-8974093D01*
X15586746Y-9070128D01*
X15580514Y-9073531D01*
X15576937Y-9073727D01*
X15576937Y-9073733D01*
X15576835Y-9073733D01*
X15576519Y-9073750D01*
X15576320Y-9073729D01*
X15576320Y-9073729D01*
X15575707Y-9073665D01*
X15567458Y-9074415D01*
X15556625Y-9075401D01*
X15556625Y-9075401D01*
X15556011Y-9075457D01*
X15555421Y-9075631D01*
X15555420Y-9075631D01*
X15546203Y-9078344D01*
X15537038Y-9081041D01*
X15536492Y-9081326D01*
X15536492Y-9081327D01*
X15534047Y-9082605D01*
X15519511Y-9090204D01*
X15504097Y-9102597D01*
X15491385Y-9117747D01*
X15491088Y-9118287D01*
X15491087Y-9118288D01*
X15483869Y-9131417D01*
X15481857Y-9135079D01*
X15481671Y-9135665D01*
X15481670Y-9135666D01*
X15478731Y-9144932D01*
X15475876Y-9153931D01*
X15473672Y-9173585D01*
X15474442Y-9182757D01*
X15474504Y-9183496D01*
X15473081Y-9190451D01*
X15468123Y-9195533D01*
X15461948Y-9197150D01*
X15297548Y-9197150D01*
X15290736Y-9195150D01*
X15286086Y-9189784D01*
X15285076Y-9182757D01*
X15285564Y-9180657D01*
X15289354Y-9168993D01*
X15289619Y-9166474D01*
X15291281Y-9150657D01*
X15291350Y-9150000D01*
X15290806Y-9144821D01*
X15289423Y-9131664D01*
X15289423Y-9131663D01*
X15289354Y-9131007D01*
X15283453Y-9112844D01*
X15282981Y-9112028D01*
X15277313Y-9102210D01*
X15273904Y-9096306D01*
X15271120Y-9093214D01*
X15261567Y-9082605D01*
X15261567Y-9082604D01*
X15261125Y-9082113D01*
X15249496Y-9073665D01*
X15246209Y-9071276D01*
X15246209Y-9071276D01*
X15245675Y-9070888D01*
X15245072Y-9070620D01*
X15245072Y-9070620D01*
X15228832Y-9063389D01*
X15228832Y-9063389D01*
X15228229Y-9063121D01*
X15218889Y-9061135D01*
X15210194Y-9059287D01*
X15210194Y-9059287D01*
X15209549Y-9059150D01*
X15190451Y-9059150D01*
X15189806Y-9059287D01*
X15189806Y-9059287D01*
X15181111Y-9061135D01*
X15171771Y-9063121D01*
X15171168Y-9063389D01*
X15171168Y-9063389D01*
X15154928Y-9070620D01*
X15154928Y-9070620D01*
X15154325Y-9070888D01*
X15153791Y-9071276D01*
X15153791Y-9071276D01*
X15150504Y-9073665D01*
X15138875Y-9082113D01*
X15138433Y-9082604D01*
X15138432Y-9082605D01*
X15128880Y-9093214D01*
X15126096Y-9096306D01*
X15122687Y-9102210D01*
X15117019Y-9112028D01*
X15116547Y-9112844D01*
X15110646Y-9131007D01*
X15110577Y-9131663D01*
X15110577Y-9131664D01*
X15109194Y-9144821D01*
X15108650Y-9150000D01*
X15108719Y-9150657D01*
X15110381Y-9166474D01*
X15110646Y-9168993D01*
X15116547Y-9187156D01*
X15116878Y-9187728D01*
X15116878Y-9187728D01*
X15123539Y-9199266D01*
X15125213Y-9206165D01*
X15122891Y-9212875D01*
X15118880Y-9216505D01*
X15100269Y-9227142D01*
X15079509Y-9243508D01*
X15061397Y-9262762D01*
X15061130Y-9263146D01*
X15060150Y-9264559D01*
X15054624Y-9269016D01*
X15047565Y-9269778D01*
X15041215Y-9266602D01*
X15039902Y-9265177D01*
X15032419Y-9255685D01*
X15031492Y-9254509D01*
X15012238Y-9236397D01*
X14990519Y-9221330D01*
X14985424Y-9218817D01*
X14981726Y-9216994D01*
X14976501Y-9212187D01*
X14974705Y-9205318D01*
X14976387Y-9199393D01*
X14983122Y-9187728D01*
X14983122Y-9187728D01*
X14983453Y-9187156D01*
X14989354Y-9168993D01*
X14989619Y-9166474D01*
X14991281Y-9150657D01*
X14991350Y-9150000D01*
X14990806Y-9144821D01*
X14989423Y-9131664D01*
X14989423Y-9131663D01*
X14989354Y-9131007D01*
X14983453Y-9112844D01*
X14982981Y-9112028D01*
X14977313Y-9102210D01*
X14973904Y-9096306D01*
X14971120Y-9093214D01*
X14961567Y-9082605D01*
X14961567Y-9082604D01*
X14961125Y-9082113D01*
X14949496Y-9073665D01*
X14946209Y-9071276D01*
X14946209Y-9071276D01*
X14945675Y-9070888D01*
X14945072Y-9070620D01*
X14945072Y-9070620D01*
X14928832Y-9063389D01*
X14928832Y-9063389D01*
X14928229Y-9063121D01*
X14918889Y-9061135D01*
X14910194Y-9059287D01*
X14910194Y-9059287D01*
X14909549Y-9059150D01*
X14890451Y-9059150D01*
X14889806Y-9059287D01*
X14889806Y-9059287D01*
X14881111Y-9061135D01*
X14871771Y-9063121D01*
X14871168Y-9063389D01*
X14871168Y-9063389D01*
X14854928Y-9070620D01*
X14854928Y-9070620D01*
X14854325Y-9070888D01*
X14853791Y-9071276D01*
X14853791Y-9071276D01*
X14850504Y-9073665D01*
X14838875Y-9082113D01*
X14838433Y-9082604D01*
X14838432Y-9082605D01*
X14828880Y-9093214D01*
X14826096Y-9096306D01*
X14822687Y-9102210D01*
X14817019Y-9112028D01*
X14816547Y-9112844D01*
X14810646Y-9131007D01*
X14810577Y-9131663D01*
X14810577Y-9131664D01*
X14809194Y-9144821D01*
X14808650Y-9150000D01*
X14808719Y-9150657D01*
X14810381Y-9166474D01*
X14810646Y-9168993D01*
X14816547Y-9187156D01*
X14816878Y-9187728D01*
X14816878Y-9187728D01*
X14823535Y-9199259D01*
X14825209Y-9206158D01*
X14822887Y-9212867D01*
X14817898Y-9217001D01*
X14813535Y-9219013D01*
X14813144Y-9219269D01*
X14791819Y-9233250D01*
X14791819Y-9233250D01*
X14791428Y-9233507D01*
X14771707Y-9251109D01*
X14754804Y-9271432D01*
X14741090Y-9294031D01*
X14740909Y-9294462D01*
X14740909Y-9294462D01*
X14732973Y-9313389D01*
X14730868Y-9318409D01*
X14730753Y-9318862D01*
X14730752Y-9318863D01*
X14730306Y-9320620D01*
X14724361Y-9344030D01*
X14724299Y-9344640D01*
X14724280Y-9344687D01*
X14724233Y-9344956D01*
X14724175Y-9344946D01*
X14721627Y-9351217D01*
X14715823Y-9355306D01*
X14708730Y-9355607D01*
X14702599Y-9352026D01*
X14700851Y-9349678D01*
X14699234Y-9346877D01*
X14699234Y-9346877D01*
X14698904Y-9346306D01*
X14697689Y-9344956D01*
X14686567Y-9332605D01*
X14686567Y-9332604D01*
X14686125Y-9332113D01*
X14670675Y-9320888D01*
X14670072Y-9320620D01*
X14670072Y-9320620D01*
X14653832Y-9313389D01*
X14653832Y-9313389D01*
X14653229Y-9313121D01*
X14643889Y-9311135D01*
X14635194Y-9309287D01*
X14635194Y-9309287D01*
X14634549Y-9309150D01*
X14615451Y-9309150D01*
X14614806Y-9309287D01*
X14614806Y-9309287D01*
X14606111Y-9311135D01*
X14596771Y-9313121D01*
X14596168Y-9313389D01*
X14596168Y-9313389D01*
X14579928Y-9320620D01*
X14579928Y-9320620D01*
X14579325Y-9320888D01*
X14578791Y-9321276D01*
X14578791Y-9321276D01*
X14569906Y-9327731D01*
X14563219Y-9330117D01*
X14556304Y-9328509D01*
X14555094Y-9327731D01*
X14546209Y-9321276D01*
X14546209Y-9321276D01*
X14545675Y-9320888D01*
X14545072Y-9320620D01*
X14545072Y-9320620D01*
X14528832Y-9313389D01*
X14528832Y-9313389D01*
X14528229Y-9313121D01*
X14518889Y-9311135D01*
X14510194Y-9309287D01*
X14510194Y-9309287D01*
X14509549Y-9309150D01*
X14490451Y-9309150D01*
X14489806Y-9309287D01*
X14489806Y-9309287D01*
X14481111Y-9311135D01*
X14471771Y-9313121D01*
X14471168Y-9313389D01*
X14471168Y-9313389D01*
X14454928Y-9320620D01*
X14454928Y-9320620D01*
X14454325Y-9320888D01*
X14438875Y-9332113D01*
X14438433Y-9332604D01*
X14438432Y-9332605D01*
X14427311Y-9344956D01*
X14426096Y-9346306D01*
X14416547Y-9362844D01*
X14410646Y-9381007D01*
X14410577Y-9381663D01*
X14410577Y-9381664D01*
X14409308Y-9393737D01*
X14408650Y-9400000D01*
X14408719Y-9400657D01*
X14410464Y-9417262D01*
X14410646Y-9418993D01*
X14416547Y-9437156D01*
X14426096Y-9453694D01*
X14426538Y-9454185D01*
X14426538Y-9454185D01*
X14430914Y-9459045D01*
X14433985Y-9465446D01*
X14434150Y-9467476D01*
X14434150Y-10182524D01*
X14432150Y-10189336D01*
X14430914Y-10190955D01*
X14426096Y-10196306D01*
X14423605Y-10200620D01*
X14416882Y-10212264D01*
X14416547Y-10212844D01*
X14410646Y-10231007D01*
X14410577Y-10231663D01*
X14410577Y-10231664D01*
X14409351Y-10243325D01*
X14408650Y-10250000D01*
X14166320Y-10250000D01*
X13945040Y-10028720D01*
X13941638Y-10022489D01*
X13941350Y-10019811D01*
X13941350Y-8545253D01*
X20688205Y-8545253D01*
X20689495Y-8572102D01*
X20694739Y-8598466D01*
X20703822Y-8623765D01*
X20704043Y-8624176D01*
X20704043Y-8624177D01*
X20705777Y-8627403D01*
X20716545Y-8647443D01*
X20716824Y-8647817D01*
X20716825Y-8647818D01*
X20718844Y-8650522D01*
X20732628Y-8668981D01*
X20732959Y-8669309D01*
X20732960Y-8669310D01*
X20746533Y-8682765D01*
X20751718Y-8687905D01*
X20752094Y-8688181D01*
X20752095Y-8688181D01*
X20763330Y-8696419D01*
X20773395Y-8703800D01*
X20773809Y-8704017D01*
X20773809Y-8704017D01*
X20796770Y-8716098D01*
X20797184Y-8716315D01*
X20811435Y-8721292D01*
X20821368Y-8724761D01*
X20822561Y-8725178D01*
X20823021Y-8725265D01*
X20848511Y-8730104D01*
X20848511Y-8730104D01*
X20848970Y-8730191D01*
X20861737Y-8730693D01*
X20875363Y-8731228D01*
X20875363Y-8731228D01*
X20875829Y-8731247D01*
X20886261Y-8730104D01*
X20902084Y-8728371D01*
X20902085Y-8728371D01*
X20902550Y-8728320D01*
X20903002Y-8728201D01*
X20928092Y-8721596D01*
X20928092Y-8721596D01*
X20928544Y-8721477D01*
X20928974Y-8721292D01*
X20952812Y-8711050D01*
X20952812Y-8711050D01*
X20953241Y-8710866D01*
X20965987Y-8702978D01*
X20975702Y-8696967D01*
X20975702Y-8696967D01*
X20976099Y-8696721D01*
X20996615Y-8679353D01*
X21014338Y-8659143D01*
X21019432Y-8651224D01*
X21028627Y-8636929D01*
X21028880Y-8636536D01*
X21039920Y-8612028D01*
X21043621Y-8598905D01*
X21047089Y-8586607D01*
X21047089Y-8586607D01*
X21047216Y-8586157D01*
X21047796Y-8581597D01*
X21050569Y-8559805D01*
X21050569Y-8559804D01*
X21050609Y-8559492D01*
X21050637Y-8558402D01*
X21050849Y-8550316D01*
X21050857Y-8550000D01*
X21049892Y-8537017D01*
X21048900Y-8523659D01*
X21048900Y-8523659D01*
X21048865Y-8523194D01*
X21047702Y-8518054D01*
X21043036Y-8497433D01*
X21043036Y-8497433D01*
X21042933Y-8496976D01*
X21033190Y-8471924D01*
X21019852Y-8448586D01*
X21019473Y-8448105D01*
X21013242Y-8440201D01*
X21003211Y-8427477D01*
X20983632Y-8409059D01*
X20966113Y-8396906D01*
X20961930Y-8394004D01*
X20961930Y-8394004D01*
X20961546Y-8393737D01*
X20960266Y-8393106D01*
X20937856Y-8382055D01*
X20937856Y-8382055D01*
X20937438Y-8381849D01*
X20932675Y-8380324D01*
X20917413Y-8375439D01*
X20911837Y-8373654D01*
X20911376Y-8373579D01*
X20911376Y-8373579D01*
X20885767Y-8369408D01*
X20885768Y-8369408D01*
X20885306Y-8369333D01*
X20872272Y-8369162D01*
X20858896Y-8368987D01*
X20858896Y-8368987D01*
X20858428Y-8368981D01*
X20831794Y-8372606D01*
X20831345Y-8372737D01*
X20831345Y-8372737D01*
X20830865Y-8372877D01*
X20805987Y-8380128D01*
X20805562Y-8380324D01*
X20805562Y-8380324D01*
X20803623Y-8381218D01*
X20781576Y-8391382D01*
X20781185Y-8391638D01*
X20759488Y-8405863D01*
X20759488Y-8405864D01*
X20759097Y-8406120D01*
X20739043Y-8424019D01*
X20721854Y-8444685D01*
X20707910Y-8467666D01*
X20707729Y-8468097D01*
X20707729Y-8468097D01*
X20699737Y-8487156D01*
X20697515Y-8492455D01*
X20690898Y-8518508D01*
X20688205Y-8545253D01*
X13941350Y-8545253D01*
X13941350Y-8200000D01*
X14458650Y-8200000D01*
X14458719Y-8200656D01*
X14460446Y-8217090D01*
X14460646Y-8218993D01*
X14466547Y-8237156D01*
X14476096Y-8253694D01*
X14488875Y-8267887D01*
X14504325Y-8279112D01*
X14504928Y-8279380D01*
X14504928Y-8279380D01*
X14521168Y-8286611D01*
X14521771Y-8286879D01*
X14529641Y-8288552D01*
X14539806Y-8290713D01*
X14539806Y-8290713D01*
X14540451Y-8290850D01*
X14559549Y-8290850D01*
X14560194Y-8290713D01*
X14560194Y-8290713D01*
X14570359Y-8288552D01*
X14578229Y-8286879D01*
X14578832Y-8286611D01*
X14595072Y-8279380D01*
X14595072Y-8279380D01*
X14595675Y-8279112D01*
X14605094Y-8272269D01*
X14611781Y-8269883D01*
X14618696Y-8271491D01*
X14619906Y-8272269D01*
X14629325Y-8279112D01*
X14629928Y-8279380D01*
X14629928Y-8279380D01*
X14646168Y-8286611D01*
X14646771Y-8286879D01*
X14654641Y-8288552D01*
X14664806Y-8290713D01*
X14664806Y-8290713D01*
X14665451Y-8290850D01*
X14684549Y-8290850D01*
X14685194Y-8290713D01*
X14685194Y-8290713D01*
X14695359Y-8288552D01*
X14703229Y-8286879D01*
X14715068Y-8281608D01*
X14722105Y-8280665D01*
X14728534Y-8283675D01*
X14731936Y-8288552D01*
X14739025Y-8306781D01*
X14752142Y-8329731D01*
X14768507Y-8350491D01*
X14787761Y-8368603D01*
X14788146Y-8368870D01*
X14809097Y-8383404D01*
X14809098Y-8383404D01*
X14809481Y-8383670D01*
X14816027Y-8386898D01*
X14821251Y-8391705D01*
X14823048Y-8398574D01*
X14821366Y-8404499D01*
X14817777Y-8410714D01*
X14816547Y-8412844D01*
X14810646Y-8431007D01*
X14810577Y-8431663D01*
X14810577Y-8431664D01*
X14809239Y-8444392D01*
X14808650Y-8450000D01*
X14808719Y-8450657D01*
X14810484Y-8467455D01*
X14810646Y-8468993D01*
X14816547Y-8487156D01*
X14826096Y-8503694D01*
X14838875Y-8517887D01*
X14854325Y-8529112D01*
X14854928Y-8529380D01*
X14854928Y-8529380D01*
X14871168Y-8536611D01*
X14871771Y-8536879D01*
X14881111Y-8538865D01*
X14889806Y-8540713D01*
X14889806Y-8540713D01*
X14890451Y-8540850D01*
X14909549Y-8540850D01*
X14910194Y-8540713D01*
X14910194Y-8540713D01*
X14918889Y-8538865D01*
X14928229Y-8536879D01*
X14928832Y-8536611D01*
X14945072Y-8529380D01*
X14945072Y-8529380D01*
X14945675Y-8529112D01*
X14961125Y-8517887D01*
X14973904Y-8503694D01*
X14983453Y-8487156D01*
X14989354Y-8468993D01*
X14989516Y-8467455D01*
X14991281Y-8450657D01*
X14991350Y-8450000D01*
X14990761Y-8444392D01*
X14989423Y-8431664D01*
X14989423Y-8431663D01*
X14989354Y-8431007D01*
X14983453Y-8412844D01*
X14982223Y-8410714D01*
X14978745Y-8404690D01*
X14977071Y-8397791D01*
X14979393Y-8391082D01*
X14984382Y-8386948D01*
X14986040Y-8386183D01*
X14986041Y-8386183D01*
X14986465Y-8385987D01*
X14995402Y-8380128D01*
X15008180Y-8371750D01*
X15008181Y-8371750D01*
X15008572Y-8371493D01*
X15018432Y-8362692D01*
X15027944Y-8354203D01*
X15027944Y-8354203D01*
X15028293Y-8353891D01*
X15040112Y-8339681D01*
X15046005Y-8335723D01*
X15053104Y-8335579D01*
X15059199Y-8339348D01*
X15072458Y-8354203D01*
X15076109Y-8358293D01*
X15096432Y-8375196D01*
X15115798Y-8386948D01*
X15116886Y-8387608D01*
X15121672Y-8392852D01*
X15122863Y-8399851D01*
X15121261Y-8404680D01*
X15117777Y-8410714D01*
X15116547Y-8412844D01*
X15110646Y-8431007D01*
X15110577Y-8431663D01*
X15110577Y-8431664D01*
X15109239Y-8444392D01*
X15108650Y-8450000D01*
X15108719Y-8450657D01*
X15110484Y-8467455D01*
X15110646Y-8468993D01*
X15116547Y-8487156D01*
X15126096Y-8503694D01*
X15138875Y-8517887D01*
X15154325Y-8529112D01*
X15154928Y-8529380D01*
X15154928Y-8529380D01*
X15171168Y-8536611D01*
X15171771Y-8536879D01*
X15181111Y-8538865D01*
X15189806Y-8540713D01*
X15189806Y-8540713D01*
X15190451Y-8540850D01*
X15209549Y-8540850D01*
X15210194Y-8540713D01*
X15210194Y-8540713D01*
X15218889Y-8538865D01*
X15228229Y-8536879D01*
X15228832Y-8536611D01*
X15245072Y-8529380D01*
X15245072Y-8529380D01*
X15245675Y-8529112D01*
X15261125Y-8517887D01*
X15273904Y-8503694D01*
X15283453Y-8487156D01*
X15289354Y-8468993D01*
X15289516Y-8467455D01*
X15291281Y-8450657D01*
X15291350Y-8450000D01*
X15290761Y-8444392D01*
X15289423Y-8431664D01*
X15289423Y-8431663D01*
X15289354Y-8431007D01*
X15287189Y-8424343D01*
X15286986Y-8417247D01*
X15290652Y-8411167D01*
X15297024Y-8408035D01*
X15299172Y-8407850D01*
X15426320Y-8407850D01*
X15433132Y-8409850D01*
X15434771Y-8411169D01*
X15434794Y-8411142D01*
X15435096Y-8411407D01*
X15435381Y-8411691D01*
X15435699Y-8411936D01*
X15435699Y-8411936D01*
X15459442Y-8430254D01*
X15459442Y-8430254D01*
X15459761Y-8430500D01*
X15460109Y-8430704D01*
X15483987Y-8444685D01*
X15486334Y-8446059D01*
X15486702Y-8446216D01*
X15486702Y-8446216D01*
X15500520Y-8452095D01*
X15514668Y-8458116D01*
X15526637Y-8461491D01*
X15543918Y-8466365D01*
X15543919Y-8466365D01*
X15544304Y-8466474D01*
X15557289Y-8468403D01*
X15574433Y-8470950D01*
X15574433Y-8470950D01*
X15574763Y-8470999D01*
X15575096Y-8471013D01*
X15575096Y-8471013D01*
X15578763Y-8471166D01*
X15583144Y-8471350D01*
X17404514Y-8471350D01*
X17404708Y-8471356D01*
X17404814Y-8471370D01*
X17427334Y-8471350D01*
X17427790Y-8471350D01*
X17427790Y-8471446D01*
X17427796Y-8471448D01*
X17427796Y-8471350D01*
X17435607Y-8471343D01*
X17436004Y-8471292D01*
X17436004Y-8471292D01*
X17438166Y-8471013D01*
X17442743Y-8470422D01*
X17443552Y-8470345D01*
X17447313Y-8470105D01*
X17450329Y-8469912D01*
X17450330Y-8469912D01*
X17450730Y-8469887D01*
X17451124Y-8469811D01*
X17451124Y-8469810D01*
X17458010Y-8468478D01*
X17458792Y-8468352D01*
X17465749Y-8467455D01*
X17465750Y-8467455D01*
X17466147Y-8467404D01*
X17466534Y-8467302D01*
X17466534Y-8467302D01*
X17473107Y-8465584D01*
X17473900Y-8465404D01*
X17480569Y-8464114D01*
X17480569Y-8464114D01*
X17480962Y-8464038D01*
X17488004Y-8461715D01*
X17488764Y-8461491D01*
X17495549Y-8459717D01*
X17495549Y-8459717D01*
X17495938Y-8459616D01*
X17502612Y-8456926D01*
X17503374Y-8456647D01*
X17509825Y-8454520D01*
X17509825Y-8454520D01*
X17510206Y-8454394D01*
X17515015Y-8452095D01*
X17516896Y-8451196D01*
X17517621Y-8450877D01*
X17523305Y-8448586D01*
X17524499Y-8448105D01*
X17524848Y-8447910D01*
X17524848Y-8447910D01*
X17530776Y-8444590D01*
X17531498Y-8444216D01*
X17537625Y-8441287D01*
X17537626Y-8441286D01*
X17537987Y-8441114D01*
X17538324Y-8440896D01*
X17538325Y-8440896D01*
X17544218Y-8437090D01*
X17544896Y-8436682D01*
X17551015Y-8433256D01*
X17551365Y-8433059D01*
X17555981Y-8429638D01*
X17557144Y-8428775D01*
X17557813Y-8428312D01*
X17563519Y-8424628D01*
X17563519Y-8424628D01*
X17563856Y-8424410D01*
X17569524Y-8419629D01*
X17570144Y-8419139D01*
X17575835Y-8414920D01*
X17576102Y-8414722D01*
X17582277Y-8409043D01*
X17583002Y-8408318D01*
X17583787Y-8407597D01*
X17587085Y-8404815D01*
X17587085Y-8404815D01*
X17587393Y-8404556D01*
X17594234Y-8397103D01*
X17594607Y-8396714D01*
X17726024Y-8265296D01*
X17726168Y-8265152D01*
X17741355Y-8247896D01*
X17758596Y-8222383D01*
X17772456Y-8194885D01*
X17782709Y-8165850D01*
X17788069Y-8140955D01*
X17789106Y-8136138D01*
X17789106Y-8136138D01*
X17789190Y-8135747D01*
X17789367Y-8133670D01*
X17791631Y-8106991D01*
X17791794Y-8105065D01*
X17791582Y-8100113D01*
X17791435Y-8096669D01*
X17913725Y-8096669D01*
X17913755Y-8097185D01*
X17913755Y-8097185D01*
X17914301Y-8106659D01*
X17915011Y-8118971D01*
X17915125Y-8119476D01*
X17915125Y-8119477D01*
X17915994Y-8123331D01*
X17919922Y-8140764D01*
X17928327Y-8161462D01*
X17939999Y-8180509D01*
X17954625Y-8197394D01*
X17971813Y-8211663D01*
X17991100Y-8222934D01*
X17991583Y-8223118D01*
X17991583Y-8223118D01*
X17995261Y-8224523D01*
X18011969Y-8230903D01*
X18012476Y-8231006D01*
X18012476Y-8231006D01*
X18023202Y-8233188D01*
X18033860Y-8235357D01*
X18034377Y-8235376D01*
X18034377Y-8235376D01*
X18055667Y-8236156D01*
X18055668Y-8236156D01*
X18056184Y-8236175D01*
X18056696Y-8236110D01*
X18056696Y-8236110D01*
X18077829Y-8233402D01*
X18077829Y-8233402D01*
X18078342Y-8233337D01*
X18084965Y-8231350D01*
X18099243Y-8227066D01*
X18099243Y-8227066D01*
X18099738Y-8226917D01*
X18119799Y-8217090D01*
X18137986Y-8204117D01*
X18141179Y-8200936D01*
X18151118Y-8191032D01*
X18153810Y-8188349D01*
X18156950Y-8183979D01*
X18166544Y-8170628D01*
X18166845Y-8170208D01*
X18168813Y-8166227D01*
X18176514Y-8150645D01*
X18176514Y-8150645D01*
X18176743Y-8150181D01*
X18180038Y-8139336D01*
X18183087Y-8129302D01*
X18183087Y-8129302D01*
X18183237Y-8128807D01*
X18186153Y-8106659D01*
X18186316Y-8100000D01*
X18918650Y-8100000D01*
X18920646Y-8122809D01*
X18920788Y-8123340D01*
X18920788Y-8123340D01*
X18925585Y-8141242D01*
X18926572Y-8144924D01*
X18926804Y-8145422D01*
X18926804Y-8145422D01*
X18936015Y-8165176D01*
X18936015Y-8165177D01*
X18936248Y-8165675D01*
X18939097Y-8169744D01*
X18947443Y-8181663D01*
X18949380Y-8184430D01*
X18965570Y-8200620D01*
X18966021Y-8200935D01*
X18966021Y-8200936D01*
X18970045Y-8203753D01*
X18984325Y-8213752D01*
X18984823Y-8213985D01*
X18984824Y-8213985D01*
X19004477Y-8223149D01*
X19005076Y-8223428D01*
X19005607Y-8223571D01*
X19005607Y-8223571D01*
X19026660Y-8229212D01*
X19026660Y-8229212D01*
X19027191Y-8229354D01*
X19050000Y-8231350D01*
X19072809Y-8229354D01*
X19073340Y-8229212D01*
X19073340Y-8229212D01*
X19094393Y-8223571D01*
X19094394Y-8223571D01*
X19094924Y-8223428D01*
X19095524Y-8223149D01*
X19115176Y-8213985D01*
X19115177Y-8213985D01*
X19115675Y-8213752D01*
X19123024Y-8208606D01*
X19477849Y-8208606D01*
X19478779Y-8209808D01*
X19483899Y-8213393D01*
X19484849Y-8213941D01*
X19504595Y-8223149D01*
X19505624Y-8223524D01*
X19526669Y-8229162D01*
X19527748Y-8229353D01*
X19549453Y-8231252D01*
X19550548Y-8231252D01*
X19572252Y-8229353D01*
X19573331Y-8229162D01*
X19594376Y-8223524D01*
X19595405Y-8223149D01*
X19615151Y-8213941D01*
X19616101Y-8213393D01*
X19621305Y-8209749D01*
X19622142Y-8208701D01*
X19621436Y-8207357D01*
X19598892Y-8184813D01*
X20688650Y-8184813D01*
X20689326Y-8191032D01*
X20694439Y-8204670D01*
X20703174Y-8216326D01*
X20714830Y-8225061D01*
X20728468Y-8230174D01*
X20734687Y-8230850D01*
X21004313Y-8230850D01*
X21010532Y-8230174D01*
X21024171Y-8225061D01*
X21035826Y-8216326D01*
X21044562Y-8204670D01*
X21049675Y-8191032D01*
X21050350Y-8184813D01*
X21050350Y-7915187D01*
X21049675Y-7908968D01*
X21044562Y-7895329D01*
X21035826Y-7883674D01*
X21024171Y-7874938D01*
X21010532Y-7869825D01*
X21004313Y-7869150D01*
X20734687Y-7869150D01*
X20728468Y-7869825D01*
X20714830Y-7874938D01*
X20703174Y-7883674D01*
X20694439Y-7895329D01*
X20689326Y-7908968D01*
X20688650Y-7915187D01*
X20688650Y-8184813D01*
X19598892Y-8184813D01*
X19551281Y-8137202D01*
X19549887Y-8136441D01*
X19549704Y-8136454D01*
X19549042Y-8136879D01*
X19478492Y-8207429D01*
X19477849Y-8208606D01*
X19123024Y-8208606D01*
X19129956Y-8203753D01*
X19133979Y-8200936D01*
X19133979Y-8200935D01*
X19134430Y-8200620D01*
X19150620Y-8184430D01*
X19152557Y-8181663D01*
X19160903Y-8169744D01*
X19163752Y-8165675D01*
X19163985Y-8165177D01*
X19163985Y-8165176D01*
X19173196Y-8145422D01*
X19173196Y-8145422D01*
X19173428Y-8144924D01*
X19174415Y-8141242D01*
X19179212Y-8123340D01*
X19179212Y-8123340D01*
X19179354Y-8122809D01*
X19181302Y-8100547D01*
X19418748Y-8100547D01*
X19420647Y-8122252D01*
X19420838Y-8123331D01*
X19426476Y-8144376D01*
X19426851Y-8145405D01*
X19436059Y-8165151D01*
X19436607Y-8166101D01*
X19440251Y-8171305D01*
X19441299Y-8172142D01*
X19442643Y-8171436D01*
X19512798Y-8101281D01*
X19513436Y-8100113D01*
X19586441Y-8100113D01*
X19586454Y-8100296D01*
X19586879Y-8100958D01*
X19657429Y-8171508D01*
X19658606Y-8172151D01*
X19659808Y-8171221D01*
X19663393Y-8166101D01*
X19663941Y-8165151D01*
X19673149Y-8145405D01*
X19673524Y-8144376D01*
X19679163Y-8123331D01*
X19679353Y-8122252D01*
X19681252Y-8100547D01*
X19681252Y-8099452D01*
X19679353Y-8077748D01*
X19679163Y-8076669D01*
X19673524Y-8055624D01*
X19673149Y-8054595D01*
X19663941Y-8034849D01*
X19663393Y-8033899D01*
X19659749Y-8028695D01*
X19658701Y-8027858D01*
X19657357Y-8028564D01*
X19587202Y-8098719D01*
X19586441Y-8100113D01*
X19513436Y-8100113D01*
X19513559Y-8099887D01*
X19513546Y-8099703D01*
X19513121Y-8099042D01*
X19442571Y-8028492D01*
X19441394Y-8027849D01*
X19440192Y-8028779D01*
X19436607Y-8033899D01*
X19436059Y-8034849D01*
X19426851Y-8054595D01*
X19426476Y-8055624D01*
X19420838Y-8076669D01*
X19420647Y-8077748D01*
X19418748Y-8099452D01*
X19418748Y-8100547D01*
X19181302Y-8100547D01*
X19181350Y-8100000D01*
X19179354Y-8077191D01*
X19178687Y-8074701D01*
X19173571Y-8055607D01*
X19173571Y-8055606D01*
X19173428Y-8055076D01*
X19172745Y-8053610D01*
X19163985Y-8034824D01*
X19163985Y-8034823D01*
X19163752Y-8034325D01*
X19156410Y-8023839D01*
X19150936Y-8016021D01*
X19150936Y-8016021D01*
X19150620Y-8015570D01*
X19134430Y-7999380D01*
X19133979Y-7999064D01*
X19133979Y-7999064D01*
X19122889Y-7991299D01*
X19477858Y-7991299D01*
X19478564Y-7992643D01*
X19548719Y-8062798D01*
X19550113Y-8063559D01*
X19550297Y-8063546D01*
X19550958Y-8063121D01*
X19621508Y-7992571D01*
X19622151Y-7991394D01*
X19621221Y-7990192D01*
X19616101Y-7986607D01*
X19615151Y-7986059D01*
X19595405Y-7976851D01*
X19594376Y-7976476D01*
X19573331Y-7970837D01*
X19572252Y-7970647D01*
X19550548Y-7968748D01*
X19549453Y-7968748D01*
X19527748Y-7970647D01*
X19526669Y-7970837D01*
X19505624Y-7976476D01*
X19504595Y-7976851D01*
X19484849Y-7986059D01*
X19483899Y-7986607D01*
X19478695Y-7990251D01*
X19477858Y-7991299D01*
X19122889Y-7991299D01*
X19121392Y-7990251D01*
X19115675Y-7986248D01*
X19115177Y-7986015D01*
X19115176Y-7986015D01*
X19095423Y-7976804D01*
X19095422Y-7976804D01*
X19094924Y-7976572D01*
X19094394Y-7976429D01*
X19094393Y-7976429D01*
X19073340Y-7970788D01*
X19073340Y-7970788D01*
X19072809Y-7970646D01*
X19050000Y-7968650D01*
X19027191Y-7970646D01*
X19026660Y-7970788D01*
X19026660Y-7970788D01*
X19005607Y-7976429D01*
X19005607Y-7976429D01*
X19005076Y-7976572D01*
X19004578Y-7976804D01*
X19004578Y-7976804D01*
X18984824Y-7986015D01*
X18984823Y-7986015D01*
X18984325Y-7986248D01*
X18978608Y-7990251D01*
X18966021Y-7999064D01*
X18966021Y-7999064D01*
X18965570Y-7999380D01*
X18949380Y-8015570D01*
X18949065Y-8016021D01*
X18949064Y-8016021D01*
X18943590Y-8023839D01*
X18936248Y-8034325D01*
X18936015Y-8034823D01*
X18936015Y-8034824D01*
X18927255Y-8053610D01*
X18926572Y-8055076D01*
X18926429Y-8055606D01*
X18926429Y-8055607D01*
X18921313Y-8074701D01*
X18920646Y-8077191D01*
X18918650Y-8100000D01*
X18186316Y-8100000D01*
X18184485Y-8077736D01*
X18179043Y-8056070D01*
X18170135Y-8035584D01*
X18158001Y-8016828D01*
X18142967Y-8000305D01*
X18142562Y-7999985D01*
X18142562Y-7999985D01*
X18125841Y-7986780D01*
X18125841Y-7986780D01*
X18125436Y-7986460D01*
X18124709Y-7986059D01*
X18120214Y-7983577D01*
X18105879Y-7975664D01*
X18105392Y-7975491D01*
X18105392Y-7975491D01*
X18085309Y-7968379D01*
X18085308Y-7968379D01*
X18084821Y-7968207D01*
X18084312Y-7968116D01*
X18084312Y-7968116D01*
X18063337Y-7964380D01*
X18063337Y-7964380D01*
X18062828Y-7964289D01*
X18055445Y-7964199D01*
X18041008Y-7964023D01*
X18041008Y-7964023D01*
X18040491Y-7964016D01*
X18018409Y-7967395D01*
X17997176Y-7974336D01*
X17977361Y-7984651D01*
X17976947Y-7984961D01*
X17976947Y-7984961D01*
X17959910Y-7997753D01*
X17959497Y-7998063D01*
X17944063Y-8014214D01*
X17943772Y-8014641D01*
X17943771Y-8014641D01*
X17942830Y-8016021D01*
X17931474Y-8032668D01*
X17930118Y-8035590D01*
X17922423Y-8052167D01*
X17922069Y-8052930D01*
X17916099Y-8074457D01*
X17913725Y-8096669D01*
X17791435Y-8096669D01*
X17790579Y-8076669D01*
X17790478Y-8074300D01*
X17785263Y-8043952D01*
X17780324Y-8027849D01*
X17776352Y-8014897D01*
X17776352Y-8014897D01*
X17776234Y-8014513D01*
X17769977Y-8000687D01*
X17763704Y-7986826D01*
X17763538Y-7986460D01*
X17747380Y-7960247D01*
X17728023Y-7936300D01*
X17727732Y-7936021D01*
X17706070Y-7915284D01*
X17706069Y-7915284D01*
X17705779Y-7915006D01*
X17705456Y-7914767D01*
X17705456Y-7914767D01*
X17695609Y-7907494D01*
X17681011Y-7896712D01*
X17654118Y-7881712D01*
X17625537Y-7870252D01*
X17595732Y-7862516D01*
X17595335Y-7862466D01*
X17595335Y-7862466D01*
X17565584Y-7858681D01*
X17565584Y-7858681D01*
X17565186Y-7858630D01*
X17564785Y-7858631D01*
X17564784Y-7858631D01*
X17549590Y-7858644D01*
X17534393Y-7858657D01*
X17533996Y-7858708D01*
X17533996Y-7858708D01*
X17528303Y-7859443D01*
X17503854Y-7862596D01*
X17503465Y-7862698D01*
X17503465Y-7862698D01*
X17474450Y-7870283D01*
X17474450Y-7870283D01*
X17474062Y-7870384D01*
X17473690Y-7870534D01*
X17473689Y-7870534D01*
X17447467Y-7881102D01*
X17445501Y-7881895D01*
X17436781Y-7886778D01*
X17419393Y-7896516D01*
X17418635Y-7896940D01*
X17403408Y-7908228D01*
X17394588Y-7914767D01*
X17393898Y-7915278D01*
X17387723Y-7920957D01*
X17323720Y-7984959D01*
X17317489Y-7988362D01*
X17314811Y-7988650D01*
X15587210Y-7988650D01*
X15574750Y-7989445D01*
X15564671Y-7990088D01*
X15564670Y-7990088D01*
X15564270Y-7990113D01*
X15563876Y-7990190D01*
X15563876Y-7990190D01*
X15534431Y-7995886D01*
X15534431Y-7995886D01*
X15534038Y-7995962D01*
X15528608Y-7997753D01*
X15505176Y-8005480D01*
X15505175Y-8005480D01*
X15504794Y-8005606D01*
X15477013Y-8018886D01*
X15476676Y-8019104D01*
X15476676Y-8019104D01*
X15451826Y-8035149D01*
X15451144Y-8035590D01*
X15435188Y-8049050D01*
X15435032Y-8049181D01*
X15428536Y-8052044D01*
X15426908Y-8052150D01*
X15193289Y-8052150D01*
X15193057Y-8052167D01*
X15193056Y-8052167D01*
X15174104Y-8053576D01*
X15174103Y-8053576D01*
X15173638Y-8053610D01*
X15147856Y-8059444D01*
X15147421Y-8059613D01*
X15147420Y-8059614D01*
X15123654Y-8068856D01*
X15123654Y-8068856D01*
X15123219Y-8069025D01*
X15100269Y-8082142D01*
X15099902Y-8082431D01*
X15098250Y-8083733D01*
X15091662Y-8086380D01*
X15084689Y-8085044D01*
X15079545Y-8080151D01*
X15077850Y-8073838D01*
X15077850Y-7918689D01*
X15079850Y-7911877D01*
X15081540Y-7909780D01*
X15491320Y-7500000D01*
X18918650Y-7500000D01*
X18920646Y-7522809D01*
X18920788Y-7523340D01*
X18920788Y-7523340D01*
X18924503Y-7537202D01*
X18926572Y-7544924D01*
X18926804Y-7545422D01*
X18926804Y-7545422D01*
X18936015Y-7565176D01*
X18936015Y-7565177D01*
X18936248Y-7565675D01*
X18943590Y-7576161D01*
X18948634Y-7583364D01*
X18949380Y-7584430D01*
X18965570Y-7600620D01*
X18966021Y-7600935D01*
X18966021Y-7600936D01*
X18967690Y-7602104D01*
X18984325Y-7613752D01*
X18984823Y-7613985D01*
X18984824Y-7613985D01*
X19004477Y-7623149D01*
X19005076Y-7623428D01*
X19005607Y-7623571D01*
X19005607Y-7623571D01*
X19026660Y-7629212D01*
X19026660Y-7629212D01*
X19027191Y-7629354D01*
X19050000Y-7631350D01*
X19072809Y-7629354D01*
X19073340Y-7629212D01*
X19073340Y-7629212D01*
X19094393Y-7623571D01*
X19094394Y-7623571D01*
X19094924Y-7623428D01*
X19095524Y-7623149D01*
X19115176Y-7613985D01*
X19115177Y-7613985D01*
X19115675Y-7613752D01*
X19123024Y-7608606D01*
X19477849Y-7608606D01*
X19478779Y-7609808D01*
X19483899Y-7613393D01*
X19484849Y-7613941D01*
X19504595Y-7623149D01*
X19505624Y-7623524D01*
X19526669Y-7629162D01*
X19527748Y-7629353D01*
X19549453Y-7631252D01*
X19550548Y-7631252D01*
X19572252Y-7629353D01*
X19573331Y-7629162D01*
X19594376Y-7623524D01*
X19595405Y-7623149D01*
X19615151Y-7613941D01*
X19616101Y-7613393D01*
X19621305Y-7609749D01*
X19622142Y-7608701D01*
X19621436Y-7607357D01*
X19551281Y-7537202D01*
X19549887Y-7536441D01*
X19549704Y-7536454D01*
X19549042Y-7536879D01*
X19478492Y-7607429D01*
X19477849Y-7608606D01*
X19123024Y-7608606D01*
X19132310Y-7602104D01*
X19133979Y-7600936D01*
X19133979Y-7600935D01*
X19134430Y-7600620D01*
X19150620Y-7584430D01*
X19151366Y-7583364D01*
X19156410Y-7576161D01*
X19163752Y-7565675D01*
X19163985Y-7565177D01*
X19163985Y-7565176D01*
X19173196Y-7545422D01*
X19173196Y-7545422D01*
X19173428Y-7544924D01*
X19175498Y-7537202D01*
X19179212Y-7523340D01*
X19179212Y-7523340D01*
X19179354Y-7522809D01*
X19181302Y-7500547D01*
X19418748Y-7500547D01*
X19420647Y-7522252D01*
X19420838Y-7523331D01*
X19426476Y-7544376D01*
X19426851Y-7545405D01*
X19436059Y-7565151D01*
X19436607Y-7566101D01*
X19440251Y-7571305D01*
X19441299Y-7572142D01*
X19442643Y-7571436D01*
X19512798Y-7501281D01*
X19513436Y-7500113D01*
X19586441Y-7500113D01*
X19586454Y-7500296D01*
X19586879Y-7500958D01*
X19657429Y-7571508D01*
X19658606Y-7572151D01*
X19659808Y-7571221D01*
X19663393Y-7566101D01*
X19663941Y-7565151D01*
X19673149Y-7545405D01*
X19673524Y-7544376D01*
X19679163Y-7523331D01*
X19679353Y-7522252D01*
X19681252Y-7500547D01*
X19681252Y-7499452D01*
X19679353Y-7477748D01*
X19679163Y-7476669D01*
X19673524Y-7455624D01*
X19673149Y-7454595D01*
X19663941Y-7434849D01*
X19663393Y-7433899D01*
X19659749Y-7428695D01*
X19658701Y-7427858D01*
X19657357Y-7428564D01*
X19587202Y-7498719D01*
X19586441Y-7500113D01*
X19513436Y-7500113D01*
X19513559Y-7499887D01*
X19513546Y-7499703D01*
X19513121Y-7499042D01*
X19442571Y-7428492D01*
X19441394Y-7427849D01*
X19440192Y-7428779D01*
X19436607Y-7433899D01*
X19436059Y-7434849D01*
X19426851Y-7454595D01*
X19426476Y-7455624D01*
X19420838Y-7476669D01*
X19420647Y-7477748D01*
X19418748Y-7499452D01*
X19418748Y-7500547D01*
X19181302Y-7500547D01*
X19181350Y-7500000D01*
X19179354Y-7477191D01*
X19179212Y-7476660D01*
X19173571Y-7455607D01*
X19173571Y-7455606D01*
X19173428Y-7455076D01*
X19171960Y-7451927D01*
X19163985Y-7434824D01*
X19163985Y-7434823D01*
X19163752Y-7434325D01*
X19156365Y-7423775D01*
X19150936Y-7416021D01*
X19150936Y-7416021D01*
X19150620Y-7415570D01*
X19134430Y-7399380D01*
X19133979Y-7399064D01*
X19133979Y-7399064D01*
X19124037Y-7392103D01*
X19122889Y-7391299D01*
X19477858Y-7391299D01*
X19478564Y-7392643D01*
X19548719Y-7462798D01*
X19550113Y-7463559D01*
X19550297Y-7463546D01*
X19550958Y-7463121D01*
X19621508Y-7392571D01*
X19622151Y-7391394D01*
X19621221Y-7390192D01*
X19616101Y-7386607D01*
X19615151Y-7386059D01*
X19595405Y-7376851D01*
X19594376Y-7376476D01*
X19573331Y-7370837D01*
X19572252Y-7370647D01*
X19550548Y-7368748D01*
X19549453Y-7368748D01*
X19527748Y-7370647D01*
X19526669Y-7370837D01*
X19505624Y-7376476D01*
X19504595Y-7376851D01*
X19484849Y-7386059D01*
X19483899Y-7386607D01*
X19478695Y-7390251D01*
X19477858Y-7391299D01*
X19122889Y-7391299D01*
X19115675Y-7386248D01*
X19115177Y-7386015D01*
X19115176Y-7386015D01*
X19095423Y-7376804D01*
X19095422Y-7376804D01*
X19094924Y-7376572D01*
X19094394Y-7376429D01*
X19094393Y-7376429D01*
X19073340Y-7370788D01*
X19073340Y-7370788D01*
X19072809Y-7370646D01*
X19050000Y-7368650D01*
X19027191Y-7370646D01*
X19026660Y-7370788D01*
X19026660Y-7370788D01*
X19005607Y-7376429D01*
X19005607Y-7376429D01*
X19005076Y-7376572D01*
X19004578Y-7376804D01*
X19004578Y-7376804D01*
X18984824Y-7386015D01*
X18984823Y-7386015D01*
X18984325Y-7386248D01*
X18975963Y-7392103D01*
X18966021Y-7399064D01*
X18966021Y-7399064D01*
X18965570Y-7399380D01*
X18949380Y-7415570D01*
X18949065Y-7416021D01*
X18949064Y-7416021D01*
X18943635Y-7423775D01*
X18936248Y-7434325D01*
X18936015Y-7434823D01*
X18936015Y-7434824D01*
X18928040Y-7451927D01*
X18926572Y-7455076D01*
X18926429Y-7455606D01*
X18926429Y-7455607D01*
X18920788Y-7476660D01*
X18920646Y-7477191D01*
X18918650Y-7500000D01*
X15491320Y-7500000D01*
X15521280Y-7470040D01*
X15527511Y-7466638D01*
X15530189Y-7466350D01*
X17109514Y-7466350D01*
X17109708Y-7466356D01*
X17109814Y-7466370D01*
X17132334Y-7466350D01*
X17132790Y-7466350D01*
X17132790Y-7466446D01*
X17132796Y-7466447D01*
X17132796Y-7466350D01*
X17140607Y-7466343D01*
X17141004Y-7466292D01*
X17141004Y-7466292D01*
X17142297Y-7466125D01*
X17147743Y-7465422D01*
X17148552Y-7465345D01*
X17152313Y-7465105D01*
X17155329Y-7464912D01*
X17155330Y-7464912D01*
X17155730Y-7464887D01*
X17156124Y-7464810D01*
X17156124Y-7464810D01*
X17163010Y-7463478D01*
X17163792Y-7463352D01*
X17170749Y-7462455D01*
X17170750Y-7462455D01*
X17171147Y-7462403D01*
X17171534Y-7462302D01*
X17171534Y-7462302D01*
X17178107Y-7460584D01*
X17178900Y-7460404D01*
X17185569Y-7459114D01*
X17185569Y-7459114D01*
X17185962Y-7459037D01*
X17193004Y-7456715D01*
X17193764Y-7456491D01*
X17200549Y-7454717D01*
X17200549Y-7454717D01*
X17200938Y-7454616D01*
X17207612Y-7451926D01*
X17208374Y-7451647D01*
X17214825Y-7449520D01*
X17214825Y-7449520D01*
X17215206Y-7449394D01*
X17218988Y-7447586D01*
X17221896Y-7446196D01*
X17222621Y-7445877D01*
X17227323Y-7443982D01*
X17229499Y-7443105D01*
X17229848Y-7442910D01*
X17229848Y-7442910D01*
X17235776Y-7439590D01*
X17236498Y-7439216D01*
X17242625Y-7436287D01*
X17242626Y-7436286D01*
X17242987Y-7436113D01*
X17243324Y-7435896D01*
X17243325Y-7435895D01*
X17249218Y-7432090D01*
X17249896Y-7431682D01*
X17255230Y-7428695D01*
X17256365Y-7428059D01*
X17262144Y-7423775D01*
X17262813Y-7423312D01*
X17268519Y-7419628D01*
X17268519Y-7419628D01*
X17268856Y-7419410D01*
X17274524Y-7414629D01*
X17275144Y-7414139D01*
X17280835Y-7409920D01*
X17281102Y-7409722D01*
X17287277Y-7404043D01*
X17288002Y-7403318D01*
X17288787Y-7402597D01*
X17289078Y-7402352D01*
X17292393Y-7399555D01*
X17295161Y-7396540D01*
X17299234Y-7392103D01*
X17299607Y-7391714D01*
X17726168Y-6965152D01*
X17741355Y-6947896D01*
X17758596Y-6922383D01*
X17772456Y-6894885D01*
X17782709Y-6865850D01*
X17788007Y-6841242D01*
X17789106Y-6836138D01*
X17789106Y-6836138D01*
X17789190Y-6835747D01*
X17789341Y-6833968D01*
X17791223Y-6811791D01*
X17791794Y-6805065D01*
X17791582Y-6800113D01*
X17791435Y-6796669D01*
X17913725Y-6796669D01*
X17913755Y-6797185D01*
X17913755Y-6797185D01*
X17914597Y-6811784D01*
X17915011Y-6818971D01*
X17915125Y-6819476D01*
X17915125Y-6819477D01*
X17915994Y-6823331D01*
X17919922Y-6840764D01*
X17928327Y-6861462D01*
X17928597Y-6861902D01*
X17937951Y-6877167D01*
X17939999Y-6880509D01*
X17954625Y-6897394D01*
X17971813Y-6911663D01*
X17991100Y-6922934D01*
X17991583Y-6923118D01*
X17991583Y-6923118D01*
X17998861Y-6925897D01*
X18011969Y-6930903D01*
X18012476Y-6931006D01*
X18012476Y-6931006D01*
X18023202Y-6933188D01*
X18033860Y-6935357D01*
X18034377Y-6935376D01*
X18034377Y-6935376D01*
X18055667Y-6936156D01*
X18055668Y-6936156D01*
X18056184Y-6936175D01*
X18056696Y-6936110D01*
X18056696Y-6936110D01*
X18077829Y-6933402D01*
X18077829Y-6933402D01*
X18078342Y-6933337D01*
X18084965Y-6931350D01*
X18099243Y-6927066D01*
X18099243Y-6927066D01*
X18099738Y-6926917D01*
X18119799Y-6917090D01*
X18137986Y-6904117D01*
X18141179Y-6900936D01*
X18153444Y-6888714D01*
X18153810Y-6888349D01*
X18156950Y-6883979D01*
X18166544Y-6870628D01*
X18166845Y-6870208D01*
X18168813Y-6866227D01*
X18176514Y-6850645D01*
X18176514Y-6850645D01*
X18176743Y-6850181D01*
X18183237Y-6828807D01*
X18186153Y-6806659D01*
X18186302Y-6800547D01*
X18186307Y-6800336D01*
X18186307Y-6800336D01*
X18186316Y-6800000D01*
X18918650Y-6800000D01*
X18920646Y-6822809D01*
X18920788Y-6823340D01*
X18920788Y-6823340D01*
X18925585Y-6841242D01*
X18926572Y-6844924D01*
X18926804Y-6845422D01*
X18926804Y-6845422D01*
X18936015Y-6865176D01*
X18936015Y-6865177D01*
X18936248Y-6865675D01*
X18938347Y-6868673D01*
X18946908Y-6880899D01*
X18949380Y-6884430D01*
X18965570Y-6900620D01*
X18966021Y-6900935D01*
X18966021Y-6900936D01*
X18970045Y-6903753D01*
X18984325Y-6913752D01*
X18984823Y-6913985D01*
X18984824Y-6913985D01*
X19004477Y-6923149D01*
X19005076Y-6923428D01*
X19005607Y-6923571D01*
X19005607Y-6923571D01*
X19026660Y-6929212D01*
X19026660Y-6929212D01*
X19027191Y-6929354D01*
X19050000Y-6931350D01*
X19072809Y-6929354D01*
X19073340Y-6929212D01*
X19073340Y-6929212D01*
X19094393Y-6923571D01*
X19094394Y-6923571D01*
X19094924Y-6923428D01*
X19095524Y-6923149D01*
X19115176Y-6913985D01*
X19115177Y-6913985D01*
X19115675Y-6913752D01*
X19123024Y-6908606D01*
X19477849Y-6908606D01*
X19478779Y-6909808D01*
X19483899Y-6913393D01*
X19484849Y-6913941D01*
X19504595Y-6923149D01*
X19505624Y-6923524D01*
X19526669Y-6929162D01*
X19527748Y-6929353D01*
X19549453Y-6931252D01*
X19550548Y-6931252D01*
X19572252Y-6929353D01*
X19573331Y-6929162D01*
X19594376Y-6923524D01*
X19595405Y-6923149D01*
X19615151Y-6913941D01*
X19616101Y-6913393D01*
X19621305Y-6909749D01*
X19622142Y-6908701D01*
X19621436Y-6907357D01*
X19551281Y-6837202D01*
X19549887Y-6836441D01*
X19549704Y-6836454D01*
X19549042Y-6836879D01*
X19478492Y-6907429D01*
X19477849Y-6908606D01*
X19123024Y-6908606D01*
X19129956Y-6903753D01*
X19133979Y-6900936D01*
X19133979Y-6900935D01*
X19134430Y-6900620D01*
X19150620Y-6884430D01*
X19153092Y-6880899D01*
X19161653Y-6868673D01*
X19163752Y-6865675D01*
X19163985Y-6865177D01*
X19163985Y-6865176D01*
X19173196Y-6845422D01*
X19173196Y-6845422D01*
X19173428Y-6844924D01*
X19174415Y-6841242D01*
X19179212Y-6823340D01*
X19179212Y-6823340D01*
X19179354Y-6822809D01*
X19181302Y-6800547D01*
X19418748Y-6800547D01*
X19420647Y-6822252D01*
X19420838Y-6823331D01*
X19426476Y-6844376D01*
X19426851Y-6845405D01*
X19436059Y-6865151D01*
X19436607Y-6866101D01*
X19440251Y-6871305D01*
X19441299Y-6872142D01*
X19442643Y-6871436D01*
X19512798Y-6801281D01*
X19513436Y-6800113D01*
X19586441Y-6800113D01*
X19586454Y-6800296D01*
X19586879Y-6800958D01*
X19657429Y-6871508D01*
X19658606Y-6872151D01*
X19659808Y-6871221D01*
X19663393Y-6866101D01*
X19663941Y-6865151D01*
X19673149Y-6845405D01*
X19673524Y-6844376D01*
X19679163Y-6823331D01*
X19679353Y-6822252D01*
X19681252Y-6800547D01*
X19681252Y-6799452D01*
X19679353Y-6777748D01*
X19679163Y-6776669D01*
X19673524Y-6755624D01*
X19673149Y-6754595D01*
X19663941Y-6734849D01*
X19663393Y-6733899D01*
X19659749Y-6728695D01*
X19658701Y-6727858D01*
X19657357Y-6728564D01*
X19587202Y-6798719D01*
X19586441Y-6800113D01*
X19513436Y-6800113D01*
X19513559Y-6799887D01*
X19513546Y-6799703D01*
X19513121Y-6799042D01*
X19442571Y-6728492D01*
X19441394Y-6727849D01*
X19440192Y-6728779D01*
X19436607Y-6733899D01*
X19436059Y-6734849D01*
X19426851Y-6754595D01*
X19426476Y-6755624D01*
X19420838Y-6776669D01*
X19420647Y-6777748D01*
X19418748Y-6799452D01*
X19418748Y-6800547D01*
X19181302Y-6800547D01*
X19181350Y-6800000D01*
X19179354Y-6777191D01*
X19178687Y-6774701D01*
X19173571Y-6755607D01*
X19173571Y-6755606D01*
X19173428Y-6755076D01*
X19168807Y-6745165D01*
X19163985Y-6734824D01*
X19163985Y-6734823D01*
X19163752Y-6734325D01*
X19154435Y-6721019D01*
X19150936Y-6716021D01*
X19150936Y-6716021D01*
X19150620Y-6715570D01*
X19134430Y-6699380D01*
X19133979Y-6699064D01*
X19133979Y-6699064D01*
X19122889Y-6691299D01*
X19477858Y-6691299D01*
X19478564Y-6692643D01*
X19548719Y-6762798D01*
X19550113Y-6763559D01*
X19550297Y-6763546D01*
X19550958Y-6763121D01*
X19621508Y-6692571D01*
X19622151Y-6691394D01*
X19621221Y-6690192D01*
X19616101Y-6686607D01*
X19615151Y-6686059D01*
X19595405Y-6676851D01*
X19594376Y-6676476D01*
X19573331Y-6670837D01*
X19572252Y-6670647D01*
X19550548Y-6668748D01*
X19549453Y-6668748D01*
X19527748Y-6670647D01*
X19526669Y-6670837D01*
X19505624Y-6676476D01*
X19504595Y-6676851D01*
X19484849Y-6686059D01*
X19483899Y-6686607D01*
X19478695Y-6690251D01*
X19477858Y-6691299D01*
X19122889Y-6691299D01*
X19121392Y-6690251D01*
X19115675Y-6686248D01*
X19115177Y-6686015D01*
X19115176Y-6686015D01*
X19095423Y-6676804D01*
X19095422Y-6676804D01*
X19094924Y-6676572D01*
X19094394Y-6676429D01*
X19094393Y-6676429D01*
X19073340Y-6670788D01*
X19073340Y-6670788D01*
X19072809Y-6670646D01*
X19050000Y-6668650D01*
X19027191Y-6670646D01*
X19026660Y-6670788D01*
X19026660Y-6670788D01*
X19005607Y-6676429D01*
X19005607Y-6676429D01*
X19005076Y-6676572D01*
X19004578Y-6676804D01*
X19004578Y-6676804D01*
X18984824Y-6686015D01*
X18984823Y-6686015D01*
X18984325Y-6686248D01*
X18978608Y-6690251D01*
X18966021Y-6699064D01*
X18966021Y-6699064D01*
X18965570Y-6699380D01*
X18949380Y-6715570D01*
X18949065Y-6716021D01*
X18949064Y-6716021D01*
X18945565Y-6721019D01*
X18936248Y-6734325D01*
X18936015Y-6734823D01*
X18936015Y-6734824D01*
X18931193Y-6745165D01*
X18926572Y-6755076D01*
X18926429Y-6755606D01*
X18926429Y-6755607D01*
X18921313Y-6774701D01*
X18920646Y-6777191D01*
X18918650Y-6800000D01*
X18186316Y-6800000D01*
X18184485Y-6777736D01*
X18179043Y-6756070D01*
X18170135Y-6735584D01*
X18164999Y-6727643D01*
X18158282Y-6717262D01*
X18158282Y-6717261D01*
X18158001Y-6716828D01*
X18142967Y-6700305D01*
X18142562Y-6699985D01*
X18142562Y-6699985D01*
X18125841Y-6686780D01*
X18125841Y-6686780D01*
X18125436Y-6686460D01*
X18124709Y-6686059D01*
X18119489Y-6683177D01*
X18105879Y-6675664D01*
X18105392Y-6675491D01*
X18105392Y-6675491D01*
X18085309Y-6668379D01*
X18085308Y-6668379D01*
X18084821Y-6668207D01*
X18084312Y-6668116D01*
X18084312Y-6668116D01*
X18063337Y-6664380D01*
X18063337Y-6664380D01*
X18062828Y-6664289D01*
X18055445Y-6664199D01*
X18041008Y-6664023D01*
X18041008Y-6664023D01*
X18040491Y-6664016D01*
X18018409Y-6667395D01*
X17997176Y-6674336D01*
X17994144Y-6675914D01*
X17981623Y-6682432D01*
X17977361Y-6684651D01*
X17976947Y-6684961D01*
X17976947Y-6684961D01*
X17962478Y-6695825D01*
X17959497Y-6698063D01*
X17944063Y-6714214D01*
X17943772Y-6714641D01*
X17943771Y-6714641D01*
X17935831Y-6726281D01*
X17931474Y-6732668D01*
X17927663Y-6740879D01*
X17922540Y-6751915D01*
X17922069Y-6752930D01*
X17916099Y-6774457D01*
X17913725Y-6796669D01*
X17791435Y-6796669D01*
X17790579Y-6776669D01*
X17790478Y-6774300D01*
X17785263Y-6743952D01*
X17779744Y-6725958D01*
X17776352Y-6714897D01*
X17776352Y-6714897D01*
X17776234Y-6714513D01*
X17769977Y-6700687D01*
X17763704Y-6686826D01*
X17763538Y-6686460D01*
X17747380Y-6660247D01*
X17728023Y-6636300D01*
X17722905Y-6631400D01*
X17706070Y-6615284D01*
X17706069Y-6615284D01*
X17705779Y-6615006D01*
X17705456Y-6614767D01*
X17705456Y-6614767D01*
X17695609Y-6607494D01*
X17681011Y-6596712D01*
X17654118Y-6581712D01*
X17625537Y-6570252D01*
X17595732Y-6562516D01*
X17595335Y-6562466D01*
X17595335Y-6562466D01*
X17565584Y-6558681D01*
X17565584Y-6558681D01*
X17565186Y-6558630D01*
X17564785Y-6558631D01*
X17564784Y-6558631D01*
X17549590Y-6558644D01*
X17534393Y-6558657D01*
X17533996Y-6558708D01*
X17533996Y-6558708D01*
X17528303Y-6559443D01*
X17503854Y-6562596D01*
X17503465Y-6562698D01*
X17503465Y-6562698D01*
X17474450Y-6570283D01*
X17474450Y-6570283D01*
X17474062Y-6570384D01*
X17473690Y-6570534D01*
X17473689Y-6570534D01*
X17447667Y-6581022D01*
X17445501Y-6581895D01*
X17445151Y-6582091D01*
X17419393Y-6596516D01*
X17418635Y-6596940D01*
X17403947Y-6607829D01*
X17394588Y-6614767D01*
X17393898Y-6615278D01*
X17387723Y-6620957D01*
X17207398Y-6801281D01*
X17028720Y-6979959D01*
X17022489Y-6983362D01*
X17019811Y-6983650D01*
X15440486Y-6983650D01*
X15440292Y-6983644D01*
X15440186Y-6983630D01*
X15417666Y-6983650D01*
X15417210Y-6983650D01*
X15417210Y-6983554D01*
X15417204Y-6983552D01*
X15417204Y-6983650D01*
X15409393Y-6983657D01*
X15408996Y-6983708D01*
X15408996Y-6983708D01*
X15407703Y-6983875D01*
X15402257Y-6984578D01*
X15401448Y-6984655D01*
X15397687Y-6984895D01*
X15394671Y-6985088D01*
X15394670Y-6985088D01*
X15394270Y-6985113D01*
X15393876Y-6985189D01*
X15393876Y-6985190D01*
X15386990Y-6986522D01*
X15386208Y-6986648D01*
X15379251Y-6987545D01*
X15379250Y-6987545D01*
X15378853Y-6987596D01*
X15378466Y-6987698D01*
X15378466Y-6987698D01*
X15371893Y-6989416D01*
X15371100Y-6989596D01*
X15364431Y-6990886D01*
X15364431Y-6990886D01*
X15364038Y-6990962D01*
X15359140Y-6992578D01*
X15356996Y-6993285D01*
X15356236Y-6993509D01*
X15353475Y-6994231D01*
X15349062Y-6995384D01*
X15348690Y-6995534D01*
X15342390Y-6998073D01*
X15341626Y-6998353D01*
X15334794Y-7000606D01*
X15328103Y-7003804D01*
X15327381Y-7004122D01*
X15320874Y-7006744D01*
X15320873Y-7006745D01*
X15320501Y-7006895D01*
X15320151Y-7007091D01*
X15320151Y-7007091D01*
X15314225Y-7010409D01*
X15313503Y-7010784D01*
X15307013Y-7013886D01*
X15306675Y-7014104D01*
X15300781Y-7017910D01*
X15300104Y-7018318D01*
X15293635Y-7021941D01*
X15293313Y-7022180D01*
X15287856Y-7026225D01*
X15287187Y-7026688D01*
X15281481Y-7030372D01*
X15281481Y-7030372D01*
X15281144Y-7030590D01*
X15275476Y-7035371D01*
X15274856Y-7035861D01*
X15268898Y-7040278D01*
X15262723Y-7045957D01*
X15261998Y-7046682D01*
X15261213Y-7047403D01*
X15257607Y-7050444D01*
X15257335Y-7050741D01*
X15257335Y-7050741D01*
X15250766Y-7057897D01*
X15250393Y-7058286D01*
X14723832Y-7584848D01*
X14723700Y-7584998D01*
X14723699Y-7584998D01*
X14712909Y-7597259D01*
X14706907Y-7601052D01*
X14699807Y-7600997D01*
X14693864Y-7597113D01*
X14690965Y-7590632D01*
X14690850Y-7588935D01*
X14690850Y-7249714D01*
X14692850Y-7242902D01*
X14698216Y-7238252D01*
X14700830Y-7237389D01*
X14702583Y-7237017D01*
X14702583Y-7237017D01*
X14703229Y-7236879D01*
X14718255Y-7230189D01*
X14720072Y-7229380D01*
X14720072Y-7229380D01*
X14720675Y-7229112D01*
X14736125Y-7217887D01*
X14748904Y-7203694D01*
X14758453Y-7187156D01*
X14764354Y-7168993D01*
X14765736Y-7155850D01*
X14766281Y-7150656D01*
X14766350Y-7150000D01*
X14765495Y-7141864D01*
X14764423Y-7131663D01*
X14764423Y-7131663D01*
X14764354Y-7131007D01*
X14758453Y-7112844D01*
X14756703Y-7109813D01*
X14749234Y-7096877D01*
X14748904Y-7096306D01*
X14744942Y-7091905D01*
X14736567Y-7082604D01*
X14736567Y-7082604D01*
X14736125Y-7082113D01*
X14722806Y-7072436D01*
X14721209Y-7071276D01*
X14721209Y-7071276D01*
X14720675Y-7070888D01*
X14720072Y-7070620D01*
X14720072Y-7070620D01*
X14703832Y-7063389D01*
X14703832Y-7063389D01*
X14703229Y-7063121D01*
X14693889Y-7061135D01*
X14685194Y-7059287D01*
X14685194Y-7059287D01*
X14684549Y-7059150D01*
X14665451Y-7059150D01*
X14664806Y-7059287D01*
X14664806Y-7059287D01*
X14656111Y-7061135D01*
X14646771Y-7063121D01*
X14646168Y-7063389D01*
X14646168Y-7063389D01*
X14629928Y-7070620D01*
X14629928Y-7070620D01*
X14629325Y-7070888D01*
X14628791Y-7071276D01*
X14628791Y-7071276D01*
X14619906Y-7077731D01*
X14613219Y-7080117D01*
X14606304Y-7078509D01*
X14605094Y-7077731D01*
X14596209Y-7071276D01*
X14596209Y-7071276D01*
X14595675Y-7070888D01*
X14595072Y-7070620D01*
X14595072Y-7070620D01*
X14578832Y-7063389D01*
X14578832Y-7063389D01*
X14578229Y-7063121D01*
X14568889Y-7061135D01*
X14560194Y-7059287D01*
X14560194Y-7059287D01*
X14559549Y-7059150D01*
X14540451Y-7059150D01*
X14539806Y-7059287D01*
X14539806Y-7059287D01*
X14531111Y-7061135D01*
X14521771Y-7063121D01*
X14521168Y-7063389D01*
X14521168Y-7063389D01*
X14504928Y-7070620D01*
X14504928Y-7070620D01*
X14504325Y-7070888D01*
X14503791Y-7071276D01*
X14503791Y-7071276D01*
X14502194Y-7072436D01*
X14488875Y-7082113D01*
X14488433Y-7082604D01*
X14488432Y-7082604D01*
X14480058Y-7091905D01*
X14476096Y-7096306D01*
X14475766Y-7096877D01*
X14468297Y-7109813D01*
X14466547Y-7112844D01*
X14460646Y-7131007D01*
X14460577Y-7131663D01*
X14460577Y-7131663D01*
X14459505Y-7141864D01*
X14458650Y-7150000D01*
X14458719Y-7150656D01*
X14459264Y-7155850D01*
X14460646Y-7168993D01*
X14466547Y-7187156D01*
X14476096Y-7203694D01*
X14476538Y-7204185D01*
X14476538Y-7204185D01*
X14480914Y-7209045D01*
X14483985Y-7215446D01*
X14484150Y-7217476D01*
X14484150Y-8132524D01*
X14482150Y-8139336D01*
X14480914Y-8140955D01*
X14476096Y-8146306D01*
X14472412Y-8152687D01*
X14467346Y-8161462D01*
X14466547Y-8162844D01*
X14460646Y-8181007D01*
X14460577Y-8181663D01*
X14460577Y-8181663D01*
X14459918Y-8187929D01*
X14458650Y-8200000D01*
X13941350Y-8200000D01*
X13941350Y-7615486D01*
X13941356Y-7615292D01*
X13941370Y-7615186D01*
X13941350Y-7592581D01*
X13941350Y-7230189D01*
X13943350Y-7223377D01*
X13945040Y-7221280D01*
X14063002Y-7103318D01*
X14063787Y-7102597D01*
X14067085Y-7099815D01*
X14067085Y-7099815D01*
X14067393Y-7099555D01*
X14074234Y-7092103D01*
X14074607Y-7091714D01*
X14196280Y-6970040D01*
X14202511Y-6966638D01*
X14205189Y-6966350D01*
X15171022Y-6966350D01*
X15183482Y-6965555D01*
X15193562Y-6964912D01*
X15193562Y-6964912D01*
X15193962Y-6964887D01*
X15194356Y-6964810D01*
X15223801Y-6959114D01*
X15223801Y-6959114D01*
X15224194Y-6959037D01*
X15238091Y-6954455D01*
X15253056Y-6949520D01*
X15253057Y-6949520D01*
X15253438Y-6949394D01*
X15281220Y-6936113D01*
X15281556Y-6935896D01*
X15281556Y-6935896D01*
X15306751Y-6919628D01*
X15306752Y-6919628D01*
X15307088Y-6919410D01*
X15325217Y-6904117D01*
X15330317Y-6899815D01*
X15330318Y-6899815D01*
X15330625Y-6899555D01*
X15340577Y-6888714D01*
X15351176Y-6877167D01*
X15351177Y-6877166D01*
X15351448Y-6876871D01*
X15369220Y-6851724D01*
X15371054Y-6848267D01*
X15576448Y-6848267D01*
X15577021Y-6849032D01*
X15594136Y-6859520D01*
X15595016Y-6859969D01*
X15616031Y-6868673D01*
X15616970Y-6868978D01*
X15639088Y-6874288D01*
X15640062Y-6874443D01*
X15662739Y-6876227D01*
X15663725Y-6876227D01*
X15686402Y-6874443D01*
X15687377Y-6874288D01*
X15709495Y-6868978D01*
X15710433Y-6868673D01*
X15731449Y-6859969D01*
X15732328Y-6859520D01*
X15749077Y-6849257D01*
X15750023Y-6848211D01*
X15749645Y-6847333D01*
X15664513Y-6762202D01*
X15663119Y-6761441D01*
X15662936Y-6761454D01*
X15662274Y-6761879D01*
X15577124Y-6847029D01*
X15576448Y-6848267D01*
X15371054Y-6848267D01*
X15383652Y-6824523D01*
X15384098Y-6823340D01*
X15388453Y-6811784D01*
X15394512Y-6795709D01*
X15395947Y-6789659D01*
X15401529Y-6766140D01*
X15401529Y-6766140D01*
X15401622Y-6765749D01*
X15404867Y-6735127D01*
X15404834Y-6733602D01*
X15404657Y-6725493D01*
X15512005Y-6725493D01*
X15513789Y-6748170D01*
X15513944Y-6749145D01*
X15519254Y-6771263D01*
X15519559Y-6772201D01*
X15528264Y-6793216D01*
X15528712Y-6794096D01*
X15538975Y-6810844D01*
X15540021Y-6811791D01*
X15540899Y-6811412D01*
X15626030Y-6726281D01*
X15626668Y-6725113D01*
X15699673Y-6725113D01*
X15699686Y-6725296D01*
X15700111Y-6725958D01*
X15785261Y-6811108D01*
X15786499Y-6811784D01*
X15787264Y-6811211D01*
X15797753Y-6794096D01*
X15798201Y-6793216D01*
X15806906Y-6772201D01*
X15807211Y-6771263D01*
X15812521Y-6749145D01*
X15812675Y-6748170D01*
X15814460Y-6725493D01*
X15814460Y-6724507D01*
X15812675Y-6701830D01*
X15812521Y-6700855D01*
X15807211Y-6678737D01*
X15806906Y-6677799D01*
X15798201Y-6656784D01*
X15797753Y-6655904D01*
X15787489Y-6639155D01*
X15786443Y-6638209D01*
X15785566Y-6638588D01*
X15700434Y-6723719D01*
X15699673Y-6725113D01*
X15626668Y-6725113D01*
X15626791Y-6724887D01*
X15626778Y-6724703D01*
X15626353Y-6724042D01*
X15541203Y-6638892D01*
X15539965Y-6638216D01*
X15539200Y-6638789D01*
X15528712Y-6655904D01*
X15528264Y-6656784D01*
X15519559Y-6677799D01*
X15519254Y-6678737D01*
X15513944Y-6700855D01*
X15513789Y-6701830D01*
X15512005Y-6724507D01*
X15512005Y-6725493D01*
X15404657Y-6725493D01*
X15404204Y-6704744D01*
X15404204Y-6704743D01*
X15404195Y-6704342D01*
X15399617Y-6673892D01*
X15399248Y-6672591D01*
X15393810Y-6653438D01*
X15391207Y-6644270D01*
X15379101Y-6615957D01*
X15370773Y-6601789D01*
X15576442Y-6601789D01*
X15576820Y-6602667D01*
X15661951Y-6687798D01*
X15663345Y-6688559D01*
X15663529Y-6688546D01*
X15664190Y-6688121D01*
X15749340Y-6602971D01*
X15750016Y-6601733D01*
X15749444Y-6600968D01*
X15732328Y-6590479D01*
X15731449Y-6590031D01*
X15710433Y-6581327D01*
X15709495Y-6581022D01*
X15687377Y-6575711D01*
X15686402Y-6575557D01*
X15663725Y-6573772D01*
X15662739Y-6573772D01*
X15640062Y-6575557D01*
X15639088Y-6575711D01*
X15616970Y-6581022D01*
X15616031Y-6581327D01*
X15595016Y-6590031D01*
X15594136Y-6590479D01*
X15577388Y-6600743D01*
X15576442Y-6601789D01*
X15370773Y-6601789D01*
X15363496Y-6589411D01*
X15344644Y-6565064D01*
X15322852Y-6543309D01*
X15322533Y-6543064D01*
X15298791Y-6524746D01*
X15298790Y-6524746D01*
X15298471Y-6524500D01*
X15293766Y-6521745D01*
X15272245Y-6509144D01*
X15272245Y-6509143D01*
X15271899Y-6508941D01*
X15271530Y-6508784D01*
X15271530Y-6508784D01*
X15247016Y-6498353D01*
X15243564Y-6496884D01*
X15230800Y-6493285D01*
X15214315Y-6488635D01*
X15214314Y-6488635D01*
X15213928Y-6488526D01*
X15190955Y-6485113D01*
X15183799Y-6484050D01*
X15183799Y-6484050D01*
X15183469Y-6484001D01*
X15183136Y-6483987D01*
X15183136Y-6483987D01*
X15179469Y-6483834D01*
X15175088Y-6483650D01*
X14115486Y-6483650D01*
X14115292Y-6483644D01*
X14115186Y-6483630D01*
X14092666Y-6483650D01*
X14092210Y-6483650D01*
X14092210Y-6483554D01*
X14092204Y-6483552D01*
X14092204Y-6483650D01*
X14084393Y-6483657D01*
X14083996Y-6483708D01*
X14083996Y-6483708D01*
X14082703Y-6483875D01*
X14077257Y-6484578D01*
X14076448Y-6484655D01*
X14072687Y-6484895D01*
X14069671Y-6485088D01*
X14069670Y-6485088D01*
X14069270Y-6485113D01*
X14068876Y-6485189D01*
X14068876Y-6485190D01*
X14061990Y-6486522D01*
X14061208Y-6486648D01*
X14054251Y-6487545D01*
X14054250Y-6487545D01*
X14053853Y-6487596D01*
X14053466Y-6487698D01*
X14053466Y-6487698D01*
X14046893Y-6489416D01*
X14046100Y-6489596D01*
X14039431Y-6490886D01*
X14039431Y-6490886D01*
X14039038Y-6490962D01*
X14034140Y-6492578D01*
X14031996Y-6493285D01*
X14031236Y-6493509D01*
X14028475Y-6494231D01*
X14024062Y-6495384D01*
X14017390Y-6498073D01*
X14016626Y-6498353D01*
X14009794Y-6500606D01*
X14003103Y-6503804D01*
X14002381Y-6504122D01*
X13995874Y-6506744D01*
X13995873Y-6506745D01*
X13995501Y-6506895D01*
X13995151Y-6507091D01*
X13995151Y-6507091D01*
X13989225Y-6510409D01*
X13988503Y-6510784D01*
X13982013Y-6513886D01*
X13979050Y-6515800D01*
X13975781Y-6517910D01*
X13975104Y-6518318D01*
X13968635Y-6521941D01*
X13968313Y-6522180D01*
X13962856Y-6526225D01*
X13962187Y-6526688D01*
X13956481Y-6530372D01*
X13956481Y-6530372D01*
X13956144Y-6530590D01*
X13950476Y-6535371D01*
X13949856Y-6535861D01*
X13943898Y-6540278D01*
X13937723Y-6545957D01*
X13936998Y-6546682D01*
X13936213Y-6547403D01*
X13932607Y-6550444D01*
X13932335Y-6550741D01*
X13932335Y-6550741D01*
X13925766Y-6557897D01*
X13925393Y-6558286D01*
X13803720Y-6679959D01*
X13797489Y-6683362D01*
X13794811Y-6683650D01*
X13566970Y-6683650D01*
X13563551Y-6683177D01*
X13560906Y-6682431D01*
X13560134Y-6682186D01*
X13553350Y-6679791D01*
X13546099Y-6678229D01*
X13545333Y-6678039D01*
X13538196Y-6676026D01*
X13537798Y-6675967D01*
X13537797Y-6675967D01*
X13534062Y-6675412D01*
X13531079Y-6674969D01*
X13530282Y-6674824D01*
X13523247Y-6673310D01*
X13517487Y-6672821D01*
X13515857Y-6672682D01*
X13515071Y-6672591D01*
X13508067Y-6671550D01*
X13508067Y-6671550D01*
X13507737Y-6671501D01*
X13507404Y-6671487D01*
X13507404Y-6671487D01*
X13503737Y-6671334D01*
X13499355Y-6671150D01*
X13498330Y-6671150D01*
X13497265Y-6671105D01*
X13497166Y-6671096D01*
X13492565Y-6670706D01*
X13492165Y-6670723D01*
X13492165Y-6670723D01*
X13482460Y-6671138D01*
X13481921Y-6671150D01*
X13117689Y-6671150D01*
X13110877Y-6669150D01*
X13108780Y-6667459D01*
X12967829Y-6526508D01*
X12964426Y-6520277D01*
X12964933Y-6513196D01*
X12967829Y-6508689D01*
X12971836Y-6504682D01*
X12972356Y-6504191D01*
X12977944Y-6499203D01*
X12977944Y-6499203D01*
X12978293Y-6498891D01*
X12985682Y-6490008D01*
X12985822Y-6489842D01*
X12986034Y-6489596D01*
X12991240Y-6483554D01*
X12993061Y-6481441D01*
X12993061Y-6481440D01*
X12993367Y-6481086D01*
X12993616Y-6480690D01*
X12993617Y-6480690D01*
X12993759Y-6480465D01*
X12994727Y-6479132D01*
X12994897Y-6478928D01*
X12994898Y-6478927D01*
X12995196Y-6478568D01*
X13001197Y-6468679D01*
X13001298Y-6468516D01*
X13007473Y-6458730D01*
X13007661Y-6458302D01*
X13007661Y-6458301D01*
X13007768Y-6458057D01*
X13008529Y-6456596D01*
X13008910Y-6455969D01*
X13013379Y-6445311D01*
X13013466Y-6445109D01*
X13017930Y-6434962D01*
X13017930Y-6434962D01*
X13018119Y-6434534D01*
X13018312Y-6433826D01*
X13018848Y-6432268D01*
X13019132Y-6431591D01*
X13021977Y-6420391D01*
X13022032Y-6420179D01*
X13024949Y-6409482D01*
X13025072Y-6409031D01*
X13025158Y-6408301D01*
X13025459Y-6406681D01*
X13025524Y-6406423D01*
X13025639Y-6405970D01*
X13026796Y-6394478D01*
X13026820Y-6394260D01*
X13028124Y-6383243D01*
X13028179Y-6382779D01*
X13027856Y-6372205D01*
X13027850Y-6371820D01*
X13027850Y-6331013D01*
X13028037Y-6328871D01*
X13028139Y-6328470D01*
X13029297Y-6316969D01*
X13029321Y-6316753D01*
X13029505Y-6315194D01*
X13030679Y-6305279D01*
X13030356Y-6294707D01*
X13030350Y-6294322D01*
X13030350Y-6200000D01*
X14137054Y-6200000D01*
X14138914Y-6221261D01*
X14139057Y-6221792D01*
X14139057Y-6221792D01*
X14139469Y-6223331D01*
X14144438Y-6241875D01*
X14144670Y-6242374D01*
X14144670Y-6242374D01*
X14153225Y-6260719D01*
X14153225Y-6260720D01*
X14153457Y-6261218D01*
X14153773Y-6261669D01*
X14153773Y-6261669D01*
X14163999Y-6276273D01*
X14165699Y-6278700D01*
X14180790Y-6293791D01*
X14181240Y-6294107D01*
X14181241Y-6294107D01*
X14183645Y-6295790D01*
X14198272Y-6306033D01*
X14198770Y-6306265D01*
X14198771Y-6306265D01*
X14217116Y-6314820D01*
X14217614Y-6315052D01*
X14218145Y-6315194D01*
X14218145Y-6315194D01*
X14237698Y-6320433D01*
X14237698Y-6320433D01*
X14238229Y-6320576D01*
X14259490Y-6322436D01*
X14280751Y-6320576D01*
X14281282Y-6320433D01*
X14281282Y-6320433D01*
X14300834Y-6315194D01*
X14300835Y-6315194D01*
X14301365Y-6315052D01*
X14301864Y-6314820D01*
X14320209Y-6306265D01*
X14320210Y-6306265D01*
X14320708Y-6306033D01*
X14335335Y-6295790D01*
X14337739Y-6294107D01*
X14337739Y-6294107D01*
X14338190Y-6293791D01*
X14353281Y-6278700D01*
X14354981Y-6276273D01*
X14355219Y-6275933D01*
X14488040Y-6275933D01*
X14488715Y-6282152D01*
X14493828Y-6295790D01*
X14502564Y-6307446D01*
X14514219Y-6316181D01*
X14527858Y-6321294D01*
X14534077Y-6321970D01*
X14685943Y-6321970D01*
X14692162Y-6321294D01*
X14705800Y-6316181D01*
X14717456Y-6307446D01*
X14726191Y-6295790D01*
X14731304Y-6282152D01*
X14731980Y-6275933D01*
X14731980Y-6200000D01*
X18918650Y-6200000D01*
X18920646Y-6222809D01*
X18920788Y-6223340D01*
X18920788Y-6223340D01*
X18925888Y-6242374D01*
X18926572Y-6244924D01*
X18926804Y-6245422D01*
X18926804Y-6245422D01*
X18936015Y-6265176D01*
X18936015Y-6265177D01*
X18936248Y-6265675D01*
X18936563Y-6266126D01*
X18947235Y-6281366D01*
X18949380Y-6284430D01*
X18965570Y-6300620D01*
X18966021Y-6300935D01*
X18966021Y-6300936D01*
X18971558Y-6304812D01*
X18984325Y-6313752D01*
X18984823Y-6313985D01*
X18984824Y-6313985D01*
X19004477Y-6323149D01*
X19005076Y-6323428D01*
X19005607Y-6323571D01*
X19005607Y-6323571D01*
X19026660Y-6329212D01*
X19026660Y-6329212D01*
X19027191Y-6329354D01*
X19050000Y-6331350D01*
X19072809Y-6329354D01*
X19073340Y-6329212D01*
X19073340Y-6329212D01*
X19094393Y-6323571D01*
X19094394Y-6323571D01*
X19094924Y-6323428D01*
X19095524Y-6323149D01*
X19115176Y-6313985D01*
X19115177Y-6313985D01*
X19115675Y-6313752D01*
X19123024Y-6308606D01*
X19477849Y-6308606D01*
X19478779Y-6309808D01*
X19483899Y-6313393D01*
X19484849Y-6313941D01*
X19504595Y-6323149D01*
X19505624Y-6323524D01*
X19526669Y-6329162D01*
X19527748Y-6329353D01*
X19549453Y-6331252D01*
X19550548Y-6331252D01*
X19572252Y-6329353D01*
X19573331Y-6329162D01*
X19594376Y-6323524D01*
X19595405Y-6323149D01*
X19615151Y-6313941D01*
X19616101Y-6313393D01*
X19621305Y-6309749D01*
X19622142Y-6308701D01*
X19621436Y-6307357D01*
X19551281Y-6237202D01*
X19549887Y-6236441D01*
X19549704Y-6236454D01*
X19549042Y-6236879D01*
X19478492Y-6307429D01*
X19477849Y-6308606D01*
X19123024Y-6308606D01*
X19128442Y-6304812D01*
X19133979Y-6300936D01*
X19133979Y-6300935D01*
X19134430Y-6300620D01*
X19150620Y-6284430D01*
X19152765Y-6281366D01*
X19163437Y-6266126D01*
X19163752Y-6265675D01*
X19163985Y-6265177D01*
X19163985Y-6265176D01*
X19173196Y-6245422D01*
X19173196Y-6245422D01*
X19173428Y-6244924D01*
X19174112Y-6242374D01*
X19179212Y-6223340D01*
X19179212Y-6223340D01*
X19179354Y-6222809D01*
X19181302Y-6200547D01*
X19418748Y-6200547D01*
X19420647Y-6222252D01*
X19420838Y-6223331D01*
X19426476Y-6244376D01*
X19426851Y-6245405D01*
X19436059Y-6265151D01*
X19436607Y-6266101D01*
X19440251Y-6271305D01*
X19441299Y-6272142D01*
X19442643Y-6271436D01*
X19512798Y-6201281D01*
X19513436Y-6200113D01*
X19586441Y-6200113D01*
X19586454Y-6200296D01*
X19586879Y-6200958D01*
X19657429Y-6271508D01*
X19658606Y-6272151D01*
X19659808Y-6271221D01*
X19663393Y-6266101D01*
X19663941Y-6265151D01*
X19673149Y-6245405D01*
X19673524Y-6244376D01*
X19679163Y-6223331D01*
X19679353Y-6222252D01*
X19681252Y-6200547D01*
X19681252Y-6199452D01*
X19679353Y-6177748D01*
X19679163Y-6176669D01*
X19673524Y-6155624D01*
X19673149Y-6154595D01*
X19663941Y-6134849D01*
X19663393Y-6133899D01*
X19659749Y-6128695D01*
X19658701Y-6127858D01*
X19657357Y-6128564D01*
X19587202Y-6198719D01*
X19586441Y-6200113D01*
X19513436Y-6200113D01*
X19513559Y-6199887D01*
X19513546Y-6199703D01*
X19513121Y-6199042D01*
X19442571Y-6128492D01*
X19441394Y-6127849D01*
X19440192Y-6128779D01*
X19436607Y-6133899D01*
X19436059Y-6134849D01*
X19426851Y-6154595D01*
X19426476Y-6155624D01*
X19420838Y-6176669D01*
X19420647Y-6177748D01*
X19418748Y-6199452D01*
X19418748Y-6200547D01*
X19181302Y-6200547D01*
X19181350Y-6200000D01*
X19179354Y-6177191D01*
X19175698Y-6163546D01*
X19173571Y-6155607D01*
X19173571Y-6155606D01*
X19173428Y-6155076D01*
X19166063Y-6139281D01*
X19163985Y-6134824D01*
X19163985Y-6134823D01*
X19163752Y-6134325D01*
X19154359Y-6120910D01*
X19150936Y-6116021D01*
X19150936Y-6116021D01*
X19150620Y-6115570D01*
X19134430Y-6099380D01*
X19133979Y-6099064D01*
X19133979Y-6099064D01*
X19122889Y-6091299D01*
X19477858Y-6091299D01*
X19478564Y-6092643D01*
X19548719Y-6162798D01*
X19550113Y-6163559D01*
X19550297Y-6163546D01*
X19550958Y-6163121D01*
X19621508Y-6092571D01*
X19622151Y-6091394D01*
X19621221Y-6090192D01*
X19616101Y-6086607D01*
X19615151Y-6086059D01*
X19595405Y-6076851D01*
X19594376Y-6076476D01*
X19573331Y-6070837D01*
X19572252Y-6070647D01*
X19550548Y-6068748D01*
X19549453Y-6068748D01*
X19527748Y-6070647D01*
X19526669Y-6070837D01*
X19505624Y-6076476D01*
X19504595Y-6076851D01*
X19484849Y-6086059D01*
X19483899Y-6086607D01*
X19478695Y-6090251D01*
X19477858Y-6091299D01*
X19122889Y-6091299D01*
X19121392Y-6090251D01*
X19115675Y-6086248D01*
X19115177Y-6086015D01*
X19115176Y-6086015D01*
X19095423Y-6076804D01*
X19095422Y-6076804D01*
X19094924Y-6076572D01*
X19094394Y-6076429D01*
X19094393Y-6076429D01*
X19073340Y-6070788D01*
X19073340Y-6070788D01*
X19072809Y-6070646D01*
X19050000Y-6068650D01*
X19027191Y-6070646D01*
X19026660Y-6070788D01*
X19026660Y-6070788D01*
X19005607Y-6076429D01*
X19005607Y-6076429D01*
X19005076Y-6076572D01*
X19004578Y-6076804D01*
X19004578Y-6076804D01*
X18984824Y-6086015D01*
X18984823Y-6086015D01*
X18984325Y-6086248D01*
X18978608Y-6090251D01*
X18966021Y-6099064D01*
X18966021Y-6099064D01*
X18965570Y-6099380D01*
X18949380Y-6115570D01*
X18949065Y-6116021D01*
X18949064Y-6116021D01*
X18945641Y-6120910D01*
X18936248Y-6134325D01*
X18936015Y-6134823D01*
X18936015Y-6134824D01*
X18933937Y-6139281D01*
X18926572Y-6155076D01*
X18926429Y-6155606D01*
X18926429Y-6155607D01*
X18924302Y-6163546D01*
X18920646Y-6177191D01*
X18918650Y-6200000D01*
X14731980Y-6200000D01*
X14731980Y-6124067D01*
X14731304Y-6117848D01*
X14726191Y-6104209D01*
X14717456Y-6092554D01*
X14705800Y-6083818D01*
X14692162Y-6078705D01*
X14685943Y-6078030D01*
X14534077Y-6078030D01*
X14527858Y-6078705D01*
X14514219Y-6083818D01*
X14502564Y-6092554D01*
X14493828Y-6104209D01*
X14488715Y-6117848D01*
X14488040Y-6124067D01*
X14488040Y-6275933D01*
X14355219Y-6275933D01*
X14365207Y-6261669D01*
X14365207Y-6261669D01*
X14365523Y-6261218D01*
X14365755Y-6260720D01*
X14365755Y-6260719D01*
X14374310Y-6242374D01*
X14374310Y-6242374D01*
X14374542Y-6241875D01*
X14379511Y-6223331D01*
X14379923Y-6221792D01*
X14379923Y-6221792D01*
X14380066Y-6221261D01*
X14381926Y-6200000D01*
X14380066Y-6178739D01*
X14379923Y-6178208D01*
X14374684Y-6158655D01*
X14374684Y-6158655D01*
X14374542Y-6158124D01*
X14373376Y-6155624D01*
X14365755Y-6139281D01*
X14365755Y-6139280D01*
X14365523Y-6138782D01*
X14365207Y-6138331D01*
X14353597Y-6121751D01*
X14353597Y-6121750D01*
X14353281Y-6121300D01*
X14338190Y-6106209D01*
X14336536Y-6105050D01*
X14327987Y-6099064D01*
X14320708Y-6093967D01*
X14320210Y-6093735D01*
X14320209Y-6093735D01*
X14301864Y-6085180D01*
X14301864Y-6085180D01*
X14301365Y-6084948D01*
X14300835Y-6084806D01*
X14300834Y-6084806D01*
X14281282Y-6079567D01*
X14281282Y-6079567D01*
X14280751Y-6079424D01*
X14259490Y-6077564D01*
X14238229Y-6079424D01*
X14237698Y-6079567D01*
X14237698Y-6079567D01*
X14218145Y-6084806D01*
X14218145Y-6084806D01*
X14217614Y-6084948D01*
X14217116Y-6085180D01*
X14217116Y-6085180D01*
X14198771Y-6093735D01*
X14198770Y-6093735D01*
X14198272Y-6093967D01*
X14197821Y-6094283D01*
X14197821Y-6094283D01*
X14181241Y-6105893D01*
X14181240Y-6105893D01*
X14180790Y-6106209D01*
X14165699Y-6121300D01*
X14165383Y-6121750D01*
X14165383Y-6121751D01*
X14153773Y-6138331D01*
X14153457Y-6138782D01*
X14153225Y-6139280D01*
X14153225Y-6139281D01*
X14145604Y-6155624D01*
X14144438Y-6158124D01*
X14144296Y-6158655D01*
X14144296Y-6158655D01*
X14139057Y-6178208D01*
X14138914Y-6178739D01*
X14137054Y-6200000D01*
X13030350Y-6200000D01*
X13030350Y-5955548D01*
X13030370Y-5954833D01*
X13030795Y-5947355D01*
X13030795Y-5947354D01*
X13030821Y-5946887D01*
X13030472Y-5943084D01*
X13029765Y-5935389D01*
X13029747Y-5935170D01*
X13028924Y-5924105D01*
X13028924Y-5924104D01*
X13028890Y-5923638D01*
X13028727Y-5922921D01*
X13028470Y-5921294D01*
X13028445Y-5921030D01*
X13028403Y-5920564D01*
X13025657Y-5909342D01*
X13025606Y-5909128D01*
X13023159Y-5898312D01*
X13023056Y-5897856D01*
X13022790Y-5897172D01*
X13022294Y-5895601D01*
X13022120Y-5894887D01*
X13017744Y-5884192D01*
X13017663Y-5883988D01*
X13013644Y-5873654D01*
X13013475Y-5873219D01*
X13013243Y-5872814D01*
X13013243Y-5872813D01*
X13013111Y-5872582D01*
X13012388Y-5871101D01*
X13012288Y-5870855D01*
X13012287Y-5870854D01*
X13012110Y-5870421D01*
X13006202Y-5860490D01*
X13006091Y-5860300D01*
X13000590Y-5850675D01*
X13000590Y-5850674D01*
X13000358Y-5850269D01*
X13000422Y-5850232D01*
X12998386Y-5843832D01*
X13000234Y-5836977D01*
X13002074Y-5834642D01*
X13018675Y-5818040D01*
X13024906Y-5814638D01*
X13027584Y-5814350D01*
X13595719Y-5814350D01*
X13596544Y-5814377D01*
X13603006Y-5814801D01*
X13611797Y-5813760D01*
X13612119Y-5813726D01*
X13620928Y-5812917D01*
X13621484Y-5812760D01*
X13621841Y-5812694D01*
X13622941Y-5812475D01*
X13623303Y-5812398D01*
X13623876Y-5812330D01*
X13632328Y-5809706D01*
X13632637Y-5809615D01*
X13641155Y-5807212D01*
X13641674Y-5806956D01*
X13642019Y-5806824D01*
X13643057Y-5806410D01*
X13643395Y-5806270D01*
X13643947Y-5806098D01*
X13651775Y-5801980D01*
X13652068Y-5801830D01*
X13660004Y-5797917D01*
X13660467Y-5797571D01*
X13660787Y-5797375D01*
X13661726Y-5796783D01*
X13662035Y-5796582D01*
X13662546Y-5796313D01*
X13669496Y-5790834D01*
X13669753Y-5790637D01*
X13676380Y-5785688D01*
X13676381Y-5785688D01*
X13676843Y-5785343D01*
X13682426Y-5779303D01*
X13682769Y-5778946D01*
X13918675Y-5543041D01*
X13924906Y-5539638D01*
X13927584Y-5539350D01*
X13980332Y-5539350D01*
X13995928Y-5537917D01*
X13996484Y-5537760D01*
X13996484Y-5537760D01*
X14011917Y-5533408D01*
X14016155Y-5532212D01*
X14026421Y-5527149D01*
X14031994Y-5525850D01*
X14478816Y-5525850D01*
X14480176Y-5525924D01*
X14483326Y-5526266D01*
X14483327Y-5526266D01*
X14483939Y-5526332D01*
X14486564Y-5526103D01*
X14488939Y-5525895D01*
X14489421Y-5525862D01*
X14489669Y-5525850D01*
X14489977Y-5525850D01*
X14491174Y-5525733D01*
X14494251Y-5525431D01*
X14494382Y-5525419D01*
X14498808Y-5525032D01*
X14503641Y-5524609D01*
X14504153Y-5524460D01*
X14504683Y-5524408D01*
X14513583Y-5521721D01*
X14513697Y-5521687D01*
X14522041Y-5519263D01*
X14522042Y-5519263D01*
X14522634Y-5519091D01*
X14523107Y-5518846D01*
X14523617Y-5518692D01*
X14524161Y-5518402D01*
X14531826Y-5514327D01*
X14531943Y-5514266D01*
X14539645Y-5510273D01*
X14540193Y-5509989D01*
X14540609Y-5509657D01*
X14541080Y-5509407D01*
X14548292Y-5503525D01*
X14548377Y-5503455D01*
X14552297Y-5500326D01*
X14552548Y-5500076D01*
X14552619Y-5500012D01*
X14553053Y-5499642D01*
X14556406Y-5496907D01*
X14559329Y-5493374D01*
X14560128Y-5492496D01*
X14684613Y-5368011D01*
X14684831Y-5367793D01*
X14694210Y-5356374D01*
X14699935Y-5345697D01*
X14703265Y-5339487D01*
X14703265Y-5339487D01*
X14703556Y-5338944D01*
X14707017Y-5327625D01*
X14709158Y-5320620D01*
X14709158Y-5320620D01*
X14709339Y-5320030D01*
X14710330Y-5310267D01*
X14711275Y-5300967D01*
X14711275Y-5300966D01*
X14711337Y-5300354D01*
X14709476Y-5280664D01*
X14703826Y-5261710D01*
X14694602Y-5244215D01*
X14682155Y-5228845D01*
X14666960Y-5216185D01*
X14649596Y-5206718D01*
X14640159Y-5203761D01*
X14631311Y-5200988D01*
X14631311Y-5200988D01*
X14630723Y-5200804D01*
X14630111Y-5200737D01*
X14630110Y-5200737D01*
X14611674Y-5198734D01*
X14611673Y-5198734D01*
X14611061Y-5198668D01*
X14591359Y-5200391D01*
X14590767Y-5200563D01*
X14590766Y-5200563D01*
X14577694Y-5204361D01*
X14572366Y-5205909D01*
X14554807Y-5215011D01*
X14551396Y-5217734D01*
X14542978Y-5224454D01*
X14542977Y-5224455D01*
X14542703Y-5224674D01*
X14446917Y-5320460D01*
X14440686Y-5323862D01*
X14438008Y-5324150D01*
X14032035Y-5324150D01*
X14026168Y-5322701D01*
X14018947Y-5318902D01*
X13998877Y-5312670D01*
X13998303Y-5312602D01*
X13998303Y-5312602D01*
X13993474Y-5312030D01*
X13981813Y-5310650D01*
X13879279Y-5310650D01*
X13878455Y-5310623D01*
X13876863Y-5310519D01*
X13871994Y-5310200D01*
X13867818Y-5310694D01*
X13863209Y-5311239D01*
X13862881Y-5311274D01*
X13854648Y-5312030D01*
X13854648Y-5312030D01*
X13854072Y-5312083D01*
X13853516Y-5312240D01*
X13853159Y-5312306D01*
X13852058Y-5312525D01*
X13851697Y-5312602D01*
X13851123Y-5312670D01*
X13842672Y-5315294D01*
X13842363Y-5315385D01*
X13833845Y-5317788D01*
X13833326Y-5318044D01*
X13832981Y-5318176D01*
X13831943Y-5318590D01*
X13831605Y-5318730D01*
X13831053Y-5318902D01*
X13830541Y-5319171D01*
X13830541Y-5319171D01*
X13823225Y-5323020D01*
X13822932Y-5323170D01*
X13814996Y-5327083D01*
X13814533Y-5327429D01*
X13814213Y-5327625D01*
X13813274Y-5328217D01*
X13812965Y-5328418D01*
X13812454Y-5328687D01*
X13805504Y-5334166D01*
X13805247Y-5334363D01*
X13798620Y-5339312D01*
X13798619Y-5339312D01*
X13798157Y-5339657D01*
X13797766Y-5340081D01*
X13797765Y-5340081D01*
X13792574Y-5345697D01*
X13792231Y-5346054D01*
X13556325Y-5581960D01*
X13550094Y-5585362D01*
X13547416Y-5585650D01*
X12979280Y-5585650D01*
X12978456Y-5585623D01*
X12977545Y-5585563D01*
X12971994Y-5585199D01*
X12963204Y-5586240D01*
X12962877Y-5586274D01*
X12954072Y-5587083D01*
X12953515Y-5587240D01*
X12953146Y-5587309D01*
X12952061Y-5587524D01*
X12951697Y-5587602D01*
X12951123Y-5587670D01*
X12942674Y-5590293D01*
X12942361Y-5590386D01*
X12936246Y-5592111D01*
X12933845Y-5592788D01*
X12933326Y-5593043D01*
X12932981Y-5593176D01*
X12931943Y-5593590D01*
X12931605Y-5593730D01*
X12931053Y-5593902D01*
X12930541Y-5594171D01*
X12930541Y-5594171D01*
X12923225Y-5598020D01*
X12922932Y-5598169D01*
X12914996Y-5602083D01*
X12914533Y-5602429D01*
X12914213Y-5602625D01*
X12913274Y-5603217D01*
X12912965Y-5603418D01*
X12912454Y-5603687D01*
X12905504Y-5609166D01*
X12905247Y-5609363D01*
X12898620Y-5614312D01*
X12898619Y-5614312D01*
X12898157Y-5614657D01*
X12897766Y-5615081D01*
X12897765Y-5615081D01*
X12892574Y-5620697D01*
X12892231Y-5621054D01*
X12886289Y-5626996D01*
X12880058Y-5630398D01*
X12872976Y-5629892D01*
X12867749Y-5626211D01*
X12863399Y-5621054D01*
X12852055Y-5607607D01*
X12845759Y-5601827D01*
X12829667Y-5587056D01*
X12829666Y-5587056D01*
X12829371Y-5586784D01*
X12804224Y-5569013D01*
X12777023Y-5554580D01*
X12748209Y-5543721D01*
X12742159Y-5542285D01*
X12718640Y-5536704D01*
X12718640Y-5536704D01*
X12718249Y-5536611D01*
X12687627Y-5533365D01*
X12687227Y-5533374D01*
X12687227Y-5533374D01*
X12657244Y-5534028D01*
X12657243Y-5534028D01*
X12656842Y-5534037D01*
X12626392Y-5538615D01*
X12626006Y-5538725D01*
X12626005Y-5538725D01*
X12622789Y-5539638D01*
X12596770Y-5547025D01*
X12568457Y-5559131D01*
X12541911Y-5574736D01*
X12517564Y-5593588D01*
X12495809Y-5615381D01*
X12495564Y-5615699D01*
X12495564Y-5615699D01*
X12484614Y-5629892D01*
X12477000Y-5639761D01*
X12461441Y-5666334D01*
X12449384Y-5694668D01*
X12449275Y-5695055D01*
X12441135Y-5723918D01*
X12441135Y-5723919D01*
X12441026Y-5724304D01*
X12436501Y-5754763D01*
X12436150Y-5763144D01*
X12436150Y-6511330D01*
X12435923Y-6513459D01*
X12435953Y-6513463D01*
X12435894Y-6513861D01*
X12435810Y-6514253D01*
X12433206Y-6544935D01*
X11061228Y-6544935D01*
X11061342Y-5036543D01*
X11200011Y-5036543D01*
X11200019Y-5036656D01*
X11200517Y-5037414D01*
X11202540Y-5039354D01*
X11202968Y-5039728D01*
X11234522Y-5064918D01*
X11234980Y-5065251D01*
X11268687Y-5087476D01*
X11269176Y-5087768D01*
X11304754Y-5106844D01*
X11305272Y-5107092D01*
X11342434Y-5122867D01*
X11342967Y-5123065D01*
X11381407Y-5135407D01*
X11381957Y-5135556D01*
X11421357Y-5144363D01*
X11421919Y-5144462D01*
X11461954Y-5149662D01*
X11462524Y-5149710D01*
X11502864Y-5151260D01*
X11503437Y-5151256D01*
X11543752Y-5149143D01*
X11544320Y-5149087D01*
X11584279Y-5143329D01*
X11584839Y-5143222D01*
X11624112Y-5133866D01*
X11624660Y-5133709D01*
X11662923Y-5120832D01*
X11663456Y-5120625D01*
X11700395Y-5104333D01*
X11700905Y-5104080D01*
X11736214Y-5084508D01*
X11736702Y-5084207D01*
X11770090Y-5061517D01*
X11770551Y-5061172D01*
X11799183Y-5037654D01*
X11799939Y-5036543D01*
X20700011Y-5036543D01*
X20700019Y-5036656D01*
X20700517Y-5037414D01*
X20702540Y-5039354D01*
X20702968Y-5039728D01*
X20734522Y-5064918D01*
X20734980Y-5065251D01*
X20768687Y-5087476D01*
X20769176Y-5087768D01*
X20804754Y-5106844D01*
X20805272Y-5107092D01*
X20842434Y-5122867D01*
X20842967Y-5123065D01*
X20881407Y-5135407D01*
X20881957Y-5135556D01*
X20921358Y-5144363D01*
X20921919Y-5144462D01*
X20961954Y-5149662D01*
X20962524Y-5149710D01*
X21002864Y-5151260D01*
X21003437Y-5151256D01*
X21043752Y-5149143D01*
X21044320Y-5149087D01*
X21084280Y-5143329D01*
X21084839Y-5143222D01*
X21124112Y-5133866D01*
X21124661Y-5133709D01*
X21162923Y-5120832D01*
X21163456Y-5120625D01*
X21200395Y-5104333D01*
X21200905Y-5104080D01*
X21236215Y-5084508D01*
X21236702Y-5084207D01*
X21270090Y-5061517D01*
X21270551Y-5061172D01*
X21299183Y-5037654D01*
X21300029Y-5036411D01*
X21299404Y-5035325D01*
X21001281Y-4737202D01*
X20999887Y-4736441D01*
X20999704Y-4736454D01*
X20999042Y-4736879D01*
X20700772Y-5035149D01*
X20700011Y-5036543D01*
X11799939Y-5036543D01*
X11800029Y-5036411D01*
X11799404Y-5035325D01*
X11501281Y-4737202D01*
X11499887Y-4736441D01*
X11499703Y-4736454D01*
X11499042Y-4736879D01*
X11200772Y-5035149D01*
X11200011Y-5036543D01*
X11061342Y-5036543D01*
X11061354Y-4883137D01*
X11063355Y-4876325D01*
X11068721Y-4871676D01*
X11075748Y-4870667D01*
X11082206Y-4873616D01*
X11085336Y-4877734D01*
X11101419Y-4911605D01*
X11101688Y-4912110D01*
X11122239Y-4946861D01*
X11122550Y-4947336D01*
X11146167Y-4980081D01*
X11146521Y-4980528D01*
X11162553Y-4998970D01*
X11163866Y-4999811D01*
X11164857Y-4999222D01*
X11463966Y-4700113D01*
X11536441Y-4700113D01*
X11536454Y-4700297D01*
X11536879Y-4700958D01*
X11835069Y-4999148D01*
X11836413Y-4999882D01*
X11837397Y-4999190D01*
X11857361Y-4975566D01*
X11857710Y-4975113D01*
X11880866Y-4942042D01*
X11881172Y-4941561D01*
X11901235Y-4906528D01*
X11901496Y-4906020D01*
X11918302Y-4869313D01*
X11918516Y-4868783D01*
X11931925Y-4830705D01*
X11932091Y-4830157D01*
X11941994Y-4791021D01*
X11942109Y-4790460D01*
X11948424Y-4750585D01*
X11948488Y-4750019D01*
X11950783Y-4715464D01*
X20548996Y-4715464D01*
X20549016Y-4716034D01*
X20552254Y-4756275D01*
X20552326Y-4756843D01*
X20559197Y-4796623D01*
X20559320Y-4797183D01*
X20569769Y-4836179D01*
X20569941Y-4836722D01*
X20583882Y-4874611D01*
X20584103Y-4875136D01*
X20601419Y-4911605D01*
X20601688Y-4912110D01*
X20622239Y-4946861D01*
X20622550Y-4947336D01*
X20646167Y-4980081D01*
X20646521Y-4980528D01*
X20662553Y-4998970D01*
X20663866Y-4999811D01*
X20664857Y-4999222D01*
X20962798Y-4701281D01*
X20963559Y-4699887D01*
X20963546Y-4699704D01*
X20963121Y-4699042D01*
X20665042Y-4400963D01*
X20663648Y-4400202D01*
X20663629Y-4400203D01*
X20662747Y-4400801D01*
X20652474Y-4412130D01*
X20652109Y-4412571D01*
X20627814Y-4444812D01*
X20627491Y-4445284D01*
X20606217Y-4479595D01*
X20605938Y-4480095D01*
X20587862Y-4516191D01*
X20587629Y-4516715D01*
X20572899Y-4554301D01*
X20572715Y-4554842D01*
X20561452Y-4593610D01*
X20561318Y-4594165D01*
X20553614Y-4633795D01*
X20553531Y-4634359D01*
X20549451Y-4674523D01*
X20549419Y-4675096D01*
X20548996Y-4715464D01*
X11950783Y-4715464D01*
X11951171Y-4709626D01*
X11951184Y-4709275D01*
X11951280Y-4700177D01*
X11951273Y-4699823D01*
X11949437Y-4659384D01*
X11949385Y-4658817D01*
X11943906Y-4618818D01*
X11943804Y-4618258D01*
X11934722Y-4578920D01*
X11934568Y-4578370D01*
X11921959Y-4540018D01*
X11921756Y-4539484D01*
X11905723Y-4502434D01*
X11905472Y-4501920D01*
X11886147Y-4466475D01*
X11885851Y-4465986D01*
X11863393Y-4432439D01*
X11863054Y-4431979D01*
X11837683Y-4400649D01*
X11836396Y-4399923D01*
X11836260Y-4399931D01*
X11835527Y-4400394D01*
X11537202Y-4698719D01*
X11536441Y-4700113D01*
X11463966Y-4700113D01*
X11799094Y-4364985D01*
X11799835Y-4363628D01*
X11799161Y-4362662D01*
X11778053Y-4344571D01*
X11777604Y-4344220D01*
X11744697Y-4320834D01*
X11744215Y-4320523D01*
X11709324Y-4300217D01*
X11708818Y-4299952D01*
X11677680Y-4285432D01*
X11672352Y-4280741D01*
X11670405Y-4273913D01*
X11672460Y-4267117D01*
X11677862Y-4262510D01*
X11683004Y-4261413D01*
X20818681Y-4260812D01*
X20825493Y-4262812D01*
G37*
%TD.AperFunction*%
%TD*%
M02*
