%TF.GenerationSoftware,KiCad,Pcbnew,(6.0.0-rc1-314-g10be483430)*%
%TF.CreationDate,2021-12-05T00:45:44+01:00*%
%TF.ProjectId,ma12070p_amp_v1,6d613132-3037-4307-905f-616d705f7631,rev?*%
%TF.SameCoordinates,Original*%
%TF.FileFunction,Paste,Top*%
%TF.FilePolarity,Positive*%
%FSLAX46Y46*%
G04 Gerber Fmt 4.6, Leading zero omitted, Abs format (unit mm)*
G04 Created by KiCad (PCBNEW (6.0.0-rc1-314-g10be483430)) date 2021-12-05 00:45:44*
%MOMM*%
%LPD*%
G01*
G04 APERTURE LIST*
G04 Aperture macros list*
%AMRoundRect*
0 Rectangle with rounded corners*
0 $1 Rounding radius*
0 $2 $3 $4 $5 $6 $7 $8 $9 X,Y pos of 4 corners*
0 Add a 4 corners polygon primitive as box body*
4,1,4,$2,$3,$4,$5,$6,$7,$8,$9,$2,$3,0*
0 Add four circle primitives for the rounded corners*
1,1,$1+$1,$2,$3*
1,1,$1+$1,$4,$5*
1,1,$1+$1,$6,$7*
1,1,$1+$1,$8,$9*
0 Add four rect primitives between the rounded corners*
20,1,$1+$1,$2,$3,$4,$5,0*
20,1,$1+$1,$4,$5,$6,$7,0*
20,1,$1+$1,$6,$7,$8,$9,0*
20,1,$1+$1,$8,$9,$2,$3,0*%
G04 Aperture macros list end*
%ADD10RoundRect,0.250000X0.325000X0.650000X-0.325000X0.650000X-0.325000X-0.650000X0.325000X-0.650000X0*%
%ADD11RoundRect,0.250000X-0.325000X-0.650000X0.325000X-0.650000X0.325000X0.650000X-0.325000X0.650000X0*%
%ADD12RoundRect,0.250000X0.625000X-0.312500X0.625000X0.312500X-0.625000X0.312500X-0.625000X-0.312500X0*%
%ADD13R,0.650000X0.700000*%
%ADD14R,0.500000X0.250000*%
%ADD15R,3.100000X5.000000*%
%ADD16RoundRect,0.250000X-0.625000X0.312500X-0.625000X-0.312500X0.625000X-0.312500X0.625000X0.312500X0*%
%ADD17RoundRect,0.250000X0.625000X-0.375000X0.625000X0.375000X-0.625000X0.375000X-0.625000X-0.375000X0*%
%ADD18RoundRect,0.250000X0.312500X0.625000X-0.312500X0.625000X-0.312500X-0.625000X0.312500X-0.625000X0*%
%ADD19RoundRect,0.250000X-0.312500X-0.625000X0.312500X-0.625000X0.312500X0.625000X-0.312500X0.625000X0*%
%ADD20RoundRect,0.249999X1.075001X-0.512501X1.075001X0.512501X-1.075001X0.512501X-1.075001X-0.512501X0*%
%ADD21RoundRect,0.250000X-0.300000X0.300000X-0.300000X-0.300000X0.300000X-0.300000X0.300000X0.300000X0*%
%ADD22RoundRect,0.075000X-0.075000X0.362500X-0.075000X-0.362500X0.075000X-0.362500X0.075000X0.362500X0*%
%ADD23RoundRect,0.075000X-0.362500X0.075000X-0.362500X-0.075000X0.362500X-0.075000X0.362500X0.075000X0*%
%ADD24R,3.600000X1.500000*%
G04 APERTURE END LIST*
D10*
%TO.C,CF1B1*%
X146000000Y-109855000D03*
X143050000Y-109855000D03*
%TD*%
D11*
%TO.C,CF0A1*%
X159550000Y-85355000D03*
X162500000Y-85355000D03*
%TD*%
D12*
%TO.C,RCLIP_ERROR_0*%
X167390000Y-59500000D03*
X167390000Y-56575000D03*
%TD*%
D11*
%TO.C,CIN0*%
X128665000Y-61500000D03*
X131615000Y-61500000D03*
%TD*%
D13*
%TO.C,U2*%
X144695000Y-54500000D03*
X144695000Y-53550000D03*
D14*
X143745000Y-53025000D03*
X143745000Y-53525000D03*
X143745000Y-54025000D03*
X143745000Y-54525000D03*
X143745000Y-55025000D03*
X145645000Y-55025000D03*
X145645000Y-54525000D03*
X145645000Y-54025000D03*
X145645000Y-53525000D03*
X145645000Y-53025000D03*
%TD*%
D10*
%TO.C,CPVDD0B3*%
X131640000Y-68500000D03*
X128690000Y-68500000D03*
%TD*%
%TO.C,CCREF0*%
X145975000Y-88855000D03*
X143025000Y-88855000D03*
%TD*%
D11*
%TO.C,COUTBUCK2*%
X155715000Y-61905000D03*
X158665000Y-61905000D03*
%TD*%
D12*
%TO.C,RIN0B1*%
X125750000Y-89500000D03*
X125750000Y-86575000D03*
%TD*%
D11*
%TO.C,CAPIN0A1*%
X143025000Y-95000000D03*
X145975000Y-95000000D03*
%TD*%
%TO.C,CAPIN0B1*%
X143025000Y-92000000D03*
X145975000Y-92000000D03*
%TD*%
D15*
%TO.C,L2*%
X184600000Y-75790000D03*
X173500000Y-75790000D03*
%TD*%
D16*
%TO.C,R3*%
X192100000Y-107515000D03*
X192100000Y-110440000D03*
%TD*%
%TO.C,RMUTE1*%
X148750000Y-113355000D03*
X148750000Y-116280000D03*
%TD*%
D17*
%TO.C,CLIP_LED_0*%
X170080000Y-52400000D03*
X170080000Y-49600000D03*
%TD*%
D15*
%TO.C,L3*%
X184600000Y-90395000D03*
X173500000Y-90395000D03*
%TD*%
D16*
%TO.C,RCLK1*%
X128250000Y-94787500D03*
X128250000Y-97712500D03*
%TD*%
D11*
%TO.C,CGD0N1*%
X165050000Y-92355000D03*
X168000000Y-92355000D03*
%TD*%
D15*
%TO.C,L5*%
X184600000Y-119605000D03*
X173500000Y-119605000D03*
%TD*%
D16*
%TO.C,RIN1B1*%
X125750000Y-94787500D03*
X125750000Y-97712500D03*
%TD*%
D11*
%TO.C,CGD1N1*%
X159775000Y-109750000D03*
X162725000Y-109750000D03*
%TD*%
D18*
%TO.C,RB_FB2*%
X146120000Y-60000000D03*
X143195000Y-60000000D03*
%TD*%
D10*
%TO.C,CGD1N0*%
X168225000Y-109750000D03*
X165275000Y-109750000D03*
%TD*%
D15*
%TO.C,L4*%
X184600000Y-105000000D03*
X173500000Y-105000000D03*
%TD*%
D10*
%TO.C,CF0B0*%
X151500000Y-85355000D03*
X148550000Y-85355000D03*
%TD*%
D18*
%TO.C,RPVDD1*%
X137090000Y-61500000D03*
X134165000Y-61500000D03*
%TD*%
D16*
%TO.C,RENABLE1*%
X145750000Y-113355000D03*
X145750000Y-116280000D03*
%TD*%
D11*
%TO.C,CF1A0*%
X154550000Y-109855000D03*
X157500000Y-109855000D03*
%TD*%
%TO.C,COUTBUCK1*%
X155715000Y-65080000D03*
X158665000Y-65080000D03*
%TD*%
%TO.C,CCDC0*%
X165075000Y-102855000D03*
X168025000Y-102855000D03*
%TD*%
D10*
%TO.C,CGD0N0*%
X168000000Y-95855000D03*
X165050000Y-95855000D03*
%TD*%
%TO.C,CPVDD0B1*%
X145975000Y-85355000D03*
X143025000Y-85355000D03*
%TD*%
D11*
%TO.C,CIN1*%
X128715000Y-65000000D03*
X131665000Y-65000000D03*
%TD*%
D16*
%TO.C,R4*%
X192100000Y-114015000D03*
X192100000Y-116940000D03*
%TD*%
D10*
%TO.C,CPVDD0A0*%
X156975000Y-88855000D03*
X154025000Y-88855000D03*
%TD*%
D11*
%TO.C,CFGD0*%
X165050000Y-85355000D03*
X168000000Y-85355000D03*
%TD*%
D19*
%TO.C,RB_PG0*%
X148537500Y-56500000D03*
X151462500Y-56500000D03*
%TD*%
D10*
%TO.C,CAPIN1A1*%
X145975000Y-98250000D03*
X143025000Y-98250000D03*
%TD*%
D12*
%TO.C,RCLIP_LED_0*%
X170080000Y-59537500D03*
X170080000Y-56612500D03*
%TD*%
D20*
%TO.C,LSUP0*%
X136190000Y-69000000D03*
X136190000Y-64325000D03*
%TD*%
D17*
%TO.C,ERROR_LED_0*%
X167390000Y-52452500D03*
X167390000Y-49652500D03*
%TD*%
D11*
%TO.C,CAPIN1B1*%
X143025000Y-101250000D03*
X145975000Y-101250000D03*
%TD*%
D10*
%TO.C,CF0B1*%
X151500000Y-88855000D03*
X148550000Y-88855000D03*
%TD*%
D11*
%TO.C,CGD1*%
X159775000Y-106355000D03*
X162725000Y-106355000D03*
%TD*%
D10*
%TO.C,CPVDD1B0*%
X151500000Y-106355000D03*
X148550000Y-106355000D03*
%TD*%
D11*
%TO.C,CFDC0*%
X165075000Y-99355000D03*
X168025000Y-99355000D03*
%TD*%
D21*
%TO.C,U1*%
X153420000Y-97135000D03*
X156140000Y-99855000D03*
X157500000Y-97135000D03*
X154780000Y-98495000D03*
X156140000Y-97135000D03*
X154780000Y-95775000D03*
X153420000Y-95775000D03*
X154780000Y-99855000D03*
X153420000Y-98495000D03*
X157500000Y-95775000D03*
X154780000Y-97135000D03*
X153420000Y-99855000D03*
X157500000Y-98495000D03*
X157500000Y-99855000D03*
X156140000Y-98495000D03*
X156140000Y-95775000D03*
D22*
X159210000Y-93377500D03*
X158710000Y-93377500D03*
X158210000Y-93377500D03*
X157710000Y-93377500D03*
X157210000Y-93377500D03*
X156710000Y-93377500D03*
X156210000Y-93377500D03*
X155710000Y-93377500D03*
X155210000Y-93377500D03*
X154710000Y-93377500D03*
X154210000Y-93377500D03*
X153710000Y-93377500D03*
X153210000Y-93377500D03*
X152710000Y-93377500D03*
X152210000Y-93377500D03*
X151710000Y-93377500D03*
D23*
X151022500Y-94065000D03*
X151022500Y-94565000D03*
X151022500Y-95065000D03*
X151022500Y-95565000D03*
X151022500Y-96065000D03*
X151022500Y-96565000D03*
X151022500Y-97065000D03*
X151022500Y-97565000D03*
X151022500Y-98065000D03*
X151022500Y-98565000D03*
X151022500Y-99065000D03*
X151022500Y-99565000D03*
X151022500Y-100065000D03*
X151022500Y-100565000D03*
X151022500Y-101065000D03*
X151022500Y-101565000D03*
D22*
X151710000Y-102252500D03*
X152210000Y-102252500D03*
X152710000Y-102252500D03*
X153210000Y-102252500D03*
X153710000Y-102252500D03*
X154210000Y-102252500D03*
X154710000Y-102252500D03*
X155210000Y-102252500D03*
X155710000Y-102252500D03*
X156210000Y-102252500D03*
X156710000Y-102252500D03*
X157210000Y-102252500D03*
X157710000Y-102252500D03*
X158210000Y-102252500D03*
X158710000Y-102252500D03*
X159210000Y-102252500D03*
D23*
X159897500Y-101565000D03*
X159897500Y-101065000D03*
X159897500Y-100565000D03*
X159897500Y-100065000D03*
X159897500Y-99565000D03*
X159897500Y-99065000D03*
X159897500Y-98565000D03*
X159897500Y-98065000D03*
X159897500Y-97565000D03*
X159897500Y-97065000D03*
X159897500Y-96565000D03*
X159897500Y-96065000D03*
X159897500Y-95565000D03*
X159897500Y-95065000D03*
X159897500Y-94565000D03*
X159897500Y-94065000D03*
%TD*%
D11*
%TO.C,CF1A1*%
X154550000Y-106355000D03*
X157500000Y-106355000D03*
%TD*%
D10*
%TO.C,CPVDD0B0*%
X157000000Y-85355000D03*
X154050000Y-85355000D03*
%TD*%
%TO.C,CGD0*%
X168000000Y-88855000D03*
X165050000Y-88855000D03*
%TD*%
%TO.C,CF1B0*%
X146000000Y-106355000D03*
X143050000Y-106355000D03*
%TD*%
D16*
%TO.C,R1*%
X192100000Y-78477500D03*
X192100000Y-81402500D03*
%TD*%
D24*
%TO.C,LBUCK0*%
X150000000Y-50450000D03*
X150000000Y-53500000D03*
%TD*%
D11*
%TO.C,CF0A0*%
X159550000Y-88855000D03*
X162500000Y-88855000D03*
%TD*%
D10*
%TO.C,CPVDD1A0*%
X151500000Y-109855000D03*
X148550000Y-109855000D03*
%TD*%
D16*
%TO.C,R2*%
X192100000Y-85015000D03*
X192100000Y-87940000D03*
%TD*%
D19*
%TO.C,RB_FB1*%
X148537500Y-60000000D03*
X151462500Y-60000000D03*
%TD*%
D11*
%TO.C,CVGDC0*%
X165275000Y-106355000D03*
X168225000Y-106355000D03*
%TD*%
M02*
