M48
; DRILL file {KiCad (6.0.0-rc1-314-g10be483430)} date Tue Dec 21 20:43:11 2021
; FORMAT={-:-/ absolute / metric / decimal}
; #@! TF.CreationDate,2021-12-21T20:43:11+01:00
; #@! TF.GenerationSoftware,Kicad,Pcbnew,(6.0.0-rc1-314-g10be483430)
; #@! TF.FileFunction,Plated,1,2,PTH
FMAT,2
METRIC
; #@! TA.AperFunction,Plated,PTH,ViaDrill
T1C0.400
; #@! TA.AperFunction,Plated,PTH,ViaDrill
T2C0.600
; #@! TA.AperFunction,Plated,PTH,ComponentDrill
T3C0.800
; #@! TA.AperFunction,Plated,PTH,ComponentDrill
T4C0.850
; #@! TA.AperFunction,Plated,PTH,ComponentDrill
T5C0.914
; #@! TA.AperFunction,Plated,PTH,ComponentDrill
T6C1.000
; #@! TA.AperFunction,Plated,PTH,ComponentDrill
T7C1.300
; #@! TA.AperFunction,Plated,PTH,ComponentDrill
T8C4.000
%
G90
G05
T1
X114.25Y-59.0
X123.5Y-57.5
X124.75Y-91.25
X124.75Y-99.75
X124.75Y-104.5
X124.75Y-108.25
X125.75Y-70.75
X128.5Y-73.0
X130.25Y-79.75
X130.25Y-83.5
X130.25Y-86.5
X130.25Y-89.5
X130.25Y-97.25
X130.5Y-52.0
X130.5Y-55.0
X130.5Y-104.5
X130.75Y-59.0
X130.75Y-62.0
X134.0Y-77.25
X134.0Y-79.0
X137.0Y-59.25
X137.0Y-63.5
X138.75Y-106.5
X139.75Y-54.25
X140.25Y-49.0
X140.25Y-64.25
X140.25Y-96.75
X140.75Y-56.25
X140.75Y-58.25
X141.75Y-51.25
X141.75Y-52.5
X142.0Y-73.75
X142.25Y-49.0
X142.5Y-89.0
X142.75Y-51.25
X142.75Y-52.5
X142.75Y-102.5
X143.5Y-82.75
X144.25Y-49.0
X145.0Y-94.0
X145.0Y-102.5
X145.5Y-71.5
X145.5Y-82.0
X146.0Y-102.5
X146.1Y-53.0
X146.25Y-94.0
X146.5Y-49.0
X146.5Y-50.5
X146.75Y-71.5
X146.75Y-82.0
X147.25Y-101.75
X147.5Y-73.75
X148.0Y-86.0
X148.0Y-87.25
X148.0Y-88.75
X148.0Y-90.0
X148.486Y-73.742
X148.5Y-101.75
X149.0Y-82.3
X149.0Y-84.5
X149.0Y-91.5
X149.0Y-93.75
X149.25Y-50.5
X149.25Y-53.25
X149.25Y-56.75
X149.25Y-86.0
X149.25Y-87.25
X149.25Y-88.75
X149.25Y-90.0
X150.75Y-86.0
X150.75Y-87.25
X150.75Y-88.75
X150.75Y-90.0
X152.0Y-82.3
X152.0Y-84.5
X152.0Y-86.0
X152.0Y-87.25
X152.0Y-88.75
X152.0Y-90.0
X152.0Y-91.5
X152.0Y-93.75
X153.5Y-50.5
X153.5Y-53.25
X153.5Y-56.75
X158.25Y-86.25
X159.75Y-58.75
X163.5Y-106.5
X165.25Y-100.0
X165.5Y-79.0
X165.5Y-85.5
X165.5Y-90.5
X166.5Y-58.75
X247.0Y-47.0
T2
X126.75Y-65.5
X126.775Y-57.75
X128.25Y-95.25
X128.25Y-99.5
X128.25Y-102.75
X128.25Y-108.0
X128.5Y-63.0
X128.5Y-77.75
X128.525Y-59.5
X133.5Y-91.0
X135.25Y-57.0
X135.5Y-104.5
X155.75Y-91.75
X157.875Y-89.625
X165.75Y-109.0
T3
X190.5Y-62.0
X190.5Y-68.0
X190.5Y-75.0
X190.5Y-81.0
X190.5Y-95.0
X190.5Y-101.0
X190.5Y-108.0
X190.5Y-114.0
X195.5Y-62.0
X195.5Y-68.0
X195.5Y-75.0
X195.5Y-81.0
X195.5Y-95.0
X195.5Y-101.0
X195.5Y-108.0
X195.5Y-114.0
T4
X175.5Y-68.0
X175.5Y-81.0
X175.5Y-95.0
X175.5Y-108.0
X180.5Y-68.0
X180.5Y-81.0
X180.5Y-95.0
X180.5Y-108.0
T5
X142.595Y-62.0
X146.1Y-62.0
T6
X120.25Y-82.425
X120.25Y-84.965
X120.25Y-87.505
X120.25Y-90.045
X120.25Y-92.585
X120.25Y-99.175
X120.25Y-101.715
X120.25Y-104.255
X120.25Y-106.795
X120.25Y-109.335
X151.632Y-67.25
X151.632Y-108.5
X156.632Y-67.25
X156.632Y-108.5
T7
X116.5Y-69.75
X116.5Y-74.75
X208.695Y-80.5
X208.695Y-85.5
X208.695Y-90.5
X208.695Y-95.5
T8
X115.0Y-47.0
X115.0Y-122.0
X210.0Y-47.0
X210.0Y-122.0
T0
M30
