M48
; DRILL file {KiCad (6.0.0)} date Sat Jan  8 20:11:20 2022
; FORMAT={3:3/ absolute / metric / suppress leading zeros}
; #@! TF.CreationDate,2022-01-08T20:11:20+01:00
; #@! TF.GenerationSoftware,Kicad,Pcbnew,(6.0.0)
; #@! TF.FileFunction,MixedPlating,1,2
FMAT,2
METRIC,TZ
; #@! TA.AperFunction,Plated,PTH,ViaDrill
T1C0.400
; #@! TA.AperFunction,Plated,PTH,ViaDrill
T2C0.600
; #@! TA.AperFunction,Plated,PTH,ComponentDrill
T3C0.800
; #@! TA.AperFunction,Plated,PTH,ComponentDrill
T4C0.914
; #@! TA.AperFunction,Plated,PTH,ComponentDrill
T5C1.000
; #@! TA.AperFunction,Plated,PTH,ComponentDrill
T6C1.300
; #@! TA.AperFunction,Plated,PTH,ComponentDrill
T7C1.450
; #@! TA.AperFunction,Plated,PTH,ComponentDrill
T8C4.000
%
G90
G05
T1
X111250Y-81750
X111250Y-87750
X111250Y-93750
X111250Y-99750
X111250Y-105750
X111250Y-111750
X112000Y-78000
X112700Y-55800
X114200Y-73000
X114200Y-76200
X115000Y-78000
X115750Y-89500
X115750Y-92250
X116000Y-57400
X116000Y-60600
X116000Y-82000
X116000Y-84750
X116250Y-100000
X116250Y-104750
X116250Y-107250
X116750Y-112000
X118000Y-66000
X118800Y-73000
X118800Y-76200
X119000Y-78000
X119900Y-55500
X120000Y-66000
X120250Y-100500
X120250Y-104750
X120500Y-89000
X120500Y-92500
X120500Y-97500
X122400Y-58400
X123000Y-66000
X123000Y-69000
X123000Y-72000
X123000Y-75000
X123000Y-78000
X123600Y-55400
X123600Y-57000
X123600Y-60000
X123915Y-93585
X124250Y-87500
X125500Y-96000
X125500Y-99250
X125500Y-103250
X125600Y-51300
X125750Y-81000
X125750Y-84500
X128000Y-117250
X128000Y-122000
X129000Y-48200
X129750Y-77750
X129750Y-81000
X129750Y-84000
X129750Y-87000
X129750Y-90000
X129750Y-93250
X129750Y-97500
X129750Y-101000
X131250Y-62000
X131750Y-108000
X131750Y-110000
X132250Y-105000
X133000Y-113500
X133100Y-46200
X133200Y-55300
X134000Y-117250
X134000Y-122000
X135500Y-76000
X135500Y-79000
X135500Y-82500
X135500Y-85500
X135500Y-88500
X135500Y-91500
X135500Y-93500
X135500Y-95000
X135500Y-96000
X135500Y-99250
X136500Y-55200
X136750Y-101250
X137500Y-102000
X138000Y-46000
X138000Y-63250
X138250Y-77400
X138250Y-80750
X138250Y-93500
X138250Y-102750
X138400Y-53000
X138500Y-49400
X139200Y-56900
X139900Y-50700
X140000Y-48100
X140000Y-117250
X140000Y-122000
X140250Y-63500
X140400Y-58500
X141628Y-51872
X141628Y-53122
X142628Y-51872
X142628Y-53122
X143250Y-81750
X144000Y-46000
X144000Y-95000
X144250Y-81750
X144500Y-54500
X145000Y-95000
X146000Y-117250
X146000Y-122000
X146100Y-51500
X146700Y-90050
X146725Y-87300
X146725Y-88700
X146750Y-85950
X147000Y-64100
X147200Y-76000
X147200Y-79000
X147900Y-97100
X147925Y-90050
X147950Y-87300
X147950Y-88700
X147975Y-85950
X148400Y-74400
X148600Y-84600
X148600Y-91400
X149000Y-98400
X149275Y-90050
X149300Y-87300
X149300Y-88675
X149325Y-85925
X149400Y-64200
X149400Y-84600
X149400Y-91400
X150675Y-88700
X150675Y-90050
X150700Y-85950
X150700Y-87300
X151200Y-112500
X151600Y-84600
X151600Y-91400
X152000Y-117250
X152000Y-122000
X152025Y-88700
X152025Y-90050
X152050Y-85950
X152050Y-87300
X152400Y-84600
X152400Y-91400
X152800Y-63900
X153200Y-90050
X153225Y-87300
X153225Y-88700
X153250Y-85950
X154000Y-74000
X155500Y-57700
X155750Y-91750
X156400Y-63900
X156400Y-69500
X156500Y-106300
X156500Y-112400
X158000Y-117250
X158000Y-122000
X158500Y-58000
X159500Y-74000
X161500Y-58000
X162000Y-71500
X164000Y-49000
X164000Y-53000
X164000Y-57000
X164000Y-61000
X164000Y-67000
X164000Y-69000
X164000Y-117250
X164000Y-122000
X164900Y-100000
X165000Y-89400
X167000Y-46000
X168000Y-100000
X168400Y-96900
X170000Y-122000
X170800Y-80900
X170800Y-83700
X170800Y-87500
X173000Y-46000
X176000Y-122000
X179000Y-46000
X182000Y-122000
X185000Y-46000
X185000Y-50000
X188000Y-117750
X188000Y-122000
X191000Y-46000
X191000Y-50000
X194000Y-117750
X194000Y-122000
X197000Y-46000
X197000Y-50000
T2
X114500Y-59000
X123000Y-97500
X123000Y-100500
X123000Y-104750
X123000Y-108000
X123000Y-111500
X128500Y-75250
X129900Y-55900
X129900Y-59400
X131500Y-54000
X141000Y-55000
X141000Y-70250
X142200Y-73400
X142700Y-62600
X144500Y-106000
X145100Y-62500
X145200Y-56800
X147700Y-57400
X148250Y-105500
X148300Y-60300
X148400Y-70600
X148900Y-81400
X148900Y-82400
X148900Y-93700
X148900Y-94700
X149000Y-102000
X152100Y-82400
X152100Y-93600
X152700Y-81600
X152900Y-94300
X155200Y-52000
X157350Y-86350
X165000Y-82000
X165000Y-85000
X165000Y-91000
X165000Y-103000
X166500Y-101500
X166750Y-85250
X166750Y-91000
X166800Y-73600
X170500Y-50750
X170500Y-60000
X170750Y-108500
X170750Y-117750
X174000Y-50750
X174000Y-60000
X174250Y-108500
X174250Y-117750
X174500Y-69750
X174500Y-79000
X174750Y-89500
X174750Y-98750
X178000Y-50750
X178000Y-60000
X178000Y-69750
X178000Y-79000
X178250Y-89500
X178250Y-98750
X178250Y-108500
X178250Y-117750
X182000Y-69750
X182000Y-79000
X182250Y-89500
X182250Y-98750
X187250Y-69800
X187250Y-99000
X187300Y-79000
X187500Y-89750
T3
X190500Y-55000
X190500Y-76000
X190500Y-92000
X190500Y-113000
X195500Y-55000
X195500Y-62000
X195500Y-69000
X195500Y-76000
X195500Y-92000
X195500Y-99000
X195500Y-106000
X195500Y-113000
X200500Y-62000
X200500Y-69000
X200500Y-99000
X200500Y-106000
T4
X134925Y-58000
X134925Y-61000
T5
X113500Y-83425
X113500Y-85965
X113500Y-88505
X113500Y-91045
X113500Y-93585
X113500Y-100675
X113500Y-103215
X113500Y-105755
X113500Y-108295
X113500Y-110835
X126000Y-69975
X126000Y-72515
X151500Y-109000
X151632Y-67250
X156500Y-109000
X156632Y-67250
T6
X116500Y-69750
X116500Y-74750
X203705Y-76400
X203705Y-81400
X203705Y-86400
X203705Y-91400
T7
X167000Y-55250
X167000Y-113000
X171500Y-74000
X171500Y-94000
X181000Y-55250
X181000Y-113000
X185500Y-74000
X185500Y-94000
T8
X115000Y-48981
X115000Y-118975
X205000Y-48981
X205000Y-118975
T0
M30
