%TF.GenerationSoftware,KiCad,Pcbnew,(6.0.0)*%
%TF.CreationDate,2022-01-08T20:11:28+01:00*%
%TF.ProjectId,ma12070p_amp_v06,6d613132-3037-4307-905f-616d705f7630,rev?*%
%TF.SameCoordinates,Original*%
%TF.FileFunction,Paste,Top*%
%TF.FilePolarity,Positive*%
%FSLAX45Y45*%
G04 Gerber Fmt 4.5, Leading zero omitted, Abs format (unit mm)*
G04 Created by KiCad (PCBNEW (6.0.0)) date 2022-01-08 20:11:28*
%MOMM*%
%LPD*%
G01*
G04 APERTURE LIST*
G04 Aperture macros list*
%AMRoundRect*
0 Rectangle with rounded corners*
0 $1 Rounding radius*
0 $2 $3 $4 $5 $6 $7 $8 $9 X,Y pos of 4 corners*
0 Add a 4 corners polygon primitive as box body*
4,1,4,$2,$3,$4,$5,$6,$7,$8,$9,$2,$3,0*
0 Add four circle primitives for the rounded corners*
1,1,$1+$1,$2,$3*
1,1,$1+$1,$4,$5*
1,1,$1+$1,$6,$7*
1,1,$1+$1,$8,$9*
0 Add four rect primitives between the rounded corners*
20,1,$1+$1,$2,$3,$4,$5,0*
20,1,$1+$1,$4,$5,$6,$7,0*
20,1,$1+$1,$6,$7,$8,$9,0*
20,1,$1+$1,$8,$9,$2,$3,0*%
G04 Aperture macros list end*
%TA.AperFunction,Profile*%
%ADD10C,0.050000*%
%TD*%
%ADD11RoundRect,0.250000X0.412500X0.650000X-0.412500X0.650000X-0.412500X-0.650000X0.412500X-0.650000X0*%
%ADD12RoundRect,0.250000X-0.412500X-0.650000X0.412500X-0.650000X0.412500X0.650000X-0.412500X0.650000X0*%
%ADD13RoundRect,0.250000X-0.650000X0.412500X-0.650000X-0.412500X0.650000X-0.412500X0.650000X0.412500X0*%
%ADD14RoundRect,0.250000X0.625000X-0.400000X0.625000X0.400000X-0.625000X0.400000X-0.625000X-0.400000X0*%
%ADD15RoundRect,0.249999X-0.512501X-1.075001X0.512501X-1.075001X0.512501X1.075001X-0.512501X1.075001X0*%
%ADD16RoundRect,0.250000X-0.625000X0.400000X-0.625000X-0.400000X0.625000X-0.400000X0.625000X0.400000X0*%
%ADD17RoundRect,0.250001X0.624999X-0.462499X0.624999X0.462499X-0.624999X0.462499X-0.624999X-0.462499X0*%
%ADD18R,1.353299X0.279400*%
%ADD19R,1.879600X2.514600*%
%ADD20RoundRect,0.249999X-0.450001X-1.425001X0.450001X-1.425001X0.450001X1.425001X-0.450001X1.425001X0*%
%ADD21RoundRect,0.250000X-0.300000X0.300000X-0.300000X-0.300000X0.300000X-0.300000X0.300000X0.300000X0*%
%ADD22RoundRect,0.075000X-0.075000X0.362500X-0.075000X-0.362500X0.075000X-0.362500X0.075000X0.362500X0*%
%ADD23RoundRect,0.075000X-0.362500X0.075000X-0.362500X-0.075000X0.362500X-0.075000X0.362500X0.075000X0*%
G04 APERTURE END LIST*
D10*
X10980000Y-11900000D02*
G75*
G03*
X11500000Y-12420000I520000J0D01*
G01*
X20500000Y-12419376D02*
G75*
G03*
X21019375Y-11899375I0J519376D01*
G01*
X11500000Y-4380000D02*
G75*
G03*
X10980000Y-4900000I0J-520000D01*
G01*
X21019375Y-4900000D02*
G75*
G03*
X20500000Y-4380625I-519375J0D01*
G01*
X21019375Y-4900000D02*
X21019375Y-11899375D01*
X11500000Y-4380000D02*
X20500000Y-4380625D01*
X10980000Y-11900000D02*
X10980000Y-4900000D01*
X20500000Y-12419376D02*
X11500000Y-12420000D01*
X11666667Y-11900000D02*
G75*
G03*
X11666667Y-11900000I-166667J0D01*
G01*
X11250000Y-11900000D02*
X11750000Y-11900000D01*
X11500000Y-11650000D02*
X11500000Y-12150000D01*
D11*
%TO.C,C7*%
X13981250Y-7600000D03*
X13668750Y-7600000D03*
%TD*%
D12*
%TO.C,C29*%
X16043750Y-9700000D03*
X16356250Y-9700000D03*
%TD*%
%TO.C,CIN2*%
X12362500Y-5850000D03*
X12675000Y-5850000D03*
%TD*%
D11*
%TO.C,C36*%
X16356250Y-8200000D03*
X16043750Y-8200000D03*
%TD*%
D12*
%TO.C,C10*%
X15445750Y-7600000D03*
X15758250Y-7600000D03*
%TD*%
D11*
%TO.C,C18*%
X14556250Y-7900000D03*
X14243750Y-7900000D03*
%TD*%
D12*
%TO.C,C40*%
X16043750Y-7600000D03*
X16356250Y-7600000D03*
%TD*%
D11*
%TO.C,C4*%
X15166250Y-7900000D03*
X14853750Y-7900000D03*
%TD*%
D13*
%TO.C,C16*%
X13325000Y-5093750D03*
X13325000Y-5406250D03*
%TD*%
D12*
%TO.C,C21*%
X15463750Y-10000000D03*
X15776250Y-10000000D03*
%TD*%
D11*
%TO.C,C20*%
X14356250Y-5700000D03*
X14043750Y-5700000D03*
%TD*%
D13*
%TO.C,C42*%
X16650000Y-9693750D03*
X16650000Y-10006250D03*
%TD*%
D12*
%TO.C,C34*%
X16045750Y-8800000D03*
X16358250Y-8800000D03*
%TD*%
D13*
%TO.C,C15*%
X13650000Y-5087500D03*
X13650000Y-5400000D03*
%TD*%
D11*
%TO.C,C25*%
X14656250Y-10000000D03*
X14343750Y-10000000D03*
%TD*%
%TO.C,C17*%
X14556250Y-7600000D03*
X14243750Y-7600000D03*
%TD*%
D13*
%TO.C,C19*%
X14770000Y-5293750D03*
X14770000Y-5606250D03*
%TD*%
D14*
%TO.C,R7*%
X19000000Y-10755000D03*
X19000000Y-10445000D03*
%TD*%
D11*
%TO.C,C37*%
X16356250Y-9400000D03*
X16043750Y-9400000D03*
%TD*%
%TO.C,C26*%
X14656250Y-9700000D03*
X14343750Y-9700000D03*
%TD*%
D12*
%TO.C,C30*%
X16043750Y-10000000D03*
X16356250Y-10000000D03*
%TD*%
%TO.C,C45*%
X13668750Y-9150000D03*
X13981250Y-9150000D03*
%TD*%
D14*
%TO.C,R8*%
X15850000Y-5656250D03*
X15850000Y-5346250D03*
%TD*%
D12*
%TO.C,C44*%
X13668750Y-8550000D03*
X13981250Y-8550000D03*
%TD*%
D11*
%TO.C,C31*%
X16356250Y-10300000D03*
X16043750Y-10300000D03*
%TD*%
%TO.C,C6*%
X15166250Y-7600000D03*
X14853750Y-7600000D03*
%TD*%
D12*
%TO.C,C35*%
X16043750Y-8500000D03*
X16356250Y-8500000D03*
%TD*%
D11*
%TO.C,C5*%
X15220000Y-9700000D03*
X14907500Y-9700000D03*
%TD*%
D12*
%TO.C,CIN1*%
X11600000Y-5900000D03*
X11912500Y-5900000D03*
%TD*%
D15*
%TO.C,L1*%
X12207500Y-6300000D03*
X12675000Y-6300000D03*
%TD*%
D16*
%TO.C,R4*%
X19000000Y-6745000D03*
X19000000Y-7055000D03*
%TD*%
%TO.C,R5*%
X19000000Y-9745000D03*
X19000000Y-10055000D03*
%TD*%
%TO.C,R3*%
X15050000Y-5295000D03*
X15050000Y-5605000D03*
%TD*%
D12*
%TO.C,C43*%
X13663750Y-8250000D03*
X13976250Y-8250000D03*
%TD*%
%TO.C,C22*%
X15463750Y-9700000D03*
X15776250Y-9700000D03*
%TD*%
D11*
%TO.C,C38*%
X16356250Y-7900000D03*
X16043750Y-7900000D03*
%TD*%
D12*
%TO.C,C11*%
X15445750Y-7900000D03*
X15758250Y-7900000D03*
%TD*%
D11*
%TO.C,C41*%
X13979250Y-7900000D03*
X13666750Y-7900000D03*
%TD*%
D12*
%TO.C,C39*%
X16043750Y-9100000D03*
X16356250Y-9100000D03*
%TD*%
D17*
%TO.C,LED1*%
X16150000Y-5050000D03*
X16150000Y-4752500D03*
%TD*%
%TO.C,LED2*%
X15850000Y-5050000D03*
X15850000Y-4752500D03*
%TD*%
D14*
%TO.C,R6*%
X16150000Y-5656250D03*
X16150000Y-5346250D03*
%TD*%
D11*
%TO.C,C46*%
X13981250Y-8850000D03*
X13668750Y-8850000D03*
%TD*%
D18*
%TO.C,U1*%
X13992750Y-5150000D03*
X13992750Y-5200000D03*
X13992750Y-5250000D03*
X13992750Y-5300000D03*
X13992750Y-5350000D03*
X14432879Y-5350000D03*
X14432879Y-5300000D03*
X14432879Y-5250000D03*
X14432879Y-5200000D03*
X14432879Y-5150000D03*
D19*
X14212814Y-5250000D03*
%TD*%
D20*
%TO.C,R1*%
X11395000Y-6305000D03*
X12005000Y-6305000D03*
%TD*%
D21*
%TO.C,U2*%
X15068000Y-8866000D03*
X14932000Y-9002000D03*
X14796000Y-8594000D03*
X15068000Y-8594000D03*
X15204000Y-8730000D03*
X14932000Y-8594000D03*
X15068000Y-8730000D03*
X15204000Y-9002000D03*
X14796000Y-8730000D03*
X14796000Y-8866000D03*
X14796000Y-9002000D03*
X15204000Y-8594000D03*
X14932000Y-8866000D03*
X15204000Y-8866000D03*
X15068000Y-9002000D03*
X14932000Y-8730000D03*
D22*
X15375000Y-8354250D03*
X15325000Y-8354250D03*
X15275000Y-8354250D03*
X15225000Y-8354250D03*
X15175000Y-8354250D03*
X15125000Y-8354250D03*
X15075000Y-8354250D03*
X15025000Y-8354250D03*
X14975000Y-8354250D03*
X14925000Y-8354250D03*
X14875000Y-8354250D03*
X14825000Y-8354250D03*
X14775000Y-8354250D03*
X14725000Y-8354250D03*
X14675000Y-8354250D03*
X14625000Y-8354250D03*
D23*
X14556250Y-8423000D03*
X14556250Y-8473000D03*
X14556250Y-8523000D03*
X14556250Y-8573000D03*
X14556250Y-8623000D03*
X14556250Y-8673000D03*
X14556250Y-8723000D03*
X14556250Y-8773000D03*
X14556250Y-8823000D03*
X14556250Y-8873000D03*
X14556250Y-8923000D03*
X14556250Y-8973000D03*
X14556250Y-9023000D03*
X14556250Y-9073000D03*
X14556250Y-9123000D03*
X14556250Y-9173000D03*
D22*
X14625000Y-9241750D03*
X14675000Y-9241750D03*
X14725000Y-9241750D03*
X14775000Y-9241750D03*
X14825000Y-9241750D03*
X14875000Y-9241750D03*
X14925000Y-9241750D03*
X14975000Y-9241750D03*
X15025000Y-9241750D03*
X15075000Y-9241750D03*
X15125000Y-9241750D03*
X15175000Y-9241750D03*
X15225000Y-9241750D03*
X15275000Y-9241750D03*
X15325000Y-9241750D03*
X15375000Y-9241750D03*
D23*
X15443750Y-9173000D03*
X15443750Y-9123000D03*
X15443750Y-9073000D03*
X15443750Y-9023000D03*
X15443750Y-8973000D03*
X15443750Y-8923000D03*
X15443750Y-8873000D03*
X15443750Y-8823000D03*
X15443750Y-8773000D03*
X15443750Y-8723000D03*
X15443750Y-8673000D03*
X15443750Y-8623000D03*
X15443750Y-8573000D03*
X15443750Y-8523000D03*
X15443750Y-8473000D03*
X15443750Y-8423000D03*
%TD*%
D11*
%TO.C,C3*%
X15216250Y-10000000D03*
X14903750Y-10000000D03*
%TD*%
%TO.C,C14*%
X14156250Y-4800000D03*
X13843750Y-4800000D03*
%TD*%
D14*
%TO.C,R2*%
X19000000Y-6355000D03*
X19000000Y-6045000D03*
%TD*%
M02*
