%TF.GenerationSoftware,KiCad,Pcbnew,(6.0.0-rc1-314-g10be483430)*%
%TF.CreationDate,2021-12-21T22:09:41+01:00*%
%TF.ProjectId,ma12070p_amp_v1,6d613132-3037-4307-905f-616d705f7631,rev?*%
%TF.SameCoordinates,Original*%
%TF.FileFunction,Legend,Top*%
%TF.FilePolarity,Positive*%
%FSLAX45Y45*%
G04 Gerber Fmt 4.5, Leading zero omitted, Abs format (unit mm)*
G04 Created by KiCad (PCBNEW (6.0.0-rc1-314-g10be483430)) date 2021-12-21 22:09:41*
%MOMM*%
%LPD*%
G01*
G04 APERTURE LIST*
%TA.AperFunction,Profile*%
%ADD10C,0.050000*%
%TD*%
%ADD11C,0.150000*%
%ADD12C,0.120000*%
%ADD13C,0.100000*%
G04 APERTURE END LIST*
D10*
X21000000Y-12700000D02*
G75*
G03*
X21500000Y-12200000I0J500000D01*
G01*
X11000000Y-12200000D02*
G75*
G03*
X11500000Y-12700000I500000J0D01*
G01*
X21500000Y-4700000D02*
G75*
G03*
X21000000Y-4200000I-500000J0D01*
G01*
X21500000Y-4700000D02*
X21500000Y-12200000D01*
X11500000Y-4199375D02*
X21000000Y-4200000D01*
X11000000Y-12200000D02*
X11000000Y-4675000D01*
X21000000Y-12700000D02*
X11500000Y-12700000D01*
X11500000Y-4199375D02*
G75*
G03*
X11000000Y-4675000I0J-500625D01*
G01*
D11*
%TO.C,C27*%
X19235714Y-11125714D02*
X19230952Y-11130476D01*
X19216667Y-11135238D01*
X19207143Y-11135238D01*
X19192857Y-11130476D01*
X19183333Y-11120952D01*
X19178571Y-11111429D01*
X19173810Y-11092381D01*
X19173810Y-11078095D01*
X19178571Y-11059048D01*
X19183333Y-11049524D01*
X19192857Y-11040000D01*
X19207143Y-11035238D01*
X19216667Y-11035238D01*
X19230952Y-11040000D01*
X19235714Y-11044762D01*
X19273810Y-11044762D02*
X19278571Y-11040000D01*
X19288095Y-11035238D01*
X19311905Y-11035238D01*
X19321429Y-11040000D01*
X19326190Y-11044762D01*
X19330952Y-11054286D01*
X19330952Y-11063810D01*
X19326190Y-11078095D01*
X19269048Y-11135238D01*
X19330952Y-11135238D01*
X19364286Y-11035238D02*
X19430952Y-11035238D01*
X19388095Y-11135238D01*
%TO.C,JP4*%
X13191667Y-10565238D02*
X13191667Y-10636667D01*
X13186905Y-10650952D01*
X13177381Y-10660476D01*
X13163095Y-10665238D01*
X13153571Y-10665238D01*
X13239286Y-10665238D02*
X13239286Y-10565238D01*
X13277381Y-10565238D01*
X13286905Y-10570000D01*
X13291667Y-10574762D01*
X13296428Y-10584286D01*
X13296428Y-10598571D01*
X13291667Y-10608095D01*
X13286905Y-10612857D01*
X13277381Y-10617619D01*
X13239286Y-10617619D01*
X13382143Y-10598571D02*
X13382143Y-10665238D01*
X13358333Y-10560476D02*
X13334524Y-10631905D01*
X13396428Y-10631905D01*
%TO.C,C7*%
X13808333Y-7820714D02*
X13803571Y-7825476D01*
X13789286Y-7830238D01*
X13779762Y-7830238D01*
X13765476Y-7825476D01*
X13755952Y-7815952D01*
X13751190Y-7806428D01*
X13746428Y-7787381D01*
X13746428Y-7773095D01*
X13751190Y-7754048D01*
X13755952Y-7744524D01*
X13765476Y-7735000D01*
X13779762Y-7730238D01*
X13789286Y-7730238D01*
X13803571Y-7735000D01*
X13808333Y-7739762D01*
X13841667Y-7730238D02*
X13908333Y-7730238D01*
X13865476Y-7830238D01*
%TO.C,C29*%
X16135714Y-9550714D02*
X16130952Y-9555476D01*
X16116667Y-9560238D01*
X16107143Y-9560238D01*
X16092857Y-9555476D01*
X16083333Y-9545952D01*
X16078571Y-9536429D01*
X16073809Y-9517381D01*
X16073809Y-9503095D01*
X16078571Y-9484048D01*
X16083333Y-9474524D01*
X16092857Y-9465000D01*
X16107143Y-9460238D01*
X16116667Y-9460238D01*
X16130952Y-9465000D01*
X16135714Y-9469762D01*
X16173809Y-9469762D02*
X16178571Y-9465000D01*
X16188095Y-9460238D01*
X16211905Y-9460238D01*
X16221428Y-9465000D01*
X16226190Y-9469762D01*
X16230952Y-9479286D01*
X16230952Y-9488810D01*
X16226190Y-9503095D01*
X16169048Y-9560238D01*
X16230952Y-9560238D01*
X16278571Y-9560238D02*
X16297619Y-9560238D01*
X16307143Y-9555476D01*
X16311905Y-9550714D01*
X16321428Y-9536429D01*
X16326190Y-9517381D01*
X16326190Y-9479286D01*
X16321428Y-9469762D01*
X16316667Y-9465000D01*
X16307143Y-9460238D01*
X16288095Y-9460238D01*
X16278571Y-9465000D01*
X16273809Y-9469762D01*
X16269048Y-9479286D01*
X16269048Y-9503095D01*
X16273809Y-9512619D01*
X16278571Y-9517381D01*
X16288095Y-9522143D01*
X16307143Y-9522143D01*
X16316667Y-9517381D01*
X16321428Y-9512619D01*
X16326190Y-9503095D01*
%TO.C,CONN4*%
X11851190Y-8045214D02*
X11846428Y-8049976D01*
X11832143Y-8054738D01*
X11822619Y-8054738D01*
X11808333Y-8049976D01*
X11798809Y-8040452D01*
X11794048Y-8030928D01*
X11789286Y-8011881D01*
X11789286Y-7997595D01*
X11794048Y-7978548D01*
X11798809Y-7969024D01*
X11808333Y-7959500D01*
X11822619Y-7954738D01*
X11832143Y-7954738D01*
X11846428Y-7959500D01*
X11851190Y-7964262D01*
X11913095Y-7954738D02*
X11932143Y-7954738D01*
X11941667Y-7959500D01*
X11951190Y-7969024D01*
X11955952Y-7988071D01*
X11955952Y-8021405D01*
X11951190Y-8040452D01*
X11941667Y-8049976D01*
X11932143Y-8054738D01*
X11913095Y-8054738D01*
X11903571Y-8049976D01*
X11894048Y-8040452D01*
X11889286Y-8021405D01*
X11889286Y-7988071D01*
X11894048Y-7969024D01*
X11903571Y-7959500D01*
X11913095Y-7954738D01*
X11998809Y-8054738D02*
X11998809Y-7954738D01*
X12055952Y-8054738D01*
X12055952Y-7954738D01*
X12103571Y-8054738D02*
X12103571Y-7954738D01*
X12160714Y-8054738D01*
X12160714Y-7954738D01*
X12251190Y-7988071D02*
X12251190Y-8054738D01*
X12227381Y-7949976D02*
X12203571Y-8021405D01*
X12265476Y-8021405D01*
%TO.C,CIN2*%
X12425893Y-5800714D02*
X12421131Y-5805476D01*
X12406845Y-5810238D01*
X12397321Y-5810238D01*
X12383036Y-5805476D01*
X12373512Y-5795952D01*
X12368750Y-5786428D01*
X12363988Y-5767381D01*
X12363988Y-5753095D01*
X12368750Y-5734048D01*
X12373512Y-5724524D01*
X12383036Y-5715000D01*
X12397321Y-5710238D01*
X12406845Y-5710238D01*
X12421131Y-5715000D01*
X12425893Y-5719762D01*
X12468750Y-5810238D02*
X12468750Y-5710238D01*
X12516369Y-5810238D02*
X12516369Y-5710238D01*
X12573512Y-5810238D01*
X12573512Y-5710238D01*
X12616369Y-5719762D02*
X12621131Y-5715000D01*
X12630655Y-5710238D01*
X12654464Y-5710238D01*
X12663988Y-5715000D01*
X12668750Y-5719762D01*
X12673512Y-5729286D01*
X12673512Y-5738809D01*
X12668750Y-5753095D01*
X12611607Y-5810238D01*
X12673512Y-5810238D01*
%TO.C,C36*%
X16135714Y-8420714D02*
X16130952Y-8425476D01*
X16116667Y-8430238D01*
X16107143Y-8430238D01*
X16092857Y-8425476D01*
X16083333Y-8415952D01*
X16078571Y-8406429D01*
X16073809Y-8387381D01*
X16073809Y-8373095D01*
X16078571Y-8354048D01*
X16083333Y-8344524D01*
X16092857Y-8335000D01*
X16107143Y-8330238D01*
X16116667Y-8330238D01*
X16130952Y-8335000D01*
X16135714Y-8339762D01*
X16169048Y-8330238D02*
X16230952Y-8330238D01*
X16197619Y-8368333D01*
X16211905Y-8368333D01*
X16221428Y-8373095D01*
X16226190Y-8377857D01*
X16230952Y-8387381D01*
X16230952Y-8411190D01*
X16226190Y-8420714D01*
X16221428Y-8425476D01*
X16211905Y-8430238D01*
X16183333Y-8430238D01*
X16173809Y-8425476D01*
X16169048Y-8420714D01*
X16316667Y-8330238D02*
X16297619Y-8330238D01*
X16288095Y-8335000D01*
X16283333Y-8339762D01*
X16273809Y-8354048D01*
X16269048Y-8373095D01*
X16269048Y-8411190D01*
X16273809Y-8420714D01*
X16278571Y-8425476D01*
X16288095Y-8430238D01*
X16307143Y-8430238D01*
X16316667Y-8425476D01*
X16321428Y-8420714D01*
X16326190Y-8411190D01*
X16326190Y-8387381D01*
X16321428Y-8377857D01*
X16316667Y-8373095D01*
X16307143Y-8368333D01*
X16288095Y-8368333D01*
X16278571Y-8373095D01*
X16273809Y-8377857D01*
X16269048Y-8387381D01*
%TO.C,C10*%
X15537714Y-7450714D02*
X15532952Y-7455476D01*
X15518667Y-7460238D01*
X15509143Y-7460238D01*
X15494857Y-7455476D01*
X15485333Y-7445952D01*
X15480571Y-7436428D01*
X15475809Y-7417381D01*
X15475809Y-7403095D01*
X15480571Y-7384048D01*
X15485333Y-7374524D01*
X15494857Y-7365000D01*
X15509143Y-7360238D01*
X15518667Y-7360238D01*
X15532952Y-7365000D01*
X15537714Y-7369762D01*
X15632952Y-7460238D02*
X15575809Y-7460238D01*
X15604381Y-7460238D02*
X15604381Y-7360238D01*
X15594857Y-7374524D01*
X15585333Y-7384048D01*
X15575809Y-7388809D01*
X15694857Y-7360238D02*
X15704381Y-7360238D01*
X15713905Y-7365000D01*
X15718667Y-7369762D01*
X15723428Y-7379286D01*
X15728190Y-7398333D01*
X15728190Y-7422143D01*
X15723428Y-7441190D01*
X15718667Y-7450714D01*
X15713905Y-7455476D01*
X15704381Y-7460238D01*
X15694857Y-7460238D01*
X15685333Y-7455476D01*
X15680571Y-7450714D01*
X15675809Y-7441190D01*
X15671048Y-7422143D01*
X15671048Y-7398333D01*
X15675809Y-7379286D01*
X15680571Y-7369762D01*
X15685333Y-7365000D01*
X15694857Y-7360238D01*
%TO.C,C18*%
X14335714Y-8120714D02*
X14330952Y-8125476D01*
X14316667Y-8130238D01*
X14307143Y-8130238D01*
X14292857Y-8125476D01*
X14283333Y-8115952D01*
X14278571Y-8106428D01*
X14273809Y-8087381D01*
X14273809Y-8073095D01*
X14278571Y-8054048D01*
X14283333Y-8044524D01*
X14292857Y-8035000D01*
X14307143Y-8030238D01*
X14316667Y-8030238D01*
X14330952Y-8035000D01*
X14335714Y-8039762D01*
X14430952Y-8130238D02*
X14373809Y-8130238D01*
X14402381Y-8130238D02*
X14402381Y-8030238D01*
X14392857Y-8044524D01*
X14383333Y-8054048D01*
X14373809Y-8058809D01*
X14488095Y-8073095D02*
X14478571Y-8068333D01*
X14473809Y-8063571D01*
X14469048Y-8054048D01*
X14469048Y-8049286D01*
X14473809Y-8039762D01*
X14478571Y-8035000D01*
X14488095Y-8030238D01*
X14507143Y-8030238D01*
X14516667Y-8035000D01*
X14521428Y-8039762D01*
X14526190Y-8049286D01*
X14526190Y-8054048D01*
X14521428Y-8063571D01*
X14516667Y-8068333D01*
X14507143Y-8073095D01*
X14488095Y-8073095D01*
X14478571Y-8077857D01*
X14473809Y-8082619D01*
X14469048Y-8092143D01*
X14469048Y-8111190D01*
X14473809Y-8120714D01*
X14478571Y-8125476D01*
X14488095Y-8130238D01*
X14507143Y-8130238D01*
X14516667Y-8125476D01*
X14521428Y-8120714D01*
X14526190Y-8111190D01*
X14526190Y-8092143D01*
X14521428Y-8082619D01*
X14516667Y-8077857D01*
X14507143Y-8073095D01*
%TO.C,C40*%
X16135714Y-7450714D02*
X16130952Y-7455476D01*
X16116667Y-7460238D01*
X16107143Y-7460238D01*
X16092857Y-7455476D01*
X16083333Y-7445952D01*
X16078571Y-7436428D01*
X16073809Y-7417381D01*
X16073809Y-7403095D01*
X16078571Y-7384048D01*
X16083333Y-7374524D01*
X16092857Y-7365000D01*
X16107143Y-7360238D01*
X16116667Y-7360238D01*
X16130952Y-7365000D01*
X16135714Y-7369762D01*
X16221428Y-7393571D02*
X16221428Y-7460238D01*
X16197619Y-7355476D02*
X16173809Y-7426905D01*
X16235714Y-7426905D01*
X16292857Y-7360238D02*
X16302381Y-7360238D01*
X16311905Y-7365000D01*
X16316667Y-7369762D01*
X16321428Y-7379286D01*
X16326190Y-7398333D01*
X16326190Y-7422143D01*
X16321428Y-7441190D01*
X16316667Y-7450714D01*
X16311905Y-7455476D01*
X16302381Y-7460238D01*
X16292857Y-7460238D01*
X16283333Y-7455476D01*
X16278571Y-7450714D01*
X16273809Y-7441190D01*
X16269048Y-7422143D01*
X16269048Y-7398333D01*
X16273809Y-7379286D01*
X16278571Y-7369762D01*
X16283333Y-7365000D01*
X16292857Y-7360238D01*
%TO.C,C4*%
X14985333Y-7820714D02*
X14980571Y-7825476D01*
X14966286Y-7830238D01*
X14956762Y-7830238D01*
X14942476Y-7825476D01*
X14932952Y-7815952D01*
X14928190Y-7806428D01*
X14923428Y-7787381D01*
X14923428Y-7773095D01*
X14928190Y-7754048D01*
X14932952Y-7744524D01*
X14942476Y-7735000D01*
X14956762Y-7730238D01*
X14966286Y-7730238D01*
X14980571Y-7735000D01*
X14985333Y-7739762D01*
X15071048Y-7763571D02*
X15071048Y-7830238D01*
X15047238Y-7725476D02*
X15023428Y-7796905D01*
X15085333Y-7796905D01*
%TO.C,C16*%
X13304464Y-6420714D02*
X13299702Y-6425476D01*
X13285417Y-6430238D01*
X13275893Y-6430238D01*
X13261607Y-6425476D01*
X13252083Y-6415952D01*
X13247321Y-6406428D01*
X13242559Y-6387381D01*
X13242559Y-6373095D01*
X13247321Y-6354048D01*
X13252083Y-6344524D01*
X13261607Y-6335000D01*
X13275893Y-6330238D01*
X13285417Y-6330238D01*
X13299702Y-6335000D01*
X13304464Y-6339762D01*
X13399702Y-6430238D02*
X13342559Y-6430238D01*
X13371131Y-6430238D02*
X13371131Y-6330238D01*
X13361607Y-6344524D01*
X13352083Y-6354048D01*
X13342559Y-6358809D01*
X13485417Y-6330238D02*
X13466369Y-6330238D01*
X13456845Y-6335000D01*
X13452083Y-6339762D01*
X13442559Y-6354048D01*
X13437798Y-6373095D01*
X13437798Y-6411190D01*
X13442559Y-6420714D01*
X13447321Y-6425476D01*
X13456845Y-6430238D01*
X13475893Y-6430238D01*
X13485417Y-6425476D01*
X13490178Y-6420714D01*
X13494940Y-6411190D01*
X13494940Y-6387381D01*
X13490178Y-6377857D01*
X13485417Y-6373095D01*
X13475893Y-6368333D01*
X13456845Y-6368333D01*
X13447321Y-6373095D01*
X13442559Y-6377857D01*
X13437798Y-6387381D01*
%TO.C,C21*%
X15529464Y-9750714D02*
X15524702Y-9755476D01*
X15510417Y-9760238D01*
X15500893Y-9760238D01*
X15486607Y-9755476D01*
X15477083Y-9745952D01*
X15472321Y-9736429D01*
X15467559Y-9717381D01*
X15467559Y-9703095D01*
X15472321Y-9684048D01*
X15477083Y-9674524D01*
X15486607Y-9665000D01*
X15500893Y-9660238D01*
X15510417Y-9660238D01*
X15524702Y-9665000D01*
X15529464Y-9669762D01*
X15567559Y-9669762D02*
X15572321Y-9665000D01*
X15581845Y-9660238D01*
X15605655Y-9660238D01*
X15615178Y-9665000D01*
X15619940Y-9669762D01*
X15624702Y-9679286D01*
X15624702Y-9688810D01*
X15619940Y-9703095D01*
X15562798Y-9760238D01*
X15624702Y-9760238D01*
X15719940Y-9760238D02*
X15662798Y-9760238D01*
X15691369Y-9760238D02*
X15691369Y-9660238D01*
X15681845Y-9674524D01*
X15672321Y-9684048D01*
X15662798Y-9688810D01*
%TO.C,C20*%
X13304464Y-5535714D02*
X13299702Y-5540476D01*
X13285417Y-5545238D01*
X13275893Y-5545238D01*
X13261607Y-5540476D01*
X13252083Y-5530952D01*
X13247321Y-5521429D01*
X13242559Y-5502381D01*
X13242559Y-5488095D01*
X13247321Y-5469048D01*
X13252083Y-5459524D01*
X13261607Y-5450000D01*
X13275893Y-5445238D01*
X13285417Y-5445238D01*
X13299702Y-5450000D01*
X13304464Y-5454762D01*
X13342559Y-5454762D02*
X13347321Y-5450000D01*
X13356845Y-5445238D01*
X13380655Y-5445238D01*
X13390178Y-5450000D01*
X13394940Y-5454762D01*
X13399702Y-5464286D01*
X13399702Y-5473810D01*
X13394940Y-5488095D01*
X13337798Y-5545238D01*
X13399702Y-5545238D01*
X13461607Y-5445238D02*
X13471131Y-5445238D01*
X13480655Y-5450000D01*
X13485417Y-5454762D01*
X13490178Y-5464286D01*
X13494940Y-5483333D01*
X13494940Y-5507143D01*
X13490178Y-5526190D01*
X13485417Y-5535714D01*
X13480655Y-5540476D01*
X13471131Y-5545238D01*
X13461607Y-5545238D01*
X13452083Y-5540476D01*
X13447321Y-5535714D01*
X13442559Y-5526190D01*
X13437798Y-5507143D01*
X13437798Y-5483333D01*
X13442559Y-5464286D01*
X13447321Y-5454762D01*
X13452083Y-5450000D01*
X13461607Y-5445238D01*
%TO.C,CONN3*%
X11851190Y-9720214D02*
X11846428Y-9724976D01*
X11832143Y-9729738D01*
X11822619Y-9729738D01*
X11808333Y-9724976D01*
X11798809Y-9715452D01*
X11794048Y-9705929D01*
X11789286Y-9686881D01*
X11789286Y-9672595D01*
X11794048Y-9653548D01*
X11798809Y-9644024D01*
X11808333Y-9634500D01*
X11822619Y-9629738D01*
X11832143Y-9629738D01*
X11846428Y-9634500D01*
X11851190Y-9639262D01*
X11913095Y-9629738D02*
X11932143Y-9629738D01*
X11941667Y-9634500D01*
X11951190Y-9644024D01*
X11955952Y-9663071D01*
X11955952Y-9696405D01*
X11951190Y-9715452D01*
X11941667Y-9724976D01*
X11932143Y-9729738D01*
X11913095Y-9729738D01*
X11903571Y-9724976D01*
X11894048Y-9715452D01*
X11889286Y-9696405D01*
X11889286Y-9663071D01*
X11894048Y-9644024D01*
X11903571Y-9634500D01*
X11913095Y-9629738D01*
X11998809Y-9729738D02*
X11998809Y-9629738D01*
X12055952Y-9729738D01*
X12055952Y-9629738D01*
X12103571Y-9729738D02*
X12103571Y-9629738D01*
X12160714Y-9729738D01*
X12160714Y-9629738D01*
X12198809Y-9629738D02*
X12260714Y-9629738D01*
X12227381Y-9667833D01*
X12241667Y-9667833D01*
X12251190Y-9672595D01*
X12255952Y-9677357D01*
X12260714Y-9686881D01*
X12260714Y-9710690D01*
X12255952Y-9720214D01*
X12251190Y-9724976D01*
X12241667Y-9729738D01*
X12213095Y-9729738D01*
X12203571Y-9724976D01*
X12198809Y-9720214D01*
%TO.C,CONN2*%
X21531214Y-8973810D02*
X21535976Y-8978571D01*
X21540738Y-8992857D01*
X21540738Y-9002381D01*
X21535976Y-9016667D01*
X21526452Y-9026190D01*
X21516929Y-9030952D01*
X21497881Y-9035714D01*
X21483595Y-9035714D01*
X21464548Y-9030952D01*
X21455024Y-9026190D01*
X21445500Y-9016667D01*
X21440738Y-9002381D01*
X21440738Y-8992857D01*
X21445500Y-8978571D01*
X21450262Y-8973810D01*
X21440738Y-8911905D02*
X21440738Y-8892857D01*
X21445500Y-8883333D01*
X21455024Y-8873810D01*
X21474071Y-8869048D01*
X21507405Y-8869048D01*
X21526452Y-8873810D01*
X21535976Y-8883333D01*
X21540738Y-8892857D01*
X21540738Y-8911905D01*
X21535976Y-8921429D01*
X21526452Y-8930952D01*
X21507405Y-8935714D01*
X21474071Y-8935714D01*
X21455024Y-8930952D01*
X21445500Y-8921429D01*
X21440738Y-8911905D01*
X21540738Y-8826190D02*
X21440738Y-8826190D01*
X21540738Y-8769048D01*
X21440738Y-8769048D01*
X21540738Y-8721429D02*
X21440738Y-8721429D01*
X21540738Y-8664286D01*
X21440738Y-8664286D01*
X21450262Y-8621429D02*
X21445500Y-8616667D01*
X21440738Y-8607143D01*
X21440738Y-8583333D01*
X21445500Y-8573810D01*
X21450262Y-8569048D01*
X21459786Y-8564286D01*
X21469310Y-8564286D01*
X21483595Y-8569048D01*
X21540738Y-8626190D01*
X21540738Y-8564286D01*
%TO.C,L2*%
X17816667Y-7344762D02*
X17864286Y-7344762D01*
X17864286Y-7444762D01*
X17788095Y-7435238D02*
X17783333Y-7440000D01*
X17773810Y-7444762D01*
X17750000Y-7444762D01*
X17740476Y-7440000D01*
X17735714Y-7435238D01*
X17730952Y-7425714D01*
X17730952Y-7416190D01*
X17735714Y-7401905D01*
X17792857Y-7344762D01*
X17730952Y-7344762D01*
%TO.C,C23*%
X19235714Y-9825714D02*
X19230952Y-9830476D01*
X19216667Y-9835238D01*
X19207143Y-9835238D01*
X19192857Y-9830476D01*
X19183333Y-9820952D01*
X19178571Y-9811429D01*
X19173810Y-9792381D01*
X19173810Y-9778095D01*
X19178571Y-9759048D01*
X19183333Y-9749524D01*
X19192857Y-9740000D01*
X19207143Y-9735238D01*
X19216667Y-9735238D01*
X19230952Y-9740000D01*
X19235714Y-9744762D01*
X19273810Y-9744762D02*
X19278571Y-9740000D01*
X19288095Y-9735238D01*
X19311905Y-9735238D01*
X19321429Y-9740000D01*
X19326190Y-9744762D01*
X19330952Y-9754286D01*
X19330952Y-9763810D01*
X19326190Y-9778095D01*
X19269048Y-9835238D01*
X19330952Y-9835238D01*
X19364286Y-9735238D02*
X19426190Y-9735238D01*
X19392857Y-9773333D01*
X19407143Y-9773333D01*
X19416667Y-9778095D01*
X19421429Y-9782857D01*
X19426190Y-9792381D01*
X19426190Y-9816190D01*
X19421429Y-9825714D01*
X19416667Y-9830476D01*
X19407143Y-9835238D01*
X19378571Y-9835238D01*
X19369048Y-9830476D01*
X19364286Y-9825714D01*
%TO.C,C42*%
X15779464Y-12050714D02*
X15774702Y-12055476D01*
X15760417Y-12060238D01*
X15750893Y-12060238D01*
X15736607Y-12055476D01*
X15727083Y-12045952D01*
X15722321Y-12036428D01*
X15717559Y-12017381D01*
X15717559Y-12003095D01*
X15722321Y-11984048D01*
X15727083Y-11974524D01*
X15736607Y-11965000D01*
X15750893Y-11960238D01*
X15760417Y-11960238D01*
X15774702Y-11965000D01*
X15779464Y-11969762D01*
X15865178Y-11993571D02*
X15865178Y-12060238D01*
X15841369Y-11955476D02*
X15817559Y-12026905D01*
X15879464Y-12026905D01*
X15912798Y-11969762D02*
X15917559Y-11965000D01*
X15927083Y-11960238D01*
X15950893Y-11960238D01*
X15960417Y-11965000D01*
X15965178Y-11969762D01*
X15969940Y-11979286D01*
X15969940Y-11988809D01*
X15965178Y-12003095D01*
X15908036Y-12060238D01*
X15969940Y-12060238D01*
%TO.C,C34*%
X16137714Y-8341714D02*
X16132952Y-8346476D01*
X16118667Y-8351238D01*
X16109143Y-8351238D01*
X16094857Y-8346476D01*
X16085333Y-8336952D01*
X16080571Y-8327428D01*
X16075809Y-8308381D01*
X16075809Y-8294095D01*
X16080571Y-8275048D01*
X16085333Y-8265524D01*
X16094857Y-8256000D01*
X16109143Y-8251238D01*
X16118667Y-8251238D01*
X16132952Y-8256000D01*
X16137714Y-8260762D01*
X16171048Y-8251238D02*
X16232952Y-8251238D01*
X16199619Y-8289333D01*
X16213905Y-8289333D01*
X16223428Y-8294095D01*
X16228190Y-8298857D01*
X16232952Y-8308381D01*
X16232952Y-8332190D01*
X16228190Y-8341714D01*
X16223428Y-8346476D01*
X16213905Y-8351238D01*
X16185333Y-8351238D01*
X16175809Y-8346476D01*
X16171048Y-8341714D01*
X16318667Y-8284571D02*
X16318667Y-8351238D01*
X16294857Y-8246476D02*
X16271048Y-8317905D01*
X16332952Y-8317905D01*
%TO.C,C15*%
X13304464Y-6120714D02*
X13299702Y-6125476D01*
X13285417Y-6130238D01*
X13275893Y-6130238D01*
X13261607Y-6125476D01*
X13252083Y-6115952D01*
X13247321Y-6106428D01*
X13242559Y-6087381D01*
X13242559Y-6073095D01*
X13247321Y-6054048D01*
X13252083Y-6044524D01*
X13261607Y-6035000D01*
X13275893Y-6030238D01*
X13285417Y-6030238D01*
X13299702Y-6035000D01*
X13304464Y-6039762D01*
X13399702Y-6130238D02*
X13342559Y-6130238D01*
X13371131Y-6130238D02*
X13371131Y-6030238D01*
X13361607Y-6044524D01*
X13352083Y-6054048D01*
X13342559Y-6058809D01*
X13490178Y-6030238D02*
X13442559Y-6030238D01*
X13437798Y-6077857D01*
X13442559Y-6073095D01*
X13452083Y-6068333D01*
X13475893Y-6068333D01*
X13485417Y-6073095D01*
X13490178Y-6077857D01*
X13494940Y-6087381D01*
X13494940Y-6111190D01*
X13490178Y-6120714D01*
X13485417Y-6125476D01*
X13475893Y-6130238D01*
X13452083Y-6130238D01*
X13442559Y-6125476D01*
X13437798Y-6120714D01*
%TO.C,C25*%
X14335714Y-10220714D02*
X14330952Y-10225476D01*
X14316667Y-10230238D01*
X14307143Y-10230238D01*
X14292857Y-10225476D01*
X14283333Y-10215952D01*
X14278571Y-10206429D01*
X14273809Y-10187381D01*
X14273809Y-10173095D01*
X14278571Y-10154048D01*
X14283333Y-10144524D01*
X14292857Y-10135000D01*
X14307143Y-10130238D01*
X14316667Y-10130238D01*
X14330952Y-10135000D01*
X14335714Y-10139762D01*
X14373809Y-10139762D02*
X14378571Y-10135000D01*
X14388095Y-10130238D01*
X14411905Y-10130238D01*
X14421428Y-10135000D01*
X14426190Y-10139762D01*
X14430952Y-10149286D01*
X14430952Y-10158810D01*
X14426190Y-10173095D01*
X14369048Y-10230238D01*
X14430952Y-10230238D01*
X14521428Y-10130238D02*
X14473809Y-10130238D01*
X14469048Y-10177857D01*
X14473809Y-10173095D01*
X14483333Y-10168333D01*
X14507143Y-10168333D01*
X14516667Y-10173095D01*
X14521428Y-10177857D01*
X14526190Y-10187381D01*
X14526190Y-10211190D01*
X14521428Y-10220714D01*
X14516667Y-10225476D01*
X14507143Y-10230238D01*
X14483333Y-10230238D01*
X14473809Y-10225476D01*
X14469048Y-10220714D01*
%TO.C,C32*%
X13304464Y-6335714D02*
X13299702Y-6340476D01*
X13285417Y-6345238D01*
X13275893Y-6345238D01*
X13261607Y-6340476D01*
X13252083Y-6330952D01*
X13247321Y-6321428D01*
X13242559Y-6302381D01*
X13242559Y-6288095D01*
X13247321Y-6269048D01*
X13252083Y-6259524D01*
X13261607Y-6250000D01*
X13275893Y-6245238D01*
X13285417Y-6245238D01*
X13299702Y-6250000D01*
X13304464Y-6254762D01*
X13337798Y-6245238D02*
X13399702Y-6245238D01*
X13366369Y-6283333D01*
X13380655Y-6283333D01*
X13390178Y-6288095D01*
X13394940Y-6292857D01*
X13399702Y-6302381D01*
X13399702Y-6326190D01*
X13394940Y-6335714D01*
X13390178Y-6340476D01*
X13380655Y-6345238D01*
X13352083Y-6345238D01*
X13342559Y-6340476D01*
X13337798Y-6335714D01*
X13437798Y-6254762D02*
X13442559Y-6250000D01*
X13452083Y-6245238D01*
X13475893Y-6245238D01*
X13485417Y-6250000D01*
X13490178Y-6254762D01*
X13494940Y-6264286D01*
X13494940Y-6273809D01*
X13490178Y-6288095D01*
X13433036Y-6345238D01*
X13494940Y-6345238D01*
%TO.C,L4*%
X17816667Y-8644762D02*
X17864286Y-8644762D01*
X17864286Y-8744762D01*
X17740476Y-8711429D02*
X17740476Y-8644762D01*
X17764286Y-8749524D02*
X17788095Y-8678095D01*
X17726190Y-8678095D01*
%TO.C,H2*%
X11423809Y-4245238D02*
X11423809Y-4145238D01*
X11423809Y-4192857D02*
X11480952Y-4192857D01*
X11480952Y-4245238D02*
X11480952Y-4145238D01*
X11523809Y-4154762D02*
X11528571Y-4150000D01*
X11538095Y-4145238D01*
X11561905Y-4145238D01*
X11571428Y-4150000D01*
X11576190Y-4154762D01*
X11580952Y-4164286D01*
X11580952Y-4173809D01*
X11576190Y-4188095D01*
X11519048Y-4245238D01*
X11580952Y-4245238D01*
%TO.C,C12*%
X19235714Y-7225714D02*
X19230952Y-7230476D01*
X19216667Y-7235238D01*
X19207143Y-7235238D01*
X19192857Y-7230476D01*
X19183333Y-7220952D01*
X19178571Y-7211428D01*
X19173810Y-7192381D01*
X19173810Y-7178095D01*
X19178571Y-7159048D01*
X19183333Y-7149524D01*
X19192857Y-7140000D01*
X19207143Y-7135238D01*
X19216667Y-7135238D01*
X19230952Y-7140000D01*
X19235714Y-7144762D01*
X19330952Y-7235238D02*
X19273810Y-7235238D01*
X19302381Y-7235238D02*
X19302381Y-7135238D01*
X19292857Y-7149524D01*
X19283333Y-7159048D01*
X19273810Y-7163809D01*
X19369048Y-7144762D02*
X19373810Y-7140000D01*
X19383333Y-7135238D01*
X19407143Y-7135238D01*
X19416667Y-7140000D01*
X19421429Y-7144762D01*
X19426190Y-7154286D01*
X19426190Y-7163809D01*
X19421429Y-7178095D01*
X19364286Y-7235238D01*
X19426190Y-7235238D01*
%TO.C,C17*%
X14335714Y-7820714D02*
X14330952Y-7825476D01*
X14316667Y-7830238D01*
X14307143Y-7830238D01*
X14292857Y-7825476D01*
X14283333Y-7815952D01*
X14278571Y-7806428D01*
X14273809Y-7787381D01*
X14273809Y-7773095D01*
X14278571Y-7754048D01*
X14283333Y-7744524D01*
X14292857Y-7735000D01*
X14307143Y-7730238D01*
X14316667Y-7730238D01*
X14330952Y-7735000D01*
X14335714Y-7739762D01*
X14430952Y-7830238D02*
X14373809Y-7830238D01*
X14402381Y-7830238D02*
X14402381Y-7730238D01*
X14392857Y-7744524D01*
X14383333Y-7754048D01*
X14373809Y-7758809D01*
X14464286Y-7730238D02*
X14530952Y-7730238D01*
X14488095Y-7830238D01*
%TO.C,C19*%
X13304464Y-5420714D02*
X13299702Y-5425476D01*
X13285417Y-5430238D01*
X13275893Y-5430238D01*
X13261607Y-5425476D01*
X13252083Y-5415952D01*
X13247321Y-5406429D01*
X13242559Y-5387381D01*
X13242559Y-5373095D01*
X13247321Y-5354048D01*
X13252083Y-5344524D01*
X13261607Y-5335000D01*
X13275893Y-5330238D01*
X13285417Y-5330238D01*
X13299702Y-5335000D01*
X13304464Y-5339762D01*
X13399702Y-5430238D02*
X13342559Y-5430238D01*
X13371131Y-5430238D02*
X13371131Y-5330238D01*
X13361607Y-5344524D01*
X13352083Y-5354048D01*
X13342559Y-5358810D01*
X13447321Y-5430238D02*
X13466369Y-5430238D01*
X13475893Y-5425476D01*
X13480655Y-5420714D01*
X13490178Y-5406429D01*
X13494940Y-5387381D01*
X13494940Y-5349286D01*
X13490178Y-5339762D01*
X13485417Y-5335000D01*
X13475893Y-5330238D01*
X13456845Y-5330238D01*
X13447321Y-5335000D01*
X13442559Y-5339762D01*
X13437798Y-5349286D01*
X13437798Y-5373095D01*
X13442559Y-5382619D01*
X13447321Y-5387381D01*
X13456845Y-5392143D01*
X13475893Y-5392143D01*
X13485417Y-5387381D01*
X13490178Y-5382619D01*
X13494940Y-5373095D01*
%TO.C,R7*%
X18463238Y-11016667D02*
X18415619Y-11050000D01*
X18463238Y-11073810D02*
X18363238Y-11073810D01*
X18363238Y-11035714D01*
X18368000Y-11026190D01*
X18372762Y-11021429D01*
X18382286Y-11016667D01*
X18396571Y-11016667D01*
X18406095Y-11021429D01*
X18410857Y-11026190D01*
X18415619Y-11035714D01*
X18415619Y-11073810D01*
X18363238Y-10983333D02*
X18363238Y-10916667D01*
X18463238Y-10959524D01*
%TO.C,H4*%
X20923810Y-4245238D02*
X20923810Y-4145238D01*
X20923810Y-4192857D02*
X20980952Y-4192857D01*
X20980952Y-4245238D02*
X20980952Y-4145238D01*
X21071429Y-4178571D02*
X21071429Y-4245238D01*
X21047619Y-4140476D02*
X21023810Y-4211905D01*
X21085714Y-4211905D01*
%TO.C,C37*%
X16135714Y-9250714D02*
X16130952Y-9255476D01*
X16116667Y-9260238D01*
X16107143Y-9260238D01*
X16092857Y-9255476D01*
X16083333Y-9245952D01*
X16078571Y-9236429D01*
X16073809Y-9217381D01*
X16073809Y-9203095D01*
X16078571Y-9184048D01*
X16083333Y-9174524D01*
X16092857Y-9165000D01*
X16107143Y-9160238D01*
X16116667Y-9160238D01*
X16130952Y-9165000D01*
X16135714Y-9169762D01*
X16169048Y-9160238D02*
X16230952Y-9160238D01*
X16197619Y-9198333D01*
X16211905Y-9198333D01*
X16221428Y-9203095D01*
X16226190Y-9207857D01*
X16230952Y-9217381D01*
X16230952Y-9241190D01*
X16226190Y-9250714D01*
X16221428Y-9255476D01*
X16211905Y-9260238D01*
X16183333Y-9260238D01*
X16173809Y-9255476D01*
X16169048Y-9250714D01*
X16264286Y-9160238D02*
X16330952Y-9160238D01*
X16288095Y-9260238D01*
%TO.C,C26*%
X14335714Y-9920714D02*
X14330952Y-9925476D01*
X14316667Y-9930238D01*
X14307143Y-9930238D01*
X14292857Y-9925476D01*
X14283333Y-9915952D01*
X14278571Y-9906429D01*
X14273809Y-9887381D01*
X14273809Y-9873095D01*
X14278571Y-9854048D01*
X14283333Y-9844524D01*
X14292857Y-9835000D01*
X14307143Y-9830238D01*
X14316667Y-9830238D01*
X14330952Y-9835000D01*
X14335714Y-9839762D01*
X14373809Y-9839762D02*
X14378571Y-9835000D01*
X14388095Y-9830238D01*
X14411905Y-9830238D01*
X14421428Y-9835000D01*
X14426190Y-9839762D01*
X14430952Y-9849286D01*
X14430952Y-9858810D01*
X14426190Y-9873095D01*
X14369048Y-9930238D01*
X14430952Y-9930238D01*
X14516667Y-9830238D02*
X14497619Y-9830238D01*
X14488095Y-9835000D01*
X14483333Y-9839762D01*
X14473809Y-9854048D01*
X14469048Y-9873095D01*
X14469048Y-9911190D01*
X14473809Y-9920714D01*
X14478571Y-9925476D01*
X14488095Y-9930238D01*
X14507143Y-9930238D01*
X14516667Y-9925476D01*
X14521428Y-9920714D01*
X14526190Y-9911190D01*
X14526190Y-9887381D01*
X14521428Y-9877857D01*
X14516667Y-9873095D01*
X14507143Y-9868333D01*
X14488095Y-9868333D01*
X14478571Y-9873095D01*
X14473809Y-9877857D01*
X14469048Y-9887381D01*
%TO.C,C30*%
X16135714Y-9850714D02*
X16130952Y-9855476D01*
X16116667Y-9860238D01*
X16107143Y-9860238D01*
X16092857Y-9855476D01*
X16083333Y-9845952D01*
X16078571Y-9836429D01*
X16073809Y-9817381D01*
X16073809Y-9803095D01*
X16078571Y-9784048D01*
X16083333Y-9774524D01*
X16092857Y-9765000D01*
X16107143Y-9760238D01*
X16116667Y-9760238D01*
X16130952Y-9765000D01*
X16135714Y-9769762D01*
X16169048Y-9760238D02*
X16230952Y-9760238D01*
X16197619Y-9798333D01*
X16211905Y-9798333D01*
X16221428Y-9803095D01*
X16226190Y-9807857D01*
X16230952Y-9817381D01*
X16230952Y-9841190D01*
X16226190Y-9850714D01*
X16221428Y-9855476D01*
X16211905Y-9860238D01*
X16183333Y-9860238D01*
X16173809Y-9855476D01*
X16169048Y-9850714D01*
X16292857Y-9760238D02*
X16302381Y-9760238D01*
X16311905Y-9765000D01*
X16316667Y-9769762D01*
X16321428Y-9779286D01*
X16326190Y-9798333D01*
X16326190Y-9822143D01*
X16321428Y-9841190D01*
X16316667Y-9850714D01*
X16311905Y-9855476D01*
X16302381Y-9860238D01*
X16292857Y-9860238D01*
X16283333Y-9855476D01*
X16278571Y-9850714D01*
X16273809Y-9841190D01*
X16269048Y-9822143D01*
X16269048Y-9798333D01*
X16273809Y-9779286D01*
X16278571Y-9769762D01*
X16283333Y-9765000D01*
X16292857Y-9760238D01*
%TO.C,C45*%
X13758714Y-8950714D02*
X13753952Y-8955476D01*
X13739667Y-8960238D01*
X13730143Y-8960238D01*
X13715857Y-8955476D01*
X13706333Y-8945952D01*
X13701571Y-8936429D01*
X13696809Y-8917381D01*
X13696809Y-8903095D01*
X13701571Y-8884048D01*
X13706333Y-8874524D01*
X13715857Y-8865000D01*
X13730143Y-8860238D01*
X13739667Y-8860238D01*
X13753952Y-8865000D01*
X13758714Y-8869762D01*
X13844428Y-8893571D02*
X13844428Y-8960238D01*
X13820619Y-8855476D02*
X13796809Y-8926905D01*
X13858714Y-8926905D01*
X13944428Y-8860238D02*
X13896809Y-8860238D01*
X13892048Y-8907857D01*
X13896809Y-8903095D01*
X13906333Y-8898333D01*
X13930143Y-8898333D01*
X13939667Y-8903095D01*
X13944428Y-8907857D01*
X13949190Y-8917381D01*
X13949190Y-8941190D01*
X13944428Y-8950714D01*
X13939667Y-8955476D01*
X13930143Y-8960238D01*
X13906333Y-8960238D01*
X13896809Y-8955476D01*
X13892048Y-8950714D01*
%TO.C,JP2*%
X13201667Y-10215238D02*
X13201667Y-10286667D01*
X13196905Y-10300952D01*
X13187381Y-10310476D01*
X13173095Y-10315238D01*
X13163571Y-10315238D01*
X13249286Y-10315238D02*
X13249286Y-10215238D01*
X13287381Y-10215238D01*
X13296905Y-10220000D01*
X13301667Y-10224762D01*
X13306428Y-10234286D01*
X13306428Y-10248571D01*
X13301667Y-10258095D01*
X13296905Y-10262857D01*
X13287381Y-10267619D01*
X13249286Y-10267619D01*
X13344524Y-10224762D02*
X13349286Y-10220000D01*
X13358809Y-10215238D01*
X13382619Y-10215238D01*
X13392143Y-10220000D01*
X13396905Y-10224762D01*
X13401667Y-10234286D01*
X13401667Y-10243810D01*
X13396905Y-10258095D01*
X13339762Y-10315238D01*
X13401667Y-10315238D01*
%TO.C,JP3*%
X13716667Y-9975238D02*
X13716667Y-10046667D01*
X13711905Y-10060952D01*
X13702381Y-10070476D01*
X13688095Y-10075238D01*
X13678571Y-10075238D01*
X13764286Y-10075238D02*
X13764286Y-9975238D01*
X13802381Y-9975238D01*
X13811905Y-9980000D01*
X13816667Y-9984762D01*
X13821428Y-9994286D01*
X13821428Y-10008571D01*
X13816667Y-10018095D01*
X13811905Y-10022857D01*
X13802381Y-10027619D01*
X13764286Y-10027619D01*
X13854762Y-9975238D02*
X13916667Y-9975238D01*
X13883333Y-10013333D01*
X13897619Y-10013333D01*
X13907143Y-10018095D01*
X13911905Y-10022857D01*
X13916667Y-10032381D01*
X13916667Y-10056190D01*
X13911905Y-10065714D01*
X13907143Y-10070476D01*
X13897619Y-10075238D01*
X13869048Y-10075238D01*
X13859524Y-10070476D01*
X13854762Y-10065714D01*
%TO.C,C8*%
X19283333Y-5925714D02*
X19278571Y-5930476D01*
X19264286Y-5935238D01*
X19254762Y-5935238D01*
X19240476Y-5930476D01*
X19230952Y-5920952D01*
X19226190Y-5911428D01*
X19221429Y-5892381D01*
X19221429Y-5878095D01*
X19226190Y-5859048D01*
X19230952Y-5849524D01*
X19240476Y-5840000D01*
X19254762Y-5835238D01*
X19264286Y-5835238D01*
X19278571Y-5840000D01*
X19283333Y-5844762D01*
X19340476Y-5878095D02*
X19330952Y-5873333D01*
X19326190Y-5868571D01*
X19321429Y-5859048D01*
X19321429Y-5854286D01*
X19326190Y-5844762D01*
X19330952Y-5840000D01*
X19340476Y-5835238D01*
X19359524Y-5835238D01*
X19369048Y-5840000D01*
X19373810Y-5844762D01*
X19378571Y-5854286D01*
X19378571Y-5859048D01*
X19373810Y-5868571D01*
X19369048Y-5873333D01*
X19359524Y-5878095D01*
X19340476Y-5878095D01*
X19330952Y-5882857D01*
X19326190Y-5887619D01*
X19321429Y-5897143D01*
X19321429Y-5916190D01*
X19326190Y-5925714D01*
X19330952Y-5930476D01*
X19340476Y-5935238D01*
X19359524Y-5935238D01*
X19369048Y-5930476D01*
X19373810Y-5925714D01*
X19378571Y-5916190D01*
X19378571Y-5897143D01*
X19373810Y-5887619D01*
X19369048Y-5882857D01*
X19359524Y-5878095D01*
%TO.C,R8*%
X15827083Y-5063238D02*
X15793750Y-5015619D01*
X15769940Y-5063238D02*
X15769940Y-4963238D01*
X15808036Y-4963238D01*
X15817559Y-4968000D01*
X15822321Y-4972762D01*
X15827083Y-4982286D01*
X15827083Y-4996571D01*
X15822321Y-5006095D01*
X15817559Y-5010857D01*
X15808036Y-5015619D01*
X15769940Y-5015619D01*
X15884226Y-5006095D02*
X15874702Y-5001333D01*
X15869940Y-4996571D01*
X15865178Y-4987048D01*
X15865178Y-4982286D01*
X15869940Y-4972762D01*
X15874702Y-4968000D01*
X15884226Y-4963238D01*
X15903274Y-4963238D01*
X15912798Y-4968000D01*
X15917559Y-4972762D01*
X15922321Y-4982286D01*
X15922321Y-4987048D01*
X15917559Y-4996571D01*
X15912798Y-5001333D01*
X15903274Y-5006095D01*
X15884226Y-5006095D01*
X15874702Y-5010857D01*
X15869940Y-5015619D01*
X15865178Y-5025143D01*
X15865178Y-5044190D01*
X15869940Y-5053714D01*
X15874702Y-5058476D01*
X15884226Y-5063238D01*
X15903274Y-5063238D01*
X15912798Y-5058476D01*
X15917559Y-5053714D01*
X15922321Y-5044190D01*
X15922321Y-5025143D01*
X15917559Y-5015619D01*
X15912798Y-5010857D01*
X15903274Y-5006095D01*
%TO.C,C44*%
X13758714Y-8350714D02*
X13753952Y-8355476D01*
X13739667Y-8360238D01*
X13730143Y-8360238D01*
X13715857Y-8355476D01*
X13706333Y-8345952D01*
X13701571Y-8336428D01*
X13696809Y-8317381D01*
X13696809Y-8303095D01*
X13701571Y-8284048D01*
X13706333Y-8274524D01*
X13715857Y-8265000D01*
X13730143Y-8260238D01*
X13739667Y-8260238D01*
X13753952Y-8265000D01*
X13758714Y-8269762D01*
X13844428Y-8293571D02*
X13844428Y-8360238D01*
X13820619Y-8255476D02*
X13796809Y-8326905D01*
X13858714Y-8326905D01*
X13939667Y-8293571D02*
X13939667Y-8360238D01*
X13915857Y-8255476D02*
X13892048Y-8326905D01*
X13953952Y-8326905D01*
%TO.C,C31*%
X16135714Y-10520714D02*
X16130952Y-10525476D01*
X16116667Y-10530238D01*
X16107143Y-10530238D01*
X16092857Y-10525476D01*
X16083333Y-10515952D01*
X16078571Y-10506429D01*
X16073809Y-10487381D01*
X16073809Y-10473095D01*
X16078571Y-10454048D01*
X16083333Y-10444524D01*
X16092857Y-10435000D01*
X16107143Y-10430238D01*
X16116667Y-10430238D01*
X16130952Y-10435000D01*
X16135714Y-10439762D01*
X16169048Y-10430238D02*
X16230952Y-10430238D01*
X16197619Y-10468333D01*
X16211905Y-10468333D01*
X16221428Y-10473095D01*
X16226190Y-10477857D01*
X16230952Y-10487381D01*
X16230952Y-10511190D01*
X16226190Y-10520714D01*
X16221428Y-10525476D01*
X16211905Y-10530238D01*
X16183333Y-10530238D01*
X16173809Y-10525476D01*
X16169048Y-10520714D01*
X16326190Y-10530238D02*
X16269048Y-10530238D01*
X16297619Y-10530238D02*
X16297619Y-10430238D01*
X16288095Y-10444524D01*
X16278571Y-10454048D01*
X16269048Y-10458810D01*
%TO.C,JP5*%
X13116667Y-9650238D02*
X13116667Y-9721667D01*
X13111905Y-9735952D01*
X13102381Y-9745476D01*
X13088095Y-9750238D01*
X13078571Y-9750238D01*
X13164286Y-9750238D02*
X13164286Y-9650238D01*
X13202381Y-9650238D01*
X13211905Y-9655000D01*
X13216667Y-9659762D01*
X13221428Y-9669286D01*
X13221428Y-9683571D01*
X13216667Y-9693095D01*
X13211905Y-9697857D01*
X13202381Y-9702619D01*
X13164286Y-9702619D01*
X13311905Y-9650238D02*
X13264286Y-9650238D01*
X13259524Y-9697857D01*
X13264286Y-9693095D01*
X13273809Y-9688333D01*
X13297619Y-9688333D01*
X13307143Y-9693095D01*
X13311905Y-9697857D01*
X13316667Y-9707381D01*
X13316667Y-9731190D01*
X13311905Y-9740714D01*
X13307143Y-9745476D01*
X13297619Y-9750238D01*
X13273809Y-9750238D01*
X13264286Y-9745476D01*
X13259524Y-9740714D01*
%TO.C,C6*%
X14985333Y-8120714D02*
X14980571Y-8125476D01*
X14966286Y-8130238D01*
X14956762Y-8130238D01*
X14942476Y-8125476D01*
X14932952Y-8115952D01*
X14928190Y-8106428D01*
X14923428Y-8087381D01*
X14923428Y-8073095D01*
X14928190Y-8054048D01*
X14932952Y-8044524D01*
X14942476Y-8035000D01*
X14956762Y-8030238D01*
X14966286Y-8030238D01*
X14980571Y-8035000D01*
X14985333Y-8039762D01*
X15071048Y-8030238D02*
X15052000Y-8030238D01*
X15042476Y-8035000D01*
X15037714Y-8039762D01*
X15028190Y-8054048D01*
X15023428Y-8073095D01*
X15023428Y-8111190D01*
X15028190Y-8120714D01*
X15032952Y-8125476D01*
X15042476Y-8130238D01*
X15061524Y-8130238D01*
X15071048Y-8125476D01*
X15075809Y-8120714D01*
X15080571Y-8111190D01*
X15080571Y-8087381D01*
X15075809Y-8077857D01*
X15071048Y-8073095D01*
X15061524Y-8068333D01*
X15042476Y-8068333D01*
X15032952Y-8073095D01*
X15028190Y-8077857D01*
X15023428Y-8087381D01*
%TO.C,C2*%
X15396566Y-6135714D02*
X15391804Y-6140476D01*
X15377518Y-6145238D01*
X15367994Y-6145238D01*
X15353708Y-6140476D01*
X15344185Y-6130952D01*
X15339423Y-6121428D01*
X15334661Y-6102381D01*
X15334661Y-6088095D01*
X15339423Y-6069048D01*
X15344185Y-6059524D01*
X15353708Y-6050000D01*
X15367994Y-6045238D01*
X15377518Y-6045238D01*
X15391804Y-6050000D01*
X15396566Y-6054762D01*
X15434661Y-6054762D02*
X15439423Y-6050000D01*
X15448946Y-6045238D01*
X15472756Y-6045238D01*
X15482280Y-6050000D01*
X15487042Y-6054762D01*
X15491804Y-6064286D01*
X15491804Y-6073809D01*
X15487042Y-6088095D01*
X15429899Y-6145238D01*
X15491804Y-6145238D01*
%TO.C,C35*%
X16048214Y-8650714D02*
X16043452Y-8655476D01*
X16029167Y-8660238D01*
X16019643Y-8660238D01*
X16005357Y-8655476D01*
X15995833Y-8645952D01*
X15991071Y-8636429D01*
X15986309Y-8617381D01*
X15986309Y-8603095D01*
X15991071Y-8584048D01*
X15995833Y-8574524D01*
X16005357Y-8565000D01*
X16019643Y-8560238D01*
X16029167Y-8560238D01*
X16043452Y-8565000D01*
X16048214Y-8569762D01*
X16081548Y-8560238D02*
X16143452Y-8560238D01*
X16110119Y-8598333D01*
X16124405Y-8598333D01*
X16133928Y-8603095D01*
X16138690Y-8607857D01*
X16143452Y-8617381D01*
X16143452Y-8641190D01*
X16138690Y-8650714D01*
X16133928Y-8655476D01*
X16124405Y-8660238D01*
X16095833Y-8660238D01*
X16086309Y-8655476D01*
X16081548Y-8650714D01*
X16233928Y-8560238D02*
X16186309Y-8560238D01*
X16181548Y-8607857D01*
X16186309Y-8603095D01*
X16195833Y-8598333D01*
X16219643Y-8598333D01*
X16229167Y-8603095D01*
X16233928Y-8607857D01*
X16238690Y-8617381D01*
X16238690Y-8641190D01*
X16233928Y-8650714D01*
X16229167Y-8655476D01*
X16219643Y-8660238D01*
X16195833Y-8660238D01*
X16186309Y-8655476D01*
X16181548Y-8650714D01*
%TO.C,C5*%
X14983333Y-10220714D02*
X14978571Y-10225476D01*
X14964286Y-10230238D01*
X14954762Y-10230238D01*
X14940476Y-10225476D01*
X14930952Y-10215952D01*
X14926190Y-10206429D01*
X14921428Y-10187381D01*
X14921428Y-10173095D01*
X14926190Y-10154048D01*
X14930952Y-10144524D01*
X14940476Y-10135000D01*
X14954762Y-10130238D01*
X14964286Y-10130238D01*
X14978571Y-10135000D01*
X14983333Y-10139762D01*
X15073809Y-10130238D02*
X15026190Y-10130238D01*
X15021428Y-10177857D01*
X15026190Y-10173095D01*
X15035714Y-10168333D01*
X15059524Y-10168333D01*
X15069048Y-10173095D01*
X15073809Y-10177857D01*
X15078571Y-10187381D01*
X15078571Y-10211190D01*
X15073809Y-10220714D01*
X15069048Y-10225476D01*
X15059524Y-10230238D01*
X15035714Y-10230238D01*
X15026190Y-10225476D01*
X15021428Y-10220714D01*
%TO.C,CIN1*%
X11663393Y-5750714D02*
X11658631Y-5755476D01*
X11644345Y-5760238D01*
X11634821Y-5760238D01*
X11620536Y-5755476D01*
X11611012Y-5745952D01*
X11606250Y-5736428D01*
X11601488Y-5717381D01*
X11601488Y-5703095D01*
X11606250Y-5684048D01*
X11611012Y-5674524D01*
X11620536Y-5665000D01*
X11634821Y-5660238D01*
X11644345Y-5660238D01*
X11658631Y-5665000D01*
X11663393Y-5669762D01*
X11706250Y-5760238D02*
X11706250Y-5660238D01*
X11753869Y-5760238D02*
X11753869Y-5660238D01*
X11811012Y-5760238D01*
X11811012Y-5660238D01*
X11911012Y-5760238D02*
X11853869Y-5760238D01*
X11882440Y-5760238D02*
X11882440Y-5660238D01*
X11872917Y-5674524D01*
X11863393Y-5684048D01*
X11853869Y-5688809D01*
%TO.C,L1*%
X12424583Y-6573238D02*
X12376964Y-6573238D01*
X12376964Y-6473238D01*
X12510298Y-6573238D02*
X12453155Y-6573238D01*
X12481726Y-6573238D02*
X12481726Y-6473238D01*
X12472202Y-6487524D01*
X12462678Y-6497048D01*
X12453155Y-6501809D01*
%TO.C,R4*%
X18827238Y-7916667D02*
X18779619Y-7950000D01*
X18827238Y-7973809D02*
X18727238Y-7973809D01*
X18727238Y-7935714D01*
X18732000Y-7926190D01*
X18736762Y-7921428D01*
X18746286Y-7916667D01*
X18760571Y-7916667D01*
X18770095Y-7921428D01*
X18774857Y-7926190D01*
X18779619Y-7935714D01*
X18779619Y-7973809D01*
X18760571Y-7830952D02*
X18827238Y-7830952D01*
X18722476Y-7854762D02*
X18793905Y-7878571D01*
X18793905Y-7816667D01*
%TO.C,L6*%
X17816667Y-11344762D02*
X17864286Y-11344762D01*
X17864286Y-11444762D01*
X17740476Y-11444762D02*
X17759524Y-11444762D01*
X17769048Y-11440000D01*
X17773810Y-11435238D01*
X17783333Y-11420952D01*
X17788095Y-11401905D01*
X17788095Y-11363809D01*
X17783333Y-11354286D01*
X17778571Y-11349524D01*
X17769048Y-11344762D01*
X17750000Y-11344762D01*
X17740476Y-11349524D01*
X17735714Y-11354286D01*
X17730952Y-11363809D01*
X17730952Y-11387619D01*
X17735714Y-11397143D01*
X17740476Y-11401905D01*
X17750000Y-11406667D01*
X17769048Y-11406667D01*
X17778571Y-11401905D01*
X17783333Y-11397143D01*
X17788095Y-11387619D01*
%TO.C,C24*%
X19235714Y-9845714D02*
X19230952Y-9850476D01*
X19216667Y-9855238D01*
X19207143Y-9855238D01*
X19192857Y-9850476D01*
X19183333Y-9840952D01*
X19178571Y-9831429D01*
X19173810Y-9812381D01*
X19173810Y-9798095D01*
X19178571Y-9779048D01*
X19183333Y-9769524D01*
X19192857Y-9760000D01*
X19207143Y-9755238D01*
X19216667Y-9755238D01*
X19230952Y-9760000D01*
X19235714Y-9764762D01*
X19273810Y-9764762D02*
X19278571Y-9760000D01*
X19288095Y-9755238D01*
X19311905Y-9755238D01*
X19321429Y-9760000D01*
X19326190Y-9764762D01*
X19330952Y-9774286D01*
X19330952Y-9783810D01*
X19326190Y-9798095D01*
X19269048Y-9855238D01*
X19330952Y-9855238D01*
X19416667Y-9788571D02*
X19416667Y-9855238D01*
X19392857Y-9750476D02*
X19369048Y-9821905D01*
X19430952Y-9821905D01*
%TO.C,H3*%
X11423809Y-11745238D02*
X11423809Y-11645238D01*
X11423809Y-11692857D02*
X11480952Y-11692857D01*
X11480952Y-11745238D02*
X11480952Y-11645238D01*
X11519048Y-11645238D02*
X11580952Y-11645238D01*
X11547619Y-11683333D01*
X11561905Y-11683333D01*
X11571428Y-11688095D01*
X11576190Y-11692857D01*
X11580952Y-11702381D01*
X11580952Y-11726190D01*
X11576190Y-11735714D01*
X11571428Y-11740476D01*
X11561905Y-11745238D01*
X11533333Y-11745238D01*
X11523809Y-11740476D01*
X11519048Y-11735714D01*
%TO.C,C1*%
X15398566Y-10260714D02*
X15393804Y-10265476D01*
X15379518Y-10270238D01*
X15369994Y-10270238D01*
X15355708Y-10265476D01*
X15346185Y-10255952D01*
X15341423Y-10246429D01*
X15336661Y-10227381D01*
X15336661Y-10213095D01*
X15341423Y-10194048D01*
X15346185Y-10184524D01*
X15355708Y-10175000D01*
X15369994Y-10170238D01*
X15379518Y-10170238D01*
X15393804Y-10175000D01*
X15398566Y-10179762D01*
X15493804Y-10270238D02*
X15436661Y-10270238D01*
X15465232Y-10270238D02*
X15465232Y-10170238D01*
X15455708Y-10184524D01*
X15446185Y-10194048D01*
X15436661Y-10198810D01*
%TO.C,R5*%
X18827238Y-9716667D02*
X18779619Y-9750000D01*
X18827238Y-9773810D02*
X18727238Y-9773810D01*
X18727238Y-9735714D01*
X18732000Y-9726190D01*
X18736762Y-9721429D01*
X18746286Y-9716667D01*
X18760571Y-9716667D01*
X18770095Y-9721429D01*
X18774857Y-9726190D01*
X18779619Y-9735714D01*
X18779619Y-9773810D01*
X18727238Y-9626190D02*
X18727238Y-9673810D01*
X18774857Y-9678571D01*
X18770095Y-9673810D01*
X18765333Y-9664286D01*
X18765333Y-9640476D01*
X18770095Y-9630952D01*
X18774857Y-9626190D01*
X18784381Y-9621429D01*
X18808190Y-9621429D01*
X18817714Y-9626190D01*
X18822476Y-9630952D01*
X18827238Y-9640476D01*
X18827238Y-9664286D01*
X18822476Y-9673810D01*
X18817714Y-9678571D01*
%TO.C,JP8*%
X13741667Y-10275238D02*
X13741667Y-10346667D01*
X13736905Y-10360952D01*
X13727381Y-10370476D01*
X13713095Y-10375238D01*
X13703571Y-10375238D01*
X13789286Y-10375238D02*
X13789286Y-10275238D01*
X13827381Y-10275238D01*
X13836905Y-10280000D01*
X13841667Y-10284762D01*
X13846428Y-10294286D01*
X13846428Y-10308571D01*
X13841667Y-10318095D01*
X13836905Y-10322857D01*
X13827381Y-10327619D01*
X13789286Y-10327619D01*
X13903571Y-10318095D02*
X13894048Y-10313333D01*
X13889286Y-10308571D01*
X13884524Y-10299048D01*
X13884524Y-10294286D01*
X13889286Y-10284762D01*
X13894048Y-10280000D01*
X13903571Y-10275238D01*
X13922619Y-10275238D01*
X13932143Y-10280000D01*
X13936905Y-10284762D01*
X13941667Y-10294286D01*
X13941667Y-10299048D01*
X13936905Y-10308571D01*
X13932143Y-10313333D01*
X13922619Y-10318095D01*
X13903571Y-10318095D01*
X13894048Y-10322857D01*
X13889286Y-10327619D01*
X13884524Y-10337143D01*
X13884524Y-10356190D01*
X13889286Y-10365714D01*
X13894048Y-10370476D01*
X13903571Y-10375238D01*
X13922619Y-10375238D01*
X13932143Y-10370476D01*
X13936905Y-10365714D01*
X13941667Y-10356190D01*
X13941667Y-10337143D01*
X13936905Y-10327619D01*
X13932143Y-10322857D01*
X13922619Y-10318095D01*
%TO.C,R3*%
X13358333Y-4738238D02*
X13325000Y-4690619D01*
X13301190Y-4738238D02*
X13301190Y-4638238D01*
X13339286Y-4638238D01*
X13348809Y-4643000D01*
X13353571Y-4647762D01*
X13358333Y-4657286D01*
X13358333Y-4671571D01*
X13353571Y-4681095D01*
X13348809Y-4685857D01*
X13339286Y-4690619D01*
X13301190Y-4690619D01*
X13391667Y-4638238D02*
X13453571Y-4638238D01*
X13420238Y-4676333D01*
X13434524Y-4676333D01*
X13444048Y-4681095D01*
X13448809Y-4685857D01*
X13453571Y-4695381D01*
X13453571Y-4719190D01*
X13448809Y-4728714D01*
X13444048Y-4733476D01*
X13434524Y-4738238D01*
X13405952Y-4738238D01*
X13396428Y-4733476D01*
X13391667Y-4728714D01*
%TO.C,JP6*%
X13350238Y-8508333D02*
X13421667Y-8508333D01*
X13435952Y-8513095D01*
X13445476Y-8522619D01*
X13450238Y-8536905D01*
X13450238Y-8546429D01*
X13450238Y-8460714D02*
X13350238Y-8460714D01*
X13350238Y-8422619D01*
X13355000Y-8413095D01*
X13359762Y-8408333D01*
X13369286Y-8403571D01*
X13383571Y-8403571D01*
X13393095Y-8408333D01*
X13397857Y-8413095D01*
X13402619Y-8422619D01*
X13402619Y-8460714D01*
X13350238Y-8317857D02*
X13350238Y-8336905D01*
X13355000Y-8346428D01*
X13359762Y-8351190D01*
X13374048Y-8360714D01*
X13393095Y-8365476D01*
X13431190Y-8365476D01*
X13440714Y-8360714D01*
X13445476Y-8355952D01*
X13450238Y-8346428D01*
X13450238Y-8327381D01*
X13445476Y-8317857D01*
X13440714Y-8313095D01*
X13431190Y-8308333D01*
X13407381Y-8308333D01*
X13397857Y-8313095D01*
X13393095Y-8317857D01*
X13388333Y-8327381D01*
X13388333Y-8346428D01*
X13393095Y-8355952D01*
X13397857Y-8360714D01*
X13407381Y-8365476D01*
%TO.C,L5*%
X17816667Y-10044762D02*
X17864286Y-10044762D01*
X17864286Y-10144762D01*
X17735714Y-10144762D02*
X17783333Y-10144762D01*
X17788095Y-10097143D01*
X17783333Y-10101905D01*
X17773810Y-10106667D01*
X17750000Y-10106667D01*
X17740476Y-10101905D01*
X17735714Y-10097143D01*
X17730952Y-10087619D01*
X17730952Y-10063810D01*
X17735714Y-10054286D01*
X17740476Y-10049524D01*
X17750000Y-10044762D01*
X17773810Y-10044762D01*
X17783333Y-10049524D01*
X17788095Y-10054286D01*
%TO.C,C43*%
X13758714Y-8050714D02*
X13753952Y-8055476D01*
X13739667Y-8060238D01*
X13730143Y-8060238D01*
X13715857Y-8055476D01*
X13706333Y-8045952D01*
X13701571Y-8036428D01*
X13696809Y-8017381D01*
X13696809Y-8003095D01*
X13701571Y-7984048D01*
X13706333Y-7974524D01*
X13715857Y-7965000D01*
X13730143Y-7960238D01*
X13739667Y-7960238D01*
X13753952Y-7965000D01*
X13758714Y-7969762D01*
X13844428Y-7993571D02*
X13844428Y-8060238D01*
X13820619Y-7955476D02*
X13796809Y-8026905D01*
X13858714Y-8026905D01*
X13887286Y-7960238D02*
X13949190Y-7960238D01*
X13915857Y-7998333D01*
X13930143Y-7998333D01*
X13939667Y-8003095D01*
X13944428Y-8007857D01*
X13949190Y-8017381D01*
X13949190Y-8041190D01*
X13944428Y-8050714D01*
X13939667Y-8055476D01*
X13930143Y-8060238D01*
X13901571Y-8060238D01*
X13892048Y-8055476D01*
X13887286Y-8050714D01*
%TO.C,C9*%
X19283333Y-7145714D02*
X19278571Y-7150476D01*
X19264286Y-7155238D01*
X19254762Y-7155238D01*
X19240476Y-7150476D01*
X19230952Y-7140952D01*
X19226190Y-7131428D01*
X19221429Y-7112381D01*
X19221429Y-7098095D01*
X19226190Y-7079048D01*
X19230952Y-7069524D01*
X19240476Y-7060000D01*
X19254762Y-7055238D01*
X19264286Y-7055238D01*
X19278571Y-7060000D01*
X19283333Y-7064762D01*
X19330952Y-7155238D02*
X19350000Y-7155238D01*
X19359524Y-7150476D01*
X19364286Y-7145714D01*
X19373810Y-7131428D01*
X19378571Y-7112381D01*
X19378571Y-7074286D01*
X19373810Y-7064762D01*
X19369048Y-7060000D01*
X19359524Y-7055238D01*
X19340476Y-7055238D01*
X19330952Y-7060000D01*
X19326190Y-7064762D01*
X19321429Y-7074286D01*
X19321429Y-7098095D01*
X19326190Y-7107619D01*
X19330952Y-7112381D01*
X19340476Y-7117143D01*
X19359524Y-7117143D01*
X19369048Y-7112381D01*
X19373810Y-7107619D01*
X19378571Y-7098095D01*
%TO.C,C33*%
X13310714Y-6675714D02*
X13305952Y-6680476D01*
X13291667Y-6685238D01*
X13282143Y-6685238D01*
X13267857Y-6680476D01*
X13258333Y-6670952D01*
X13253571Y-6661428D01*
X13248809Y-6642381D01*
X13248809Y-6628095D01*
X13253571Y-6609048D01*
X13258333Y-6599524D01*
X13267857Y-6590000D01*
X13282143Y-6585238D01*
X13291667Y-6585238D01*
X13305952Y-6590000D01*
X13310714Y-6594762D01*
X13344048Y-6585238D02*
X13405952Y-6585238D01*
X13372619Y-6623333D01*
X13386905Y-6623333D01*
X13396428Y-6628095D01*
X13401190Y-6632857D01*
X13405952Y-6642381D01*
X13405952Y-6666190D01*
X13401190Y-6675714D01*
X13396428Y-6680476D01*
X13386905Y-6685238D01*
X13358333Y-6685238D01*
X13348809Y-6680476D01*
X13344048Y-6675714D01*
X13439286Y-6585238D02*
X13501190Y-6585238D01*
X13467857Y-6623333D01*
X13482143Y-6623333D01*
X13491667Y-6628095D01*
X13496428Y-6632857D01*
X13501190Y-6642381D01*
X13501190Y-6666190D01*
X13496428Y-6675714D01*
X13491667Y-6680476D01*
X13482143Y-6685238D01*
X13453571Y-6685238D01*
X13444048Y-6680476D01*
X13439286Y-6675714D01*
%TO.C,C28*%
X19235714Y-10525714D02*
X19230952Y-10530476D01*
X19216667Y-10535238D01*
X19207143Y-10535238D01*
X19192857Y-10530476D01*
X19183333Y-10520952D01*
X19178571Y-10511429D01*
X19173810Y-10492381D01*
X19173810Y-10478095D01*
X19178571Y-10459048D01*
X19183333Y-10449524D01*
X19192857Y-10440000D01*
X19207143Y-10435238D01*
X19216667Y-10435238D01*
X19230952Y-10440000D01*
X19235714Y-10444762D01*
X19273810Y-10444762D02*
X19278571Y-10440000D01*
X19288095Y-10435238D01*
X19311905Y-10435238D01*
X19321429Y-10440000D01*
X19326190Y-10444762D01*
X19330952Y-10454286D01*
X19330952Y-10463810D01*
X19326190Y-10478095D01*
X19269048Y-10535238D01*
X19330952Y-10535238D01*
X19388095Y-10478095D02*
X19378571Y-10473333D01*
X19373810Y-10468571D01*
X19369048Y-10459048D01*
X19369048Y-10454286D01*
X19373810Y-10444762D01*
X19378571Y-10440000D01*
X19388095Y-10435238D01*
X19407143Y-10435238D01*
X19416667Y-10440000D01*
X19421429Y-10444762D01*
X19426190Y-10454286D01*
X19426190Y-10459048D01*
X19421429Y-10468571D01*
X19416667Y-10473333D01*
X19407143Y-10478095D01*
X19388095Y-10478095D01*
X19378571Y-10482857D01*
X19373810Y-10487619D01*
X19369048Y-10497143D01*
X19369048Y-10516190D01*
X19373810Y-10525714D01*
X19378571Y-10530476D01*
X19388095Y-10535238D01*
X19407143Y-10535238D01*
X19416667Y-10530476D01*
X19421429Y-10525714D01*
X19426190Y-10516190D01*
X19426190Y-10497143D01*
X19421429Y-10487619D01*
X19416667Y-10482857D01*
X19407143Y-10478095D01*
%TO.C,H1*%
X20923810Y-11745238D02*
X20923810Y-11645238D01*
X20923810Y-11692857D02*
X20980952Y-11692857D01*
X20980952Y-11745238D02*
X20980952Y-11645238D01*
X21080952Y-11745238D02*
X21023810Y-11745238D01*
X21052381Y-11745238D02*
X21052381Y-11645238D01*
X21042857Y-11659524D01*
X21033333Y-11669048D01*
X21023810Y-11673809D01*
%TO.C,C22*%
X15529464Y-9550714D02*
X15524702Y-9555476D01*
X15510417Y-9560238D01*
X15500893Y-9560238D01*
X15486607Y-9555476D01*
X15477083Y-9545952D01*
X15472321Y-9536429D01*
X15467559Y-9517381D01*
X15467559Y-9503095D01*
X15472321Y-9484048D01*
X15477083Y-9474524D01*
X15486607Y-9465000D01*
X15500893Y-9460238D01*
X15510417Y-9460238D01*
X15524702Y-9465000D01*
X15529464Y-9469762D01*
X15567559Y-9469762D02*
X15572321Y-9465000D01*
X15581845Y-9460238D01*
X15605655Y-9460238D01*
X15615178Y-9465000D01*
X15619940Y-9469762D01*
X15624702Y-9479286D01*
X15624702Y-9488810D01*
X15619940Y-9503095D01*
X15562798Y-9560238D01*
X15624702Y-9560238D01*
X15662798Y-9469762D02*
X15667559Y-9465000D01*
X15677083Y-9460238D01*
X15700893Y-9460238D01*
X15710417Y-9465000D01*
X15715178Y-9469762D01*
X15719940Y-9479286D01*
X15719940Y-9488810D01*
X15715178Y-9503095D01*
X15658036Y-9560238D01*
X15719940Y-9560238D01*
%TO.C,C38*%
X16135714Y-8120714D02*
X16130952Y-8125476D01*
X16116667Y-8130238D01*
X16107143Y-8130238D01*
X16092857Y-8125476D01*
X16083333Y-8115952D01*
X16078571Y-8106428D01*
X16073809Y-8087381D01*
X16073809Y-8073095D01*
X16078571Y-8054048D01*
X16083333Y-8044524D01*
X16092857Y-8035000D01*
X16107143Y-8030238D01*
X16116667Y-8030238D01*
X16130952Y-8035000D01*
X16135714Y-8039762D01*
X16169048Y-8030238D02*
X16230952Y-8030238D01*
X16197619Y-8068333D01*
X16211905Y-8068333D01*
X16221428Y-8073095D01*
X16226190Y-8077857D01*
X16230952Y-8087381D01*
X16230952Y-8111190D01*
X16226190Y-8120714D01*
X16221428Y-8125476D01*
X16211905Y-8130238D01*
X16183333Y-8130238D01*
X16173809Y-8125476D01*
X16169048Y-8120714D01*
X16288095Y-8073095D02*
X16278571Y-8068333D01*
X16273809Y-8063571D01*
X16269048Y-8054048D01*
X16269048Y-8049286D01*
X16273809Y-8039762D01*
X16278571Y-8035000D01*
X16288095Y-8030238D01*
X16307143Y-8030238D01*
X16316667Y-8035000D01*
X16321428Y-8039762D01*
X16326190Y-8049286D01*
X16326190Y-8054048D01*
X16321428Y-8063571D01*
X16316667Y-8068333D01*
X16307143Y-8073095D01*
X16288095Y-8073095D01*
X16278571Y-8077857D01*
X16273809Y-8082619D01*
X16269048Y-8092143D01*
X16269048Y-8111190D01*
X16273809Y-8120714D01*
X16278571Y-8125476D01*
X16288095Y-8130238D01*
X16307143Y-8130238D01*
X16316667Y-8125476D01*
X16321428Y-8120714D01*
X16326190Y-8111190D01*
X16326190Y-8092143D01*
X16321428Y-8082619D01*
X16316667Y-8077857D01*
X16307143Y-8073095D01*
%TO.C,L3*%
X14383343Y-6695238D02*
X14335724Y-6695238D01*
X14335724Y-6595238D01*
X14407153Y-6595238D02*
X14469058Y-6595238D01*
X14435724Y-6633333D01*
X14450010Y-6633333D01*
X14459534Y-6638095D01*
X14464296Y-6642857D01*
X14469058Y-6652381D01*
X14469058Y-6676190D01*
X14464296Y-6685714D01*
X14459534Y-6690476D01*
X14450010Y-6695238D01*
X14421438Y-6695238D01*
X14411915Y-6690476D01*
X14407153Y-6685714D01*
X14333343Y-5735238D02*
X14276200Y-5735238D01*
X14304772Y-5735238D02*
X14304772Y-5635238D01*
X14295248Y-5649524D01*
X14285724Y-5659048D01*
X14276200Y-5663809D01*
X14395248Y-5635238D02*
X14404772Y-5635238D01*
X14414296Y-5640000D01*
X14419058Y-5644762D01*
X14423819Y-5654286D01*
X14428581Y-5673333D01*
X14428581Y-5697143D01*
X14423819Y-5716190D01*
X14419058Y-5725714D01*
X14414296Y-5730476D01*
X14404772Y-5735238D01*
X14395248Y-5735238D01*
X14385724Y-5730476D01*
X14380962Y-5725714D01*
X14376200Y-5716190D01*
X14371438Y-5697143D01*
X14371438Y-5673333D01*
X14376200Y-5654286D01*
X14380962Y-5644762D01*
X14385724Y-5640000D01*
X14395248Y-5635238D01*
X14514296Y-5668571D02*
X14514296Y-5735238D01*
X14471438Y-5668571D02*
X14471438Y-5720952D01*
X14476200Y-5730476D01*
X14485724Y-5735238D01*
X14500010Y-5735238D01*
X14509534Y-5730476D01*
X14514296Y-5725714D01*
X14561915Y-5735238D02*
X14561915Y-5635238D01*
X14561915Y-5682857D02*
X14619058Y-5682857D01*
X14619058Y-5735238D02*
X14619058Y-5635238D01*
X14610010Y-6145238D02*
X14610010Y-6169048D01*
X14586200Y-6159524D02*
X14610010Y-6169048D01*
X14633819Y-6159524D01*
X14595724Y-6188095D02*
X14610010Y-6169048D01*
X14624296Y-6188095D01*
%TO.C,C11*%
X15537714Y-7750714D02*
X15532952Y-7755476D01*
X15518667Y-7760238D01*
X15509143Y-7760238D01*
X15494857Y-7755476D01*
X15485333Y-7745952D01*
X15480571Y-7736428D01*
X15475809Y-7717381D01*
X15475809Y-7703095D01*
X15480571Y-7684048D01*
X15485333Y-7674524D01*
X15494857Y-7665000D01*
X15509143Y-7660238D01*
X15518667Y-7660238D01*
X15532952Y-7665000D01*
X15537714Y-7669762D01*
X15632952Y-7760238D02*
X15575809Y-7760238D01*
X15604381Y-7760238D02*
X15604381Y-7660238D01*
X15594857Y-7674524D01*
X15585333Y-7684048D01*
X15575809Y-7688809D01*
X15728190Y-7760238D02*
X15671048Y-7760238D01*
X15699619Y-7760238D02*
X15699619Y-7660238D01*
X15690095Y-7674524D01*
X15680571Y-7684048D01*
X15671048Y-7688809D01*
%TO.C,C41*%
X13758714Y-8120714D02*
X13753952Y-8125476D01*
X13739667Y-8130238D01*
X13730143Y-8130238D01*
X13715857Y-8125476D01*
X13706333Y-8115952D01*
X13701571Y-8106428D01*
X13696809Y-8087381D01*
X13696809Y-8073095D01*
X13701571Y-8054048D01*
X13706333Y-8044524D01*
X13715857Y-8035000D01*
X13730143Y-8030238D01*
X13739667Y-8030238D01*
X13753952Y-8035000D01*
X13758714Y-8039762D01*
X13844428Y-8063571D02*
X13844428Y-8130238D01*
X13820619Y-8025476D02*
X13796809Y-8096905D01*
X13858714Y-8096905D01*
X13949190Y-8130238D02*
X13892048Y-8130238D01*
X13920619Y-8130238D02*
X13920619Y-8030238D01*
X13911095Y-8044524D01*
X13901571Y-8054048D01*
X13892048Y-8058809D01*
%TO.C,C39*%
X16135714Y-8950714D02*
X16130952Y-8955476D01*
X16116667Y-8960238D01*
X16107143Y-8960238D01*
X16092857Y-8955476D01*
X16083333Y-8945952D01*
X16078571Y-8936429D01*
X16073809Y-8917381D01*
X16073809Y-8903095D01*
X16078571Y-8884048D01*
X16083333Y-8874524D01*
X16092857Y-8865000D01*
X16107143Y-8860238D01*
X16116667Y-8860238D01*
X16130952Y-8865000D01*
X16135714Y-8869762D01*
X16169048Y-8860238D02*
X16230952Y-8860238D01*
X16197619Y-8898333D01*
X16211905Y-8898333D01*
X16221428Y-8903095D01*
X16226190Y-8907857D01*
X16230952Y-8917381D01*
X16230952Y-8941190D01*
X16226190Y-8950714D01*
X16221428Y-8955476D01*
X16211905Y-8960238D01*
X16183333Y-8960238D01*
X16173809Y-8955476D01*
X16169048Y-8950714D01*
X16278571Y-8960238D02*
X16297619Y-8960238D01*
X16307143Y-8955476D01*
X16311905Y-8950714D01*
X16321428Y-8936429D01*
X16326190Y-8917381D01*
X16326190Y-8879286D01*
X16321428Y-8869762D01*
X16316667Y-8865000D01*
X16307143Y-8860238D01*
X16288095Y-8860238D01*
X16278571Y-8865000D01*
X16273809Y-8869762D01*
X16269048Y-8879286D01*
X16269048Y-8903095D01*
X16273809Y-8912619D01*
X16278571Y-8917381D01*
X16288095Y-8922143D01*
X16307143Y-8922143D01*
X16316667Y-8917381D01*
X16321428Y-8912619D01*
X16326190Y-8903095D01*
%TO.C,LED1*%
X16331845Y-5363238D02*
X16284226Y-5363238D01*
X16284226Y-5263238D01*
X16365178Y-5310857D02*
X16398512Y-5310857D01*
X16412798Y-5363238D02*
X16365178Y-5363238D01*
X16365178Y-5263238D01*
X16412798Y-5263238D01*
X16455655Y-5363238D02*
X16455655Y-5263238D01*
X16479464Y-5263238D01*
X16493750Y-5268000D01*
X16503274Y-5277524D01*
X16508036Y-5287048D01*
X16512798Y-5306095D01*
X16512798Y-5320381D01*
X16508036Y-5339429D01*
X16503274Y-5348952D01*
X16493750Y-5358476D01*
X16479464Y-5363238D01*
X16455655Y-5363238D01*
X16608036Y-5363238D02*
X16550893Y-5363238D01*
X16579464Y-5363238D02*
X16579464Y-5263238D01*
X16569940Y-5277524D01*
X16560417Y-5287048D01*
X16550893Y-5291810D01*
%TO.C,LED2*%
X16331845Y-5063238D02*
X16284226Y-5063238D01*
X16284226Y-4963238D01*
X16365178Y-5010857D02*
X16398512Y-5010857D01*
X16412798Y-5063238D02*
X16365178Y-5063238D01*
X16365178Y-4963238D01*
X16412798Y-4963238D01*
X16455655Y-5063238D02*
X16455655Y-4963238D01*
X16479464Y-4963238D01*
X16493750Y-4968000D01*
X16503274Y-4977524D01*
X16508036Y-4987048D01*
X16512798Y-5006095D01*
X16512798Y-5020381D01*
X16508036Y-5039429D01*
X16503274Y-5048952D01*
X16493750Y-5058476D01*
X16479464Y-5063238D01*
X16455655Y-5063238D01*
X16550893Y-4972762D02*
X16555655Y-4968000D01*
X16565178Y-4963238D01*
X16588988Y-4963238D01*
X16598512Y-4968000D01*
X16603274Y-4972762D01*
X16608036Y-4982286D01*
X16608036Y-4991810D01*
X16603274Y-5006095D01*
X16546131Y-5063238D01*
X16608036Y-5063238D01*
%TO.C,R6*%
X15827083Y-5363238D02*
X15793750Y-5315619D01*
X15769940Y-5363238D02*
X15769940Y-5263238D01*
X15808036Y-5263238D01*
X15817559Y-5268000D01*
X15822321Y-5272762D01*
X15827083Y-5282286D01*
X15827083Y-5296571D01*
X15822321Y-5306095D01*
X15817559Y-5310857D01*
X15808036Y-5315619D01*
X15769940Y-5315619D01*
X15912798Y-5263238D02*
X15893750Y-5263238D01*
X15884226Y-5268000D01*
X15879464Y-5272762D01*
X15869940Y-5287048D01*
X15865178Y-5306095D01*
X15865178Y-5344190D01*
X15869940Y-5353714D01*
X15874702Y-5358476D01*
X15884226Y-5363238D01*
X15903274Y-5363238D01*
X15912798Y-5358476D01*
X15917559Y-5353714D01*
X15922321Y-5344190D01*
X15922321Y-5320381D01*
X15917559Y-5310857D01*
X15912798Y-5306095D01*
X15903274Y-5301333D01*
X15884226Y-5301333D01*
X15874702Y-5306095D01*
X15869940Y-5310857D01*
X15865178Y-5320381D01*
%TO.C,C46*%
X13758714Y-9020714D02*
X13753952Y-9025476D01*
X13739667Y-9030238D01*
X13730143Y-9030238D01*
X13715857Y-9025476D01*
X13706333Y-9015952D01*
X13701571Y-9006429D01*
X13696809Y-8987381D01*
X13696809Y-8973095D01*
X13701571Y-8954048D01*
X13706333Y-8944524D01*
X13715857Y-8935000D01*
X13730143Y-8930238D01*
X13739667Y-8930238D01*
X13753952Y-8935000D01*
X13758714Y-8939762D01*
X13844428Y-8963571D02*
X13844428Y-9030238D01*
X13820619Y-8925476D02*
X13796809Y-8996905D01*
X13858714Y-8996905D01*
X13939667Y-8930238D02*
X13920619Y-8930238D01*
X13911095Y-8935000D01*
X13906333Y-8939762D01*
X13896809Y-8954048D01*
X13892048Y-8973095D01*
X13892048Y-9011190D01*
X13896809Y-9020714D01*
X13901571Y-9025476D01*
X13911095Y-9030238D01*
X13930143Y-9030238D01*
X13939667Y-9025476D01*
X13944428Y-9020714D01*
X13949190Y-9011190D01*
X13949190Y-8987381D01*
X13944428Y-8977857D01*
X13939667Y-8973095D01*
X13930143Y-8968333D01*
X13911095Y-8968333D01*
X13901571Y-8973095D01*
X13896809Y-8977857D01*
X13892048Y-8987381D01*
%TO.C,JP1*%
X13290238Y-6978333D02*
X13361667Y-6978333D01*
X13375952Y-6983095D01*
X13385476Y-6992619D01*
X13390238Y-7006905D01*
X13390238Y-7016428D01*
X13390238Y-6930714D02*
X13290238Y-6930714D01*
X13290238Y-6892619D01*
X13295000Y-6883095D01*
X13299762Y-6878333D01*
X13309286Y-6873571D01*
X13323571Y-6873571D01*
X13333095Y-6878333D01*
X13337857Y-6883095D01*
X13342619Y-6892619D01*
X13342619Y-6930714D01*
X13390238Y-6778333D02*
X13390238Y-6835476D01*
X13390238Y-6806905D02*
X13290238Y-6806905D01*
X13304524Y-6816428D01*
X13314048Y-6825952D01*
X13318809Y-6835476D01*
%TO.C,U1*%
X14138809Y-5372424D02*
X14138809Y-5453376D01*
X14143571Y-5462900D01*
X14148333Y-5467662D01*
X14157857Y-5472424D01*
X14176905Y-5472424D01*
X14186428Y-5467662D01*
X14191190Y-5462900D01*
X14195952Y-5453376D01*
X14195952Y-5372424D01*
X14295952Y-5472424D02*
X14238809Y-5472424D01*
X14267381Y-5472424D02*
X14267381Y-5372424D01*
X14257857Y-5386709D01*
X14248333Y-5396233D01*
X14238809Y-5400995D01*
X13520714Y-4972424D02*
X13520714Y-4872424D01*
X13554048Y-4943852D01*
X13587381Y-4872424D01*
X13587381Y-4972424D01*
X13630238Y-4943852D02*
X13677857Y-4943852D01*
X13620714Y-4972424D02*
X13654048Y-4872424D01*
X13687381Y-4972424D01*
X13711190Y-4872424D02*
X13777857Y-4972424D01*
X13777857Y-4872424D02*
X13711190Y-4972424D01*
X13868333Y-4972424D02*
X13811190Y-4972424D01*
X13839762Y-4972424D02*
X13839762Y-4872424D01*
X13830238Y-4886709D01*
X13820714Y-4896233D01*
X13811190Y-4900995D01*
X13954048Y-4872424D02*
X13935000Y-4872424D01*
X13925476Y-4877186D01*
X13920714Y-4881947D01*
X13911190Y-4896233D01*
X13906428Y-4915281D01*
X13906428Y-4953376D01*
X13911190Y-4962900D01*
X13915952Y-4967662D01*
X13925476Y-4972424D01*
X13944524Y-4972424D01*
X13954048Y-4967662D01*
X13958809Y-4962900D01*
X13963571Y-4953376D01*
X13963571Y-4929566D01*
X13958809Y-4920043D01*
X13954048Y-4915281D01*
X13944524Y-4910519D01*
X13925476Y-4910519D01*
X13915952Y-4915281D01*
X13911190Y-4920043D01*
X13906428Y-4929566D01*
X14011190Y-4972424D02*
X14030238Y-4972424D01*
X14039762Y-4967662D01*
X14044524Y-4962900D01*
X14054048Y-4948614D01*
X14058809Y-4929566D01*
X14058809Y-4891471D01*
X14054048Y-4881947D01*
X14049286Y-4877186D01*
X14039762Y-4872424D01*
X14020714Y-4872424D01*
X14011190Y-4877186D01*
X14006428Y-4881947D01*
X14001667Y-4891471D01*
X14001667Y-4915281D01*
X14006428Y-4924805D01*
X14011190Y-4929566D01*
X14020714Y-4934328D01*
X14039762Y-4934328D01*
X14049286Y-4929566D01*
X14054048Y-4924805D01*
X14058809Y-4915281D01*
X14149286Y-4872424D02*
X14101667Y-4872424D01*
X14096905Y-4920043D01*
X14101667Y-4915281D01*
X14111190Y-4910519D01*
X14135000Y-4910519D01*
X14144524Y-4915281D01*
X14149286Y-4920043D01*
X14154048Y-4929566D01*
X14154048Y-4953376D01*
X14149286Y-4962900D01*
X14144524Y-4967662D01*
X14135000Y-4972424D01*
X14111190Y-4972424D01*
X14101667Y-4967662D01*
X14096905Y-4962900D01*
X14239762Y-4872424D02*
X14220714Y-4872424D01*
X14211190Y-4877186D01*
X14206428Y-4881947D01*
X14196905Y-4896233D01*
X14192143Y-4915281D01*
X14192143Y-4953376D01*
X14196905Y-4962900D01*
X14201667Y-4967662D01*
X14211190Y-4972424D01*
X14230238Y-4972424D01*
X14239762Y-4967662D01*
X14244524Y-4962900D01*
X14249286Y-4953376D01*
X14249286Y-4929566D01*
X14244524Y-4920043D01*
X14239762Y-4915281D01*
X14230238Y-4910519D01*
X14211190Y-4910519D01*
X14201667Y-4915281D01*
X14196905Y-4920043D01*
X14192143Y-4929566D01*
X14287381Y-4943852D02*
X14335000Y-4943852D01*
X14277857Y-4972424D02*
X14311190Y-4872424D01*
X14344524Y-4972424D01*
X14377857Y-4872424D02*
X14377857Y-4953376D01*
X14382619Y-4962900D01*
X14387381Y-4967662D01*
X14396905Y-4972424D01*
X14415952Y-4972424D01*
X14425476Y-4967662D01*
X14430238Y-4962900D01*
X14435000Y-4953376D01*
X14435000Y-4872424D01*
X14515952Y-4920043D02*
X14530238Y-4924805D01*
X14535000Y-4929566D01*
X14539762Y-4939090D01*
X14539762Y-4953376D01*
X14535000Y-4962900D01*
X14530238Y-4967662D01*
X14520714Y-4972424D01*
X14482619Y-4972424D01*
X14482619Y-4872424D01*
X14515952Y-4872424D01*
X14525476Y-4877186D01*
X14530238Y-4881947D01*
X14535000Y-4891471D01*
X14535000Y-4900995D01*
X14530238Y-4910519D01*
X14525476Y-4915281D01*
X14515952Y-4920043D01*
X14482619Y-4920043D01*
X14582619Y-4972424D02*
X14582619Y-4872424D01*
X14606428Y-4872424D01*
X14620714Y-4877186D01*
X14630238Y-4886709D01*
X14635000Y-4896233D01*
X14639762Y-4915281D01*
X14639762Y-4929566D01*
X14635000Y-4948614D01*
X14630238Y-4958138D01*
X14620714Y-4967662D01*
X14606428Y-4972424D01*
X14582619Y-4972424D01*
X14754048Y-4867662D02*
X14668333Y-4996233D01*
X14773095Y-4872424D02*
X14806428Y-4972424D01*
X14839762Y-4872424D01*
X14873095Y-4934328D02*
X14949286Y-4934328D01*
X14911190Y-4972424D02*
X14911190Y-4896233D01*
%TO.C,C13*%
X19235714Y-7825714D02*
X19230952Y-7830476D01*
X19216667Y-7835238D01*
X19207143Y-7835238D01*
X19192857Y-7830476D01*
X19183333Y-7820952D01*
X19178571Y-7811428D01*
X19173810Y-7792381D01*
X19173810Y-7778095D01*
X19178571Y-7759048D01*
X19183333Y-7749524D01*
X19192857Y-7740000D01*
X19207143Y-7735238D01*
X19216667Y-7735238D01*
X19230952Y-7740000D01*
X19235714Y-7744762D01*
X19330952Y-7835238D02*
X19273810Y-7835238D01*
X19302381Y-7835238D02*
X19302381Y-7735238D01*
X19292857Y-7749524D01*
X19283333Y-7759048D01*
X19273810Y-7763809D01*
X19364286Y-7735238D02*
X19426190Y-7735238D01*
X19392857Y-7773333D01*
X19407143Y-7773333D01*
X19416667Y-7778095D01*
X19421429Y-7782857D01*
X19426190Y-7792381D01*
X19426190Y-7816190D01*
X19421429Y-7825714D01*
X19416667Y-7830476D01*
X19407143Y-7835238D01*
X19378571Y-7835238D01*
X19369048Y-7830476D01*
X19364286Y-7825714D01*
%TO.C,R1*%
X11724583Y-6188238D02*
X11691250Y-6140619D01*
X11667440Y-6188238D02*
X11667440Y-6088238D01*
X11705536Y-6088238D01*
X11715059Y-6093000D01*
X11719821Y-6097762D01*
X11724583Y-6107286D01*
X11724583Y-6121571D01*
X11719821Y-6131095D01*
X11715059Y-6135857D01*
X11705536Y-6140619D01*
X11667440Y-6140619D01*
X11819821Y-6188238D02*
X11762678Y-6188238D01*
X11791250Y-6188238D02*
X11791250Y-6088238D01*
X11781726Y-6102524D01*
X11772202Y-6112048D01*
X11762678Y-6116809D01*
%TO.C,U2*%
X15527238Y-8874190D02*
X15608190Y-8874190D01*
X15617714Y-8869429D01*
X15622476Y-8864667D01*
X15627238Y-8855143D01*
X15627238Y-8836095D01*
X15622476Y-8826571D01*
X15617714Y-8821810D01*
X15608190Y-8817048D01*
X15527238Y-8817048D01*
X15536762Y-8774190D02*
X15532000Y-8769429D01*
X15527238Y-8759905D01*
X15527238Y-8736095D01*
X15532000Y-8726571D01*
X15536762Y-8721810D01*
X15546286Y-8717048D01*
X15555809Y-8717048D01*
X15570095Y-8721810D01*
X15627238Y-8778952D01*
X15627238Y-8717048D01*
%TO.C,JP7*%
X13741667Y-10575238D02*
X13741667Y-10646667D01*
X13736905Y-10660952D01*
X13727381Y-10670476D01*
X13713095Y-10675238D01*
X13703571Y-10675238D01*
X13789286Y-10675238D02*
X13789286Y-10575238D01*
X13827381Y-10575238D01*
X13836905Y-10580000D01*
X13841667Y-10584762D01*
X13846428Y-10594286D01*
X13846428Y-10608571D01*
X13841667Y-10618095D01*
X13836905Y-10622857D01*
X13827381Y-10627619D01*
X13789286Y-10627619D01*
X13879762Y-10575238D02*
X13946428Y-10575238D01*
X13903571Y-10675238D01*
%TO.C,C3*%
X14983333Y-9920714D02*
X14978571Y-9925476D01*
X14964286Y-9930238D01*
X14954762Y-9930238D01*
X14940476Y-9925476D01*
X14930952Y-9915952D01*
X14926190Y-9906429D01*
X14921428Y-9887381D01*
X14921428Y-9873095D01*
X14926190Y-9854048D01*
X14930952Y-9844524D01*
X14940476Y-9835000D01*
X14954762Y-9830238D01*
X14964286Y-9830238D01*
X14978571Y-9835000D01*
X14983333Y-9839762D01*
X15016667Y-9830238D02*
X15078571Y-9830238D01*
X15045238Y-9868333D01*
X15059524Y-9868333D01*
X15069048Y-9873095D01*
X15073809Y-9877857D01*
X15078571Y-9887381D01*
X15078571Y-9911190D01*
X15073809Y-9920714D01*
X15069048Y-9925476D01*
X15059524Y-9930238D01*
X15030952Y-9930238D01*
X15021428Y-9925476D01*
X15016667Y-9920714D01*
%TO.C,C14*%
X14395714Y-5440714D02*
X14390952Y-5445476D01*
X14376667Y-5450238D01*
X14367143Y-5450238D01*
X14352857Y-5445476D01*
X14343333Y-5435952D01*
X14338571Y-5426429D01*
X14333809Y-5407381D01*
X14333809Y-5393095D01*
X14338571Y-5374048D01*
X14343333Y-5364524D01*
X14352857Y-5355000D01*
X14367143Y-5350238D01*
X14376667Y-5350238D01*
X14390952Y-5355000D01*
X14395714Y-5359762D01*
X14490952Y-5450238D02*
X14433809Y-5450238D01*
X14462381Y-5450238D02*
X14462381Y-5350238D01*
X14452857Y-5364524D01*
X14443333Y-5374048D01*
X14433809Y-5378810D01*
X14576667Y-5383571D02*
X14576667Y-5450238D01*
X14552857Y-5345476D02*
X14529048Y-5416905D01*
X14590952Y-5416905D01*
%TO.C,JP9*%
X13116667Y-10050238D02*
X13116667Y-10121667D01*
X13111905Y-10135952D01*
X13102381Y-10145476D01*
X13088095Y-10150238D01*
X13078571Y-10150238D01*
X13164286Y-10150238D02*
X13164286Y-10050238D01*
X13202381Y-10050238D01*
X13211905Y-10055000D01*
X13216667Y-10059762D01*
X13221428Y-10069286D01*
X13221428Y-10083571D01*
X13216667Y-10093095D01*
X13211905Y-10097857D01*
X13202381Y-10102619D01*
X13164286Y-10102619D01*
X13269048Y-10150238D02*
X13288095Y-10150238D01*
X13297619Y-10145476D01*
X13302381Y-10140714D01*
X13311905Y-10126429D01*
X13316667Y-10107381D01*
X13316667Y-10069286D01*
X13311905Y-10059762D01*
X13307143Y-10055000D01*
X13297619Y-10050238D01*
X13278571Y-10050238D01*
X13269048Y-10055000D01*
X13264286Y-10059762D01*
X13259524Y-10069286D01*
X13259524Y-10093095D01*
X13264286Y-10102619D01*
X13269048Y-10107381D01*
X13278571Y-10112143D01*
X13297619Y-10112143D01*
X13307143Y-10107381D01*
X13311905Y-10102619D01*
X13316667Y-10093095D01*
%TO.C,CONN1*%
X13395714Y-8896310D02*
X13400476Y-8901071D01*
X13405238Y-8915357D01*
X13405238Y-8924881D01*
X13400476Y-8939167D01*
X13390952Y-8948690D01*
X13381428Y-8953452D01*
X13362381Y-8958214D01*
X13348095Y-8958214D01*
X13329048Y-8953452D01*
X13319524Y-8948690D01*
X13310000Y-8939167D01*
X13305238Y-8924881D01*
X13305238Y-8915357D01*
X13310000Y-8901071D01*
X13314762Y-8896310D01*
X13305238Y-8834405D02*
X13305238Y-8815357D01*
X13310000Y-8805833D01*
X13319524Y-8796310D01*
X13338571Y-8791548D01*
X13371905Y-8791548D01*
X13390952Y-8796310D01*
X13400476Y-8805833D01*
X13405238Y-8815357D01*
X13405238Y-8834405D01*
X13400476Y-8843929D01*
X13390952Y-8853452D01*
X13371905Y-8858214D01*
X13338571Y-8858214D01*
X13319524Y-8853452D01*
X13310000Y-8843929D01*
X13305238Y-8834405D01*
X13405238Y-8748690D02*
X13305238Y-8748690D01*
X13405238Y-8691548D01*
X13305238Y-8691548D01*
X13405238Y-8643929D02*
X13305238Y-8643929D01*
X13405238Y-8586786D01*
X13305238Y-8586786D01*
X13405238Y-8486786D02*
X13405238Y-8543929D01*
X13405238Y-8515357D02*
X13305238Y-8515357D01*
X13319524Y-8524881D01*
X13329048Y-8534405D01*
X13333809Y-8543929D01*
%TO.C,R2*%
X18463238Y-6616667D02*
X18415619Y-6650000D01*
X18463238Y-6673809D02*
X18363238Y-6673809D01*
X18363238Y-6635714D01*
X18368000Y-6626190D01*
X18372762Y-6621428D01*
X18382286Y-6616667D01*
X18396571Y-6616667D01*
X18406095Y-6621428D01*
X18410857Y-6626190D01*
X18415619Y-6635714D01*
X18415619Y-6673809D01*
X18372762Y-6578571D02*
X18368000Y-6573809D01*
X18363238Y-6564286D01*
X18363238Y-6540476D01*
X18368000Y-6530952D01*
X18372762Y-6526190D01*
X18382286Y-6521428D01*
X18391810Y-6521428D01*
X18406095Y-6526190D01*
X18463238Y-6583333D01*
X18463238Y-6521428D01*
D12*
%TO.C,C27*%
X18920000Y-11160000D02*
X19680000Y-11160000D01*
X19680000Y-11160000D02*
X19680000Y-11640000D01*
X19680000Y-11640000D02*
X18920000Y-11640000D01*
X18920000Y-11640000D02*
X18920000Y-11160000D01*
%TO.C,JP4*%
X13135000Y-10700000D02*
X13415000Y-10700000D01*
X13135000Y-10900000D02*
X13135000Y-10700000D01*
X13415000Y-10900000D02*
X13135000Y-10900000D01*
X13415000Y-10700000D02*
X13415000Y-10900000D01*
%TO.C,C7*%
X13896125Y-7691000D02*
X13753875Y-7691000D01*
X13896125Y-7509000D02*
X13753875Y-7509000D01*
%TO.C,C29*%
X16128875Y-9791000D02*
X16271125Y-9791000D01*
X16128875Y-9609000D02*
X16271125Y-9609000D01*
%TO.C,CONN4*%
X11892000Y-8369500D02*
X12158000Y-8369500D01*
X11892000Y-8369500D02*
X11892000Y-9391500D01*
X11892000Y-8109500D02*
X12025000Y-8109500D01*
X11892000Y-9391500D02*
X12158000Y-9391500D01*
X11892000Y-8242500D02*
X11892000Y-8109500D01*
X12158000Y-8369500D02*
X12158000Y-9391500D01*
%TO.C,CIN2*%
X12447625Y-6041000D02*
X12589875Y-6041000D01*
X12447625Y-5859000D02*
X12589875Y-5859000D01*
%TO.C,C36*%
X16271125Y-8109000D02*
X16128875Y-8109000D01*
X16271125Y-8291000D02*
X16128875Y-8291000D01*
%TO.C,C10*%
X15530875Y-7691000D02*
X15673125Y-7691000D01*
X15530875Y-7509000D02*
X15673125Y-7509000D01*
%TO.C,C18*%
X14471125Y-7991000D02*
X14328875Y-7991000D01*
X14471125Y-7809000D02*
X14328875Y-7809000D01*
%TO.C,C40*%
X16128875Y-7509000D02*
X16271125Y-7509000D01*
X16128875Y-7691000D02*
X16271125Y-7691000D01*
%TO.C,C4*%
X15073125Y-7509000D02*
X14930875Y-7509000D01*
X15073125Y-7691000D02*
X14930875Y-7691000D01*
%TO.C,C16*%
X13439875Y-6291000D02*
X13297625Y-6291000D01*
X13439875Y-6109000D02*
X13297625Y-6109000D01*
%TO.C,C21*%
X15522625Y-10091000D02*
X15664875Y-10091000D01*
X15522625Y-9909000D02*
X15664875Y-9909000D01*
%TO.C,C20*%
X13439875Y-5409000D02*
X13297625Y-5409000D01*
X13439875Y-5591000D02*
X13297625Y-5591000D01*
%TO.C,CONN3*%
X11892000Y-11066500D02*
X12158000Y-11066500D01*
X12158000Y-10044500D02*
X12158000Y-11066500D01*
X11892000Y-9917500D02*
X11892000Y-9784500D01*
X11892000Y-10044500D02*
X12158000Y-10044500D01*
X11892000Y-10044500D02*
X11892000Y-11066500D01*
X11892000Y-9784500D02*
X12025000Y-9784500D01*
%TO.C,CONN2*%
X20976400Y-8677500D02*
X20971800Y-8672800D01*
X21395600Y-7794000D02*
X21395600Y-9806100D01*
X20767200Y-8927300D02*
X20762600Y-8922600D01*
X20997000Y-8657000D02*
X20993400Y-8653500D01*
X20745600Y-8946600D02*
X20742100Y-8943100D01*
X20976400Y-9677500D02*
X20971800Y-9672800D01*
X20609500Y-7794000D02*
X20609500Y-9806100D01*
X20403500Y-7794000D02*
X20403500Y-9806100D01*
X21395600Y-7794000D02*
X20403500Y-7794000D01*
X20767200Y-8427300D02*
X20762600Y-8422600D01*
X20976400Y-9177500D02*
X20971800Y-9172800D01*
X20459500Y-7794000D02*
X20459500Y-9806100D01*
X20453500Y-7770000D02*
X20379500Y-7770000D01*
X21099600Y-7794000D02*
X21099600Y-9806100D01*
X20767200Y-9427300D02*
X20762600Y-9422600D01*
X20379500Y-7770000D02*
X20379500Y-7820000D01*
X20745600Y-8446600D02*
X20742100Y-8443100D01*
X20997000Y-9657000D02*
X20993400Y-9653500D01*
X21395600Y-9806100D02*
X20403500Y-9806100D01*
X20997000Y-9157000D02*
X20993400Y-9153500D01*
X20745600Y-9446600D02*
X20742100Y-9443100D01*
X20701500Y-8050000D02*
G75*
G03*
X20716024Y-8118332I167999J0D01*
G01*
X21023000Y-8118400D02*
G75*
G03*
X21023043Y-7981696I-153499J68400D01*
G01*
X20801100Y-8203500D02*
G75*
G03*
X20937804Y-8203543I68400J153499D01*
G01*
X20937900Y-7896500D02*
G75*
G03*
X20801196Y-7896457I-68400J-153499D01*
G01*
X20716000Y-7981600D02*
G75*
G03*
X20701475Y-8052880I153500J-68400D01*
G01*
X21037500Y-8550000D02*
G75*
G03*
X21037500Y-8550000I-168000J0D01*
G01*
X21037500Y-9550000D02*
G75*
G03*
X21037500Y-9550000I-168000J0D01*
G01*
X21037500Y-9050000D02*
G75*
G03*
X21037500Y-9050000I-168000J0D01*
G01*
%TO.C,L2*%
X18250000Y-6800000D02*
G75*
G03*
X18250000Y-6800000I-450000J0D01*
G01*
%TO.C,C23*%
X18920000Y-9860000D02*
X19680000Y-9860000D01*
X19680000Y-9860000D02*
X19680000Y-10340000D01*
X19680000Y-10340000D02*
X18920000Y-10340000D01*
X18920000Y-10340000D02*
X18920000Y-9860000D01*
%TO.C,C42*%
X15772625Y-12291000D02*
X15914875Y-12291000D01*
X15772625Y-12109000D02*
X15914875Y-12109000D01*
%TO.C,C34*%
X16130875Y-8891000D02*
X16273125Y-8891000D01*
X16130875Y-8709000D02*
X16273125Y-8709000D01*
%TO.C,C15*%
X13439875Y-5991000D02*
X13297625Y-5991000D01*
X13439875Y-5809000D02*
X13297625Y-5809000D01*
%TO.C,C25*%
X14471125Y-9909000D02*
X14328875Y-9909000D01*
X14471125Y-10091000D02*
X14328875Y-10091000D01*
%TO.C,C32*%
X13297625Y-6616000D02*
X13439875Y-6616000D01*
X13297625Y-6434000D02*
X13439875Y-6434000D01*
%TO.C,L4*%
X18250000Y-8100000D02*
G75*
G03*
X18250000Y-8100000I-450000J0D01*
G01*
%TO.C,C12*%
X18920000Y-7260000D02*
X19680000Y-7260000D01*
X19680000Y-7260000D02*
X19680000Y-7740000D01*
X19680000Y-7740000D02*
X18920000Y-7740000D01*
X18920000Y-7740000D02*
X18920000Y-7260000D01*
%TO.C,C17*%
X14471125Y-7509000D02*
X14328875Y-7509000D01*
X14471125Y-7691000D02*
X14328875Y-7691000D01*
%TO.C,C19*%
X13439875Y-5291000D02*
X13297625Y-5291000D01*
X13439875Y-5109000D02*
X13297625Y-5109000D01*
%TO.C,R7*%
X18691000Y-11072706D02*
X18691000Y-10927294D01*
X18509000Y-11072706D02*
X18509000Y-10927294D01*
%TO.C,C37*%
X16128875Y-9309000D02*
X16271125Y-9309000D01*
X16128875Y-9491000D02*
X16271125Y-9491000D01*
%TO.C,C26*%
X14471125Y-9791000D02*
X14328875Y-9791000D01*
X14471125Y-9609000D02*
X14328875Y-9609000D01*
%TO.C,C30*%
X16128875Y-10091000D02*
X16271125Y-10091000D01*
X16128875Y-9909000D02*
X16271125Y-9909000D01*
%TO.C,C45*%
X13751875Y-9009000D02*
X13894125Y-9009000D01*
X13751875Y-9191000D02*
X13894125Y-9191000D01*
%TO.C,JP2*%
X13425000Y-10350000D02*
X13425000Y-10550000D01*
X13145000Y-10550000D02*
X13145000Y-10350000D01*
X13145000Y-10350000D02*
X13425000Y-10350000D01*
X13425000Y-10550000D02*
X13145000Y-10550000D01*
%TO.C,JP3*%
X14005000Y-9950000D02*
X13595000Y-9950000D01*
X13930000Y-9730000D02*
X13900000Y-9700000D01*
X13595000Y-9950000D02*
X13595000Y-9750000D01*
X13595000Y-9750000D02*
X14005000Y-9750000D01*
X13930000Y-9730000D02*
X13960000Y-9700000D01*
X14005000Y-9750000D02*
X14005000Y-9950000D01*
X13960000Y-9700000D02*
X13900000Y-9700000D01*
%TO.C,C8*%
X18920000Y-5960000D02*
X19680000Y-5960000D01*
X19680000Y-5960000D02*
X19680000Y-6440000D01*
X19680000Y-6440000D02*
X18920000Y-6440000D01*
X18920000Y-6440000D02*
X18920000Y-5960000D01*
%TO.C,R8*%
X15771044Y-5291000D02*
X15916456Y-5291000D01*
X15771044Y-5109000D02*
X15916456Y-5109000D01*
%TO.C,C44*%
X13751875Y-8409000D02*
X13894125Y-8409000D01*
X13751875Y-8591000D02*
X13894125Y-8591000D01*
%TO.C,C31*%
X16271125Y-10391000D02*
X16128875Y-10391000D01*
X16271125Y-10209000D02*
X16128875Y-10209000D01*
%TO.C,JP5*%
X12995000Y-9425000D02*
X13405000Y-9425000D01*
X13330000Y-9405000D02*
X13360000Y-9375000D01*
X13405000Y-9425000D02*
X13405000Y-9625000D01*
X13360000Y-9375000D02*
X13300000Y-9375000D01*
X12995000Y-9625000D02*
X12995000Y-9425000D01*
X13330000Y-9405000D02*
X13300000Y-9375000D01*
X13405000Y-9625000D02*
X12995000Y-9625000D01*
%TO.C,C6*%
X15073125Y-7991000D02*
X14930875Y-7991000D01*
X15073125Y-7809000D02*
X14930875Y-7809000D01*
%TO.C,C2*%
X15749332Y-6849100D02*
X15749332Y-7107400D01*
X15869332Y-6496100D02*
X15869332Y-6953900D01*
X15821332Y-6419600D02*
X15821332Y-7030400D01*
X15761332Y-6353400D02*
X15761332Y-6600900D01*
X15765332Y-6849100D02*
X15765332Y-7092900D01*
X15473232Y-6220500D02*
X15473232Y-7229500D01*
X15561332Y-6849100D02*
X15561332Y-7211200D01*
X15689332Y-6297700D02*
X15689332Y-6600900D01*
X15677332Y-6290300D02*
X15677332Y-6600900D01*
X15597332Y-6849100D02*
X15597332Y-7198800D01*
X15881332Y-6521300D02*
X15881332Y-6928700D01*
X15441232Y-6217700D02*
X15441232Y-7232300D01*
X15437232Y-6217500D02*
X15437232Y-7232500D01*
X15621332Y-6261100D02*
X15621332Y-6600900D01*
X15717332Y-6317000D02*
X15717332Y-6600900D01*
X15693332Y-6300300D02*
X15693332Y-6600900D01*
X15793332Y-6385800D02*
X15793332Y-7064200D01*
X14915268Y-6387500D02*
X14915268Y-6487500D01*
X15773332Y-6849100D02*
X15773332Y-7085100D01*
X15633332Y-6849100D02*
X15633332Y-7183400D01*
X15573332Y-6849100D02*
X15573332Y-7207400D01*
X15589332Y-6849100D02*
X15589332Y-7201800D01*
X15597332Y-6251200D02*
X15597332Y-6600900D01*
X15537332Y-6232200D02*
X15537332Y-7217800D01*
X15777332Y-6368900D02*
X15777332Y-6600900D01*
X15625332Y-6262900D02*
X15625332Y-6600900D01*
X15709332Y-6311200D02*
X15709332Y-6600900D01*
X15481232Y-6221500D02*
X15481232Y-7228500D01*
X15469232Y-6220000D02*
X15469232Y-7230000D01*
X15685332Y-6295200D02*
X15685332Y-6600900D01*
X15621332Y-6849100D02*
X15621332Y-7188900D01*
X15477232Y-6221000D02*
X15477232Y-7229000D01*
X15545332Y-6849100D02*
X15545332Y-7215700D01*
X15837332Y-6442000D02*
X15837332Y-7008000D01*
X15833332Y-6436100D02*
X15833332Y-7013900D01*
X15509332Y-6226000D02*
X15509332Y-7224000D01*
X15677332Y-6849100D02*
X15677332Y-7159700D01*
X15781332Y-6849100D02*
X15781332Y-7077000D01*
X15541332Y-6849100D02*
X15541332Y-7216800D01*
X15609332Y-6849100D02*
X15609332Y-7194000D01*
X15705332Y-6849100D02*
X15705332Y-7141600D01*
X15613332Y-6849100D02*
X15613332Y-7192400D01*
X15701332Y-6305600D02*
X15701332Y-6600900D01*
X15449232Y-6218200D02*
X15449232Y-7231800D01*
X15649332Y-6849100D02*
X15649332Y-7175400D01*
X15697332Y-6849100D02*
X15697332Y-7147100D01*
X15513332Y-6226800D02*
X15513332Y-7223200D01*
X15921332Y-6665100D02*
X15921332Y-6784900D01*
X15733332Y-6849100D02*
X15733332Y-7120700D01*
X15497332Y-6223900D02*
X15497332Y-7226100D01*
X15729332Y-6326100D02*
X15729332Y-6600900D01*
X15665332Y-6283300D02*
X15665332Y-6600900D01*
X15641332Y-6270500D02*
X15641332Y-6600900D01*
X15641332Y-6849100D02*
X15641332Y-7179500D01*
X15485332Y-6222000D02*
X15485332Y-7228000D01*
X15489332Y-6222600D02*
X15489332Y-7227400D01*
X15809332Y-6404400D02*
X15809332Y-7045600D01*
X15841332Y-6448000D02*
X15841332Y-7002000D01*
X15873332Y-6504100D02*
X15873332Y-6945900D01*
X15721332Y-6320000D02*
X15721332Y-6600900D01*
X15625332Y-6849100D02*
X15625332Y-7187100D01*
X15501332Y-6224600D02*
X15501332Y-7225400D01*
X15569332Y-6849100D02*
X15569332Y-7208700D01*
X15665332Y-6849100D02*
X15665332Y-7166700D01*
X15505332Y-6225300D02*
X15505332Y-7224700D01*
X15581332Y-6849100D02*
X15581332Y-7204700D01*
X15557332Y-6237600D02*
X15557332Y-6600900D01*
X15797332Y-6390300D02*
X15797332Y-7059700D01*
X15853332Y-6467100D02*
X15853332Y-6982900D01*
X15585332Y-6849100D02*
X15585332Y-7203300D01*
X15749332Y-6342600D02*
X15749332Y-6600900D01*
X15745332Y-6849100D02*
X15745332Y-7110800D01*
X15857332Y-6474000D02*
X15857332Y-6976000D01*
X15593332Y-6249600D02*
X15593332Y-6600900D01*
X15905332Y-6587200D02*
X15905332Y-6862800D01*
X15593332Y-6849100D02*
X15593332Y-7200400D01*
X15681332Y-6292700D02*
X15681332Y-6600900D01*
X15517332Y-6227600D02*
X15517332Y-7222400D01*
X15645332Y-6849100D02*
X15645332Y-7177500D01*
X15637332Y-6849100D02*
X15637332Y-7181400D01*
X15769332Y-6361000D02*
X15769332Y-6600900D01*
X15705332Y-6308400D02*
X15705332Y-6600900D01*
X15849332Y-6460500D02*
X15849332Y-6989500D01*
X15733332Y-6329300D02*
X15733332Y-6600900D01*
X15573332Y-6242600D02*
X15573332Y-6600900D01*
X15777332Y-6849100D02*
X15777332Y-7081100D01*
X15845332Y-6454100D02*
X15845332Y-6995900D01*
X15741332Y-6335800D02*
X15741332Y-6600900D01*
X15565332Y-6849100D02*
X15565332Y-7210000D01*
X15617332Y-6259300D02*
X15617332Y-6600900D01*
X15713332Y-6314000D02*
X15713332Y-6600900D01*
X15661332Y-6281000D02*
X15661332Y-6600900D01*
X15525332Y-6229400D02*
X15525332Y-7220600D01*
X15589332Y-6248200D02*
X15589332Y-6600900D01*
X15877332Y-6512500D02*
X15877332Y-6937500D01*
X15701332Y-6849100D02*
X15701332Y-7144400D01*
X15913332Y-6618800D02*
X15913332Y-6831200D01*
X15653332Y-6849100D02*
X15653332Y-7173300D01*
X15689332Y-6849100D02*
X15689332Y-7152300D01*
X15737332Y-6332500D02*
X15737332Y-6600900D01*
X15757332Y-6849100D02*
X15757332Y-7100300D01*
X15801332Y-6394900D02*
X15801332Y-7055100D01*
X15545332Y-6234300D02*
X15545332Y-6600900D01*
X15657332Y-6849100D02*
X15657332Y-7171200D01*
X15605332Y-6254300D02*
X15605332Y-6600900D01*
X15745332Y-6339200D02*
X15745332Y-6600900D01*
X15805332Y-6399600D02*
X15805332Y-7050400D01*
X15601332Y-6252700D02*
X15601332Y-6600900D01*
X15725332Y-6323000D02*
X15725332Y-6600900D01*
X15657332Y-6278800D02*
X15657332Y-6600900D01*
X15565332Y-6240000D02*
X15565332Y-6600900D01*
X15669332Y-6285500D02*
X15669332Y-6600900D01*
X15753332Y-6346100D02*
X15753332Y-6600900D01*
X15465232Y-6219600D02*
X15465232Y-7230400D01*
X15421232Y-6217000D02*
X15421232Y-7233000D01*
X15757332Y-6349700D02*
X15757332Y-6600900D01*
X15865332Y-6488500D02*
X15865332Y-6961500D01*
X15669332Y-6849100D02*
X15669332Y-7164500D01*
X15553332Y-6236500D02*
X15553332Y-6600900D01*
X15629332Y-6264700D02*
X15629332Y-6600900D01*
X15737332Y-6849100D02*
X15737332Y-7117500D01*
X15605332Y-6849100D02*
X15605332Y-7195700D01*
X15453232Y-6218500D02*
X15453232Y-7231500D01*
X15645332Y-6272500D02*
X15645332Y-6600900D01*
X15829332Y-6430500D02*
X15829332Y-7019500D01*
X15789332Y-6381400D02*
X15789332Y-7068600D01*
X15785332Y-6377200D02*
X15785332Y-6600900D01*
X15561332Y-6238800D02*
X15561332Y-6600900D01*
X15613332Y-6257600D02*
X15613332Y-6600900D01*
X15753332Y-6849100D02*
X15753332Y-7103900D01*
X15425232Y-6217100D02*
X15425232Y-7232900D01*
X15461232Y-6219200D02*
X15461232Y-7230800D01*
X15637332Y-6268600D02*
X15637332Y-6600900D01*
X15581332Y-6245300D02*
X15581332Y-6600900D01*
X15617332Y-6849100D02*
X15617332Y-7190700D01*
X15761332Y-6849100D02*
X15761332Y-7096600D01*
X15741332Y-6849100D02*
X15741332Y-7114200D01*
X15417232Y-6217000D02*
X15417232Y-7233000D01*
X15629332Y-6849100D02*
X15629332Y-7185300D01*
X15909332Y-6602000D02*
X15909332Y-6848000D01*
X15709332Y-6849100D02*
X15709332Y-7138800D01*
X15541332Y-6233200D02*
X15541332Y-6600900D01*
X15697332Y-6302900D02*
X15697332Y-6600900D01*
X15529332Y-6230300D02*
X15529332Y-7219700D01*
X15813332Y-6409400D02*
X15813332Y-7040600D01*
X15721332Y-6849100D02*
X15721332Y-7130000D01*
X15557332Y-6849100D02*
X15557332Y-7212400D01*
X15725332Y-6849100D02*
X15725332Y-7127000D01*
X15713332Y-6849100D02*
X15713332Y-7136000D01*
X15673332Y-6287900D02*
X15673332Y-6600900D01*
X15693332Y-6849100D02*
X15693332Y-7149700D01*
X15577332Y-6243900D02*
X15577332Y-6600900D01*
X15685332Y-6849100D02*
X15685332Y-7154800D01*
X15681332Y-6849100D02*
X15681332Y-7157300D01*
X15901332Y-6574000D02*
X15901332Y-6876000D01*
X15609332Y-6256000D02*
X15609332Y-6600900D01*
X15429232Y-6217200D02*
X15429232Y-7232800D01*
X15661332Y-6849100D02*
X15661332Y-7169000D01*
X15445232Y-6218000D02*
X15445232Y-7232000D01*
X14865268Y-6437500D02*
X14965268Y-6437500D01*
X15553332Y-6849100D02*
X15553332Y-7213500D01*
X15773332Y-6364900D02*
X15773332Y-6600900D01*
X15861332Y-6481100D02*
X15861332Y-6968900D01*
X15457232Y-6218800D02*
X15457232Y-7231200D01*
X15633332Y-6266600D02*
X15633332Y-6600900D01*
X15885332Y-6530600D02*
X15885332Y-6919400D01*
X15585332Y-6246700D02*
X15585332Y-6600900D01*
X15893332Y-6550800D02*
X15893332Y-6899200D01*
X15649332Y-6274600D02*
X15649332Y-6600900D01*
X15533332Y-6231200D02*
X15533332Y-7218800D01*
X15785332Y-6849100D02*
X15785332Y-7072800D01*
X15549332Y-6235300D02*
X15549332Y-6600900D01*
X15717332Y-6849100D02*
X15717332Y-7133000D01*
X15769332Y-6849100D02*
X15769332Y-7089000D01*
X15569332Y-6241300D02*
X15569332Y-6600900D01*
X15897332Y-6562000D02*
X15897332Y-6888000D01*
X15729332Y-6849100D02*
X15729332Y-7123900D01*
X15493332Y-6223200D02*
X15493332Y-7226800D01*
X15917332Y-6638800D02*
X15917332Y-6811200D01*
X15577332Y-6849100D02*
X15577332Y-7206100D01*
X15889332Y-6540400D02*
X15889332Y-6909600D01*
X15601332Y-6849100D02*
X15601332Y-7197300D01*
X15521332Y-6228500D02*
X15521332Y-7221500D01*
X15765332Y-6357100D02*
X15765332Y-6600900D01*
X15433232Y-6217300D02*
X15433232Y-7232700D01*
X15413232Y-6217000D02*
X15413232Y-7233000D01*
X15817332Y-6414400D02*
X15817332Y-7035600D01*
X15825332Y-6425000D02*
X15825332Y-7025000D01*
X15781332Y-6373000D02*
X15781332Y-6600900D01*
X15653332Y-6276700D02*
X15653332Y-6600900D01*
X15549332Y-6849100D02*
X15549332Y-7214700D01*
X15673332Y-6849100D02*
X15673332Y-7162100D01*
X15925232Y-6725000D02*
G75*
G03*
X15925232Y-6725000I-512000J0D01*
G01*
%TO.C,C35*%
X16128875Y-8591000D02*
X16271125Y-8591000D01*
X16128875Y-8409000D02*
X16271125Y-8409000D01*
%TO.C,C5*%
X15071125Y-10091000D02*
X14928875Y-10091000D01*
X15071125Y-9909000D02*
X14928875Y-9909000D01*
%TO.C,CIN1*%
X11685125Y-5991000D02*
X11827375Y-5991000D01*
X11685125Y-5809000D02*
X11827375Y-5809000D01*
%TO.C,L1*%
X12581456Y-6436000D02*
X12301044Y-6436000D01*
X12581456Y-6164000D02*
X12301044Y-6164000D01*
%TO.C,R4*%
X18691000Y-7827294D02*
X18691000Y-7972706D01*
X18509000Y-7827294D02*
X18509000Y-7972706D01*
%TO.C,L6*%
X18250000Y-10800000D02*
G75*
G03*
X18250000Y-10800000I-450000J0D01*
G01*
%TO.C,C24*%
X19680000Y-9740000D02*
X18920000Y-9740000D01*
X18920000Y-9740000D02*
X18920000Y-9260000D01*
X18920000Y-9260000D02*
X19680000Y-9260000D01*
X19680000Y-9260000D02*
X19680000Y-9740000D01*
%TO.C,C1*%
X15637332Y-10393600D02*
X15637332Y-10725900D01*
X15765332Y-10974100D02*
X15765332Y-11217900D01*
X15865332Y-10613500D02*
X15865332Y-11086500D01*
X15753332Y-10471100D02*
X15753332Y-10725900D01*
X15417232Y-10342000D02*
X15417232Y-11358000D01*
X15665332Y-10408300D02*
X15665332Y-10725900D01*
X15545332Y-10359300D02*
X15545332Y-10725900D01*
X15685332Y-10974100D02*
X15685332Y-11279800D01*
X15465232Y-10344600D02*
X15465232Y-11355400D01*
X15705332Y-10974100D02*
X15705332Y-11266600D01*
X15773332Y-10489900D02*
X15773332Y-10725900D01*
X15917332Y-10763800D02*
X15917332Y-10936200D01*
X15529332Y-10355300D02*
X15529332Y-11344700D01*
X15549332Y-10360300D02*
X15549332Y-10725900D01*
X15561332Y-10363800D02*
X15561332Y-10725900D01*
X15513332Y-10351800D02*
X15513332Y-11348200D01*
X15797332Y-10515300D02*
X15797332Y-11184700D01*
X15857332Y-10599000D02*
X15857332Y-11101000D01*
X15853332Y-10592100D02*
X15853332Y-11107900D01*
X15817332Y-10539400D02*
X15817332Y-11160600D01*
X15473232Y-10345500D02*
X15473232Y-11354500D01*
X15885332Y-10655600D02*
X15885332Y-11044400D01*
X15441232Y-10342700D02*
X15441232Y-11357300D01*
X15481232Y-10346500D02*
X15481232Y-11353500D01*
X15613332Y-10382600D02*
X15613332Y-10725900D01*
X15705332Y-10433400D02*
X15705332Y-10725900D01*
X15573332Y-10367600D02*
X15573332Y-10725900D01*
X15785332Y-10502200D02*
X15785332Y-10725900D01*
X15693332Y-10425300D02*
X15693332Y-10725900D01*
X15893332Y-10675800D02*
X15893332Y-11024200D01*
X15665332Y-10974100D02*
X15665332Y-11291700D01*
X15469232Y-10345000D02*
X15469232Y-11355000D01*
X15565332Y-10974100D02*
X15565332Y-11335000D01*
X15905332Y-10712200D02*
X15905332Y-10987800D01*
X15645332Y-10974100D02*
X15645332Y-11302500D01*
X15541332Y-10358200D02*
X15541332Y-10725900D01*
X15709332Y-10436200D02*
X15709332Y-10725900D01*
X15629332Y-10389700D02*
X15629332Y-10725900D01*
X15549332Y-10974100D02*
X15549332Y-11339700D01*
X15713332Y-10439000D02*
X15713332Y-10725900D01*
X15681332Y-10417700D02*
X15681332Y-10725900D01*
X15733332Y-10454300D02*
X15733332Y-10725900D01*
X15789332Y-10506400D02*
X15789332Y-11193600D01*
X15777332Y-10974100D02*
X15777332Y-11206100D01*
X15501332Y-10349600D02*
X15501332Y-11350400D01*
X15625332Y-10974100D02*
X15625332Y-11312100D01*
X15593332Y-10974100D02*
X15593332Y-11325400D01*
X15725332Y-10448000D02*
X15725332Y-10725900D01*
X15793332Y-10510800D02*
X15793332Y-11189200D01*
X15745332Y-10974100D02*
X15745332Y-11235800D01*
X15701332Y-10430600D02*
X15701332Y-10725900D01*
X15505332Y-10350300D02*
X15505332Y-11349700D01*
X15617332Y-10384300D02*
X15617332Y-10725900D01*
X15621332Y-10386100D02*
X15621332Y-10725900D01*
X15641332Y-10395500D02*
X15641332Y-10725900D01*
X15757332Y-10974100D02*
X15757332Y-11225300D01*
X15765332Y-10482100D02*
X15765332Y-10725900D01*
X15861332Y-10606100D02*
X15861332Y-11093900D01*
X15421232Y-10342000D02*
X15421232Y-11358000D01*
X15569332Y-10366300D02*
X15569332Y-10725900D01*
X15761332Y-10974100D02*
X15761332Y-11221600D01*
X15557332Y-10362600D02*
X15557332Y-10725900D01*
X15553332Y-10361500D02*
X15553332Y-10725900D01*
X15889332Y-10665400D02*
X15889332Y-11034600D01*
X15773332Y-10974100D02*
X15773332Y-11210100D01*
X15573332Y-10974100D02*
X15573332Y-11332400D01*
X15637332Y-10974100D02*
X15637332Y-11306400D01*
X15445232Y-10343000D02*
X15445232Y-11357000D01*
X15629332Y-10974100D02*
X15629332Y-11310300D01*
X15601332Y-10377700D02*
X15601332Y-10725900D01*
X15581332Y-10974100D02*
X15581332Y-11329700D01*
X15577332Y-10974100D02*
X15577332Y-11331100D01*
X15493332Y-10348200D02*
X15493332Y-11351800D01*
X15697332Y-10427900D02*
X15697332Y-10725900D01*
X15897332Y-10687000D02*
X15897332Y-11013000D01*
X15645332Y-10397500D02*
X15645332Y-10725900D01*
X15825332Y-10550000D02*
X15825332Y-11150000D01*
X15697332Y-10974100D02*
X15697332Y-11272100D01*
X15557332Y-10974100D02*
X15557332Y-11337400D01*
X15613332Y-10974100D02*
X15613332Y-11317400D01*
X15477232Y-10346000D02*
X15477232Y-11354000D01*
X15585332Y-10974100D02*
X15585332Y-11328300D01*
X15833332Y-10561100D02*
X15833332Y-11138900D01*
X15633332Y-10974100D02*
X15633332Y-11308400D01*
X15845332Y-10579100D02*
X15845332Y-11120900D01*
X15413232Y-10342000D02*
X15413232Y-11358000D01*
X15913332Y-10743800D02*
X15913332Y-10956200D01*
X15729332Y-10974100D02*
X15729332Y-11248900D01*
X15761332Y-10478400D02*
X15761332Y-10725900D01*
X15625332Y-10387900D02*
X15625332Y-10725900D01*
X15873332Y-10629100D02*
X15873332Y-11070900D01*
X15721332Y-10445000D02*
X15721332Y-10725900D01*
X15609332Y-10974100D02*
X15609332Y-11319000D01*
X15677332Y-10974100D02*
X15677332Y-11284700D01*
X15661332Y-10406000D02*
X15661332Y-10725900D01*
X15425232Y-10342100D02*
X15425232Y-11357900D01*
X15809332Y-10529400D02*
X15809332Y-11170600D01*
X15757332Y-10474700D02*
X15757332Y-10725900D01*
X15869332Y-10621100D02*
X15869332Y-11078900D01*
X15741332Y-10974100D02*
X15741332Y-11239200D01*
X15601332Y-10974100D02*
X15601332Y-11322300D01*
X15497332Y-10348900D02*
X15497332Y-11351100D01*
X15821332Y-10544600D02*
X15821332Y-11155400D01*
X15537332Y-10357200D02*
X15537332Y-11342800D01*
X15837332Y-10567000D02*
X15837332Y-11133000D01*
X15713332Y-10974100D02*
X15713332Y-11261000D01*
X15669332Y-10410500D02*
X15669332Y-10725900D01*
X15605332Y-10379300D02*
X15605332Y-10725900D01*
X15737332Y-10974100D02*
X15737332Y-11242500D01*
X15805332Y-10524600D02*
X15805332Y-11175400D01*
X15489332Y-10347600D02*
X15489332Y-11352400D01*
X15781332Y-10498000D02*
X15781332Y-10725900D01*
X15709332Y-10974100D02*
X15709332Y-11263800D01*
X15545332Y-10974100D02*
X15545332Y-11340700D01*
X15741332Y-10460800D02*
X15741332Y-10725900D01*
X15841332Y-10573000D02*
X15841332Y-11127000D01*
X15653332Y-10974100D02*
X15653332Y-11298300D01*
X15621332Y-10974100D02*
X15621332Y-11313900D01*
X14915268Y-10512500D02*
X14915268Y-10612500D01*
X14865268Y-10562500D02*
X14965268Y-10562500D01*
X15745332Y-10464200D02*
X15745332Y-10725900D01*
X15653332Y-10401700D02*
X15653332Y-10725900D01*
X15725332Y-10974100D02*
X15725332Y-11252000D01*
X15517332Y-10352600D02*
X15517332Y-11347400D01*
X15693332Y-10974100D02*
X15693332Y-11274700D01*
X15597332Y-10974100D02*
X15597332Y-11323800D01*
X15673332Y-10412900D02*
X15673332Y-10725900D01*
X15829332Y-10555500D02*
X15829332Y-11144500D01*
X15689332Y-10422700D02*
X15689332Y-10725900D01*
X15661332Y-10974100D02*
X15661332Y-11294000D01*
X15589332Y-10373200D02*
X15589332Y-10725900D01*
X15909332Y-10727000D02*
X15909332Y-10973000D01*
X15533332Y-10356200D02*
X15533332Y-11343800D01*
X15877332Y-10637500D02*
X15877332Y-11062500D01*
X15777332Y-10493900D02*
X15777332Y-10725900D01*
X15749332Y-10974100D02*
X15749332Y-11232400D01*
X15509332Y-10351000D02*
X15509332Y-11349000D01*
X15453232Y-10343500D02*
X15453232Y-11356500D01*
X15769332Y-10486000D02*
X15769332Y-10725900D01*
X15521332Y-10353500D02*
X15521332Y-11346500D01*
X15641332Y-10974100D02*
X15641332Y-11304500D01*
X15681332Y-10974100D02*
X15681332Y-11282300D01*
X15921332Y-10790100D02*
X15921332Y-10909900D01*
X15569332Y-10974100D02*
X15569332Y-11333700D01*
X15689332Y-10974100D02*
X15689332Y-11277300D01*
X15781332Y-10974100D02*
X15781332Y-11202000D01*
X15801332Y-10519900D02*
X15801332Y-11180100D01*
X15881332Y-10646300D02*
X15881332Y-11053700D01*
X15581332Y-10370300D02*
X15581332Y-10725900D01*
X15553332Y-10974100D02*
X15553332Y-11338500D01*
X15737332Y-10457500D02*
X15737332Y-10725900D01*
X15733332Y-10974100D02*
X15733332Y-11245700D01*
X15433232Y-10342300D02*
X15433232Y-11357700D01*
X15717332Y-10442000D02*
X15717332Y-10725900D01*
X15813332Y-10534400D02*
X15813332Y-11165600D01*
X15541332Y-10974100D02*
X15541332Y-11341800D01*
X15577332Y-10368900D02*
X15577332Y-10725900D01*
X15785332Y-10974100D02*
X15785332Y-11197800D01*
X15449232Y-10343200D02*
X15449232Y-11356800D01*
X15593332Y-10374600D02*
X15593332Y-10725900D01*
X15677332Y-10415300D02*
X15677332Y-10725900D01*
X15485332Y-10347000D02*
X15485332Y-11353000D01*
X15437232Y-10342500D02*
X15437232Y-11357500D01*
X15657332Y-10403800D02*
X15657332Y-10725900D01*
X15729332Y-10451100D02*
X15729332Y-10725900D01*
X15717332Y-10974100D02*
X15717332Y-11258000D01*
X15597332Y-10376200D02*
X15597332Y-10725900D01*
X15585332Y-10371700D02*
X15585332Y-10725900D01*
X15561332Y-10974100D02*
X15561332Y-11336200D01*
X15721332Y-10974100D02*
X15721332Y-11255000D01*
X15673332Y-10974100D02*
X15673332Y-11287100D01*
X15429232Y-10342200D02*
X15429232Y-11357800D01*
X15901332Y-10699000D02*
X15901332Y-11001000D01*
X15617332Y-10974100D02*
X15617332Y-11315700D01*
X15609332Y-10381000D02*
X15609332Y-10725900D01*
X15649332Y-10974100D02*
X15649332Y-11300400D01*
X15605332Y-10974100D02*
X15605332Y-11320700D01*
X15457232Y-10343800D02*
X15457232Y-11356200D01*
X15769332Y-10974100D02*
X15769332Y-11214000D01*
X15565332Y-10365000D02*
X15565332Y-10725900D01*
X15657332Y-10974100D02*
X15657332Y-11296200D01*
X15849332Y-10585500D02*
X15849332Y-11114500D01*
X15753332Y-10974100D02*
X15753332Y-11228900D01*
X15685332Y-10420200D02*
X15685332Y-10725900D01*
X15461232Y-10344200D02*
X15461232Y-11355800D01*
X15701332Y-10974100D02*
X15701332Y-11269400D01*
X15669332Y-10974100D02*
X15669332Y-11289500D01*
X15589332Y-10974100D02*
X15589332Y-11326800D01*
X15749332Y-10467600D02*
X15749332Y-10725900D01*
X15649332Y-10399600D02*
X15649332Y-10725900D01*
X15525332Y-10354400D02*
X15525332Y-11345600D01*
X15633332Y-10391600D02*
X15633332Y-10725900D01*
X15925232Y-10850000D02*
G75*
G03*
X15925232Y-10850000I-512000J0D01*
G01*
%TO.C,R5*%
X18691000Y-9627294D02*
X18691000Y-9772706D01*
X18509000Y-9627294D02*
X18509000Y-9772706D01*
%TO.C,JP8*%
X13685000Y-10250000D02*
X13685000Y-10050000D01*
X13685000Y-10050000D02*
X13965000Y-10050000D01*
X13965000Y-10250000D02*
X13685000Y-10250000D01*
X13965000Y-10050000D02*
X13965000Y-10250000D01*
%TO.C,R3*%
X13302294Y-4784000D02*
X13447706Y-4784000D01*
X13302294Y-4966000D02*
X13447706Y-4966000D01*
%TO.C,JP6*%
X13325000Y-8565000D02*
X13125000Y-8565000D01*
X13325000Y-8285000D02*
X13325000Y-8565000D01*
X13125000Y-8565000D02*
X13125000Y-8285000D01*
X13125000Y-8285000D02*
X13325000Y-8285000D01*
%TO.C,L5*%
X18250000Y-9500000D02*
G75*
G03*
X18250000Y-9500000I-450000J0D01*
G01*
%TO.C,C43*%
X13751875Y-8109000D02*
X13894125Y-8109000D01*
X13751875Y-8291000D02*
X13894125Y-8291000D01*
%TO.C,C9*%
X19680000Y-7040000D02*
X18920000Y-7040000D01*
X18920000Y-7040000D02*
X18920000Y-6560000D01*
X18920000Y-6560000D02*
X19680000Y-6560000D01*
X19680000Y-6560000D02*
X19680000Y-7040000D01*
%TO.C,C33*%
X13303875Y-6734000D02*
X13446125Y-6734000D01*
X13303875Y-6916000D02*
X13446125Y-6916000D01*
%TO.C,C28*%
X18920000Y-10560000D02*
X19680000Y-10560000D01*
X19680000Y-10560000D02*
X19680000Y-11040000D01*
X19680000Y-11040000D02*
X18920000Y-11040000D01*
X18920000Y-11040000D02*
X18920000Y-10560000D01*
%TO.C,C22*%
X15522625Y-9609000D02*
X15664875Y-9609000D01*
X15522625Y-9791000D02*
X15664875Y-9791000D01*
%TO.C,C38*%
X16271125Y-7809000D02*
X16128875Y-7809000D01*
X16271125Y-7991000D02*
X16128875Y-7991000D01*
%TO.C,L3*%
X14884330Y-6263500D02*
X14884330Y-6136500D01*
X14947830Y-6200000D02*
X14820830Y-6200000D01*
X14808130Y-6200000D02*
G75*
G03*
X14808130Y-6200000I-373380J0D01*
G01*
%TO.C,C11*%
X15530875Y-7991000D02*
X15673125Y-7991000D01*
X15530875Y-7809000D02*
X15673125Y-7809000D01*
%TO.C,C41*%
X13894125Y-7809000D02*
X13751875Y-7809000D01*
X13894125Y-7991000D02*
X13751875Y-7991000D01*
%TO.C,C39*%
X16128875Y-9009000D02*
X16271125Y-9009000D01*
X16128875Y-9191000D02*
X16271125Y-9191000D01*
%TO.C,LED1*%
X16197750Y-5613500D02*
X16603750Y-5613500D01*
X16603750Y-5386500D02*
X16197750Y-5386500D01*
X16197750Y-5386500D02*
X16197750Y-5613500D01*
%TO.C,LED2*%
X16603750Y-5086500D02*
X16197750Y-5086500D01*
X16197750Y-5313500D02*
X16603750Y-5313500D01*
X16197750Y-5086500D02*
X16197750Y-5313500D01*
%TO.C,R6*%
X15771044Y-5409000D02*
X15916456Y-5409000D01*
X15771044Y-5591000D02*
X15916456Y-5591000D01*
%TO.C,C46*%
X13894125Y-8891000D02*
X13751875Y-8891000D01*
X13894125Y-8709000D02*
X13751875Y-8709000D01*
%TO.C,JP1*%
X13750000Y-6615000D02*
X13950000Y-6615000D01*
X13950000Y-7025000D02*
X13750000Y-7025000D01*
X13970000Y-6950000D02*
X14000000Y-6920000D01*
X14000000Y-6980000D02*
X14000000Y-6920000D01*
X13950000Y-6615000D02*
X13950000Y-7025000D01*
X13750000Y-7025000D02*
X13750000Y-6615000D01*
X13970000Y-6950000D02*
X14000000Y-6980000D01*
%TO.C,U1*%
X14390100Y-5022086D02*
X14059900Y-5022086D01*
X14059900Y-5334430D02*
X14059900Y-5352286D01*
X14059900Y-5352286D02*
X14390100Y-5352286D01*
X14390100Y-5352286D02*
X14390100Y-5334430D01*
X14390100Y-5039941D02*
X14390100Y-5022086D01*
X14059900Y-5022086D02*
X14059900Y-5039941D01*
D13*
X13886470Y-5306236D02*
X13886470Y-5268136D01*
X13886470Y-5268136D02*
X13911870Y-5268136D01*
X13911870Y-5268136D02*
X13911870Y-5306236D01*
X13911870Y-5306236D02*
X13886470Y-5306236D01*
G36*
X13911870Y-5306236D02*
G01*
X13886470Y-5306236D01*
X13886470Y-5268136D01*
X13911870Y-5268136D01*
X13911870Y-5306236D01*
G37*
X13911870Y-5306236D02*
X13886470Y-5306236D01*
X13886470Y-5268136D01*
X13911870Y-5268136D01*
X13911870Y-5306236D01*
D12*
%TO.C,C13*%
X18920000Y-7860000D02*
X19680000Y-7860000D01*
X19680000Y-7860000D02*
X19680000Y-8340000D01*
X19680000Y-8340000D02*
X18920000Y-8340000D01*
X18920000Y-8340000D02*
X18920000Y-7860000D01*
%TO.C,R1*%
X11668544Y-6416000D02*
X11813956Y-6416000D01*
X11668544Y-6234000D02*
X11813956Y-6234000D01*
%TO.C,U2*%
X15461000Y-9259000D02*
X15416000Y-9259000D01*
X14539000Y-9214000D02*
X14539000Y-9259000D01*
X15461000Y-9214000D02*
X15461000Y-9259000D01*
X14539000Y-9259000D02*
X14584000Y-9259000D01*
X15461000Y-8382000D02*
X15461000Y-8337000D01*
X14539000Y-8382000D02*
X14539000Y-8337000D01*
X14539000Y-8337000D02*
X14584000Y-8337000D01*
%TO.C,JP7*%
X13685000Y-10550000D02*
X13685000Y-10350000D01*
X13965000Y-10350000D02*
X13965000Y-10550000D01*
X13965000Y-10550000D02*
X13685000Y-10550000D01*
X13685000Y-10350000D02*
X13965000Y-10350000D01*
%TO.C,C3*%
X15071125Y-9609000D02*
X14928875Y-9609000D01*
X15071125Y-9791000D02*
X14928875Y-9791000D01*
%TO.C,C14*%
X14388875Y-5681000D02*
X14531125Y-5681000D01*
X14388875Y-5499000D02*
X14531125Y-5499000D01*
%TO.C,JP9*%
X12995000Y-9825000D02*
X13405000Y-9825000D01*
X13330000Y-9805000D02*
X13300000Y-9775000D01*
X13405000Y-9825000D02*
X13405000Y-10025000D01*
X13405000Y-10025000D02*
X12995000Y-10025000D01*
X13330000Y-9805000D02*
X13360000Y-9775000D01*
X12995000Y-10025000D02*
X12995000Y-9825000D01*
X13360000Y-9775000D02*
X13300000Y-9775000D01*
%TO.C,CONN1*%
X11184000Y-6719000D02*
X11184000Y-7731000D01*
X11547700Y-7352300D02*
X11543100Y-7347600D01*
X12176100Y-6719000D02*
X12176100Y-7731000D01*
X12176100Y-7731000D02*
X11184000Y-7731000D01*
X11234000Y-6695000D02*
X11160000Y-6695000D01*
X11880100Y-6719000D02*
X11880100Y-7731000D01*
X11160000Y-6695000D02*
X11160000Y-6745000D01*
X11526100Y-7371600D02*
X11522600Y-7368100D01*
X11777500Y-7582000D02*
X11773900Y-7578500D01*
X11756900Y-7602500D02*
X11752300Y-7597800D01*
X12176100Y-6719000D02*
X11184000Y-6719000D01*
X11240000Y-6719000D02*
X11240000Y-7731000D01*
X11390000Y-6719000D02*
X11390000Y-7731000D01*
X11482000Y-6975000D02*
G75*
G03*
X11496524Y-7043332I167999J0D01*
G01*
X11496500Y-6906600D02*
G75*
G03*
X11481975Y-6977880I153500J-68400D01*
G01*
X11718400Y-6821500D02*
G75*
G03*
X11581696Y-6821457I-68400J-153499D01*
G01*
X11803500Y-7043400D02*
G75*
G03*
X11803543Y-6906696I-153499J68400D01*
G01*
X11581600Y-7128500D02*
G75*
G03*
X11718304Y-7128543I68400J153499D01*
G01*
X11818000Y-7475000D02*
G75*
G03*
X11818000Y-7475000I-168000J0D01*
G01*
%TO.C,R2*%
X18691000Y-6672706D02*
X18691000Y-6527294D01*
X18509000Y-6672706D02*
X18509000Y-6527294D01*
%TD*%
M02*
