%TF.GenerationSoftware,KiCad,Pcbnew,(6.0.0)*%
%TF.CreationDate,2022-01-08T20:11:28+01:00*%
%TF.ProjectId,ma12070p_amp_v06,6d613132-3037-4307-905f-616d705f7630,rev?*%
%TF.SameCoordinates,Original*%
%TF.FileFunction,Other,User*%
%FSLAX45Y45*%
G04 Gerber Fmt 4.5, Leading zero omitted, Abs format (unit mm)*
G04 Created by KiCad (PCBNEW (6.0.0)) date 2022-01-08 20:11:28*
%MOMM*%
%LPD*%
G01*
G04 APERTURE LIST*
%TA.AperFunction,Profile*%
%ADD10C,0.050000*%
%TD*%
%ADD11C,0.050000*%
G04 APERTURE END LIST*
D10*
X10980000Y-11900000D02*
G75*
G03*
X11500000Y-12420000I520000J0D01*
G01*
X20500000Y-12419376D02*
G75*
G03*
X21019375Y-11899375I0J519376D01*
G01*
X11500000Y-4380000D02*
G75*
G03*
X10980000Y-4900000I0J-520000D01*
G01*
X21019375Y-4900000D02*
G75*
G03*
X20500000Y-4380625I-519375J0D01*
G01*
X21019375Y-4900000D02*
X21019375Y-11899375D01*
X11500000Y-4380000D02*
X20500000Y-4380625D01*
X10980000Y-11900000D02*
X10980000Y-4900000D01*
X20500000Y-12419376D02*
X11500000Y-12420000D01*
D11*
X10890000Y-4298126D02*
X21090000Y-4298126D01*
X21090000Y-4298126D02*
X21090000Y-12498126D01*
X21090000Y-12498126D02*
X10890000Y-12498126D01*
X10890000Y-12498126D02*
X10890000Y-4298126D01*
D10*
X11666667Y-11900000D02*
G75*
G03*
X11666667Y-11900000I-166667J0D01*
G01*
X11250000Y-11900000D02*
X11750000Y-11900000D01*
X11500000Y-11650000D02*
X11500000Y-12150000D01*
D11*
%TO.C,JP10*%
X16800750Y-8590000D02*
X16800750Y-9050000D01*
X16800750Y-8590000D02*
X16550750Y-8590000D01*
X16550750Y-9050000D02*
X16550750Y-8590000D01*
X16550750Y-9050000D02*
X16800750Y-9050000D01*
%TO.C,C27*%
X18910000Y-11050000D02*
X19690000Y-11050000D01*
X19690000Y-11050000D02*
X19690000Y-11550000D01*
X19690000Y-11550000D02*
X18910000Y-11550000D01*
X18910000Y-11550000D02*
X18910000Y-11050000D01*
%TO.C,JP4*%
X12835000Y-11025000D02*
X13165000Y-11025000D01*
X12835000Y-11025000D02*
X12835000Y-11275000D01*
X13165000Y-11275000D02*
X12835000Y-11275000D01*
X13165000Y-11275000D02*
X13165000Y-11025000D01*
%TO.C,C7*%
X14073000Y-7715000D02*
X13577000Y-7715000D01*
X13577000Y-7715000D02*
X13577000Y-7485000D01*
X13577000Y-7485000D02*
X14073000Y-7485000D01*
X14073000Y-7485000D02*
X14073000Y-7715000D01*
%TO.C,C29*%
X16448000Y-9585000D02*
X16448000Y-9815000D01*
X15952000Y-9585000D02*
X16448000Y-9585000D01*
X15952000Y-9815000D02*
X15952000Y-9585000D01*
X16448000Y-9815000D02*
X15952000Y-9815000D01*
%TO.C,CONN4*%
X11170000Y-9537500D02*
X11530000Y-9537500D01*
X11170000Y-8162500D02*
X11170000Y-9537500D01*
X11530000Y-9537500D02*
X11530000Y-8162500D01*
X11530000Y-8162500D02*
X11170000Y-8162500D01*
%TO.C,CIN2*%
X12766750Y-5965000D02*
X12270750Y-5965000D01*
X12270750Y-5735000D02*
X12766750Y-5735000D01*
X12270750Y-5965000D02*
X12270750Y-5735000D01*
X12766750Y-5735000D02*
X12766750Y-5965000D01*
%TO.C,C36*%
X16448000Y-8085000D02*
X16448000Y-8315000D01*
X16448000Y-8315000D02*
X15952000Y-8315000D01*
X15952000Y-8085000D02*
X16448000Y-8085000D01*
X15952000Y-8315000D02*
X15952000Y-8085000D01*
%TO.C,C10*%
X15850000Y-7715000D02*
X15354000Y-7715000D01*
X15850000Y-7485000D02*
X15850000Y-7715000D01*
X15354000Y-7485000D02*
X15850000Y-7485000D01*
X15354000Y-7715000D02*
X15354000Y-7485000D01*
%TO.C,C18*%
X14152000Y-7785000D02*
X14648000Y-7785000D01*
X14152000Y-8015000D02*
X14152000Y-7785000D01*
X14648000Y-7785000D02*
X14648000Y-8015000D01*
X14648000Y-8015000D02*
X14152000Y-8015000D01*
%TO.C,C40*%
X16448000Y-7485000D02*
X16448000Y-7715000D01*
X15952000Y-7715000D02*
X15952000Y-7485000D01*
X15952000Y-7485000D02*
X16448000Y-7485000D01*
X16448000Y-7715000D02*
X15952000Y-7715000D01*
%TO.C,C4*%
X15258000Y-7785000D02*
X15258000Y-8015000D01*
X15258000Y-8015000D02*
X14762000Y-8015000D01*
X14762000Y-8015000D02*
X14762000Y-7785000D01*
X14762000Y-7785000D02*
X15258000Y-7785000D01*
%TO.C,C16*%
X13210000Y-5498000D02*
X13210000Y-5002000D01*
X13210000Y-5002000D02*
X13440000Y-5002000D01*
X13440000Y-5002000D02*
X13440000Y-5498000D01*
X13440000Y-5498000D02*
X13210000Y-5498000D01*
%TO.C,C21*%
X15372000Y-9885000D02*
X15868000Y-9885000D01*
X15868000Y-9885000D02*
X15868000Y-10115000D01*
X15372000Y-10115000D02*
X15372000Y-9885000D01*
X15868000Y-10115000D02*
X15372000Y-10115000D01*
%TO.C,C20*%
X13952000Y-5815000D02*
X13952000Y-5585000D01*
X13952000Y-5585000D02*
X14448000Y-5585000D01*
X14448000Y-5585000D02*
X14448000Y-5815000D01*
X14448000Y-5815000D02*
X13952000Y-5815000D01*
%TO.C,CONN3*%
X11170000Y-11262500D02*
X11530000Y-11262500D01*
X11530000Y-9887500D02*
X11170000Y-9887500D01*
X11530000Y-11262500D02*
X11530000Y-9887500D01*
X11170000Y-9887500D02*
X11170000Y-11262500D01*
%TO.C,CONN2*%
X20880500Y-7340000D02*
X19799500Y-7340000D01*
X20880500Y-9440000D02*
X20880500Y-7340000D01*
X19799500Y-7340000D02*
X19799500Y-9440000D01*
X19799500Y-9440000D02*
X20880500Y-9440000D01*
%TO.C,L2*%
X18300000Y-5525000D02*
G75*
G03*
X18300000Y-5525000I-900000J0D01*
G01*
%TO.C,C23*%
X19410000Y-9650000D02*
X20190000Y-9650000D01*
X20190000Y-9650000D02*
X20190000Y-10150000D01*
X20190000Y-10150000D02*
X19410000Y-10150000D01*
X19410000Y-10150000D02*
X19410000Y-9650000D01*
%TO.C,C42*%
X16765000Y-10098000D02*
X16535000Y-10098000D01*
X16535000Y-9602000D02*
X16765000Y-9602000D01*
X16535000Y-10098000D02*
X16535000Y-9602000D01*
X16765000Y-9602000D02*
X16765000Y-10098000D01*
%TO.C,C34*%
X16450000Y-8685000D02*
X16450000Y-8915000D01*
X15954000Y-8685000D02*
X16450000Y-8685000D01*
X15954000Y-8915000D02*
X15954000Y-8685000D01*
X16450000Y-8915000D02*
X15954000Y-8915000D01*
%TO.C,C15*%
X13765000Y-5491750D02*
X13535000Y-5491750D01*
X13535000Y-4995750D02*
X13765000Y-4995750D01*
X13765000Y-4995750D02*
X13765000Y-5491750D01*
X13535000Y-5491750D02*
X13535000Y-4995750D01*
%TO.C,C25*%
X14748000Y-9885000D02*
X14748000Y-10115000D01*
X14252000Y-9885000D02*
X14748000Y-9885000D01*
X14252000Y-10115000D02*
X14252000Y-9885000D01*
X14748000Y-10115000D02*
X14252000Y-10115000D01*
%TO.C,CONN5*%
X12420000Y-7432500D02*
X12780000Y-7432500D01*
X12780000Y-7432500D02*
X12780000Y-6817500D01*
X12420000Y-6817500D02*
X12420000Y-7432500D01*
X12780000Y-6817500D02*
X12420000Y-6817500D01*
%TO.C,L4*%
X18750000Y-7400000D02*
G75*
G03*
X18750000Y-7400000I-900000J0D01*
G01*
%TO.C,H2*%
X11925000Y-4898126D02*
G75*
G03*
X11925000Y-4898126I-425000J0D01*
G01*
%TO.C,C12*%
X19410000Y-6650000D02*
X20190000Y-6650000D01*
X20190000Y-6650000D02*
X20190000Y-7150000D01*
X20190000Y-7150000D02*
X19410000Y-7150000D01*
X19410000Y-7150000D02*
X19410000Y-6650000D01*
%TO.C,C17*%
X14648000Y-7715000D02*
X14152000Y-7715000D01*
X14648000Y-7485000D02*
X14648000Y-7715000D01*
X14152000Y-7485000D02*
X14648000Y-7485000D01*
X14152000Y-7715000D02*
X14152000Y-7485000D01*
%TO.C,C19*%
X14655000Y-5698000D02*
X14655000Y-5202000D01*
X14885000Y-5202000D02*
X14885000Y-5698000D01*
X14885000Y-5698000D02*
X14655000Y-5698000D01*
X14655000Y-5202000D02*
X14885000Y-5202000D01*
%TO.C,R7*%
X18888000Y-10355000D02*
X19112000Y-10355000D01*
X19112000Y-10355000D02*
X19112000Y-10845000D01*
X19112000Y-10845000D02*
X18888000Y-10845000D01*
X18888000Y-10845000D02*
X18888000Y-10355000D01*
%TO.C,H4*%
X20925000Y-4898126D02*
G75*
G03*
X20925000Y-4898126I-425000J0D01*
G01*
%TO.C,C37*%
X15952000Y-9285000D02*
X16448000Y-9285000D01*
X15952000Y-9515000D02*
X15952000Y-9285000D01*
X16448000Y-9515000D02*
X15952000Y-9515000D01*
X16448000Y-9285000D02*
X16448000Y-9515000D01*
%TO.C,C26*%
X14748000Y-9585000D02*
X14748000Y-9815000D01*
X14748000Y-9815000D02*
X14252000Y-9815000D01*
X14252000Y-9815000D02*
X14252000Y-9585000D01*
X14252000Y-9585000D02*
X14748000Y-9585000D01*
%TO.C,C30*%
X16448000Y-9885000D02*
X16448000Y-10115000D01*
X15952000Y-10115000D02*
X15952000Y-9885000D01*
X16448000Y-10115000D02*
X15952000Y-10115000D01*
X15952000Y-9885000D02*
X16448000Y-9885000D01*
%TO.C,C45*%
X14073000Y-9035000D02*
X14073000Y-9265000D01*
X14073000Y-9265000D02*
X13577000Y-9265000D01*
X13577000Y-9035000D02*
X14073000Y-9035000D01*
X13577000Y-9265000D02*
X13577000Y-9035000D01*
%TO.C,JP2*%
X12335000Y-11025000D02*
X12335000Y-11275000D01*
X12665000Y-11275000D02*
X12335000Y-11275000D01*
X12335000Y-11025000D02*
X12665000Y-11025000D01*
X12665000Y-11275000D02*
X12665000Y-11025000D01*
%TO.C,JP3*%
X12320000Y-10350000D02*
X12780000Y-10350000D01*
X12780000Y-10600000D02*
X12320000Y-10600000D01*
X12320000Y-10350000D02*
X12320000Y-10600000D01*
X12780000Y-10600000D02*
X12780000Y-10350000D01*
%TO.C,C8*%
X18910000Y-5250000D02*
X19690000Y-5250000D01*
X19690000Y-5250000D02*
X19690000Y-5750000D01*
X19690000Y-5750000D02*
X18910000Y-5750000D01*
X18910000Y-5750000D02*
X18910000Y-5250000D01*
%TO.C,R8*%
X15738000Y-5746250D02*
X15738000Y-5256250D01*
X15962000Y-5256250D02*
X15962000Y-5746250D01*
X15962000Y-5746250D02*
X15738000Y-5746250D01*
X15738000Y-5256250D02*
X15962000Y-5256250D01*
%TO.C,C44*%
X13577000Y-8435000D02*
X14073000Y-8435000D01*
X14073000Y-8435000D02*
X14073000Y-8665000D01*
X13577000Y-8665000D02*
X13577000Y-8435000D01*
X14073000Y-8665000D02*
X13577000Y-8665000D01*
%TO.C,C31*%
X16448000Y-10185000D02*
X16448000Y-10415000D01*
X16448000Y-10415000D02*
X15952000Y-10415000D01*
X15952000Y-10415000D02*
X15952000Y-10185000D01*
X15952000Y-10185000D02*
X16448000Y-10185000D01*
%TO.C,JP5*%
X12780000Y-9875000D02*
X12320000Y-9875000D01*
X12780000Y-9875000D02*
X12780000Y-9625000D01*
X12320000Y-9625000D02*
X12780000Y-9625000D01*
X12320000Y-9625000D02*
X12320000Y-9875000D01*
%TO.C,C6*%
X14762000Y-7715000D02*
X14762000Y-7485000D01*
X15258000Y-7715000D02*
X14762000Y-7715000D01*
X14762000Y-7485000D02*
X15258000Y-7485000D01*
X15258000Y-7485000D02*
X15258000Y-7715000D01*
%TO.C,C2*%
X15938232Y-6725000D02*
G75*
G03*
X15938232Y-6725000I-525000J0D01*
G01*
%TO.C,C35*%
X15952000Y-8615000D02*
X15952000Y-8385000D01*
X16448000Y-8615000D02*
X15952000Y-8615000D01*
X15952000Y-8385000D02*
X16448000Y-8385000D01*
X16448000Y-8385000D02*
X16448000Y-8615000D01*
%TO.C,C5*%
X15311750Y-9815000D02*
X14815750Y-9815000D01*
X14815750Y-9815000D02*
X14815750Y-9585000D01*
X14815750Y-9585000D02*
X15311750Y-9585000D01*
X15311750Y-9585000D02*
X15311750Y-9815000D01*
%TO.C,CIN1*%
X12004250Y-6015000D02*
X11508250Y-6015000D01*
X11508250Y-5785000D02*
X12004250Y-5785000D01*
X12004250Y-5785000D02*
X12004250Y-6015000D01*
X11508250Y-6015000D02*
X11508250Y-5785000D01*
%TO.C,L1*%
X12106250Y-6458000D02*
X12106250Y-6142000D01*
X12106250Y-6142000D02*
X12776250Y-6142000D01*
X12776250Y-6142000D02*
X12776250Y-6458000D01*
X12776250Y-6458000D02*
X12106250Y-6458000D01*
%TO.C,R4*%
X19112000Y-6655000D02*
X19112000Y-7145000D01*
X18888000Y-6655000D02*
X19112000Y-6655000D01*
X19112000Y-7145000D02*
X18888000Y-7145000D01*
X18888000Y-7145000D02*
X18888000Y-6655000D01*
%TO.C,L6*%
X18300000Y-11300000D02*
G75*
G03*
X18300000Y-11300000I-900000J0D01*
G01*
%TO.C,C24*%
X19690000Y-9450000D02*
X18910000Y-9450000D01*
X18910000Y-9450000D02*
X18910000Y-8950000D01*
X18910000Y-8950000D02*
X19690000Y-8950000D01*
X19690000Y-8950000D02*
X19690000Y-9450000D01*
%TO.C,H3*%
X11925000Y-11897502D02*
G75*
G03*
X11925000Y-11897502I-425000J0D01*
G01*
%TO.C,C1*%
X15925000Y-10900000D02*
G75*
G03*
X15925000Y-10900000I-525000J0D01*
G01*
%TO.C,R5*%
X18888000Y-9655000D02*
X19112000Y-9655000D01*
X19112000Y-10145000D02*
X18888000Y-10145000D01*
X19112000Y-9655000D02*
X19112000Y-10145000D01*
X18888000Y-10145000D02*
X18888000Y-9655000D01*
%TO.C,JP8*%
X12835000Y-10675000D02*
X13165000Y-10675000D01*
X12835000Y-10675000D02*
X12835000Y-10925000D01*
X13165000Y-10925000D02*
X12835000Y-10925000D01*
X13165000Y-10925000D02*
X13165000Y-10675000D01*
%TO.C,R3*%
X14938000Y-5695000D02*
X14938000Y-5205000D01*
X15162000Y-5205000D02*
X15162000Y-5695000D01*
X14938000Y-5205000D02*
X15162000Y-5205000D01*
X15162000Y-5695000D02*
X14938000Y-5695000D01*
%TO.C,JP6*%
X12335000Y-8475000D02*
X12665000Y-8475000D01*
X12665000Y-8725000D02*
X12665000Y-8475000D01*
X12335000Y-8475000D02*
X12335000Y-8725000D01*
X12665000Y-8725000D02*
X12335000Y-8725000D01*
%TO.C,L5*%
X18750000Y-9400000D02*
G75*
G03*
X18750000Y-9400000I-900000J0D01*
G01*
%TO.C,C43*%
X13572000Y-8135000D02*
X14068000Y-8135000D01*
X13572000Y-8365000D02*
X13572000Y-8135000D01*
X14068000Y-8135000D02*
X14068000Y-8365000D01*
X14068000Y-8365000D02*
X13572000Y-8365000D01*
%TO.C,C9*%
X20190000Y-6450000D02*
X19410000Y-6450000D01*
X19410000Y-6450000D02*
X19410000Y-5950000D01*
X19410000Y-5950000D02*
X20190000Y-5950000D01*
X20190000Y-5950000D02*
X20190000Y-6450000D01*
%TO.C,C28*%
X19410000Y-10350000D02*
X20190000Y-10350000D01*
X20190000Y-10350000D02*
X20190000Y-10850000D01*
X20190000Y-10850000D02*
X19410000Y-10850000D01*
X19410000Y-10850000D02*
X19410000Y-10350000D01*
%TO.C,H1*%
X20925000Y-11897502D02*
G75*
G03*
X20925000Y-11897502I-425000J0D01*
G01*
%TO.C,C22*%
X15868000Y-9815000D02*
X15372000Y-9815000D01*
X15868000Y-9585000D02*
X15868000Y-9815000D01*
X15372000Y-9815000D02*
X15372000Y-9585000D01*
X15372000Y-9585000D02*
X15868000Y-9585000D01*
%TO.C,C38*%
X15952000Y-7785000D02*
X16448000Y-7785000D01*
X16448000Y-7785000D02*
X16448000Y-8015000D01*
X15952000Y-8015000D02*
X15952000Y-7785000D01*
X16448000Y-8015000D02*
X15952000Y-8015000D01*
%TO.C,L3*%
X13878607Y-6106447D02*
X13651501Y-6333553D01*
X13106447Y-6106447D02*
X13106447Y-5788499D01*
X13333553Y-5561393D02*
X13651501Y-5561393D01*
X13651501Y-5561393D02*
X13878607Y-5788499D01*
X13333553Y-6333553D02*
X13106447Y-6106447D01*
X13878607Y-5788499D02*
X13878607Y-6106447D01*
X13651501Y-6333553D02*
X13333553Y-6333553D01*
X13106447Y-5788499D02*
X13333553Y-5561393D01*
X13853207Y-5947473D02*
G75*
G03*
X13853207Y-5947473I-360680J0D01*
G01*
%TO.C,C11*%
X15354000Y-8015000D02*
X15354000Y-7785000D01*
X15850000Y-8015000D02*
X15354000Y-8015000D01*
X15354000Y-7785000D02*
X15850000Y-7785000D01*
X15850000Y-7785000D02*
X15850000Y-8015000D01*
%TO.C,C41*%
X13575000Y-8015000D02*
X13575000Y-7785000D01*
X14071000Y-7785000D02*
X14071000Y-8015000D01*
X14071000Y-8015000D02*
X13575000Y-8015000D01*
X13575000Y-7785000D02*
X14071000Y-7785000D01*
%TO.C,C39*%
X15952000Y-8985000D02*
X16448000Y-8985000D01*
X15952000Y-9215000D02*
X15952000Y-8985000D01*
X16448000Y-8985000D02*
X16448000Y-9215000D01*
X16448000Y-9215000D02*
X15952000Y-9215000D01*
%TO.C,LED1*%
X16262000Y-5146250D02*
X16038000Y-5146250D01*
X16262000Y-4656250D02*
X16262000Y-5146250D01*
X16038000Y-5146250D02*
X16038000Y-4656250D01*
X16038000Y-4656250D02*
X16262000Y-4656250D01*
%TO.C,LED2*%
X15738000Y-4656250D02*
X15962000Y-4656250D01*
X15962000Y-4656250D02*
X15962000Y-5146250D01*
X15962000Y-5146250D02*
X15738000Y-5146250D01*
X15738000Y-5146250D02*
X15738000Y-4656250D01*
%TO.C,R6*%
X16038000Y-5256250D02*
X16262000Y-5256250D01*
X16262000Y-5256250D02*
X16262000Y-5746250D01*
X16262000Y-5746250D02*
X16038000Y-5746250D01*
X16038000Y-5746250D02*
X16038000Y-5256250D01*
%TO.C,C46*%
X13577000Y-8735000D02*
X14073000Y-8735000D01*
X14073000Y-8735000D02*
X14073000Y-8965000D01*
X13577000Y-8965000D02*
X13577000Y-8735000D01*
X14073000Y-8965000D02*
X13577000Y-8965000D01*
%TO.C,JP1*%
X14210000Y-5910750D02*
X14210000Y-6160750D01*
X14210000Y-5910750D02*
X14670000Y-5910750D01*
X14670000Y-6160750D02*
X14670000Y-5910750D01*
X14670000Y-6160750D02*
X14210000Y-6160750D01*
%TO.C,U1*%
X14035014Y-5072200D02*
X14390614Y-5072200D01*
X14525944Y-5389370D02*
X14390614Y-5389370D01*
X14390614Y-5110630D02*
X14525944Y-5110630D01*
X14035014Y-5389370D02*
X13899685Y-5389370D01*
X14390614Y-5427800D02*
X14035014Y-5427800D01*
X13899685Y-5110630D02*
X14035014Y-5110630D01*
X14035014Y-5427800D02*
X14035014Y-5389370D01*
X13899685Y-5389370D02*
X13899685Y-5110630D01*
X14035014Y-5110630D02*
X14035014Y-5072200D01*
X14525944Y-5110630D02*
X14525944Y-5389370D01*
X14390614Y-5072200D02*
X14390614Y-5110630D01*
X14390614Y-5389370D02*
X14390614Y-5427800D01*
%TO.C,C13*%
X18910000Y-7350000D02*
X19690000Y-7350000D01*
X19690000Y-7350000D02*
X19690000Y-7850000D01*
X19690000Y-7850000D02*
X18910000Y-7850000D01*
X18910000Y-7850000D02*
X18910000Y-7350000D01*
%TO.C,R1*%
X11300000Y-6497000D02*
X11300000Y-6113000D01*
X11300000Y-6113000D02*
X12100000Y-6113000D01*
X12100000Y-6497000D02*
X11300000Y-6497000D01*
X12100000Y-6113000D02*
X12100000Y-6497000D01*
%TO.C,U2*%
X15512000Y-8286000D02*
X14488000Y-8286000D01*
X15512000Y-9310000D02*
X15512000Y-8286000D01*
X14488000Y-9310000D02*
X15512000Y-9310000D01*
X14488000Y-8286000D02*
X14488000Y-9310000D01*
%TO.C,JP7*%
X12335000Y-10675000D02*
X12335000Y-10925000D01*
X12335000Y-10675000D02*
X12665000Y-10675000D01*
X12665000Y-10925000D02*
X12335000Y-10925000D01*
X12665000Y-10925000D02*
X12665000Y-10675000D01*
%TO.C,C3*%
X14812000Y-10115000D02*
X14812000Y-9885000D01*
X15308000Y-9885000D02*
X15308000Y-10115000D01*
X15308000Y-10115000D02*
X14812000Y-10115000D01*
X14812000Y-9885000D02*
X15308000Y-9885000D01*
%TO.C,C14*%
X13752000Y-4915000D02*
X13752000Y-4685000D01*
X14248000Y-4685000D02*
X14248000Y-4915000D01*
X13752000Y-4685000D02*
X14248000Y-4685000D01*
X14248000Y-4915000D02*
X13752000Y-4915000D01*
%TO.C,JP9*%
X12320000Y-9925000D02*
X12320000Y-10175000D01*
X12320000Y-9925000D02*
X12780000Y-9925000D01*
X12780000Y-10175000D02*
X12320000Y-10175000D01*
X12780000Y-10175000D02*
X12780000Y-9925000D01*
%TO.C,CONN1*%
X12221000Y-7775000D02*
X12221000Y-6675000D01*
X11140000Y-7775000D02*
X12221000Y-7775000D01*
X11140000Y-6675000D02*
X11140000Y-7775000D01*
X12221000Y-6675000D02*
X11140000Y-6675000D01*
%TO.C,R2*%
X18888000Y-5955000D02*
X19112000Y-5955000D01*
X18888000Y-6445000D02*
X18888000Y-5955000D01*
X19112000Y-6445000D02*
X18888000Y-6445000D01*
X19112000Y-5955000D02*
X19112000Y-6445000D01*
%TD*%
M02*
