%TF.GenerationSoftware,KiCad,Pcbnew,(6.0.0-rc1-314-g10be483430)*%
%TF.CreationDate,2021-12-05T00:45:44+01:00*%
%TF.ProjectId,ma12070p_amp_v1,6d613132-3037-4307-905f-616d705f7631,rev?*%
%TF.SameCoordinates,Original*%
%TF.FileFunction,Soldermask,Bot*%
%TF.FilePolarity,Negative*%
%FSLAX46Y46*%
G04 Gerber Fmt 4.6, Leading zero omitted, Abs format (unit mm)*
G04 Created by KiCad (PCBNEW (6.0.0-rc1-314-g10be483430)) date 2021-12-05 00:45:44*
%MOMM*%
%LPD*%
G01*
G04 APERTURE LIST*
%ADD10R,1.700000X1.700000*%
%ADD11O,1.700000X1.700000*%
%ADD12C,1.600000*%
%ADD13C,2.000000*%
%ADD14R,2.000000X2.000000*%
%ADD15C,8.000000*%
%ADD16R,1.600000X1.600000*%
%ADD17R,2.600000X2.600000*%
%ADD18C,2.600000*%
G04 APERTURE END LIST*
D10*
%TO.C,JP4*%
X138000000Y-86475000D03*
D11*
X138000000Y-89015000D03*
X138000000Y-91555000D03*
%TD*%
D12*
%TO.C,C7*%
X192100000Y-99940000D03*
X192100000Y-104940000D03*
%TD*%
%TO.C,C11*%
X192100000Y-119440000D03*
X192100000Y-124440000D03*
%TD*%
D13*
%TO.C,C4*%
X198600000Y-85440000D03*
X198600000Y-95440000D03*
%TD*%
D14*
%TO.C,CSUP2*%
X155632323Y-119855000D03*
D13*
X160632323Y-119855000D03*
%TD*%
D15*
%TO.C,H2*%
X115000000Y-50000000D03*
%TD*%
%TO.C,H4*%
X210000000Y-50000000D03*
%TD*%
D16*
%TO.C,COUTBUCK0*%
X156985000Y-51745000D03*
D12*
X159485000Y-51745000D03*
%TD*%
D14*
%TO.C,CSUP1*%
X155132323Y-77355000D03*
D13*
X160132323Y-77355000D03*
%TD*%
D10*
%TO.C,JP2*%
X156555000Y-58095000D03*
D11*
X159095000Y-58095000D03*
X161635000Y-58095000D03*
%TD*%
D10*
%TO.C,JP3*%
X138000000Y-106225000D03*
D11*
X138000000Y-108765000D03*
X138000000Y-111305000D03*
%TD*%
D12*
%TO.C,C5*%
X192100000Y-90440000D03*
X192100000Y-95440000D03*
%TD*%
D13*
%TO.C,C10*%
X198600000Y-114440000D03*
X198600000Y-124440000D03*
%TD*%
%TO.C,C9*%
X198585000Y-99940000D03*
X198585000Y-109940000D03*
%TD*%
D15*
%TO.C,H3*%
X115000000Y-125000000D03*
%TD*%
D12*
%TO.C,C1*%
X192100000Y-70902500D03*
X192100000Y-75902500D03*
%TD*%
D10*
%TO.C,PAUDIO1*%
X122250000Y-84462500D03*
D11*
X122250000Y-87002500D03*
X122250000Y-89542500D03*
X122250000Y-92082500D03*
X122250000Y-94622500D03*
%TD*%
D15*
%TO.C,H1*%
X210000000Y-125000000D03*
%TD*%
D17*
%TO.C,J3*%
X135140000Y-51695000D03*
D18*
X130140000Y-51695000D03*
%TD*%
D10*
%TO.C,PCTRL1*%
X122295000Y-102037500D03*
D11*
X122295000Y-104577500D03*
X122295000Y-107117500D03*
X122295000Y-109657500D03*
X122295000Y-112197500D03*
%TD*%
D10*
%TO.C,JP1*%
X137887500Y-95960000D03*
D11*
X137887500Y-98500000D03*
X137887500Y-101040000D03*
%TD*%
D17*
%TO.C,J2*%
X209380000Y-105000000D03*
D18*
X209380000Y-100000000D03*
X209380000Y-95000000D03*
X209380000Y-90000000D03*
%TD*%
D13*
%TO.C,C3*%
X198600000Y-70940000D03*
X198600000Y-80940000D03*
%TD*%
M02*
