%TF.GenerationSoftware,KiCad,Pcbnew,(6.0.0-rc1-314-g10be483430)*%
%TF.CreationDate,2021-12-21T22:09:41+01:00*%
%TF.ProjectId,ma12070p_amp_v1,6d613132-3037-4307-905f-616d705f7631,rev?*%
%TF.SameCoordinates,Original*%
%TF.FileFunction,Soldermask,Bot*%
%TF.FilePolarity,Negative*%
%FSLAX45Y45*%
G04 Gerber Fmt 4.5, Leading zero omitted, Abs format (unit mm)*
G04 Created by KiCad (PCBNEW (6.0.0-rc1-314-g10be483430)) date 2021-12-21 22:09:41*
%MOMM*%
%LPD*%
G01*
G04 APERTURE LIST*
%TA.AperFunction,Profile*%
%ADD10C,0.050000*%
%TD*%
%ADD11C,1.600000*%
%ADD12R,1.700000X1.700000*%
%ADD13O,1.700000X1.700000*%
%ADD14R,2.600000X2.600000*%
%ADD15C,2.600000*%
%ADD16C,1.700000*%
%ADD17C,8.000000*%
%ADD18R,2.000000X2.000000*%
%ADD19C,2.000000*%
%ADD20R,1.422400X1.422400*%
%ADD21C,1.422400*%
%ADD22C,0.800000*%
%ADD23C,1.000000*%
G04 APERTURE END LIST*
D10*
X21000000Y-12700000D02*
G75*
G03*
X21500000Y-12200000I0J500000D01*
G01*
X11000000Y-12200000D02*
G75*
G03*
X11500000Y-12700000I500000J0D01*
G01*
X21500000Y-4700000D02*
G75*
G03*
X21000000Y-4200000I-500000J0D01*
G01*
X21500000Y-4700000D02*
X21500000Y-12200000D01*
X11500000Y-4199375D02*
X21000000Y-4200000D01*
X11000000Y-12200000D02*
X11000000Y-4675000D01*
X21000000Y-12700000D02*
X11500000Y-12700000D01*
X11500000Y-4199375D02*
G75*
G03*
X11000000Y-4675000I0J-500625D01*
G01*
D11*
%TO.C,C27*%
X19050000Y-11400000D03*
X19550000Y-11400000D03*
%TD*%
D12*
%TO.C,CONN4*%
X12025000Y-8242500D03*
D13*
X12025000Y-8496500D03*
X12025000Y-8750500D03*
X12025000Y-9004500D03*
X12025000Y-9258500D03*
%TD*%
D12*
%TO.C,CONN3*%
X12025000Y-9917500D03*
D13*
X12025000Y-10171500D03*
X12025000Y-10425500D03*
X12025000Y-10679500D03*
X12025000Y-10933500D03*
%TD*%
D14*
%TO.C,CONN2*%
X20869500Y-8050000D03*
D15*
X20869500Y-8550000D03*
X20869500Y-9050000D03*
X20869500Y-9550000D03*
%TD*%
D16*
%TO.C,L2*%
X18050000Y-6800000D03*
X17550000Y-6800000D03*
%TD*%
D11*
%TO.C,C23*%
X19050000Y-10100000D03*
X19550000Y-10100000D03*
%TD*%
D16*
%TO.C,L4*%
X18050000Y-8100000D03*
X17550000Y-8100000D03*
%TD*%
D17*
%TO.C,H2*%
X11500000Y-4700000D03*
%TD*%
D11*
%TO.C,C12*%
X19050000Y-7500000D03*
X19550000Y-7500000D03*
%TD*%
D17*
%TO.C,H4*%
X21000000Y-4700000D03*
%TD*%
D11*
%TO.C,C8*%
X19050000Y-6200000D03*
X19550000Y-6200000D03*
%TD*%
D18*
%TO.C,C2*%
X15163232Y-6725000D03*
D19*
X15663232Y-6725000D03*
%TD*%
D16*
%TO.C,L6*%
X18050000Y-10800000D03*
X17550000Y-10800000D03*
%TD*%
D11*
%TO.C,C24*%
X19550000Y-9500000D03*
X19050000Y-9500000D03*
%TD*%
D17*
%TO.C,H3*%
X11500000Y-12200000D03*
%TD*%
D18*
%TO.C,C1*%
X15163232Y-10850000D03*
D19*
X15663232Y-10850000D03*
%TD*%
D16*
%TO.C,L5*%
X18050000Y-9500000D03*
X17550000Y-9500000D03*
%TD*%
D11*
%TO.C,C9*%
X19550000Y-6800000D03*
X19050000Y-6800000D03*
%TD*%
%TO.C,C28*%
X19050000Y-10800000D03*
X19550000Y-10800000D03*
%TD*%
D17*
%TO.C,H1*%
X21000000Y-12200000D03*
%TD*%
D20*
%TO.C,L3*%
X14610010Y-6200000D03*
D21*
X14259490Y-6200000D03*
%TD*%
D11*
%TO.C,C13*%
X19050000Y-8100000D03*
X19550000Y-8100000D03*
%TD*%
D14*
%TO.C,CONN1*%
X11650000Y-6975000D03*
D15*
X11650000Y-7475000D03*
%TD*%
D22*
X24700000Y-4700000D03*
X13025000Y-9725000D03*
X16650000Y-5875000D03*
X14925000Y-9000000D03*
X13875000Y-10650000D03*
X16550000Y-9050000D03*
X15350000Y-5325000D03*
X14275000Y-10250000D03*
X14200000Y-7375000D03*
X15200000Y-8875000D03*
X13700000Y-6350000D03*
X14425000Y-4900000D03*
X15350000Y-5050000D03*
X13700000Y-5925000D03*
X14225000Y-4900000D03*
X16550000Y-7900000D03*
X12475000Y-10450000D03*
X14275000Y-5250000D03*
X14925000Y-8725000D03*
X15075000Y-8875000D03*
X14750000Y-7375000D03*
X12575000Y-7075000D03*
X13050000Y-10450000D03*
X14800000Y-9000000D03*
X14850000Y-10175000D03*
X13050000Y-5200000D03*
X15075000Y-9000000D03*
X14925000Y-5325000D03*
X15825000Y-8625000D03*
X14925000Y-8875000D03*
X13025000Y-8650000D03*
X13025000Y-7975000D03*
X14025000Y-9675000D03*
X13400000Y-7725000D03*
X14175000Y-5125000D03*
X14075000Y-5625000D03*
X14800000Y-8600000D03*
X12475000Y-9125000D03*
X14800000Y-8725000D03*
X15200000Y-8725000D03*
X14725000Y-10175000D03*
X12475000Y-9975000D03*
X13025000Y-8350000D03*
X14925000Y-5050000D03*
X15075000Y-8600000D03*
X14175000Y-5250000D03*
X14250000Y-8900000D03*
X12350000Y-5750000D03*
X14925000Y-8600000D03*
X14025000Y-4900000D03*
X11425000Y-5900000D03*
X14800000Y-8875000D03*
X14075000Y-5825000D03*
X13050000Y-5500000D03*
X14350000Y-8275000D03*
X16550000Y-8550000D03*
X15975000Y-5875000D03*
X12475000Y-10825000D03*
X14925000Y-5675000D03*
X14848638Y-7374225D03*
X14275000Y-5125000D03*
X15200000Y-8600000D03*
X14025000Y-6425000D03*
X16350000Y-10650000D03*
X15075000Y-8725000D03*
X13075000Y-5900000D03*
X14650000Y-5050000D03*
X12850000Y-7300000D03*
X14650000Y-4900000D03*
X13075000Y-6200000D03*
X15200000Y-9000000D03*
X16525000Y-10000000D03*
X15350000Y-5675000D03*
X13400000Y-7900000D03*
X13025000Y-8950000D03*
X14900000Y-8450000D03*
X14900000Y-8230000D03*
X15200000Y-8450000D03*
X15200000Y-8230000D03*
X15200000Y-9150000D03*
X15200000Y-9375000D03*
X14900000Y-9150000D03*
X14900000Y-9375000D03*
X14500000Y-10250000D03*
X14500000Y-9400000D03*
X14625000Y-9400000D03*
X14600000Y-10250000D03*
D23*
X12852500Y-5950000D03*
X13525000Y-5700000D03*
D22*
X14610000Y-5300000D03*
X13975000Y-5425000D03*
D23*
X12850000Y-6300000D03*
X12675000Y-6550000D03*
X12677500Y-5775000D03*
X16575000Y-10900000D03*
X12825000Y-10275000D03*
X15787500Y-8962500D03*
X12825000Y-10800000D03*
X12850000Y-7775000D03*
X15575000Y-9175000D03*
X12825000Y-9950000D03*
X12825000Y-9525000D03*
D22*
X14550000Y-8200000D03*
X14550000Y-7150000D03*
X14675000Y-8200000D03*
X14675000Y-7150000D03*
D23*
X13350000Y-9100000D03*
X13550000Y-10450000D03*
M02*
