%TF.GenerationSoftware,KiCad,Pcbnew,(6.0.0-rc1-314-g10be483430)*%
%TF.CreationDate,2021-12-05T00:45:44+01:00*%
%TF.ProjectId,ma12070p_amp_v1,6d613132-3037-4307-905f-616d705f7631,rev?*%
%TF.SameCoordinates,Original*%
%TF.FileFunction,Legend,Top*%
%TF.FilePolarity,Positive*%
%FSLAX46Y46*%
G04 Gerber Fmt 4.6, Leading zero omitted, Abs format (unit mm)*
G04 Created by KiCad (PCBNEW (6.0.0-rc1-314-g10be483430)) date 2021-12-05 00:45:44*
%MOMM*%
%LPD*%
G01*
G04 APERTURE LIST*
%ADD10C,0.150000*%
%ADD11C,0.120000*%
G04 APERTURE END LIST*
D10*
%TO.C,CF1B1*%
X142953571Y-112062142D02*
X142905952Y-112109761D01*
X142763095Y-112157380D01*
X142667857Y-112157380D01*
X142525000Y-112109761D01*
X142429761Y-112014523D01*
X142382142Y-111919285D01*
X142334523Y-111728809D01*
X142334523Y-111585952D01*
X142382142Y-111395476D01*
X142429761Y-111300238D01*
X142525000Y-111205000D01*
X142667857Y-111157380D01*
X142763095Y-111157380D01*
X142905952Y-111205000D01*
X142953571Y-111252619D01*
X143715476Y-111633571D02*
X143382142Y-111633571D01*
X143382142Y-112157380D02*
X143382142Y-111157380D01*
X143858333Y-111157380D01*
X144763095Y-112157380D02*
X144191666Y-112157380D01*
X144477380Y-112157380D02*
X144477380Y-111157380D01*
X144382142Y-111300238D01*
X144286904Y-111395476D01*
X144191666Y-111443095D01*
X145525000Y-111633571D02*
X145667857Y-111681190D01*
X145715476Y-111728809D01*
X145763095Y-111824047D01*
X145763095Y-111966904D01*
X145715476Y-112062142D01*
X145667857Y-112109761D01*
X145572619Y-112157380D01*
X145191666Y-112157380D01*
X145191666Y-111157380D01*
X145525000Y-111157380D01*
X145620238Y-111205000D01*
X145667857Y-111252619D01*
X145715476Y-111347857D01*
X145715476Y-111443095D01*
X145667857Y-111538333D01*
X145620238Y-111585952D01*
X145525000Y-111633571D01*
X145191666Y-111633571D01*
X146715476Y-112157380D02*
X146144047Y-112157380D01*
X146429761Y-112157380D02*
X146429761Y-111157380D01*
X146334523Y-111300238D01*
X146239285Y-111395476D01*
X146144047Y-111443095D01*
%TO.C,JP4*%
X137166666Y-83597380D02*
X137166666Y-84311666D01*
X137119047Y-84454523D01*
X137023809Y-84549761D01*
X136880952Y-84597380D01*
X136785714Y-84597380D01*
X137642857Y-84597380D02*
X137642857Y-83597380D01*
X138023809Y-83597380D01*
X138119047Y-83645000D01*
X138166666Y-83692619D01*
X138214285Y-83787857D01*
X138214285Y-83930714D01*
X138166666Y-84025952D01*
X138119047Y-84073571D01*
X138023809Y-84121190D01*
X137642857Y-84121190D01*
X139071428Y-83930714D02*
X139071428Y-84597380D01*
X138833333Y-83549761D02*
X138595238Y-84264047D01*
X139214285Y-84264047D01*
%TO.C,CF0A1*%
X159525000Y-83862142D02*
X159477380Y-83909761D01*
X159334523Y-83957380D01*
X159239285Y-83957380D01*
X159096428Y-83909761D01*
X159001190Y-83814523D01*
X158953571Y-83719285D01*
X158905952Y-83528809D01*
X158905952Y-83385952D01*
X158953571Y-83195476D01*
X159001190Y-83100238D01*
X159096428Y-83005000D01*
X159239285Y-82957380D01*
X159334523Y-82957380D01*
X159477380Y-83005000D01*
X159525000Y-83052619D01*
X160286904Y-83433571D02*
X159953571Y-83433571D01*
X159953571Y-83957380D02*
X159953571Y-82957380D01*
X160429761Y-82957380D01*
X161001190Y-82957380D02*
X161096428Y-82957380D01*
X161191666Y-83005000D01*
X161239285Y-83052619D01*
X161286904Y-83147857D01*
X161334523Y-83338333D01*
X161334523Y-83576428D01*
X161286904Y-83766904D01*
X161239285Y-83862142D01*
X161191666Y-83909761D01*
X161096428Y-83957380D01*
X161001190Y-83957380D01*
X160905952Y-83909761D01*
X160858333Y-83862142D01*
X160810714Y-83766904D01*
X160763095Y-83576428D01*
X160763095Y-83338333D01*
X160810714Y-83147857D01*
X160858333Y-83052619D01*
X160905952Y-83005000D01*
X161001190Y-82957380D01*
X161715476Y-83671666D02*
X162191666Y-83671666D01*
X161620238Y-83957380D02*
X161953571Y-82957380D01*
X162286904Y-83957380D01*
X163144047Y-83957380D02*
X162572619Y-83957380D01*
X162858333Y-83957380D02*
X162858333Y-82957380D01*
X162763095Y-83100238D01*
X162667857Y-83195476D01*
X162572619Y-83243095D01*
%TO.C,C7*%
X195957142Y-102606666D02*
X196004761Y-102654285D01*
X196052380Y-102797142D01*
X196052380Y-102892380D01*
X196004761Y-103035238D01*
X195909523Y-103130476D01*
X195814285Y-103178095D01*
X195623809Y-103225714D01*
X195480952Y-103225714D01*
X195290476Y-103178095D01*
X195195238Y-103130476D01*
X195100000Y-103035238D01*
X195052380Y-102892380D01*
X195052380Y-102797142D01*
X195100000Y-102654285D01*
X195147619Y-102606666D01*
X195052380Y-102273333D02*
X195052380Y-101606666D01*
X196052380Y-102035238D01*
%TO.C,RCLIP_ERROR_0*%
X166022380Y-63085119D02*
X165546190Y-63418452D01*
X166022380Y-63656547D02*
X165022380Y-63656547D01*
X165022380Y-63275595D01*
X165070000Y-63180357D01*
X165117619Y-63132738D01*
X165212857Y-63085119D01*
X165355714Y-63085119D01*
X165450952Y-63132738D01*
X165498571Y-63180357D01*
X165546190Y-63275595D01*
X165546190Y-63656547D01*
X165927142Y-62085119D02*
X165974761Y-62132738D01*
X166022380Y-62275595D01*
X166022380Y-62370833D01*
X165974761Y-62513690D01*
X165879523Y-62608928D01*
X165784285Y-62656547D01*
X165593809Y-62704166D01*
X165450952Y-62704166D01*
X165260476Y-62656547D01*
X165165238Y-62608928D01*
X165070000Y-62513690D01*
X165022380Y-62370833D01*
X165022380Y-62275595D01*
X165070000Y-62132738D01*
X165117619Y-62085119D01*
X166022380Y-61180357D02*
X166022380Y-61656547D01*
X165022380Y-61656547D01*
X166022380Y-60847023D02*
X165022380Y-60847023D01*
X166022380Y-60370833D02*
X165022380Y-60370833D01*
X165022380Y-59989880D01*
X165070000Y-59894642D01*
X165117619Y-59847023D01*
X165212857Y-59799404D01*
X165355714Y-59799404D01*
X165450952Y-59847023D01*
X165498571Y-59894642D01*
X165546190Y-59989880D01*
X165546190Y-60370833D01*
X166117619Y-59608928D02*
X166117619Y-58847023D01*
X165498571Y-58608928D02*
X165498571Y-58275595D01*
X166022380Y-58132738D02*
X166022380Y-58608928D01*
X165022380Y-58608928D01*
X165022380Y-58132738D01*
X166022380Y-57132738D02*
X165546190Y-57466071D01*
X166022380Y-57704166D02*
X165022380Y-57704166D01*
X165022380Y-57323214D01*
X165070000Y-57227976D01*
X165117619Y-57180357D01*
X165212857Y-57132738D01*
X165355714Y-57132738D01*
X165450952Y-57180357D01*
X165498571Y-57227976D01*
X165546190Y-57323214D01*
X165546190Y-57704166D01*
X166022380Y-56132738D02*
X165546190Y-56466071D01*
X166022380Y-56704166D02*
X165022380Y-56704166D01*
X165022380Y-56323214D01*
X165070000Y-56227976D01*
X165117619Y-56180357D01*
X165212857Y-56132738D01*
X165355714Y-56132738D01*
X165450952Y-56180357D01*
X165498571Y-56227976D01*
X165546190Y-56323214D01*
X165546190Y-56704166D01*
X165022380Y-55513690D02*
X165022380Y-55323214D01*
X165070000Y-55227976D01*
X165165238Y-55132738D01*
X165355714Y-55085119D01*
X165689047Y-55085119D01*
X165879523Y-55132738D01*
X165974761Y-55227976D01*
X166022380Y-55323214D01*
X166022380Y-55513690D01*
X165974761Y-55608928D01*
X165879523Y-55704166D01*
X165689047Y-55751785D01*
X165355714Y-55751785D01*
X165165238Y-55704166D01*
X165070000Y-55608928D01*
X165022380Y-55513690D01*
X166022380Y-54085119D02*
X165546190Y-54418452D01*
X166022380Y-54656547D02*
X165022380Y-54656547D01*
X165022380Y-54275595D01*
X165070000Y-54180357D01*
X165117619Y-54132738D01*
X165212857Y-54085119D01*
X165355714Y-54085119D01*
X165450952Y-54132738D01*
X165498571Y-54180357D01*
X165546190Y-54275595D01*
X165546190Y-54656547D01*
X166117619Y-53894642D02*
X166117619Y-53132738D01*
X165022380Y-52704166D02*
X165022380Y-52608928D01*
X165070000Y-52513690D01*
X165117619Y-52466071D01*
X165212857Y-52418452D01*
X165403333Y-52370833D01*
X165641428Y-52370833D01*
X165831904Y-52418452D01*
X165927142Y-52466071D01*
X165974761Y-52513690D01*
X166022380Y-52608928D01*
X166022380Y-52704166D01*
X165974761Y-52799404D01*
X165927142Y-52847023D01*
X165831904Y-52894642D01*
X165641428Y-52942261D01*
X165403333Y-52942261D01*
X165212857Y-52894642D01*
X165117619Y-52847023D01*
X165070000Y-52799404D01*
X165022380Y-52704166D01*
%TO.C,C11*%
X195957142Y-122582857D02*
X196004761Y-122630476D01*
X196052380Y-122773333D01*
X196052380Y-122868571D01*
X196004761Y-123011428D01*
X195909523Y-123106666D01*
X195814285Y-123154285D01*
X195623809Y-123201904D01*
X195480952Y-123201904D01*
X195290476Y-123154285D01*
X195195238Y-123106666D01*
X195100000Y-123011428D01*
X195052380Y-122868571D01*
X195052380Y-122773333D01*
X195100000Y-122630476D01*
X195147619Y-122582857D01*
X196052380Y-121630476D02*
X196052380Y-122201904D01*
X196052380Y-121916190D02*
X195052380Y-121916190D01*
X195195238Y-122011428D01*
X195290476Y-122106666D01*
X195338095Y-122201904D01*
X196052380Y-120678095D02*
X196052380Y-121249523D01*
X196052380Y-120963809D02*
X195052380Y-120963809D01*
X195195238Y-121059047D01*
X195290476Y-121154285D01*
X195338095Y-121249523D01*
%TO.C,CIN0*%
X129211428Y-60007142D02*
X129163809Y-60054761D01*
X129020952Y-60102380D01*
X128925714Y-60102380D01*
X128782857Y-60054761D01*
X128687619Y-59959523D01*
X128640000Y-59864285D01*
X128592380Y-59673809D01*
X128592380Y-59530952D01*
X128640000Y-59340476D01*
X128687619Y-59245238D01*
X128782857Y-59150000D01*
X128925714Y-59102380D01*
X129020952Y-59102380D01*
X129163809Y-59150000D01*
X129211428Y-59197619D01*
X129640000Y-60102380D02*
X129640000Y-59102380D01*
X130116190Y-60102380D02*
X130116190Y-59102380D01*
X130687619Y-60102380D01*
X130687619Y-59102380D01*
X131354285Y-59102380D02*
X131449523Y-59102380D01*
X131544761Y-59150000D01*
X131592380Y-59197619D01*
X131640000Y-59292857D01*
X131687619Y-59483333D01*
X131687619Y-59721428D01*
X131640000Y-59911904D01*
X131592380Y-60007142D01*
X131544761Y-60054761D01*
X131449523Y-60102380D01*
X131354285Y-60102380D01*
X131259047Y-60054761D01*
X131211428Y-60007142D01*
X131163809Y-59911904D01*
X131116190Y-59721428D01*
X131116190Y-59483333D01*
X131163809Y-59292857D01*
X131211428Y-59197619D01*
X131259047Y-59150000D01*
X131354285Y-59102380D01*
%TO.C,U2*%
X143933095Y-50927380D02*
X143933095Y-51736904D01*
X143980714Y-51832142D01*
X144028333Y-51879761D01*
X144123571Y-51927380D01*
X144314047Y-51927380D01*
X144409285Y-51879761D01*
X144456904Y-51832142D01*
X144504523Y-51736904D01*
X144504523Y-50927380D01*
X144933095Y-51022619D02*
X144980714Y-50975000D01*
X145075952Y-50927380D01*
X145314047Y-50927380D01*
X145409285Y-50975000D01*
X145456904Y-51022619D01*
X145504523Y-51117857D01*
X145504523Y-51213095D01*
X145456904Y-51355952D01*
X144885476Y-51927380D01*
X145504523Y-51927380D01*
%TO.C,C4*%
X202707142Y-90606666D02*
X202754761Y-90654285D01*
X202802380Y-90797142D01*
X202802380Y-90892380D01*
X202754761Y-91035238D01*
X202659523Y-91130476D01*
X202564285Y-91178095D01*
X202373809Y-91225714D01*
X202230952Y-91225714D01*
X202040476Y-91178095D01*
X201945238Y-91130476D01*
X201850000Y-91035238D01*
X201802380Y-90892380D01*
X201802380Y-90797142D01*
X201850000Y-90654285D01*
X201897619Y-90606666D01*
X202135714Y-89749523D02*
X202802380Y-89749523D01*
X201754761Y-89987619D02*
X202469047Y-90225714D01*
X202469047Y-89606666D01*
%TO.C,CPVDD0B3*%
X127093571Y-70707142D02*
X127045952Y-70754761D01*
X126903095Y-70802380D01*
X126807857Y-70802380D01*
X126665000Y-70754761D01*
X126569761Y-70659523D01*
X126522142Y-70564285D01*
X126474523Y-70373809D01*
X126474523Y-70230952D01*
X126522142Y-70040476D01*
X126569761Y-69945238D01*
X126665000Y-69850000D01*
X126807857Y-69802380D01*
X126903095Y-69802380D01*
X127045952Y-69850000D01*
X127093571Y-69897619D01*
X127522142Y-70802380D02*
X127522142Y-69802380D01*
X127903095Y-69802380D01*
X127998333Y-69850000D01*
X128045952Y-69897619D01*
X128093571Y-69992857D01*
X128093571Y-70135714D01*
X128045952Y-70230952D01*
X127998333Y-70278571D01*
X127903095Y-70326190D01*
X127522142Y-70326190D01*
X128379285Y-69802380D02*
X128712619Y-70802380D01*
X129045952Y-69802380D01*
X129379285Y-70802380D02*
X129379285Y-69802380D01*
X129617380Y-69802380D01*
X129760238Y-69850000D01*
X129855476Y-69945238D01*
X129903095Y-70040476D01*
X129950714Y-70230952D01*
X129950714Y-70373809D01*
X129903095Y-70564285D01*
X129855476Y-70659523D01*
X129760238Y-70754761D01*
X129617380Y-70802380D01*
X129379285Y-70802380D01*
X130379285Y-70802380D02*
X130379285Y-69802380D01*
X130617380Y-69802380D01*
X130760238Y-69850000D01*
X130855476Y-69945238D01*
X130903095Y-70040476D01*
X130950714Y-70230952D01*
X130950714Y-70373809D01*
X130903095Y-70564285D01*
X130855476Y-70659523D01*
X130760238Y-70754761D01*
X130617380Y-70802380D01*
X130379285Y-70802380D01*
X131569761Y-69802380D02*
X131665000Y-69802380D01*
X131760238Y-69850000D01*
X131807857Y-69897619D01*
X131855476Y-69992857D01*
X131903095Y-70183333D01*
X131903095Y-70421428D01*
X131855476Y-70611904D01*
X131807857Y-70707142D01*
X131760238Y-70754761D01*
X131665000Y-70802380D01*
X131569761Y-70802380D01*
X131474523Y-70754761D01*
X131426904Y-70707142D01*
X131379285Y-70611904D01*
X131331666Y-70421428D01*
X131331666Y-70183333D01*
X131379285Y-69992857D01*
X131426904Y-69897619D01*
X131474523Y-69850000D01*
X131569761Y-69802380D01*
X132665000Y-70278571D02*
X132807857Y-70326190D01*
X132855476Y-70373809D01*
X132903095Y-70469047D01*
X132903095Y-70611904D01*
X132855476Y-70707142D01*
X132807857Y-70754761D01*
X132712619Y-70802380D01*
X132331666Y-70802380D01*
X132331666Y-69802380D01*
X132665000Y-69802380D01*
X132760238Y-69850000D01*
X132807857Y-69897619D01*
X132855476Y-69992857D01*
X132855476Y-70088095D01*
X132807857Y-70183333D01*
X132760238Y-70230952D01*
X132665000Y-70278571D01*
X132331666Y-70278571D01*
X133236428Y-69802380D02*
X133855476Y-69802380D01*
X133522142Y-70183333D01*
X133665000Y-70183333D01*
X133760238Y-70230952D01*
X133807857Y-70278571D01*
X133855476Y-70373809D01*
X133855476Y-70611904D01*
X133807857Y-70707142D01*
X133760238Y-70754761D01*
X133665000Y-70802380D01*
X133379285Y-70802380D01*
X133284047Y-70754761D01*
X133236428Y-70707142D01*
%TO.C,CSUP2*%
X156465656Y-113962142D02*
X156418037Y-114009761D01*
X156275180Y-114057380D01*
X156179942Y-114057380D01*
X156037084Y-114009761D01*
X155941846Y-113914523D01*
X155894227Y-113819285D01*
X155846608Y-113628809D01*
X155846608Y-113485952D01*
X155894227Y-113295476D01*
X155941846Y-113200238D01*
X156037084Y-113105000D01*
X156179942Y-113057380D01*
X156275180Y-113057380D01*
X156418037Y-113105000D01*
X156465656Y-113152619D01*
X156846608Y-114009761D02*
X156989465Y-114057380D01*
X157227561Y-114057380D01*
X157322799Y-114009761D01*
X157370418Y-113962142D01*
X157418037Y-113866904D01*
X157418037Y-113771666D01*
X157370418Y-113676428D01*
X157322799Y-113628809D01*
X157227561Y-113581190D01*
X157037084Y-113533571D01*
X156941846Y-113485952D01*
X156894227Y-113438333D01*
X156846608Y-113343095D01*
X156846608Y-113247857D01*
X156894227Y-113152619D01*
X156941846Y-113105000D01*
X157037084Y-113057380D01*
X157275180Y-113057380D01*
X157418037Y-113105000D01*
X157846608Y-113057380D02*
X157846608Y-113866904D01*
X157894227Y-113962142D01*
X157941846Y-114009761D01*
X158037084Y-114057380D01*
X158227561Y-114057380D01*
X158322799Y-114009761D01*
X158370418Y-113962142D01*
X158418037Y-113866904D01*
X158418037Y-113057380D01*
X158894227Y-114057380D02*
X158894227Y-113057380D01*
X159275180Y-113057380D01*
X159370418Y-113105000D01*
X159418037Y-113152619D01*
X159465656Y-113247857D01*
X159465656Y-113390714D01*
X159418037Y-113485952D01*
X159370418Y-113533571D01*
X159275180Y-113581190D01*
X158894227Y-113581190D01*
X159846608Y-113152619D02*
X159894227Y-113105000D01*
X159989465Y-113057380D01*
X160227561Y-113057380D01*
X160322799Y-113105000D01*
X160370418Y-113152619D01*
X160418037Y-113247857D01*
X160418037Y-113343095D01*
X160370418Y-113485952D01*
X159798989Y-114057380D01*
X160418037Y-114057380D01*
%TO.C,CCREF0*%
X142452380Y-91062142D02*
X142404761Y-91109761D01*
X142261904Y-91157380D01*
X142166666Y-91157380D01*
X142023809Y-91109761D01*
X141928571Y-91014523D01*
X141880952Y-90919285D01*
X141833333Y-90728809D01*
X141833333Y-90585952D01*
X141880952Y-90395476D01*
X141928571Y-90300238D01*
X142023809Y-90205000D01*
X142166666Y-90157380D01*
X142261904Y-90157380D01*
X142404761Y-90205000D01*
X142452380Y-90252619D01*
X143452380Y-91062142D02*
X143404761Y-91109761D01*
X143261904Y-91157380D01*
X143166666Y-91157380D01*
X143023809Y-91109761D01*
X142928571Y-91014523D01*
X142880952Y-90919285D01*
X142833333Y-90728809D01*
X142833333Y-90585952D01*
X142880952Y-90395476D01*
X142928571Y-90300238D01*
X143023809Y-90205000D01*
X143166666Y-90157380D01*
X143261904Y-90157380D01*
X143404761Y-90205000D01*
X143452380Y-90252619D01*
X144452380Y-91157380D02*
X144119047Y-90681190D01*
X143880952Y-91157380D02*
X143880952Y-90157380D01*
X144261904Y-90157380D01*
X144357142Y-90205000D01*
X144404761Y-90252619D01*
X144452380Y-90347857D01*
X144452380Y-90490714D01*
X144404761Y-90585952D01*
X144357142Y-90633571D01*
X144261904Y-90681190D01*
X143880952Y-90681190D01*
X144880952Y-90633571D02*
X145214285Y-90633571D01*
X145357142Y-91157380D02*
X144880952Y-91157380D01*
X144880952Y-90157380D01*
X145357142Y-90157380D01*
X146119047Y-90633571D02*
X145785714Y-90633571D01*
X145785714Y-91157380D02*
X145785714Y-90157380D01*
X146261904Y-90157380D01*
X146833333Y-90157380D02*
X146928571Y-90157380D01*
X147023809Y-90205000D01*
X147071428Y-90252619D01*
X147119047Y-90347857D01*
X147166666Y-90538333D01*
X147166666Y-90776428D01*
X147119047Y-90966904D01*
X147071428Y-91062142D01*
X147023809Y-91109761D01*
X146928571Y-91157380D01*
X146833333Y-91157380D01*
X146738095Y-91109761D01*
X146690476Y-91062142D01*
X146642857Y-90966904D01*
X146595238Y-90776428D01*
X146595238Y-90538333D01*
X146642857Y-90347857D01*
X146690476Y-90252619D01*
X146738095Y-90205000D01*
X146833333Y-90157380D01*
%TO.C,COUTBUCK2*%
X153570952Y-60412142D02*
X153523333Y-60459761D01*
X153380476Y-60507380D01*
X153285238Y-60507380D01*
X153142380Y-60459761D01*
X153047142Y-60364523D01*
X152999523Y-60269285D01*
X152951904Y-60078809D01*
X152951904Y-59935952D01*
X152999523Y-59745476D01*
X153047142Y-59650238D01*
X153142380Y-59555000D01*
X153285238Y-59507380D01*
X153380476Y-59507380D01*
X153523333Y-59555000D01*
X153570952Y-59602619D01*
X154190000Y-59507380D02*
X154380476Y-59507380D01*
X154475714Y-59555000D01*
X154570952Y-59650238D01*
X154618571Y-59840714D01*
X154618571Y-60174047D01*
X154570952Y-60364523D01*
X154475714Y-60459761D01*
X154380476Y-60507380D01*
X154190000Y-60507380D01*
X154094761Y-60459761D01*
X153999523Y-60364523D01*
X153951904Y-60174047D01*
X153951904Y-59840714D01*
X153999523Y-59650238D01*
X154094761Y-59555000D01*
X154190000Y-59507380D01*
X155047142Y-59507380D02*
X155047142Y-60316904D01*
X155094761Y-60412142D01*
X155142380Y-60459761D01*
X155237619Y-60507380D01*
X155428095Y-60507380D01*
X155523333Y-60459761D01*
X155570952Y-60412142D01*
X155618571Y-60316904D01*
X155618571Y-59507380D01*
X155951904Y-59507380D02*
X156523333Y-59507380D01*
X156237619Y-60507380D02*
X156237619Y-59507380D01*
X157190000Y-59983571D02*
X157332857Y-60031190D01*
X157380476Y-60078809D01*
X157428095Y-60174047D01*
X157428095Y-60316904D01*
X157380476Y-60412142D01*
X157332857Y-60459761D01*
X157237619Y-60507380D01*
X156856666Y-60507380D01*
X156856666Y-59507380D01*
X157190000Y-59507380D01*
X157285238Y-59555000D01*
X157332857Y-59602619D01*
X157380476Y-59697857D01*
X157380476Y-59793095D01*
X157332857Y-59888333D01*
X157285238Y-59935952D01*
X157190000Y-59983571D01*
X156856666Y-59983571D01*
X157856666Y-59507380D02*
X157856666Y-60316904D01*
X157904285Y-60412142D01*
X157951904Y-60459761D01*
X158047142Y-60507380D01*
X158237619Y-60507380D01*
X158332857Y-60459761D01*
X158380476Y-60412142D01*
X158428095Y-60316904D01*
X158428095Y-59507380D01*
X159475714Y-60412142D02*
X159428095Y-60459761D01*
X159285238Y-60507380D01*
X159190000Y-60507380D01*
X159047142Y-60459761D01*
X158951904Y-60364523D01*
X158904285Y-60269285D01*
X158856666Y-60078809D01*
X158856666Y-59935952D01*
X158904285Y-59745476D01*
X158951904Y-59650238D01*
X159047142Y-59555000D01*
X159190000Y-59507380D01*
X159285238Y-59507380D01*
X159428095Y-59555000D01*
X159475714Y-59602619D01*
X159904285Y-60507380D02*
X159904285Y-59507380D01*
X160475714Y-60507380D02*
X160047142Y-59935952D01*
X160475714Y-59507380D02*
X159904285Y-60078809D01*
X160856666Y-59602619D02*
X160904285Y-59555000D01*
X160999523Y-59507380D01*
X161237619Y-59507380D01*
X161332857Y-59555000D01*
X161380476Y-59602619D01*
X161428095Y-59697857D01*
X161428095Y-59793095D01*
X161380476Y-59935952D01*
X160809047Y-60507380D01*
X161428095Y-60507380D01*
%TO.C,RIN0B1*%
X124382380Y-89942261D02*
X123906190Y-90275595D01*
X124382380Y-90513690D02*
X123382380Y-90513690D01*
X123382380Y-90132738D01*
X123430000Y-90037500D01*
X123477619Y-89989880D01*
X123572857Y-89942261D01*
X123715714Y-89942261D01*
X123810952Y-89989880D01*
X123858571Y-90037500D01*
X123906190Y-90132738D01*
X123906190Y-90513690D01*
X124382380Y-89513690D02*
X123382380Y-89513690D01*
X124382380Y-89037500D02*
X123382380Y-89037500D01*
X124382380Y-88466071D01*
X123382380Y-88466071D01*
X123382380Y-87799404D02*
X123382380Y-87704166D01*
X123430000Y-87608928D01*
X123477619Y-87561309D01*
X123572857Y-87513690D01*
X123763333Y-87466071D01*
X124001428Y-87466071D01*
X124191904Y-87513690D01*
X124287142Y-87561309D01*
X124334761Y-87608928D01*
X124382380Y-87704166D01*
X124382380Y-87799404D01*
X124334761Y-87894642D01*
X124287142Y-87942261D01*
X124191904Y-87989880D01*
X124001428Y-88037500D01*
X123763333Y-88037500D01*
X123572857Y-87989880D01*
X123477619Y-87942261D01*
X123430000Y-87894642D01*
X123382380Y-87799404D01*
X123858571Y-86704166D02*
X123906190Y-86561309D01*
X123953809Y-86513690D01*
X124049047Y-86466071D01*
X124191904Y-86466071D01*
X124287142Y-86513690D01*
X124334761Y-86561309D01*
X124382380Y-86656547D01*
X124382380Y-87037500D01*
X123382380Y-87037500D01*
X123382380Y-86704166D01*
X123430000Y-86608928D01*
X123477619Y-86561309D01*
X123572857Y-86513690D01*
X123668095Y-86513690D01*
X123763333Y-86561309D01*
X123810952Y-86608928D01*
X123858571Y-86704166D01*
X123858571Y-87037500D01*
X124382380Y-85513690D02*
X124382380Y-86085119D01*
X124382380Y-85799404D02*
X123382380Y-85799404D01*
X123525238Y-85894642D01*
X123620476Y-85989880D01*
X123668095Y-86085119D01*
%TO.C,CAPIN0A1*%
X141738095Y-93507142D02*
X141690476Y-93554761D01*
X141547619Y-93602380D01*
X141452380Y-93602380D01*
X141309523Y-93554761D01*
X141214285Y-93459523D01*
X141166666Y-93364285D01*
X141119047Y-93173809D01*
X141119047Y-93030952D01*
X141166666Y-92840476D01*
X141214285Y-92745238D01*
X141309523Y-92650000D01*
X141452380Y-92602380D01*
X141547619Y-92602380D01*
X141690476Y-92650000D01*
X141738095Y-92697619D01*
X142119047Y-93316666D02*
X142595238Y-93316666D01*
X142023809Y-93602380D02*
X142357142Y-92602380D01*
X142690476Y-93602380D01*
X143023809Y-93602380D02*
X143023809Y-92602380D01*
X143404761Y-92602380D01*
X143500000Y-92650000D01*
X143547619Y-92697619D01*
X143595238Y-92792857D01*
X143595238Y-92935714D01*
X143547619Y-93030952D01*
X143500000Y-93078571D01*
X143404761Y-93126190D01*
X143023809Y-93126190D01*
X144023809Y-93602380D02*
X144023809Y-92602380D01*
X144500000Y-93602380D02*
X144500000Y-92602380D01*
X145071428Y-93602380D01*
X145071428Y-92602380D01*
X145738095Y-92602380D02*
X145833333Y-92602380D01*
X145928571Y-92650000D01*
X145976190Y-92697619D01*
X146023809Y-92792857D01*
X146071428Y-92983333D01*
X146071428Y-93221428D01*
X146023809Y-93411904D01*
X145976190Y-93507142D01*
X145928571Y-93554761D01*
X145833333Y-93602380D01*
X145738095Y-93602380D01*
X145642857Y-93554761D01*
X145595238Y-93507142D01*
X145547619Y-93411904D01*
X145500000Y-93221428D01*
X145500000Y-92983333D01*
X145547619Y-92792857D01*
X145595238Y-92697619D01*
X145642857Y-92650000D01*
X145738095Y-92602380D01*
X146452380Y-93316666D02*
X146928571Y-93316666D01*
X146357142Y-93602380D02*
X146690476Y-92602380D01*
X147023809Y-93602380D01*
X147880952Y-93602380D02*
X147309523Y-93602380D01*
X147595238Y-93602380D02*
X147595238Y-92602380D01*
X147500000Y-92745238D01*
X147404761Y-92840476D01*
X147309523Y-92888095D01*
%TO.C,CAPIN0B1*%
X141666666Y-90507142D02*
X141619047Y-90554761D01*
X141476190Y-90602380D01*
X141380952Y-90602380D01*
X141238095Y-90554761D01*
X141142857Y-90459523D01*
X141095238Y-90364285D01*
X141047619Y-90173809D01*
X141047619Y-90030952D01*
X141095238Y-89840476D01*
X141142857Y-89745238D01*
X141238095Y-89650000D01*
X141380952Y-89602380D01*
X141476190Y-89602380D01*
X141619047Y-89650000D01*
X141666666Y-89697619D01*
X142047619Y-90316666D02*
X142523809Y-90316666D01*
X141952380Y-90602380D02*
X142285714Y-89602380D01*
X142619047Y-90602380D01*
X142952380Y-90602380D02*
X142952380Y-89602380D01*
X143333333Y-89602380D01*
X143428571Y-89650000D01*
X143476190Y-89697619D01*
X143523809Y-89792857D01*
X143523809Y-89935714D01*
X143476190Y-90030952D01*
X143428571Y-90078571D01*
X143333333Y-90126190D01*
X142952380Y-90126190D01*
X143952380Y-90602380D02*
X143952380Y-89602380D01*
X144428571Y-90602380D02*
X144428571Y-89602380D01*
X145000000Y-90602380D01*
X145000000Y-89602380D01*
X145666666Y-89602380D02*
X145761904Y-89602380D01*
X145857142Y-89650000D01*
X145904761Y-89697619D01*
X145952380Y-89792857D01*
X146000000Y-89983333D01*
X146000000Y-90221428D01*
X145952380Y-90411904D01*
X145904761Y-90507142D01*
X145857142Y-90554761D01*
X145761904Y-90602380D01*
X145666666Y-90602380D01*
X145571428Y-90554761D01*
X145523809Y-90507142D01*
X145476190Y-90411904D01*
X145428571Y-90221428D01*
X145428571Y-89983333D01*
X145476190Y-89792857D01*
X145523809Y-89697619D01*
X145571428Y-89650000D01*
X145666666Y-89602380D01*
X146761904Y-90078571D02*
X146904761Y-90126190D01*
X146952380Y-90173809D01*
X147000000Y-90269047D01*
X147000000Y-90411904D01*
X146952380Y-90507142D01*
X146904761Y-90554761D01*
X146809523Y-90602380D01*
X146428571Y-90602380D01*
X146428571Y-89602380D01*
X146761904Y-89602380D01*
X146857142Y-89650000D01*
X146904761Y-89697619D01*
X146952380Y-89792857D01*
X146952380Y-89888095D01*
X146904761Y-89983333D01*
X146857142Y-90030952D01*
X146761904Y-90078571D01*
X146428571Y-90078571D01*
X147952380Y-90602380D02*
X147380952Y-90602380D01*
X147666666Y-90602380D02*
X147666666Y-89602380D01*
X147571428Y-89745238D01*
X147476190Y-89840476D01*
X147380952Y-89888095D01*
%TO.C,L2*%
X178883333Y-83492380D02*
X178407142Y-83492380D01*
X178407142Y-82492380D01*
X179169047Y-82587619D02*
X179216666Y-82540000D01*
X179311904Y-82492380D01*
X179550000Y-82492380D01*
X179645238Y-82540000D01*
X179692857Y-82587619D01*
X179740476Y-82682857D01*
X179740476Y-82778095D01*
X179692857Y-82920952D01*
X179121428Y-83492380D01*
X179740476Y-83492380D01*
%TO.C,R3*%
X194372380Y-109144166D02*
X193896190Y-109477500D01*
X194372380Y-109715595D02*
X193372380Y-109715595D01*
X193372380Y-109334642D01*
X193420000Y-109239404D01*
X193467619Y-109191785D01*
X193562857Y-109144166D01*
X193705714Y-109144166D01*
X193800952Y-109191785D01*
X193848571Y-109239404D01*
X193896190Y-109334642D01*
X193896190Y-109715595D01*
X193372380Y-108810833D02*
X193372380Y-108191785D01*
X193753333Y-108525119D01*
X193753333Y-108382261D01*
X193800952Y-108287023D01*
X193848571Y-108239404D01*
X193943809Y-108191785D01*
X194181904Y-108191785D01*
X194277142Y-108239404D01*
X194324761Y-108287023D01*
X194372380Y-108382261D01*
X194372380Y-108667976D01*
X194324761Y-108763214D01*
X194277142Y-108810833D01*
%TO.C,RMUTE1*%
X151022380Y-116912738D02*
X150546190Y-117246071D01*
X151022380Y-117484166D02*
X150022380Y-117484166D01*
X150022380Y-117103214D01*
X150070000Y-117007976D01*
X150117619Y-116960357D01*
X150212857Y-116912738D01*
X150355714Y-116912738D01*
X150450952Y-116960357D01*
X150498571Y-117007976D01*
X150546190Y-117103214D01*
X150546190Y-117484166D01*
X151022380Y-116484166D02*
X150022380Y-116484166D01*
X150736666Y-116150833D01*
X150022380Y-115817500D01*
X151022380Y-115817500D01*
X150022380Y-115341309D02*
X150831904Y-115341309D01*
X150927142Y-115293690D01*
X150974761Y-115246071D01*
X151022380Y-115150833D01*
X151022380Y-114960357D01*
X150974761Y-114865119D01*
X150927142Y-114817500D01*
X150831904Y-114769880D01*
X150022380Y-114769880D01*
X150022380Y-114436547D02*
X150022380Y-113865119D01*
X151022380Y-114150833D02*
X150022380Y-114150833D01*
X150498571Y-113531785D02*
X150498571Y-113198452D01*
X151022380Y-113055595D02*
X151022380Y-113531785D01*
X150022380Y-113531785D01*
X150022380Y-113055595D01*
X151022380Y-112103214D02*
X151022380Y-112674642D01*
X151022380Y-112388928D02*
X150022380Y-112388928D01*
X150165238Y-112484166D01*
X150260476Y-112579404D01*
X150308095Y-112674642D01*
%TO.C,H2*%
X114238095Y-45452380D02*
X114238095Y-44452380D01*
X114238095Y-44928571D02*
X114809523Y-44928571D01*
X114809523Y-45452380D02*
X114809523Y-44452380D01*
X115238095Y-44547619D02*
X115285714Y-44500000D01*
X115380952Y-44452380D01*
X115619047Y-44452380D01*
X115714285Y-44500000D01*
X115761904Y-44547619D01*
X115809523Y-44642857D01*
X115809523Y-44738095D01*
X115761904Y-44880952D01*
X115190476Y-45452380D01*
X115809523Y-45452380D01*
%TO.C,CLIP_LED_0*%
X168617142Y-54428571D02*
X168664761Y-54476190D01*
X168712380Y-54619047D01*
X168712380Y-54714285D01*
X168664761Y-54857142D01*
X168569523Y-54952380D01*
X168474285Y-55000000D01*
X168283809Y-55047619D01*
X168140952Y-55047619D01*
X167950476Y-55000000D01*
X167855238Y-54952380D01*
X167760000Y-54857142D01*
X167712380Y-54714285D01*
X167712380Y-54619047D01*
X167760000Y-54476190D01*
X167807619Y-54428571D01*
X168712380Y-53523809D02*
X168712380Y-54000000D01*
X167712380Y-54000000D01*
X168712380Y-53190476D02*
X167712380Y-53190476D01*
X168712380Y-52714285D02*
X167712380Y-52714285D01*
X167712380Y-52333333D01*
X167760000Y-52238095D01*
X167807619Y-52190476D01*
X167902857Y-52142857D01*
X168045714Y-52142857D01*
X168140952Y-52190476D01*
X168188571Y-52238095D01*
X168236190Y-52333333D01*
X168236190Y-52714285D01*
X168807619Y-51952380D02*
X168807619Y-51190476D01*
X168712380Y-50476190D02*
X168712380Y-50952380D01*
X167712380Y-50952380D01*
X168188571Y-50142857D02*
X168188571Y-49809523D01*
X168712380Y-49666666D02*
X168712380Y-50142857D01*
X167712380Y-50142857D01*
X167712380Y-49666666D01*
X168712380Y-49238095D02*
X167712380Y-49238095D01*
X167712380Y-49000000D01*
X167760000Y-48857142D01*
X167855238Y-48761904D01*
X167950476Y-48714285D01*
X168140952Y-48666666D01*
X168283809Y-48666666D01*
X168474285Y-48714285D01*
X168569523Y-48761904D01*
X168664761Y-48857142D01*
X168712380Y-49000000D01*
X168712380Y-49238095D01*
X168807619Y-48476190D02*
X168807619Y-47714285D01*
X167712380Y-47285714D02*
X167712380Y-47190476D01*
X167760000Y-47095238D01*
X167807619Y-47047619D01*
X167902857Y-47000000D01*
X168093333Y-46952380D01*
X168331428Y-46952380D01*
X168521904Y-47000000D01*
X168617142Y-47047619D01*
X168664761Y-47095238D01*
X168712380Y-47190476D01*
X168712380Y-47285714D01*
X168664761Y-47380952D01*
X168617142Y-47428571D01*
X168521904Y-47476190D01*
X168331428Y-47523809D01*
X168093333Y-47523809D01*
X167902857Y-47476190D01*
X167807619Y-47428571D01*
X167760000Y-47380952D01*
X167712380Y-47285714D01*
%TO.C,L3*%
X178883333Y-98097380D02*
X178407142Y-98097380D01*
X178407142Y-97097380D01*
X179121428Y-97097380D02*
X179740476Y-97097380D01*
X179407142Y-97478333D01*
X179550000Y-97478333D01*
X179645238Y-97525952D01*
X179692857Y-97573571D01*
X179740476Y-97668809D01*
X179740476Y-97906904D01*
X179692857Y-98002142D01*
X179645238Y-98049761D01*
X179550000Y-98097380D01*
X179264285Y-98097380D01*
X179169047Y-98049761D01*
X179121428Y-98002142D01*
%TO.C,RCLK1*%
X130522380Y-97821428D02*
X130046190Y-98154761D01*
X130522380Y-98392857D02*
X129522380Y-98392857D01*
X129522380Y-98011904D01*
X129570000Y-97916666D01*
X129617619Y-97869047D01*
X129712857Y-97821428D01*
X129855714Y-97821428D01*
X129950952Y-97869047D01*
X129998571Y-97916666D01*
X130046190Y-98011904D01*
X130046190Y-98392857D01*
X130427142Y-96821428D02*
X130474761Y-96869047D01*
X130522380Y-97011904D01*
X130522380Y-97107142D01*
X130474761Y-97250000D01*
X130379523Y-97345238D01*
X130284285Y-97392857D01*
X130093809Y-97440476D01*
X129950952Y-97440476D01*
X129760476Y-97392857D01*
X129665238Y-97345238D01*
X129570000Y-97250000D01*
X129522380Y-97107142D01*
X129522380Y-97011904D01*
X129570000Y-96869047D01*
X129617619Y-96821428D01*
X130522380Y-95916666D02*
X130522380Y-96392857D01*
X129522380Y-96392857D01*
X130522380Y-95583333D02*
X129522380Y-95583333D01*
X130522380Y-95011904D02*
X129950952Y-95440476D01*
X129522380Y-95011904D02*
X130093809Y-95583333D01*
X130522380Y-94059523D02*
X130522380Y-94630952D01*
X130522380Y-94345238D02*
X129522380Y-94345238D01*
X129665238Y-94440476D01*
X129760476Y-94535714D01*
X129808095Y-94630952D01*
%TO.C,H4*%
X209238095Y-45452380D02*
X209238095Y-44452380D01*
X209238095Y-44928571D02*
X209809523Y-44928571D01*
X209809523Y-45452380D02*
X209809523Y-44452380D01*
X210714285Y-44785714D02*
X210714285Y-45452380D01*
X210476190Y-44404761D02*
X210238095Y-45119047D01*
X210857142Y-45119047D01*
%TO.C,CGD0N1*%
X165069585Y-90632142D02*
X165021966Y-90679761D01*
X164879109Y-90727380D01*
X164783871Y-90727380D01*
X164641013Y-90679761D01*
X164545775Y-90584523D01*
X164498156Y-90489285D01*
X164450537Y-90298809D01*
X164450537Y-90155952D01*
X164498156Y-89965476D01*
X164545775Y-89870238D01*
X164641013Y-89775000D01*
X164783871Y-89727380D01*
X164879109Y-89727380D01*
X165021966Y-89775000D01*
X165069585Y-89822619D01*
X166021966Y-89775000D02*
X165926728Y-89727380D01*
X165783871Y-89727380D01*
X165641013Y-89775000D01*
X165545775Y-89870238D01*
X165498156Y-89965476D01*
X165450537Y-90155952D01*
X165450537Y-90298809D01*
X165498156Y-90489285D01*
X165545775Y-90584523D01*
X165641013Y-90679761D01*
X165783871Y-90727380D01*
X165879109Y-90727380D01*
X166021966Y-90679761D01*
X166069585Y-90632142D01*
X166069585Y-90298809D01*
X165879109Y-90298809D01*
X166498156Y-90727380D02*
X166498156Y-89727380D01*
X166736252Y-89727380D01*
X166879109Y-89775000D01*
X166974347Y-89870238D01*
X167021966Y-89965476D01*
X167069585Y-90155952D01*
X167069585Y-90298809D01*
X167021966Y-90489285D01*
X166974347Y-90584523D01*
X166879109Y-90679761D01*
X166736252Y-90727380D01*
X166498156Y-90727380D01*
X167688632Y-89727380D02*
X167783871Y-89727380D01*
X167879109Y-89775000D01*
X167926728Y-89822619D01*
X167974347Y-89917857D01*
X168021966Y-90108333D01*
X168021966Y-90346428D01*
X167974347Y-90536904D01*
X167926728Y-90632142D01*
X167879109Y-90679761D01*
X167783871Y-90727380D01*
X167688632Y-90727380D01*
X167593394Y-90679761D01*
X167545775Y-90632142D01*
X167498156Y-90536904D01*
X167450537Y-90346428D01*
X167450537Y-90108333D01*
X167498156Y-89917857D01*
X167545775Y-89822619D01*
X167593394Y-89775000D01*
X167688632Y-89727380D01*
X168450537Y-90727380D02*
X168450537Y-89727380D01*
X169021966Y-90727380D01*
X169021966Y-89727380D01*
X170021966Y-90727380D02*
X169450537Y-90727380D01*
X169736252Y-90727380D02*
X169736252Y-89727380D01*
X169641013Y-89870238D01*
X169545775Y-89965476D01*
X169450537Y-90013095D01*
%TO.C,L5*%
X178883333Y-127307380D02*
X178407142Y-127307380D01*
X178407142Y-126307380D01*
X179692857Y-126307380D02*
X179216666Y-126307380D01*
X179169047Y-126783571D01*
X179216666Y-126735952D01*
X179311904Y-126688333D01*
X179550000Y-126688333D01*
X179645238Y-126735952D01*
X179692857Y-126783571D01*
X179740476Y-126878809D01*
X179740476Y-127116904D01*
X179692857Y-127212142D01*
X179645238Y-127259761D01*
X179550000Y-127307380D01*
X179311904Y-127307380D01*
X179216666Y-127259761D01*
X179169047Y-127212142D01*
%TO.C,COUTBUCK0*%
X154615952Y-47702142D02*
X154568333Y-47749761D01*
X154425476Y-47797380D01*
X154330238Y-47797380D01*
X154187380Y-47749761D01*
X154092142Y-47654523D01*
X154044523Y-47559285D01*
X153996904Y-47368809D01*
X153996904Y-47225952D01*
X154044523Y-47035476D01*
X154092142Y-46940238D01*
X154187380Y-46845000D01*
X154330238Y-46797380D01*
X154425476Y-46797380D01*
X154568333Y-46845000D01*
X154615952Y-46892619D01*
X155235000Y-46797380D02*
X155425476Y-46797380D01*
X155520714Y-46845000D01*
X155615952Y-46940238D01*
X155663571Y-47130714D01*
X155663571Y-47464047D01*
X155615952Y-47654523D01*
X155520714Y-47749761D01*
X155425476Y-47797380D01*
X155235000Y-47797380D01*
X155139761Y-47749761D01*
X155044523Y-47654523D01*
X154996904Y-47464047D01*
X154996904Y-47130714D01*
X155044523Y-46940238D01*
X155139761Y-46845000D01*
X155235000Y-46797380D01*
X156092142Y-46797380D02*
X156092142Y-47606904D01*
X156139761Y-47702142D01*
X156187380Y-47749761D01*
X156282619Y-47797380D01*
X156473095Y-47797380D01*
X156568333Y-47749761D01*
X156615952Y-47702142D01*
X156663571Y-47606904D01*
X156663571Y-46797380D01*
X156996904Y-46797380D02*
X157568333Y-46797380D01*
X157282619Y-47797380D02*
X157282619Y-46797380D01*
X158235000Y-47273571D02*
X158377857Y-47321190D01*
X158425476Y-47368809D01*
X158473095Y-47464047D01*
X158473095Y-47606904D01*
X158425476Y-47702142D01*
X158377857Y-47749761D01*
X158282619Y-47797380D01*
X157901666Y-47797380D01*
X157901666Y-46797380D01*
X158235000Y-46797380D01*
X158330238Y-46845000D01*
X158377857Y-46892619D01*
X158425476Y-46987857D01*
X158425476Y-47083095D01*
X158377857Y-47178333D01*
X158330238Y-47225952D01*
X158235000Y-47273571D01*
X157901666Y-47273571D01*
X158901666Y-46797380D02*
X158901666Y-47606904D01*
X158949285Y-47702142D01*
X158996904Y-47749761D01*
X159092142Y-47797380D01*
X159282619Y-47797380D01*
X159377857Y-47749761D01*
X159425476Y-47702142D01*
X159473095Y-47606904D01*
X159473095Y-46797380D01*
X160520714Y-47702142D02*
X160473095Y-47749761D01*
X160330238Y-47797380D01*
X160235000Y-47797380D01*
X160092142Y-47749761D01*
X159996904Y-47654523D01*
X159949285Y-47559285D01*
X159901666Y-47368809D01*
X159901666Y-47225952D01*
X159949285Y-47035476D01*
X159996904Y-46940238D01*
X160092142Y-46845000D01*
X160235000Y-46797380D01*
X160330238Y-46797380D01*
X160473095Y-46845000D01*
X160520714Y-46892619D01*
X160949285Y-47797380D02*
X160949285Y-46797380D01*
X161520714Y-47797380D02*
X161092142Y-47225952D01*
X161520714Y-46797380D02*
X160949285Y-47368809D01*
X162139761Y-46797380D02*
X162235000Y-46797380D01*
X162330238Y-46845000D01*
X162377857Y-46892619D01*
X162425476Y-46987857D01*
X162473095Y-47178333D01*
X162473095Y-47416428D01*
X162425476Y-47606904D01*
X162377857Y-47702142D01*
X162330238Y-47749761D01*
X162235000Y-47797380D01*
X162139761Y-47797380D01*
X162044523Y-47749761D01*
X161996904Y-47702142D01*
X161949285Y-47606904D01*
X161901666Y-47416428D01*
X161901666Y-47178333D01*
X161949285Y-46987857D01*
X161996904Y-46892619D01*
X162044523Y-46845000D01*
X162139761Y-46797380D01*
%TO.C,RIN1B1*%
X128022380Y-98154761D02*
X127546190Y-98488095D01*
X128022380Y-98726190D02*
X127022380Y-98726190D01*
X127022380Y-98345238D01*
X127070000Y-98250000D01*
X127117619Y-98202380D01*
X127212857Y-98154761D01*
X127355714Y-98154761D01*
X127450952Y-98202380D01*
X127498571Y-98250000D01*
X127546190Y-98345238D01*
X127546190Y-98726190D01*
X128022380Y-97726190D02*
X127022380Y-97726190D01*
X128022380Y-97250000D02*
X127022380Y-97250000D01*
X128022380Y-96678571D01*
X127022380Y-96678571D01*
X128022380Y-95678571D02*
X128022380Y-96250000D01*
X128022380Y-95964285D02*
X127022380Y-95964285D01*
X127165238Y-96059523D01*
X127260476Y-96154761D01*
X127308095Y-96250000D01*
X127498571Y-94916666D02*
X127546190Y-94773809D01*
X127593809Y-94726190D01*
X127689047Y-94678571D01*
X127831904Y-94678571D01*
X127927142Y-94726190D01*
X127974761Y-94773809D01*
X128022380Y-94869047D01*
X128022380Y-95250000D01*
X127022380Y-95250000D01*
X127022380Y-94916666D01*
X127070000Y-94821428D01*
X127117619Y-94773809D01*
X127212857Y-94726190D01*
X127308095Y-94726190D01*
X127403333Y-94773809D01*
X127450952Y-94821428D01*
X127498571Y-94916666D01*
X127498571Y-95250000D01*
X128022380Y-93726190D02*
X128022380Y-94297619D01*
X128022380Y-94011904D02*
X127022380Y-94011904D01*
X127165238Y-94107142D01*
X127260476Y-94202380D01*
X127308095Y-94297619D01*
%TO.C,CSUP1*%
X155965656Y-71462142D02*
X155918037Y-71509761D01*
X155775180Y-71557380D01*
X155679942Y-71557380D01*
X155537084Y-71509761D01*
X155441846Y-71414523D01*
X155394227Y-71319285D01*
X155346608Y-71128809D01*
X155346608Y-70985952D01*
X155394227Y-70795476D01*
X155441846Y-70700238D01*
X155537084Y-70605000D01*
X155679942Y-70557380D01*
X155775180Y-70557380D01*
X155918037Y-70605000D01*
X155965656Y-70652619D01*
X156346608Y-71509761D02*
X156489465Y-71557380D01*
X156727561Y-71557380D01*
X156822799Y-71509761D01*
X156870418Y-71462142D01*
X156918037Y-71366904D01*
X156918037Y-71271666D01*
X156870418Y-71176428D01*
X156822799Y-71128809D01*
X156727561Y-71081190D01*
X156537084Y-71033571D01*
X156441846Y-70985952D01*
X156394227Y-70938333D01*
X156346608Y-70843095D01*
X156346608Y-70747857D01*
X156394227Y-70652619D01*
X156441846Y-70605000D01*
X156537084Y-70557380D01*
X156775180Y-70557380D01*
X156918037Y-70605000D01*
X157346608Y-70557380D02*
X157346608Y-71366904D01*
X157394227Y-71462142D01*
X157441846Y-71509761D01*
X157537084Y-71557380D01*
X157727561Y-71557380D01*
X157822799Y-71509761D01*
X157870418Y-71462142D01*
X157918037Y-71366904D01*
X157918037Y-70557380D01*
X158394227Y-71557380D02*
X158394227Y-70557380D01*
X158775180Y-70557380D01*
X158870418Y-70605000D01*
X158918037Y-70652619D01*
X158965656Y-70747857D01*
X158965656Y-70890714D01*
X158918037Y-70985952D01*
X158870418Y-71033571D01*
X158775180Y-71081190D01*
X158394227Y-71081190D01*
X159918037Y-71557380D02*
X159346608Y-71557380D01*
X159632323Y-71557380D02*
X159632323Y-70557380D01*
X159537084Y-70700238D01*
X159441846Y-70795476D01*
X159346608Y-70843095D01*
%TO.C,CGD1N1*%
X159083333Y-108257142D02*
X159035714Y-108304761D01*
X158892857Y-108352380D01*
X158797619Y-108352380D01*
X158654761Y-108304761D01*
X158559523Y-108209523D01*
X158511904Y-108114285D01*
X158464285Y-107923809D01*
X158464285Y-107780952D01*
X158511904Y-107590476D01*
X158559523Y-107495238D01*
X158654761Y-107400000D01*
X158797619Y-107352380D01*
X158892857Y-107352380D01*
X159035714Y-107400000D01*
X159083333Y-107447619D01*
X160035714Y-107400000D02*
X159940476Y-107352380D01*
X159797619Y-107352380D01*
X159654761Y-107400000D01*
X159559523Y-107495238D01*
X159511904Y-107590476D01*
X159464285Y-107780952D01*
X159464285Y-107923809D01*
X159511904Y-108114285D01*
X159559523Y-108209523D01*
X159654761Y-108304761D01*
X159797619Y-108352380D01*
X159892857Y-108352380D01*
X160035714Y-108304761D01*
X160083333Y-108257142D01*
X160083333Y-107923809D01*
X159892857Y-107923809D01*
X160511904Y-108352380D02*
X160511904Y-107352380D01*
X160750000Y-107352380D01*
X160892857Y-107400000D01*
X160988095Y-107495238D01*
X161035714Y-107590476D01*
X161083333Y-107780952D01*
X161083333Y-107923809D01*
X161035714Y-108114285D01*
X160988095Y-108209523D01*
X160892857Y-108304761D01*
X160750000Y-108352380D01*
X160511904Y-108352380D01*
X162035714Y-108352380D02*
X161464285Y-108352380D01*
X161750000Y-108352380D02*
X161750000Y-107352380D01*
X161654761Y-107495238D01*
X161559523Y-107590476D01*
X161464285Y-107638095D01*
X162464285Y-108352380D02*
X162464285Y-107352380D01*
X163035714Y-108352380D01*
X163035714Y-107352380D01*
X164035714Y-108352380D02*
X163464285Y-108352380D01*
X163750000Y-108352380D02*
X163750000Y-107352380D01*
X163654761Y-107495238D01*
X163559523Y-107590476D01*
X163464285Y-107638095D01*
%TO.C,RB_FB2*%
X142681309Y-62272380D02*
X142347976Y-61796190D01*
X142109880Y-62272380D02*
X142109880Y-61272380D01*
X142490833Y-61272380D01*
X142586071Y-61320000D01*
X142633690Y-61367619D01*
X142681309Y-61462857D01*
X142681309Y-61605714D01*
X142633690Y-61700952D01*
X142586071Y-61748571D01*
X142490833Y-61796190D01*
X142109880Y-61796190D01*
X143443214Y-61748571D02*
X143586071Y-61796190D01*
X143633690Y-61843809D01*
X143681309Y-61939047D01*
X143681309Y-62081904D01*
X143633690Y-62177142D01*
X143586071Y-62224761D01*
X143490833Y-62272380D01*
X143109880Y-62272380D01*
X143109880Y-61272380D01*
X143443214Y-61272380D01*
X143538452Y-61320000D01*
X143586071Y-61367619D01*
X143633690Y-61462857D01*
X143633690Y-61558095D01*
X143586071Y-61653333D01*
X143538452Y-61700952D01*
X143443214Y-61748571D01*
X143109880Y-61748571D01*
X143871785Y-62367619D02*
X144633690Y-62367619D01*
X145205119Y-61748571D02*
X144871785Y-61748571D01*
X144871785Y-62272380D02*
X144871785Y-61272380D01*
X145347976Y-61272380D01*
X146062261Y-61748571D02*
X146205119Y-61796190D01*
X146252738Y-61843809D01*
X146300357Y-61939047D01*
X146300357Y-62081904D01*
X146252738Y-62177142D01*
X146205119Y-62224761D01*
X146109880Y-62272380D01*
X145728928Y-62272380D01*
X145728928Y-61272380D01*
X146062261Y-61272380D01*
X146157500Y-61320000D01*
X146205119Y-61367619D01*
X146252738Y-61462857D01*
X146252738Y-61558095D01*
X146205119Y-61653333D01*
X146157500Y-61700952D01*
X146062261Y-61748571D01*
X145728928Y-61748571D01*
X146681309Y-61367619D02*
X146728928Y-61320000D01*
X146824166Y-61272380D01*
X147062261Y-61272380D01*
X147157500Y-61320000D01*
X147205119Y-61367619D01*
X147252738Y-61462857D01*
X147252738Y-61558095D01*
X147205119Y-61700952D01*
X146633690Y-62272380D01*
X147252738Y-62272380D01*
%TO.C,CGD1N0*%
X164583333Y-111957142D02*
X164535714Y-112004761D01*
X164392857Y-112052380D01*
X164297619Y-112052380D01*
X164154761Y-112004761D01*
X164059523Y-111909523D01*
X164011904Y-111814285D01*
X163964285Y-111623809D01*
X163964285Y-111480952D01*
X164011904Y-111290476D01*
X164059523Y-111195238D01*
X164154761Y-111100000D01*
X164297619Y-111052380D01*
X164392857Y-111052380D01*
X164535714Y-111100000D01*
X164583333Y-111147619D01*
X165535714Y-111100000D02*
X165440476Y-111052380D01*
X165297619Y-111052380D01*
X165154761Y-111100000D01*
X165059523Y-111195238D01*
X165011904Y-111290476D01*
X164964285Y-111480952D01*
X164964285Y-111623809D01*
X165011904Y-111814285D01*
X165059523Y-111909523D01*
X165154761Y-112004761D01*
X165297619Y-112052380D01*
X165392857Y-112052380D01*
X165535714Y-112004761D01*
X165583333Y-111957142D01*
X165583333Y-111623809D01*
X165392857Y-111623809D01*
X166011904Y-112052380D02*
X166011904Y-111052380D01*
X166250000Y-111052380D01*
X166392857Y-111100000D01*
X166488095Y-111195238D01*
X166535714Y-111290476D01*
X166583333Y-111480952D01*
X166583333Y-111623809D01*
X166535714Y-111814285D01*
X166488095Y-111909523D01*
X166392857Y-112004761D01*
X166250000Y-112052380D01*
X166011904Y-112052380D01*
X167535714Y-112052380D02*
X166964285Y-112052380D01*
X167250000Y-112052380D02*
X167250000Y-111052380D01*
X167154761Y-111195238D01*
X167059523Y-111290476D01*
X166964285Y-111338095D01*
X167964285Y-112052380D02*
X167964285Y-111052380D01*
X168535714Y-112052380D01*
X168535714Y-111052380D01*
X169202380Y-111052380D02*
X169297619Y-111052380D01*
X169392857Y-111100000D01*
X169440476Y-111147619D01*
X169488095Y-111242857D01*
X169535714Y-111433333D01*
X169535714Y-111671428D01*
X169488095Y-111861904D01*
X169440476Y-111957142D01*
X169392857Y-112004761D01*
X169297619Y-112052380D01*
X169202380Y-112052380D01*
X169107142Y-112004761D01*
X169059523Y-111957142D01*
X169011904Y-111861904D01*
X168964285Y-111671428D01*
X168964285Y-111433333D01*
X169011904Y-111242857D01*
X169059523Y-111147619D01*
X169107142Y-111100000D01*
X169202380Y-111052380D01*
%TO.C,JP2*%
X153677380Y-58928333D02*
X154391666Y-58928333D01*
X154534523Y-58975952D01*
X154629761Y-59071190D01*
X154677380Y-59214047D01*
X154677380Y-59309285D01*
X154677380Y-58452142D02*
X153677380Y-58452142D01*
X153677380Y-58071190D01*
X153725000Y-57975952D01*
X153772619Y-57928333D01*
X153867857Y-57880714D01*
X154010714Y-57880714D01*
X154105952Y-57928333D01*
X154153571Y-57975952D01*
X154201190Y-58071190D01*
X154201190Y-58452142D01*
X153772619Y-57499761D02*
X153725000Y-57452142D01*
X153677380Y-57356904D01*
X153677380Y-57118809D01*
X153725000Y-57023571D01*
X153772619Y-56975952D01*
X153867857Y-56928333D01*
X153963095Y-56928333D01*
X154105952Y-56975952D01*
X154677380Y-57547380D01*
X154677380Y-56928333D01*
%TO.C,L4*%
X178883333Y-112702380D02*
X178407142Y-112702380D01*
X178407142Y-111702380D01*
X179645238Y-112035714D02*
X179645238Y-112702380D01*
X179407142Y-111654761D02*
X179169047Y-112369047D01*
X179788095Y-112369047D01*
%TO.C,JP3*%
X137166666Y-103347380D02*
X137166666Y-104061666D01*
X137119047Y-104204523D01*
X137023809Y-104299761D01*
X136880952Y-104347380D01*
X136785714Y-104347380D01*
X137642857Y-104347380D02*
X137642857Y-103347380D01*
X138023809Y-103347380D01*
X138119047Y-103395000D01*
X138166666Y-103442619D01*
X138214285Y-103537857D01*
X138214285Y-103680714D01*
X138166666Y-103775952D01*
X138119047Y-103823571D01*
X138023809Y-103871190D01*
X137642857Y-103871190D01*
X138547619Y-103347380D02*
X139166666Y-103347380D01*
X138833333Y-103728333D01*
X138976190Y-103728333D01*
X139071428Y-103775952D01*
X139119047Y-103823571D01*
X139166666Y-103918809D01*
X139166666Y-104156904D01*
X139119047Y-104252142D01*
X139071428Y-104299761D01*
X138976190Y-104347380D01*
X138690476Y-104347380D01*
X138595238Y-104299761D01*
X138547619Y-104252142D01*
%TO.C,CF0B0*%
X148453571Y-87562142D02*
X148405952Y-87609761D01*
X148263095Y-87657380D01*
X148167857Y-87657380D01*
X148025000Y-87609761D01*
X147929761Y-87514523D01*
X147882142Y-87419285D01*
X147834523Y-87228809D01*
X147834523Y-87085952D01*
X147882142Y-86895476D01*
X147929761Y-86800238D01*
X148025000Y-86705000D01*
X148167857Y-86657380D01*
X148263095Y-86657380D01*
X148405952Y-86705000D01*
X148453571Y-86752619D01*
X149215476Y-87133571D02*
X148882142Y-87133571D01*
X148882142Y-87657380D02*
X148882142Y-86657380D01*
X149358333Y-86657380D01*
X149929761Y-86657380D02*
X150025000Y-86657380D01*
X150120238Y-86705000D01*
X150167857Y-86752619D01*
X150215476Y-86847857D01*
X150263095Y-87038333D01*
X150263095Y-87276428D01*
X150215476Y-87466904D01*
X150167857Y-87562142D01*
X150120238Y-87609761D01*
X150025000Y-87657380D01*
X149929761Y-87657380D01*
X149834523Y-87609761D01*
X149786904Y-87562142D01*
X149739285Y-87466904D01*
X149691666Y-87276428D01*
X149691666Y-87038333D01*
X149739285Y-86847857D01*
X149786904Y-86752619D01*
X149834523Y-86705000D01*
X149929761Y-86657380D01*
X151025000Y-87133571D02*
X151167857Y-87181190D01*
X151215476Y-87228809D01*
X151263095Y-87324047D01*
X151263095Y-87466904D01*
X151215476Y-87562142D01*
X151167857Y-87609761D01*
X151072619Y-87657380D01*
X150691666Y-87657380D01*
X150691666Y-86657380D01*
X151025000Y-86657380D01*
X151120238Y-86705000D01*
X151167857Y-86752619D01*
X151215476Y-86847857D01*
X151215476Y-86943095D01*
X151167857Y-87038333D01*
X151120238Y-87085952D01*
X151025000Y-87133571D01*
X150691666Y-87133571D01*
X151882142Y-86657380D02*
X151977380Y-86657380D01*
X152072619Y-86705000D01*
X152120238Y-86752619D01*
X152167857Y-86847857D01*
X152215476Y-87038333D01*
X152215476Y-87276428D01*
X152167857Y-87466904D01*
X152120238Y-87562142D01*
X152072619Y-87609761D01*
X151977380Y-87657380D01*
X151882142Y-87657380D01*
X151786904Y-87609761D01*
X151739285Y-87562142D01*
X151691666Y-87466904D01*
X151644047Y-87276428D01*
X151644047Y-87038333D01*
X151691666Y-86847857D01*
X151739285Y-86752619D01*
X151786904Y-86705000D01*
X151882142Y-86657380D01*
%TO.C,RPVDD1*%
X133532261Y-63772380D02*
X133198928Y-63296190D01*
X132960833Y-63772380D02*
X132960833Y-62772380D01*
X133341785Y-62772380D01*
X133437023Y-62820000D01*
X133484642Y-62867619D01*
X133532261Y-62962857D01*
X133532261Y-63105714D01*
X133484642Y-63200952D01*
X133437023Y-63248571D01*
X133341785Y-63296190D01*
X132960833Y-63296190D01*
X133960833Y-63772380D02*
X133960833Y-62772380D01*
X134341785Y-62772380D01*
X134437023Y-62820000D01*
X134484642Y-62867619D01*
X134532261Y-62962857D01*
X134532261Y-63105714D01*
X134484642Y-63200952D01*
X134437023Y-63248571D01*
X134341785Y-63296190D01*
X133960833Y-63296190D01*
X134817976Y-62772380D02*
X135151309Y-63772380D01*
X135484642Y-62772380D01*
X135817976Y-63772380D02*
X135817976Y-62772380D01*
X136056071Y-62772380D01*
X136198928Y-62820000D01*
X136294166Y-62915238D01*
X136341785Y-63010476D01*
X136389404Y-63200952D01*
X136389404Y-63343809D01*
X136341785Y-63534285D01*
X136294166Y-63629523D01*
X136198928Y-63724761D01*
X136056071Y-63772380D01*
X135817976Y-63772380D01*
X136817976Y-63772380D02*
X136817976Y-62772380D01*
X137056071Y-62772380D01*
X137198928Y-62820000D01*
X137294166Y-62915238D01*
X137341785Y-63010476D01*
X137389404Y-63200952D01*
X137389404Y-63343809D01*
X137341785Y-63534285D01*
X137294166Y-63629523D01*
X137198928Y-63724761D01*
X137056071Y-63772380D01*
X136817976Y-63772380D01*
X138341785Y-63772380D02*
X137770357Y-63772380D01*
X138056071Y-63772380D02*
X138056071Y-62772380D01*
X137960833Y-62915238D01*
X137865595Y-63010476D01*
X137770357Y-63058095D01*
%TO.C,RENABLE1*%
X148022380Y-117746071D02*
X147546190Y-118079404D01*
X148022380Y-118317500D02*
X147022380Y-118317500D01*
X147022380Y-117936547D01*
X147070000Y-117841309D01*
X147117619Y-117793690D01*
X147212857Y-117746071D01*
X147355714Y-117746071D01*
X147450952Y-117793690D01*
X147498571Y-117841309D01*
X147546190Y-117936547D01*
X147546190Y-118317500D01*
X147498571Y-117317500D02*
X147498571Y-116984166D01*
X148022380Y-116841309D02*
X148022380Y-117317500D01*
X147022380Y-117317500D01*
X147022380Y-116841309D01*
X148022380Y-116412738D02*
X147022380Y-116412738D01*
X148022380Y-115841309D01*
X147022380Y-115841309D01*
X147736666Y-115412738D02*
X147736666Y-114936547D01*
X148022380Y-115507976D02*
X147022380Y-115174642D01*
X148022380Y-114841309D01*
X147498571Y-114174642D02*
X147546190Y-114031785D01*
X147593809Y-113984166D01*
X147689047Y-113936547D01*
X147831904Y-113936547D01*
X147927142Y-113984166D01*
X147974761Y-114031785D01*
X148022380Y-114127023D01*
X148022380Y-114507976D01*
X147022380Y-114507976D01*
X147022380Y-114174642D01*
X147070000Y-114079404D01*
X147117619Y-114031785D01*
X147212857Y-113984166D01*
X147308095Y-113984166D01*
X147403333Y-114031785D01*
X147450952Y-114079404D01*
X147498571Y-114174642D01*
X147498571Y-114507976D01*
X148022380Y-113031785D02*
X148022380Y-113507976D01*
X147022380Y-113507976D01*
X147498571Y-112698452D02*
X147498571Y-112365119D01*
X148022380Y-112222261D02*
X148022380Y-112698452D01*
X147022380Y-112698452D01*
X147022380Y-112222261D01*
X148022380Y-111269880D02*
X148022380Y-111841309D01*
X148022380Y-111555595D02*
X147022380Y-111555595D01*
X147165238Y-111650833D01*
X147260476Y-111746071D01*
X147308095Y-111841309D01*
%TO.C,CF1A0*%
X154525000Y-108362142D02*
X154477380Y-108409761D01*
X154334523Y-108457380D01*
X154239285Y-108457380D01*
X154096428Y-108409761D01*
X154001190Y-108314523D01*
X153953571Y-108219285D01*
X153905952Y-108028809D01*
X153905952Y-107885952D01*
X153953571Y-107695476D01*
X154001190Y-107600238D01*
X154096428Y-107505000D01*
X154239285Y-107457380D01*
X154334523Y-107457380D01*
X154477380Y-107505000D01*
X154525000Y-107552619D01*
X155286904Y-107933571D02*
X154953571Y-107933571D01*
X154953571Y-108457380D02*
X154953571Y-107457380D01*
X155429761Y-107457380D01*
X156334523Y-108457380D02*
X155763095Y-108457380D01*
X156048809Y-108457380D02*
X156048809Y-107457380D01*
X155953571Y-107600238D01*
X155858333Y-107695476D01*
X155763095Y-107743095D01*
X156715476Y-108171666D02*
X157191666Y-108171666D01*
X156620238Y-108457380D02*
X156953571Y-107457380D01*
X157286904Y-108457380D01*
X157810714Y-107457380D02*
X157905952Y-107457380D01*
X158001190Y-107505000D01*
X158048809Y-107552619D01*
X158096428Y-107647857D01*
X158144047Y-107838333D01*
X158144047Y-108076428D01*
X158096428Y-108266904D01*
X158048809Y-108362142D01*
X158001190Y-108409761D01*
X157905952Y-108457380D01*
X157810714Y-108457380D01*
X157715476Y-108409761D01*
X157667857Y-108362142D01*
X157620238Y-108266904D01*
X157572619Y-108076428D01*
X157572619Y-107838333D01*
X157620238Y-107647857D01*
X157667857Y-107552619D01*
X157715476Y-107505000D01*
X157810714Y-107457380D01*
%TO.C,COUTBUCK1*%
X153570952Y-63587142D02*
X153523333Y-63634761D01*
X153380476Y-63682380D01*
X153285238Y-63682380D01*
X153142380Y-63634761D01*
X153047142Y-63539523D01*
X152999523Y-63444285D01*
X152951904Y-63253809D01*
X152951904Y-63110952D01*
X152999523Y-62920476D01*
X153047142Y-62825238D01*
X153142380Y-62730000D01*
X153285238Y-62682380D01*
X153380476Y-62682380D01*
X153523333Y-62730000D01*
X153570952Y-62777619D01*
X154190000Y-62682380D02*
X154380476Y-62682380D01*
X154475714Y-62730000D01*
X154570952Y-62825238D01*
X154618571Y-63015714D01*
X154618571Y-63349047D01*
X154570952Y-63539523D01*
X154475714Y-63634761D01*
X154380476Y-63682380D01*
X154190000Y-63682380D01*
X154094761Y-63634761D01*
X153999523Y-63539523D01*
X153951904Y-63349047D01*
X153951904Y-63015714D01*
X153999523Y-62825238D01*
X154094761Y-62730000D01*
X154190000Y-62682380D01*
X155047142Y-62682380D02*
X155047142Y-63491904D01*
X155094761Y-63587142D01*
X155142380Y-63634761D01*
X155237619Y-63682380D01*
X155428095Y-63682380D01*
X155523333Y-63634761D01*
X155570952Y-63587142D01*
X155618571Y-63491904D01*
X155618571Y-62682380D01*
X155951904Y-62682380D02*
X156523333Y-62682380D01*
X156237619Y-63682380D02*
X156237619Y-62682380D01*
X157190000Y-63158571D02*
X157332857Y-63206190D01*
X157380476Y-63253809D01*
X157428095Y-63349047D01*
X157428095Y-63491904D01*
X157380476Y-63587142D01*
X157332857Y-63634761D01*
X157237619Y-63682380D01*
X156856666Y-63682380D01*
X156856666Y-62682380D01*
X157190000Y-62682380D01*
X157285238Y-62730000D01*
X157332857Y-62777619D01*
X157380476Y-62872857D01*
X157380476Y-62968095D01*
X157332857Y-63063333D01*
X157285238Y-63110952D01*
X157190000Y-63158571D01*
X156856666Y-63158571D01*
X157856666Y-62682380D02*
X157856666Y-63491904D01*
X157904285Y-63587142D01*
X157951904Y-63634761D01*
X158047142Y-63682380D01*
X158237619Y-63682380D01*
X158332857Y-63634761D01*
X158380476Y-63587142D01*
X158428095Y-63491904D01*
X158428095Y-62682380D01*
X159475714Y-63587142D02*
X159428095Y-63634761D01*
X159285238Y-63682380D01*
X159190000Y-63682380D01*
X159047142Y-63634761D01*
X158951904Y-63539523D01*
X158904285Y-63444285D01*
X158856666Y-63253809D01*
X158856666Y-63110952D01*
X158904285Y-62920476D01*
X158951904Y-62825238D01*
X159047142Y-62730000D01*
X159190000Y-62682380D01*
X159285238Y-62682380D01*
X159428095Y-62730000D01*
X159475714Y-62777619D01*
X159904285Y-63682380D02*
X159904285Y-62682380D01*
X160475714Y-63682380D02*
X160047142Y-63110952D01*
X160475714Y-62682380D02*
X159904285Y-63253809D01*
X161428095Y-63682380D02*
X160856666Y-63682380D01*
X161142380Y-63682380D02*
X161142380Y-62682380D01*
X161047142Y-62825238D01*
X160951904Y-62920476D01*
X160856666Y-62968095D01*
%TO.C,CCDC0*%
X164883333Y-101362142D02*
X164835714Y-101409761D01*
X164692857Y-101457380D01*
X164597619Y-101457380D01*
X164454761Y-101409761D01*
X164359523Y-101314523D01*
X164311904Y-101219285D01*
X164264285Y-101028809D01*
X164264285Y-100885952D01*
X164311904Y-100695476D01*
X164359523Y-100600238D01*
X164454761Y-100505000D01*
X164597619Y-100457380D01*
X164692857Y-100457380D01*
X164835714Y-100505000D01*
X164883333Y-100552619D01*
X165883333Y-101362142D02*
X165835714Y-101409761D01*
X165692857Y-101457380D01*
X165597619Y-101457380D01*
X165454761Y-101409761D01*
X165359523Y-101314523D01*
X165311904Y-101219285D01*
X165264285Y-101028809D01*
X165264285Y-100885952D01*
X165311904Y-100695476D01*
X165359523Y-100600238D01*
X165454761Y-100505000D01*
X165597619Y-100457380D01*
X165692857Y-100457380D01*
X165835714Y-100505000D01*
X165883333Y-100552619D01*
X166311904Y-101457380D02*
X166311904Y-100457380D01*
X166550000Y-100457380D01*
X166692857Y-100505000D01*
X166788095Y-100600238D01*
X166835714Y-100695476D01*
X166883333Y-100885952D01*
X166883333Y-101028809D01*
X166835714Y-101219285D01*
X166788095Y-101314523D01*
X166692857Y-101409761D01*
X166550000Y-101457380D01*
X166311904Y-101457380D01*
X167883333Y-101362142D02*
X167835714Y-101409761D01*
X167692857Y-101457380D01*
X167597619Y-101457380D01*
X167454761Y-101409761D01*
X167359523Y-101314523D01*
X167311904Y-101219285D01*
X167264285Y-101028809D01*
X167264285Y-100885952D01*
X167311904Y-100695476D01*
X167359523Y-100600238D01*
X167454761Y-100505000D01*
X167597619Y-100457380D01*
X167692857Y-100457380D01*
X167835714Y-100505000D01*
X167883333Y-100552619D01*
X168502380Y-100457380D02*
X168597619Y-100457380D01*
X168692857Y-100505000D01*
X168740476Y-100552619D01*
X168788095Y-100647857D01*
X168835714Y-100838333D01*
X168835714Y-101076428D01*
X168788095Y-101266904D01*
X168740476Y-101362142D01*
X168692857Y-101409761D01*
X168597619Y-101457380D01*
X168502380Y-101457380D01*
X168407142Y-101409761D01*
X168359523Y-101362142D01*
X168311904Y-101266904D01*
X168264285Y-101076428D01*
X168264285Y-100838333D01*
X168311904Y-100647857D01*
X168359523Y-100552619D01*
X168407142Y-100505000D01*
X168502380Y-100457380D01*
%TO.C,CGD0N0*%
X164358333Y-98062142D02*
X164310714Y-98109761D01*
X164167857Y-98157380D01*
X164072619Y-98157380D01*
X163929761Y-98109761D01*
X163834523Y-98014523D01*
X163786904Y-97919285D01*
X163739285Y-97728809D01*
X163739285Y-97585952D01*
X163786904Y-97395476D01*
X163834523Y-97300238D01*
X163929761Y-97205000D01*
X164072619Y-97157380D01*
X164167857Y-97157380D01*
X164310714Y-97205000D01*
X164358333Y-97252619D01*
X165310714Y-97205000D02*
X165215476Y-97157380D01*
X165072619Y-97157380D01*
X164929761Y-97205000D01*
X164834523Y-97300238D01*
X164786904Y-97395476D01*
X164739285Y-97585952D01*
X164739285Y-97728809D01*
X164786904Y-97919285D01*
X164834523Y-98014523D01*
X164929761Y-98109761D01*
X165072619Y-98157380D01*
X165167857Y-98157380D01*
X165310714Y-98109761D01*
X165358333Y-98062142D01*
X165358333Y-97728809D01*
X165167857Y-97728809D01*
X165786904Y-98157380D02*
X165786904Y-97157380D01*
X166025000Y-97157380D01*
X166167857Y-97205000D01*
X166263095Y-97300238D01*
X166310714Y-97395476D01*
X166358333Y-97585952D01*
X166358333Y-97728809D01*
X166310714Y-97919285D01*
X166263095Y-98014523D01*
X166167857Y-98109761D01*
X166025000Y-98157380D01*
X165786904Y-98157380D01*
X166977380Y-97157380D02*
X167072619Y-97157380D01*
X167167857Y-97205000D01*
X167215476Y-97252619D01*
X167263095Y-97347857D01*
X167310714Y-97538333D01*
X167310714Y-97776428D01*
X167263095Y-97966904D01*
X167215476Y-98062142D01*
X167167857Y-98109761D01*
X167072619Y-98157380D01*
X166977380Y-98157380D01*
X166882142Y-98109761D01*
X166834523Y-98062142D01*
X166786904Y-97966904D01*
X166739285Y-97776428D01*
X166739285Y-97538333D01*
X166786904Y-97347857D01*
X166834523Y-97252619D01*
X166882142Y-97205000D01*
X166977380Y-97157380D01*
X167739285Y-98157380D02*
X167739285Y-97157380D01*
X168310714Y-98157380D01*
X168310714Y-97157380D01*
X168977380Y-97157380D02*
X169072619Y-97157380D01*
X169167857Y-97205000D01*
X169215476Y-97252619D01*
X169263095Y-97347857D01*
X169310714Y-97538333D01*
X169310714Y-97776428D01*
X169263095Y-97966904D01*
X169215476Y-98062142D01*
X169167857Y-98109761D01*
X169072619Y-98157380D01*
X168977380Y-98157380D01*
X168882142Y-98109761D01*
X168834523Y-98062142D01*
X168786904Y-97966904D01*
X168739285Y-97776428D01*
X168739285Y-97538333D01*
X168786904Y-97347857D01*
X168834523Y-97252619D01*
X168882142Y-97205000D01*
X168977380Y-97157380D01*
%TO.C,C5*%
X195957142Y-93106666D02*
X196004761Y-93154285D01*
X196052380Y-93297142D01*
X196052380Y-93392380D01*
X196004761Y-93535238D01*
X195909523Y-93630476D01*
X195814285Y-93678095D01*
X195623809Y-93725714D01*
X195480952Y-93725714D01*
X195290476Y-93678095D01*
X195195238Y-93630476D01*
X195100000Y-93535238D01*
X195052380Y-93392380D01*
X195052380Y-93297142D01*
X195100000Y-93154285D01*
X195147619Y-93106666D01*
X195052380Y-92201904D02*
X195052380Y-92678095D01*
X195528571Y-92725714D01*
X195480952Y-92678095D01*
X195433333Y-92582857D01*
X195433333Y-92344761D01*
X195480952Y-92249523D01*
X195528571Y-92201904D01*
X195623809Y-92154285D01*
X195861904Y-92154285D01*
X195957142Y-92201904D01*
X196004761Y-92249523D01*
X196052380Y-92344761D01*
X196052380Y-92582857D01*
X196004761Y-92678095D01*
X195957142Y-92725714D01*
%TO.C,CPVDD0B1*%
X141428571Y-87562142D02*
X141380952Y-87609761D01*
X141238095Y-87657380D01*
X141142857Y-87657380D01*
X141000000Y-87609761D01*
X140904761Y-87514523D01*
X140857142Y-87419285D01*
X140809523Y-87228809D01*
X140809523Y-87085952D01*
X140857142Y-86895476D01*
X140904761Y-86800238D01*
X141000000Y-86705000D01*
X141142857Y-86657380D01*
X141238095Y-86657380D01*
X141380952Y-86705000D01*
X141428571Y-86752619D01*
X141857142Y-87657380D02*
X141857142Y-86657380D01*
X142238095Y-86657380D01*
X142333333Y-86705000D01*
X142380952Y-86752619D01*
X142428571Y-86847857D01*
X142428571Y-86990714D01*
X142380952Y-87085952D01*
X142333333Y-87133571D01*
X142238095Y-87181190D01*
X141857142Y-87181190D01*
X142714285Y-86657380D02*
X143047619Y-87657380D01*
X143380952Y-86657380D01*
X143714285Y-87657380D02*
X143714285Y-86657380D01*
X143952380Y-86657380D01*
X144095238Y-86705000D01*
X144190476Y-86800238D01*
X144238095Y-86895476D01*
X144285714Y-87085952D01*
X144285714Y-87228809D01*
X144238095Y-87419285D01*
X144190476Y-87514523D01*
X144095238Y-87609761D01*
X143952380Y-87657380D01*
X143714285Y-87657380D01*
X144714285Y-87657380D02*
X144714285Y-86657380D01*
X144952380Y-86657380D01*
X145095238Y-86705000D01*
X145190476Y-86800238D01*
X145238095Y-86895476D01*
X145285714Y-87085952D01*
X145285714Y-87228809D01*
X145238095Y-87419285D01*
X145190476Y-87514523D01*
X145095238Y-87609761D01*
X144952380Y-87657380D01*
X144714285Y-87657380D01*
X145904761Y-86657380D02*
X146000000Y-86657380D01*
X146095238Y-86705000D01*
X146142857Y-86752619D01*
X146190476Y-86847857D01*
X146238095Y-87038333D01*
X146238095Y-87276428D01*
X146190476Y-87466904D01*
X146142857Y-87562142D01*
X146095238Y-87609761D01*
X146000000Y-87657380D01*
X145904761Y-87657380D01*
X145809523Y-87609761D01*
X145761904Y-87562142D01*
X145714285Y-87466904D01*
X145666666Y-87276428D01*
X145666666Y-87038333D01*
X145714285Y-86847857D01*
X145761904Y-86752619D01*
X145809523Y-86705000D01*
X145904761Y-86657380D01*
X147000000Y-87133571D02*
X147142857Y-87181190D01*
X147190476Y-87228809D01*
X147238095Y-87324047D01*
X147238095Y-87466904D01*
X147190476Y-87562142D01*
X147142857Y-87609761D01*
X147047619Y-87657380D01*
X146666666Y-87657380D01*
X146666666Y-86657380D01*
X147000000Y-86657380D01*
X147095238Y-86705000D01*
X147142857Y-86752619D01*
X147190476Y-86847857D01*
X147190476Y-86943095D01*
X147142857Y-87038333D01*
X147095238Y-87085952D01*
X147000000Y-87133571D01*
X146666666Y-87133571D01*
X148190476Y-87657380D02*
X147619047Y-87657380D01*
X147904761Y-87657380D02*
X147904761Y-86657380D01*
X147809523Y-86800238D01*
X147714285Y-86895476D01*
X147619047Y-86943095D01*
%TO.C,C10*%
X202707142Y-120082857D02*
X202754761Y-120130476D01*
X202802380Y-120273333D01*
X202802380Y-120368571D01*
X202754761Y-120511428D01*
X202659523Y-120606666D01*
X202564285Y-120654285D01*
X202373809Y-120701904D01*
X202230952Y-120701904D01*
X202040476Y-120654285D01*
X201945238Y-120606666D01*
X201850000Y-120511428D01*
X201802380Y-120368571D01*
X201802380Y-120273333D01*
X201850000Y-120130476D01*
X201897619Y-120082857D01*
X202802380Y-119130476D02*
X202802380Y-119701904D01*
X202802380Y-119416190D02*
X201802380Y-119416190D01*
X201945238Y-119511428D01*
X202040476Y-119606666D01*
X202088095Y-119701904D01*
X201802380Y-118511428D02*
X201802380Y-118416190D01*
X201850000Y-118320952D01*
X201897619Y-118273333D01*
X201992857Y-118225714D01*
X202183333Y-118178095D01*
X202421428Y-118178095D01*
X202611904Y-118225714D01*
X202707142Y-118273333D01*
X202754761Y-118320952D01*
X202802380Y-118416190D01*
X202802380Y-118511428D01*
X202754761Y-118606666D01*
X202707142Y-118654285D01*
X202611904Y-118701904D01*
X202421428Y-118749523D01*
X202183333Y-118749523D01*
X201992857Y-118701904D01*
X201897619Y-118654285D01*
X201850000Y-118606666D01*
X201802380Y-118511428D01*
%TO.C,CIN1*%
X129261428Y-63507142D02*
X129213809Y-63554761D01*
X129070952Y-63602380D01*
X128975714Y-63602380D01*
X128832857Y-63554761D01*
X128737619Y-63459523D01*
X128690000Y-63364285D01*
X128642380Y-63173809D01*
X128642380Y-63030952D01*
X128690000Y-62840476D01*
X128737619Y-62745238D01*
X128832857Y-62650000D01*
X128975714Y-62602380D01*
X129070952Y-62602380D01*
X129213809Y-62650000D01*
X129261428Y-62697619D01*
X129690000Y-63602380D02*
X129690000Y-62602380D01*
X130166190Y-63602380D02*
X130166190Y-62602380D01*
X130737619Y-63602380D01*
X130737619Y-62602380D01*
X131737619Y-63602380D02*
X131166190Y-63602380D01*
X131451904Y-63602380D02*
X131451904Y-62602380D01*
X131356666Y-62745238D01*
X131261428Y-62840476D01*
X131166190Y-62888095D01*
%TO.C,R4*%
X194372380Y-115644166D02*
X193896190Y-115977500D01*
X194372380Y-116215595D02*
X193372380Y-116215595D01*
X193372380Y-115834642D01*
X193420000Y-115739404D01*
X193467619Y-115691785D01*
X193562857Y-115644166D01*
X193705714Y-115644166D01*
X193800952Y-115691785D01*
X193848571Y-115739404D01*
X193896190Y-115834642D01*
X193896190Y-116215595D01*
X193705714Y-114787023D02*
X194372380Y-114787023D01*
X193324761Y-115025119D02*
X194039047Y-115263214D01*
X194039047Y-114644166D01*
%TO.C,C9*%
X202692142Y-105106666D02*
X202739761Y-105154285D01*
X202787380Y-105297142D01*
X202787380Y-105392380D01*
X202739761Y-105535238D01*
X202644523Y-105630476D01*
X202549285Y-105678095D01*
X202358809Y-105725714D01*
X202215952Y-105725714D01*
X202025476Y-105678095D01*
X201930238Y-105630476D01*
X201835000Y-105535238D01*
X201787380Y-105392380D01*
X201787380Y-105297142D01*
X201835000Y-105154285D01*
X201882619Y-105106666D01*
X202787380Y-104630476D02*
X202787380Y-104440000D01*
X202739761Y-104344761D01*
X202692142Y-104297142D01*
X202549285Y-104201904D01*
X202358809Y-104154285D01*
X201977857Y-104154285D01*
X201882619Y-104201904D01*
X201835000Y-104249523D01*
X201787380Y-104344761D01*
X201787380Y-104535238D01*
X201835000Y-104630476D01*
X201882619Y-104678095D01*
X201977857Y-104725714D01*
X202215952Y-104725714D01*
X202311190Y-104678095D01*
X202358809Y-104630476D01*
X202406428Y-104535238D01*
X202406428Y-104344761D01*
X202358809Y-104249523D01*
X202311190Y-104201904D01*
X202215952Y-104154285D01*
%TO.C,CPVDD0A0*%
X152500000Y-91062142D02*
X152452380Y-91109761D01*
X152309523Y-91157380D01*
X152214285Y-91157380D01*
X152071428Y-91109761D01*
X151976190Y-91014523D01*
X151928571Y-90919285D01*
X151880952Y-90728809D01*
X151880952Y-90585952D01*
X151928571Y-90395476D01*
X151976190Y-90300238D01*
X152071428Y-90205000D01*
X152214285Y-90157380D01*
X152309523Y-90157380D01*
X152452380Y-90205000D01*
X152500000Y-90252619D01*
X152928571Y-91157380D02*
X152928571Y-90157380D01*
X153309523Y-90157380D01*
X153404761Y-90205000D01*
X153452380Y-90252619D01*
X153500000Y-90347857D01*
X153500000Y-90490714D01*
X153452380Y-90585952D01*
X153404761Y-90633571D01*
X153309523Y-90681190D01*
X152928571Y-90681190D01*
X153785714Y-90157380D02*
X154119047Y-91157380D01*
X154452380Y-90157380D01*
X154785714Y-91157380D02*
X154785714Y-90157380D01*
X155023809Y-90157380D01*
X155166666Y-90205000D01*
X155261904Y-90300238D01*
X155309523Y-90395476D01*
X155357142Y-90585952D01*
X155357142Y-90728809D01*
X155309523Y-90919285D01*
X155261904Y-91014523D01*
X155166666Y-91109761D01*
X155023809Y-91157380D01*
X154785714Y-91157380D01*
X155785714Y-91157380D02*
X155785714Y-90157380D01*
X156023809Y-90157380D01*
X156166666Y-90205000D01*
X156261904Y-90300238D01*
X156309523Y-90395476D01*
X156357142Y-90585952D01*
X156357142Y-90728809D01*
X156309523Y-90919285D01*
X156261904Y-91014523D01*
X156166666Y-91109761D01*
X156023809Y-91157380D01*
X155785714Y-91157380D01*
X156976190Y-90157380D02*
X157071428Y-90157380D01*
X157166666Y-90205000D01*
X157214285Y-90252619D01*
X157261904Y-90347857D01*
X157309523Y-90538333D01*
X157309523Y-90776428D01*
X157261904Y-90966904D01*
X157214285Y-91062142D01*
X157166666Y-91109761D01*
X157071428Y-91157380D01*
X156976190Y-91157380D01*
X156880952Y-91109761D01*
X156833333Y-91062142D01*
X156785714Y-90966904D01*
X156738095Y-90776428D01*
X156738095Y-90538333D01*
X156785714Y-90347857D01*
X156833333Y-90252619D01*
X156880952Y-90205000D01*
X156976190Y-90157380D01*
X157690476Y-90871666D02*
X158166666Y-90871666D01*
X157595238Y-91157380D02*
X157928571Y-90157380D01*
X158261904Y-91157380D01*
X158785714Y-90157380D02*
X158880952Y-90157380D01*
X158976190Y-90205000D01*
X159023809Y-90252619D01*
X159071428Y-90347857D01*
X159119047Y-90538333D01*
X159119047Y-90776428D01*
X159071428Y-90966904D01*
X159023809Y-91062142D01*
X158976190Y-91109761D01*
X158880952Y-91157380D01*
X158785714Y-91157380D01*
X158690476Y-91109761D01*
X158642857Y-91062142D01*
X158595238Y-90966904D01*
X158547619Y-90776428D01*
X158547619Y-90538333D01*
X158595238Y-90347857D01*
X158642857Y-90252619D01*
X158690476Y-90205000D01*
X158785714Y-90157380D01*
%TO.C,CFGD0*%
X164929761Y-83862142D02*
X164882142Y-83909761D01*
X164739285Y-83957380D01*
X164644047Y-83957380D01*
X164501190Y-83909761D01*
X164405952Y-83814523D01*
X164358333Y-83719285D01*
X164310714Y-83528809D01*
X164310714Y-83385952D01*
X164358333Y-83195476D01*
X164405952Y-83100238D01*
X164501190Y-83005000D01*
X164644047Y-82957380D01*
X164739285Y-82957380D01*
X164882142Y-83005000D01*
X164929761Y-83052619D01*
X165691666Y-83433571D02*
X165358333Y-83433571D01*
X165358333Y-83957380D02*
X165358333Y-82957380D01*
X165834523Y-82957380D01*
X166739285Y-83005000D02*
X166644047Y-82957380D01*
X166501190Y-82957380D01*
X166358333Y-83005000D01*
X166263095Y-83100238D01*
X166215476Y-83195476D01*
X166167857Y-83385952D01*
X166167857Y-83528809D01*
X166215476Y-83719285D01*
X166263095Y-83814523D01*
X166358333Y-83909761D01*
X166501190Y-83957380D01*
X166596428Y-83957380D01*
X166739285Y-83909761D01*
X166786904Y-83862142D01*
X166786904Y-83528809D01*
X166596428Y-83528809D01*
X167215476Y-83957380D02*
X167215476Y-82957380D01*
X167453571Y-82957380D01*
X167596428Y-83005000D01*
X167691666Y-83100238D01*
X167739285Y-83195476D01*
X167786904Y-83385952D01*
X167786904Y-83528809D01*
X167739285Y-83719285D01*
X167691666Y-83814523D01*
X167596428Y-83909761D01*
X167453571Y-83957380D01*
X167215476Y-83957380D01*
X168405952Y-82957380D02*
X168501190Y-82957380D01*
X168596428Y-83005000D01*
X168644047Y-83052619D01*
X168691666Y-83147857D01*
X168739285Y-83338333D01*
X168739285Y-83576428D01*
X168691666Y-83766904D01*
X168644047Y-83862142D01*
X168596428Y-83909761D01*
X168501190Y-83957380D01*
X168405952Y-83957380D01*
X168310714Y-83909761D01*
X168263095Y-83862142D01*
X168215476Y-83766904D01*
X168167857Y-83576428D01*
X168167857Y-83338333D01*
X168215476Y-83147857D01*
X168263095Y-83052619D01*
X168310714Y-83005000D01*
X168405952Y-82957380D01*
%TO.C,RB_PG0*%
X147952380Y-55132380D02*
X147619047Y-54656190D01*
X147380952Y-55132380D02*
X147380952Y-54132380D01*
X147761904Y-54132380D01*
X147857142Y-54180000D01*
X147904761Y-54227619D01*
X147952380Y-54322857D01*
X147952380Y-54465714D01*
X147904761Y-54560952D01*
X147857142Y-54608571D01*
X147761904Y-54656190D01*
X147380952Y-54656190D01*
X148714285Y-54608571D02*
X148857142Y-54656190D01*
X148904761Y-54703809D01*
X148952380Y-54799047D01*
X148952380Y-54941904D01*
X148904761Y-55037142D01*
X148857142Y-55084761D01*
X148761904Y-55132380D01*
X148380952Y-55132380D01*
X148380952Y-54132380D01*
X148714285Y-54132380D01*
X148809523Y-54180000D01*
X148857142Y-54227619D01*
X148904761Y-54322857D01*
X148904761Y-54418095D01*
X148857142Y-54513333D01*
X148809523Y-54560952D01*
X148714285Y-54608571D01*
X148380952Y-54608571D01*
X149142857Y-55227619D02*
X149904761Y-55227619D01*
X150142857Y-55132380D02*
X150142857Y-54132380D01*
X150523809Y-54132380D01*
X150619047Y-54180000D01*
X150666666Y-54227619D01*
X150714285Y-54322857D01*
X150714285Y-54465714D01*
X150666666Y-54560952D01*
X150619047Y-54608571D01*
X150523809Y-54656190D01*
X150142857Y-54656190D01*
X151666666Y-54180000D02*
X151571428Y-54132380D01*
X151428571Y-54132380D01*
X151285714Y-54180000D01*
X151190476Y-54275238D01*
X151142857Y-54370476D01*
X151095238Y-54560952D01*
X151095238Y-54703809D01*
X151142857Y-54894285D01*
X151190476Y-54989523D01*
X151285714Y-55084761D01*
X151428571Y-55132380D01*
X151523809Y-55132380D01*
X151666666Y-55084761D01*
X151714285Y-55037142D01*
X151714285Y-54703809D01*
X151523809Y-54703809D01*
X152333333Y-54132380D02*
X152428571Y-54132380D01*
X152523809Y-54180000D01*
X152571428Y-54227619D01*
X152619047Y-54322857D01*
X152666666Y-54513333D01*
X152666666Y-54751428D01*
X152619047Y-54941904D01*
X152571428Y-55037142D01*
X152523809Y-55084761D01*
X152428571Y-55132380D01*
X152333333Y-55132380D01*
X152238095Y-55084761D01*
X152190476Y-55037142D01*
X152142857Y-54941904D01*
X152095238Y-54751428D01*
X152095238Y-54513333D01*
X152142857Y-54322857D01*
X152190476Y-54227619D01*
X152238095Y-54180000D01*
X152333333Y-54132380D01*
%TO.C,H3*%
X114238095Y-120452380D02*
X114238095Y-119452380D01*
X114238095Y-119928571D02*
X114809523Y-119928571D01*
X114809523Y-120452380D02*
X114809523Y-119452380D01*
X115190476Y-119452380D02*
X115809523Y-119452380D01*
X115476190Y-119833333D01*
X115619047Y-119833333D01*
X115714285Y-119880952D01*
X115761904Y-119928571D01*
X115809523Y-120023809D01*
X115809523Y-120261904D01*
X115761904Y-120357142D01*
X115714285Y-120404761D01*
X115619047Y-120452380D01*
X115333333Y-120452380D01*
X115238095Y-120404761D01*
X115190476Y-120357142D01*
%TO.C,C1*%
X195957142Y-73569166D02*
X196004761Y-73616785D01*
X196052380Y-73759642D01*
X196052380Y-73854880D01*
X196004761Y-73997738D01*
X195909523Y-74092976D01*
X195814285Y-74140595D01*
X195623809Y-74188214D01*
X195480952Y-74188214D01*
X195290476Y-74140595D01*
X195195238Y-74092976D01*
X195100000Y-73997738D01*
X195052380Y-73854880D01*
X195052380Y-73759642D01*
X195100000Y-73616785D01*
X195147619Y-73569166D01*
X196052380Y-72616785D02*
X196052380Y-73188214D01*
X196052380Y-72902500D02*
X195052380Y-72902500D01*
X195195238Y-72997738D01*
X195290476Y-73092976D01*
X195338095Y-73188214D01*
%TO.C,CAPIN1A1*%
X141738095Y-100457142D02*
X141690476Y-100504761D01*
X141547619Y-100552380D01*
X141452380Y-100552380D01*
X141309523Y-100504761D01*
X141214285Y-100409523D01*
X141166666Y-100314285D01*
X141119047Y-100123809D01*
X141119047Y-99980952D01*
X141166666Y-99790476D01*
X141214285Y-99695238D01*
X141309523Y-99600000D01*
X141452380Y-99552380D01*
X141547619Y-99552380D01*
X141690476Y-99600000D01*
X141738095Y-99647619D01*
X142119047Y-100266666D02*
X142595238Y-100266666D01*
X142023809Y-100552380D02*
X142357142Y-99552380D01*
X142690476Y-100552380D01*
X143023809Y-100552380D02*
X143023809Y-99552380D01*
X143404761Y-99552380D01*
X143500000Y-99600000D01*
X143547619Y-99647619D01*
X143595238Y-99742857D01*
X143595238Y-99885714D01*
X143547619Y-99980952D01*
X143500000Y-100028571D01*
X143404761Y-100076190D01*
X143023809Y-100076190D01*
X144023809Y-100552380D02*
X144023809Y-99552380D01*
X144500000Y-100552380D02*
X144500000Y-99552380D01*
X145071428Y-100552380D01*
X145071428Y-99552380D01*
X146071428Y-100552380D02*
X145500000Y-100552380D01*
X145785714Y-100552380D02*
X145785714Y-99552380D01*
X145690476Y-99695238D01*
X145595238Y-99790476D01*
X145500000Y-99838095D01*
X146452380Y-100266666D02*
X146928571Y-100266666D01*
X146357142Y-100552380D02*
X146690476Y-99552380D01*
X147023809Y-100552380D01*
X147880952Y-100552380D02*
X147309523Y-100552380D01*
X147595238Y-100552380D02*
X147595238Y-99552380D01*
X147500000Y-99695238D01*
X147404761Y-99790476D01*
X147309523Y-99838095D01*
%TO.C,RCLIP_LED_0*%
X168712380Y-62003571D02*
X168236190Y-62336904D01*
X168712380Y-62575000D02*
X167712380Y-62575000D01*
X167712380Y-62194047D01*
X167760000Y-62098809D01*
X167807619Y-62051190D01*
X167902857Y-62003571D01*
X168045714Y-62003571D01*
X168140952Y-62051190D01*
X168188571Y-62098809D01*
X168236190Y-62194047D01*
X168236190Y-62575000D01*
X168617142Y-61003571D02*
X168664761Y-61051190D01*
X168712380Y-61194047D01*
X168712380Y-61289285D01*
X168664761Y-61432142D01*
X168569523Y-61527380D01*
X168474285Y-61575000D01*
X168283809Y-61622619D01*
X168140952Y-61622619D01*
X167950476Y-61575000D01*
X167855238Y-61527380D01*
X167760000Y-61432142D01*
X167712380Y-61289285D01*
X167712380Y-61194047D01*
X167760000Y-61051190D01*
X167807619Y-61003571D01*
X168712380Y-60098809D02*
X168712380Y-60575000D01*
X167712380Y-60575000D01*
X168712380Y-59765476D02*
X167712380Y-59765476D01*
X168712380Y-59289285D02*
X167712380Y-59289285D01*
X167712380Y-58908333D01*
X167760000Y-58813095D01*
X167807619Y-58765476D01*
X167902857Y-58717857D01*
X168045714Y-58717857D01*
X168140952Y-58765476D01*
X168188571Y-58813095D01*
X168236190Y-58908333D01*
X168236190Y-59289285D01*
X168807619Y-58527380D02*
X168807619Y-57765476D01*
X168712380Y-57051190D02*
X168712380Y-57527380D01*
X167712380Y-57527380D01*
X168188571Y-56717857D02*
X168188571Y-56384523D01*
X168712380Y-56241666D02*
X168712380Y-56717857D01*
X167712380Y-56717857D01*
X167712380Y-56241666D01*
X168712380Y-55813095D02*
X167712380Y-55813095D01*
X167712380Y-55575000D01*
X167760000Y-55432142D01*
X167855238Y-55336904D01*
X167950476Y-55289285D01*
X168140952Y-55241666D01*
X168283809Y-55241666D01*
X168474285Y-55289285D01*
X168569523Y-55336904D01*
X168664761Y-55432142D01*
X168712380Y-55575000D01*
X168712380Y-55813095D01*
X168807619Y-55051190D02*
X168807619Y-54289285D01*
X167712380Y-53860714D02*
X167712380Y-53765476D01*
X167760000Y-53670238D01*
X167807619Y-53622619D01*
X167902857Y-53575000D01*
X168093333Y-53527380D01*
X168331428Y-53527380D01*
X168521904Y-53575000D01*
X168617142Y-53622619D01*
X168664761Y-53670238D01*
X168712380Y-53765476D01*
X168712380Y-53860714D01*
X168664761Y-53955952D01*
X168617142Y-54003571D01*
X168521904Y-54051190D01*
X168331428Y-54098809D01*
X168093333Y-54098809D01*
X167902857Y-54051190D01*
X167807619Y-54003571D01*
X167760000Y-53955952D01*
X167712380Y-53860714D01*
%TO.C,LSUP0*%
X134362380Y-68329166D02*
X134362380Y-68805357D01*
X133362380Y-68805357D01*
X134314761Y-68043452D02*
X134362380Y-67900595D01*
X134362380Y-67662500D01*
X134314761Y-67567261D01*
X134267142Y-67519642D01*
X134171904Y-67472023D01*
X134076666Y-67472023D01*
X133981428Y-67519642D01*
X133933809Y-67567261D01*
X133886190Y-67662500D01*
X133838571Y-67852976D01*
X133790952Y-67948214D01*
X133743333Y-67995833D01*
X133648095Y-68043452D01*
X133552857Y-68043452D01*
X133457619Y-67995833D01*
X133410000Y-67948214D01*
X133362380Y-67852976D01*
X133362380Y-67614880D01*
X133410000Y-67472023D01*
X133362380Y-67043452D02*
X134171904Y-67043452D01*
X134267142Y-66995833D01*
X134314761Y-66948214D01*
X134362380Y-66852976D01*
X134362380Y-66662500D01*
X134314761Y-66567261D01*
X134267142Y-66519642D01*
X134171904Y-66472023D01*
X133362380Y-66472023D01*
X134362380Y-65995833D02*
X133362380Y-65995833D01*
X133362380Y-65614880D01*
X133410000Y-65519642D01*
X133457619Y-65472023D01*
X133552857Y-65424404D01*
X133695714Y-65424404D01*
X133790952Y-65472023D01*
X133838571Y-65519642D01*
X133886190Y-65614880D01*
X133886190Y-65995833D01*
X133362380Y-64805357D02*
X133362380Y-64710119D01*
X133410000Y-64614880D01*
X133457619Y-64567261D01*
X133552857Y-64519642D01*
X133743333Y-64472023D01*
X133981428Y-64472023D01*
X134171904Y-64519642D01*
X134267142Y-64567261D01*
X134314761Y-64614880D01*
X134362380Y-64710119D01*
X134362380Y-64805357D01*
X134314761Y-64900595D01*
X134267142Y-64948214D01*
X134171904Y-64995833D01*
X133981428Y-65043452D01*
X133743333Y-65043452D01*
X133552857Y-64995833D01*
X133457619Y-64948214D01*
X133410000Y-64900595D01*
X133362380Y-64805357D01*
%TO.C,ERROR_LED_0*%
X165498571Y-55885833D02*
X165498571Y-55552500D01*
X166022380Y-55409642D02*
X166022380Y-55885833D01*
X165022380Y-55885833D01*
X165022380Y-55409642D01*
X166022380Y-54409642D02*
X165546190Y-54742976D01*
X166022380Y-54981071D02*
X165022380Y-54981071D01*
X165022380Y-54600119D01*
X165070000Y-54504880D01*
X165117619Y-54457261D01*
X165212857Y-54409642D01*
X165355714Y-54409642D01*
X165450952Y-54457261D01*
X165498571Y-54504880D01*
X165546190Y-54600119D01*
X165546190Y-54981071D01*
X166022380Y-53409642D02*
X165546190Y-53742976D01*
X166022380Y-53981071D02*
X165022380Y-53981071D01*
X165022380Y-53600119D01*
X165070000Y-53504880D01*
X165117619Y-53457261D01*
X165212857Y-53409642D01*
X165355714Y-53409642D01*
X165450952Y-53457261D01*
X165498571Y-53504880D01*
X165546190Y-53600119D01*
X165546190Y-53981071D01*
X165022380Y-52790595D02*
X165022380Y-52600119D01*
X165070000Y-52504880D01*
X165165238Y-52409642D01*
X165355714Y-52362023D01*
X165689047Y-52362023D01*
X165879523Y-52409642D01*
X165974761Y-52504880D01*
X166022380Y-52600119D01*
X166022380Y-52790595D01*
X165974761Y-52885833D01*
X165879523Y-52981071D01*
X165689047Y-53028690D01*
X165355714Y-53028690D01*
X165165238Y-52981071D01*
X165070000Y-52885833D01*
X165022380Y-52790595D01*
X166022380Y-51362023D02*
X165546190Y-51695357D01*
X166022380Y-51933452D02*
X165022380Y-51933452D01*
X165022380Y-51552500D01*
X165070000Y-51457261D01*
X165117619Y-51409642D01*
X165212857Y-51362023D01*
X165355714Y-51362023D01*
X165450952Y-51409642D01*
X165498571Y-51457261D01*
X165546190Y-51552500D01*
X165546190Y-51933452D01*
X166117619Y-51171547D02*
X166117619Y-50409642D01*
X166022380Y-49695357D02*
X166022380Y-50171547D01*
X165022380Y-50171547D01*
X165498571Y-49362023D02*
X165498571Y-49028690D01*
X166022380Y-48885833D02*
X166022380Y-49362023D01*
X165022380Y-49362023D01*
X165022380Y-48885833D01*
X166022380Y-48457261D02*
X165022380Y-48457261D01*
X165022380Y-48219166D01*
X165070000Y-48076309D01*
X165165238Y-47981071D01*
X165260476Y-47933452D01*
X165450952Y-47885833D01*
X165593809Y-47885833D01*
X165784285Y-47933452D01*
X165879523Y-47981071D01*
X165974761Y-48076309D01*
X166022380Y-48219166D01*
X166022380Y-48457261D01*
X166117619Y-47695357D02*
X166117619Y-46933452D01*
X165022380Y-46504880D02*
X165022380Y-46409642D01*
X165070000Y-46314404D01*
X165117619Y-46266785D01*
X165212857Y-46219166D01*
X165403333Y-46171547D01*
X165641428Y-46171547D01*
X165831904Y-46219166D01*
X165927142Y-46266785D01*
X165974761Y-46314404D01*
X166022380Y-46409642D01*
X166022380Y-46504880D01*
X165974761Y-46600119D01*
X165927142Y-46647738D01*
X165831904Y-46695357D01*
X165641428Y-46742976D01*
X165403333Y-46742976D01*
X165212857Y-46695357D01*
X165117619Y-46647738D01*
X165070000Y-46600119D01*
X165022380Y-46504880D01*
%TO.C,CAPIN1B1*%
X141666666Y-99757142D02*
X141619047Y-99804761D01*
X141476190Y-99852380D01*
X141380952Y-99852380D01*
X141238095Y-99804761D01*
X141142857Y-99709523D01*
X141095238Y-99614285D01*
X141047619Y-99423809D01*
X141047619Y-99280952D01*
X141095238Y-99090476D01*
X141142857Y-98995238D01*
X141238095Y-98900000D01*
X141380952Y-98852380D01*
X141476190Y-98852380D01*
X141619047Y-98900000D01*
X141666666Y-98947619D01*
X142047619Y-99566666D02*
X142523809Y-99566666D01*
X141952380Y-99852380D02*
X142285714Y-98852380D01*
X142619047Y-99852380D01*
X142952380Y-99852380D02*
X142952380Y-98852380D01*
X143333333Y-98852380D01*
X143428571Y-98900000D01*
X143476190Y-98947619D01*
X143523809Y-99042857D01*
X143523809Y-99185714D01*
X143476190Y-99280952D01*
X143428571Y-99328571D01*
X143333333Y-99376190D01*
X142952380Y-99376190D01*
X143952380Y-99852380D02*
X143952380Y-98852380D01*
X144428571Y-99852380D02*
X144428571Y-98852380D01*
X145000000Y-99852380D01*
X145000000Y-98852380D01*
X146000000Y-99852380D02*
X145428571Y-99852380D01*
X145714285Y-99852380D02*
X145714285Y-98852380D01*
X145619047Y-98995238D01*
X145523809Y-99090476D01*
X145428571Y-99138095D01*
X146761904Y-99328571D02*
X146904761Y-99376190D01*
X146952380Y-99423809D01*
X147000000Y-99519047D01*
X147000000Y-99661904D01*
X146952380Y-99757142D01*
X146904761Y-99804761D01*
X146809523Y-99852380D01*
X146428571Y-99852380D01*
X146428571Y-98852380D01*
X146761904Y-98852380D01*
X146857142Y-98900000D01*
X146904761Y-98947619D01*
X146952380Y-99042857D01*
X146952380Y-99138095D01*
X146904761Y-99233333D01*
X146857142Y-99280952D01*
X146761904Y-99328571D01*
X146428571Y-99328571D01*
X147952380Y-99852380D02*
X147380952Y-99852380D01*
X147666666Y-99852380D02*
X147666666Y-98852380D01*
X147571428Y-98995238D01*
X147476190Y-99090476D01*
X147380952Y-99138095D01*
%TO.C,PAUDIO1*%
X119297619Y-82584880D02*
X119297619Y-81584880D01*
X119678571Y-81584880D01*
X119773809Y-81632500D01*
X119821428Y-81680119D01*
X119869047Y-81775357D01*
X119869047Y-81918214D01*
X119821428Y-82013452D01*
X119773809Y-82061071D01*
X119678571Y-82108690D01*
X119297619Y-82108690D01*
X120250000Y-82299166D02*
X120726190Y-82299166D01*
X120154761Y-82584880D02*
X120488095Y-81584880D01*
X120821428Y-82584880D01*
X121154761Y-81584880D02*
X121154761Y-82394404D01*
X121202380Y-82489642D01*
X121250000Y-82537261D01*
X121345238Y-82584880D01*
X121535714Y-82584880D01*
X121630952Y-82537261D01*
X121678571Y-82489642D01*
X121726190Y-82394404D01*
X121726190Y-81584880D01*
X122202380Y-82584880D02*
X122202380Y-81584880D01*
X122440476Y-81584880D01*
X122583333Y-81632500D01*
X122678571Y-81727738D01*
X122726190Y-81822976D01*
X122773809Y-82013452D01*
X122773809Y-82156309D01*
X122726190Y-82346785D01*
X122678571Y-82442023D01*
X122583333Y-82537261D01*
X122440476Y-82584880D01*
X122202380Y-82584880D01*
X123202380Y-82584880D02*
X123202380Y-81584880D01*
X123869047Y-81584880D02*
X124059523Y-81584880D01*
X124154761Y-81632500D01*
X124250000Y-81727738D01*
X124297619Y-81918214D01*
X124297619Y-82251547D01*
X124250000Y-82442023D01*
X124154761Y-82537261D01*
X124059523Y-82584880D01*
X123869047Y-82584880D01*
X123773809Y-82537261D01*
X123678571Y-82442023D01*
X123630952Y-82251547D01*
X123630952Y-81918214D01*
X123678571Y-81727738D01*
X123773809Y-81632500D01*
X123869047Y-81584880D01*
X125250000Y-82584880D02*
X124678571Y-82584880D01*
X124964285Y-82584880D02*
X124964285Y-81584880D01*
X124869047Y-81727738D01*
X124773809Y-81822976D01*
X124678571Y-81870595D01*
%TO.C,CF0B1*%
X148453571Y-91062142D02*
X148405952Y-91109761D01*
X148263095Y-91157380D01*
X148167857Y-91157380D01*
X148025000Y-91109761D01*
X147929761Y-91014523D01*
X147882142Y-90919285D01*
X147834523Y-90728809D01*
X147834523Y-90585952D01*
X147882142Y-90395476D01*
X147929761Y-90300238D01*
X148025000Y-90205000D01*
X148167857Y-90157380D01*
X148263095Y-90157380D01*
X148405952Y-90205000D01*
X148453571Y-90252619D01*
X149215476Y-90633571D02*
X148882142Y-90633571D01*
X148882142Y-91157380D02*
X148882142Y-90157380D01*
X149358333Y-90157380D01*
X149929761Y-90157380D02*
X150025000Y-90157380D01*
X150120238Y-90205000D01*
X150167857Y-90252619D01*
X150215476Y-90347857D01*
X150263095Y-90538333D01*
X150263095Y-90776428D01*
X150215476Y-90966904D01*
X150167857Y-91062142D01*
X150120238Y-91109761D01*
X150025000Y-91157380D01*
X149929761Y-91157380D01*
X149834523Y-91109761D01*
X149786904Y-91062142D01*
X149739285Y-90966904D01*
X149691666Y-90776428D01*
X149691666Y-90538333D01*
X149739285Y-90347857D01*
X149786904Y-90252619D01*
X149834523Y-90205000D01*
X149929761Y-90157380D01*
X151025000Y-90633571D02*
X151167857Y-90681190D01*
X151215476Y-90728809D01*
X151263095Y-90824047D01*
X151263095Y-90966904D01*
X151215476Y-91062142D01*
X151167857Y-91109761D01*
X151072619Y-91157380D01*
X150691666Y-91157380D01*
X150691666Y-90157380D01*
X151025000Y-90157380D01*
X151120238Y-90205000D01*
X151167857Y-90252619D01*
X151215476Y-90347857D01*
X151215476Y-90443095D01*
X151167857Y-90538333D01*
X151120238Y-90585952D01*
X151025000Y-90633571D01*
X150691666Y-90633571D01*
X152215476Y-91157380D02*
X151644047Y-91157380D01*
X151929761Y-91157380D02*
X151929761Y-90157380D01*
X151834523Y-90300238D01*
X151739285Y-90395476D01*
X151644047Y-90443095D01*
%TO.C,H1*%
X209238095Y-120452380D02*
X209238095Y-119452380D01*
X209238095Y-119928571D02*
X209809523Y-119928571D01*
X209809523Y-120452380D02*
X209809523Y-119452380D01*
X210809523Y-120452380D02*
X210238095Y-120452380D01*
X210523809Y-120452380D02*
X210523809Y-119452380D01*
X210428571Y-119595238D01*
X210333333Y-119690476D01*
X210238095Y-119738095D01*
%TO.C,J3*%
X132306666Y-57407380D02*
X132306666Y-58121666D01*
X132259047Y-58264523D01*
X132163809Y-58359761D01*
X132020952Y-58407380D01*
X131925714Y-58407380D01*
X132687619Y-57407380D02*
X133306666Y-57407380D01*
X132973333Y-57788333D01*
X133116190Y-57788333D01*
X133211428Y-57835952D01*
X133259047Y-57883571D01*
X133306666Y-57978809D01*
X133306666Y-58216904D01*
X133259047Y-58312142D01*
X133211428Y-58359761D01*
X133116190Y-58407380D01*
X132830476Y-58407380D01*
X132735238Y-58359761D01*
X132687619Y-58312142D01*
%TO.C,CGD1*%
X160083333Y-104862142D02*
X160035714Y-104909761D01*
X159892857Y-104957380D01*
X159797619Y-104957380D01*
X159654761Y-104909761D01*
X159559523Y-104814523D01*
X159511904Y-104719285D01*
X159464285Y-104528809D01*
X159464285Y-104385952D01*
X159511904Y-104195476D01*
X159559523Y-104100238D01*
X159654761Y-104005000D01*
X159797619Y-103957380D01*
X159892857Y-103957380D01*
X160035714Y-104005000D01*
X160083333Y-104052619D01*
X161035714Y-104005000D02*
X160940476Y-103957380D01*
X160797619Y-103957380D01*
X160654761Y-104005000D01*
X160559523Y-104100238D01*
X160511904Y-104195476D01*
X160464285Y-104385952D01*
X160464285Y-104528809D01*
X160511904Y-104719285D01*
X160559523Y-104814523D01*
X160654761Y-104909761D01*
X160797619Y-104957380D01*
X160892857Y-104957380D01*
X161035714Y-104909761D01*
X161083333Y-104862142D01*
X161083333Y-104528809D01*
X160892857Y-104528809D01*
X161511904Y-104957380D02*
X161511904Y-103957380D01*
X161750000Y-103957380D01*
X161892857Y-104005000D01*
X161988095Y-104100238D01*
X162035714Y-104195476D01*
X162083333Y-104385952D01*
X162083333Y-104528809D01*
X162035714Y-104719285D01*
X161988095Y-104814523D01*
X161892857Y-104909761D01*
X161750000Y-104957380D01*
X161511904Y-104957380D01*
X163035714Y-104957380D02*
X162464285Y-104957380D01*
X162750000Y-104957380D02*
X162750000Y-103957380D01*
X162654761Y-104100238D01*
X162559523Y-104195476D01*
X162464285Y-104243095D01*
%TO.C,PCTRL1*%
X119771190Y-100159880D02*
X119771190Y-99159880D01*
X120152142Y-99159880D01*
X120247380Y-99207500D01*
X120295000Y-99255119D01*
X120342619Y-99350357D01*
X120342619Y-99493214D01*
X120295000Y-99588452D01*
X120247380Y-99636071D01*
X120152142Y-99683690D01*
X119771190Y-99683690D01*
X121342619Y-100064642D02*
X121295000Y-100112261D01*
X121152142Y-100159880D01*
X121056904Y-100159880D01*
X120914047Y-100112261D01*
X120818809Y-100017023D01*
X120771190Y-99921785D01*
X120723571Y-99731309D01*
X120723571Y-99588452D01*
X120771190Y-99397976D01*
X120818809Y-99302738D01*
X120914047Y-99207500D01*
X121056904Y-99159880D01*
X121152142Y-99159880D01*
X121295000Y-99207500D01*
X121342619Y-99255119D01*
X121628333Y-99159880D02*
X122199761Y-99159880D01*
X121914047Y-100159880D02*
X121914047Y-99159880D01*
X123104523Y-100159880D02*
X122771190Y-99683690D01*
X122533095Y-100159880D02*
X122533095Y-99159880D01*
X122914047Y-99159880D01*
X123009285Y-99207500D01*
X123056904Y-99255119D01*
X123104523Y-99350357D01*
X123104523Y-99493214D01*
X123056904Y-99588452D01*
X123009285Y-99636071D01*
X122914047Y-99683690D01*
X122533095Y-99683690D01*
X124009285Y-100159880D02*
X123533095Y-100159880D01*
X123533095Y-99159880D01*
X124866428Y-100159880D02*
X124295000Y-100159880D01*
X124580714Y-100159880D02*
X124580714Y-99159880D01*
X124485476Y-99302738D01*
X124390238Y-99397976D01*
X124295000Y-99445595D01*
%TO.C,CPVDD1B0*%
X146953571Y-108562142D02*
X146905952Y-108609761D01*
X146763095Y-108657380D01*
X146667857Y-108657380D01*
X146525000Y-108609761D01*
X146429761Y-108514523D01*
X146382142Y-108419285D01*
X146334523Y-108228809D01*
X146334523Y-108085952D01*
X146382142Y-107895476D01*
X146429761Y-107800238D01*
X146525000Y-107705000D01*
X146667857Y-107657380D01*
X146763095Y-107657380D01*
X146905952Y-107705000D01*
X146953571Y-107752619D01*
X147382142Y-108657380D02*
X147382142Y-107657380D01*
X147763095Y-107657380D01*
X147858333Y-107705000D01*
X147905952Y-107752619D01*
X147953571Y-107847857D01*
X147953571Y-107990714D01*
X147905952Y-108085952D01*
X147858333Y-108133571D01*
X147763095Y-108181190D01*
X147382142Y-108181190D01*
X148239285Y-107657380D02*
X148572619Y-108657380D01*
X148905952Y-107657380D01*
X149239285Y-108657380D02*
X149239285Y-107657380D01*
X149477380Y-107657380D01*
X149620238Y-107705000D01*
X149715476Y-107800238D01*
X149763095Y-107895476D01*
X149810714Y-108085952D01*
X149810714Y-108228809D01*
X149763095Y-108419285D01*
X149715476Y-108514523D01*
X149620238Y-108609761D01*
X149477380Y-108657380D01*
X149239285Y-108657380D01*
X150239285Y-108657380D02*
X150239285Y-107657380D01*
X150477380Y-107657380D01*
X150620238Y-107705000D01*
X150715476Y-107800238D01*
X150763095Y-107895476D01*
X150810714Y-108085952D01*
X150810714Y-108228809D01*
X150763095Y-108419285D01*
X150715476Y-108514523D01*
X150620238Y-108609761D01*
X150477380Y-108657380D01*
X150239285Y-108657380D01*
X151763095Y-108657380D02*
X151191666Y-108657380D01*
X151477380Y-108657380D02*
X151477380Y-107657380D01*
X151382142Y-107800238D01*
X151286904Y-107895476D01*
X151191666Y-107943095D01*
X152525000Y-108133571D02*
X152667857Y-108181190D01*
X152715476Y-108228809D01*
X152763095Y-108324047D01*
X152763095Y-108466904D01*
X152715476Y-108562142D01*
X152667857Y-108609761D01*
X152572619Y-108657380D01*
X152191666Y-108657380D01*
X152191666Y-107657380D01*
X152525000Y-107657380D01*
X152620238Y-107705000D01*
X152667857Y-107752619D01*
X152715476Y-107847857D01*
X152715476Y-107943095D01*
X152667857Y-108038333D01*
X152620238Y-108085952D01*
X152525000Y-108133571D01*
X152191666Y-108133571D01*
X153382142Y-107657380D02*
X153477380Y-107657380D01*
X153572619Y-107705000D01*
X153620238Y-107752619D01*
X153667857Y-107847857D01*
X153715476Y-108038333D01*
X153715476Y-108276428D01*
X153667857Y-108466904D01*
X153620238Y-108562142D01*
X153572619Y-108609761D01*
X153477380Y-108657380D01*
X153382142Y-108657380D01*
X153286904Y-108609761D01*
X153239285Y-108562142D01*
X153191666Y-108466904D01*
X153144047Y-108276428D01*
X153144047Y-108038333D01*
X153191666Y-107847857D01*
X153239285Y-107752619D01*
X153286904Y-107705000D01*
X153382142Y-107657380D01*
%TO.C,CFDC0*%
X164954761Y-97862142D02*
X164907142Y-97909761D01*
X164764285Y-97957380D01*
X164669047Y-97957380D01*
X164526190Y-97909761D01*
X164430952Y-97814523D01*
X164383333Y-97719285D01*
X164335714Y-97528809D01*
X164335714Y-97385952D01*
X164383333Y-97195476D01*
X164430952Y-97100238D01*
X164526190Y-97005000D01*
X164669047Y-96957380D01*
X164764285Y-96957380D01*
X164907142Y-97005000D01*
X164954761Y-97052619D01*
X165716666Y-97433571D02*
X165383333Y-97433571D01*
X165383333Y-97957380D02*
X165383333Y-96957380D01*
X165859523Y-96957380D01*
X166240476Y-97957380D02*
X166240476Y-96957380D01*
X166478571Y-96957380D01*
X166621428Y-97005000D01*
X166716666Y-97100238D01*
X166764285Y-97195476D01*
X166811904Y-97385952D01*
X166811904Y-97528809D01*
X166764285Y-97719285D01*
X166716666Y-97814523D01*
X166621428Y-97909761D01*
X166478571Y-97957380D01*
X166240476Y-97957380D01*
X167811904Y-97862142D02*
X167764285Y-97909761D01*
X167621428Y-97957380D01*
X167526190Y-97957380D01*
X167383333Y-97909761D01*
X167288095Y-97814523D01*
X167240476Y-97719285D01*
X167192857Y-97528809D01*
X167192857Y-97385952D01*
X167240476Y-97195476D01*
X167288095Y-97100238D01*
X167383333Y-97005000D01*
X167526190Y-96957380D01*
X167621428Y-96957380D01*
X167764285Y-97005000D01*
X167811904Y-97052619D01*
X168430952Y-96957380D02*
X168526190Y-96957380D01*
X168621428Y-97005000D01*
X168669047Y-97052619D01*
X168716666Y-97147857D01*
X168764285Y-97338333D01*
X168764285Y-97576428D01*
X168716666Y-97766904D01*
X168669047Y-97862142D01*
X168621428Y-97909761D01*
X168526190Y-97957380D01*
X168430952Y-97957380D01*
X168335714Y-97909761D01*
X168288095Y-97862142D01*
X168240476Y-97766904D01*
X168192857Y-97576428D01*
X168192857Y-97338333D01*
X168240476Y-97147857D01*
X168288095Y-97052619D01*
X168335714Y-97005000D01*
X168430952Y-96957380D01*
%TO.C,JP1*%
X137054166Y-93082380D02*
X137054166Y-93796666D01*
X137006547Y-93939523D01*
X136911309Y-94034761D01*
X136768452Y-94082380D01*
X136673214Y-94082380D01*
X137530357Y-94082380D02*
X137530357Y-93082380D01*
X137911309Y-93082380D01*
X138006547Y-93130000D01*
X138054166Y-93177619D01*
X138101785Y-93272857D01*
X138101785Y-93415714D01*
X138054166Y-93510952D01*
X138006547Y-93558571D01*
X137911309Y-93606190D01*
X137530357Y-93606190D01*
X139054166Y-94082380D02*
X138482738Y-94082380D01*
X138768452Y-94082380D02*
X138768452Y-93082380D01*
X138673214Y-93225238D01*
X138577976Y-93320476D01*
X138482738Y-93368095D01*
%TO.C,U1*%
X160732380Y-98576904D02*
X161541904Y-98576904D01*
X161637142Y-98529285D01*
X161684761Y-98481666D01*
X161732380Y-98386428D01*
X161732380Y-98195952D01*
X161684761Y-98100714D01*
X161637142Y-98053095D01*
X161541904Y-98005476D01*
X160732380Y-98005476D01*
X161732380Y-97005476D02*
X161732380Y-97576904D01*
X161732380Y-97291190D02*
X160732380Y-97291190D01*
X160875238Y-97386428D01*
X160970476Y-97481666D01*
X161018095Y-97576904D01*
%TO.C,J2*%
X202572380Y-97833333D02*
X203286666Y-97833333D01*
X203429523Y-97880952D01*
X203524761Y-97976190D01*
X203572380Y-98119047D01*
X203572380Y-98214285D01*
X202667619Y-97404761D02*
X202620000Y-97357142D01*
X202572380Y-97261904D01*
X202572380Y-97023809D01*
X202620000Y-96928571D01*
X202667619Y-96880952D01*
X202762857Y-96833333D01*
X202858095Y-96833333D01*
X203000952Y-96880952D01*
X203572380Y-97452380D01*
X203572380Y-96833333D01*
%TO.C,CF1A1*%
X154525000Y-104862142D02*
X154477380Y-104909761D01*
X154334523Y-104957380D01*
X154239285Y-104957380D01*
X154096428Y-104909761D01*
X154001190Y-104814523D01*
X153953571Y-104719285D01*
X153905952Y-104528809D01*
X153905952Y-104385952D01*
X153953571Y-104195476D01*
X154001190Y-104100238D01*
X154096428Y-104005000D01*
X154239285Y-103957380D01*
X154334523Y-103957380D01*
X154477380Y-104005000D01*
X154525000Y-104052619D01*
X155286904Y-104433571D02*
X154953571Y-104433571D01*
X154953571Y-104957380D02*
X154953571Y-103957380D01*
X155429761Y-103957380D01*
X156334523Y-104957380D02*
X155763095Y-104957380D01*
X156048809Y-104957380D02*
X156048809Y-103957380D01*
X155953571Y-104100238D01*
X155858333Y-104195476D01*
X155763095Y-104243095D01*
X156715476Y-104671666D02*
X157191666Y-104671666D01*
X156620238Y-104957380D02*
X156953571Y-103957380D01*
X157286904Y-104957380D01*
X158144047Y-104957380D02*
X157572619Y-104957380D01*
X157858333Y-104957380D02*
X157858333Y-103957380D01*
X157763095Y-104100238D01*
X157667857Y-104195476D01*
X157572619Y-104243095D01*
%TO.C,CPVDD0B0*%
X152453571Y-87562142D02*
X152405952Y-87609761D01*
X152263095Y-87657380D01*
X152167857Y-87657380D01*
X152025000Y-87609761D01*
X151929761Y-87514523D01*
X151882142Y-87419285D01*
X151834523Y-87228809D01*
X151834523Y-87085952D01*
X151882142Y-86895476D01*
X151929761Y-86800238D01*
X152025000Y-86705000D01*
X152167857Y-86657380D01*
X152263095Y-86657380D01*
X152405952Y-86705000D01*
X152453571Y-86752619D01*
X152882142Y-87657380D02*
X152882142Y-86657380D01*
X153263095Y-86657380D01*
X153358333Y-86705000D01*
X153405952Y-86752619D01*
X153453571Y-86847857D01*
X153453571Y-86990714D01*
X153405952Y-87085952D01*
X153358333Y-87133571D01*
X153263095Y-87181190D01*
X152882142Y-87181190D01*
X153739285Y-86657380D02*
X154072619Y-87657380D01*
X154405952Y-86657380D01*
X154739285Y-87657380D02*
X154739285Y-86657380D01*
X154977380Y-86657380D01*
X155120238Y-86705000D01*
X155215476Y-86800238D01*
X155263095Y-86895476D01*
X155310714Y-87085952D01*
X155310714Y-87228809D01*
X155263095Y-87419285D01*
X155215476Y-87514523D01*
X155120238Y-87609761D01*
X154977380Y-87657380D01*
X154739285Y-87657380D01*
X155739285Y-87657380D02*
X155739285Y-86657380D01*
X155977380Y-86657380D01*
X156120238Y-86705000D01*
X156215476Y-86800238D01*
X156263095Y-86895476D01*
X156310714Y-87085952D01*
X156310714Y-87228809D01*
X156263095Y-87419285D01*
X156215476Y-87514523D01*
X156120238Y-87609761D01*
X155977380Y-87657380D01*
X155739285Y-87657380D01*
X156929761Y-86657380D02*
X157025000Y-86657380D01*
X157120238Y-86705000D01*
X157167857Y-86752619D01*
X157215476Y-86847857D01*
X157263095Y-87038333D01*
X157263095Y-87276428D01*
X157215476Y-87466904D01*
X157167857Y-87562142D01*
X157120238Y-87609761D01*
X157025000Y-87657380D01*
X156929761Y-87657380D01*
X156834523Y-87609761D01*
X156786904Y-87562142D01*
X156739285Y-87466904D01*
X156691666Y-87276428D01*
X156691666Y-87038333D01*
X156739285Y-86847857D01*
X156786904Y-86752619D01*
X156834523Y-86705000D01*
X156929761Y-86657380D01*
X158025000Y-87133571D02*
X158167857Y-87181190D01*
X158215476Y-87228809D01*
X158263095Y-87324047D01*
X158263095Y-87466904D01*
X158215476Y-87562142D01*
X158167857Y-87609761D01*
X158072619Y-87657380D01*
X157691666Y-87657380D01*
X157691666Y-86657380D01*
X158025000Y-86657380D01*
X158120238Y-86705000D01*
X158167857Y-86752619D01*
X158215476Y-86847857D01*
X158215476Y-86943095D01*
X158167857Y-87038333D01*
X158120238Y-87085952D01*
X158025000Y-87133571D01*
X157691666Y-87133571D01*
X158882142Y-86657380D02*
X158977380Y-86657380D01*
X159072619Y-86705000D01*
X159120238Y-86752619D01*
X159167857Y-86847857D01*
X159215476Y-87038333D01*
X159215476Y-87276428D01*
X159167857Y-87466904D01*
X159120238Y-87562142D01*
X159072619Y-87609761D01*
X158977380Y-87657380D01*
X158882142Y-87657380D01*
X158786904Y-87609761D01*
X158739285Y-87562142D01*
X158691666Y-87466904D01*
X158644047Y-87276428D01*
X158644047Y-87038333D01*
X158691666Y-86847857D01*
X158739285Y-86752619D01*
X158786904Y-86705000D01*
X158882142Y-86657380D01*
%TO.C,CGD0*%
X165358333Y-91062142D02*
X165310714Y-91109761D01*
X165167857Y-91157380D01*
X165072619Y-91157380D01*
X164929761Y-91109761D01*
X164834523Y-91014523D01*
X164786904Y-90919285D01*
X164739285Y-90728809D01*
X164739285Y-90585952D01*
X164786904Y-90395476D01*
X164834523Y-90300238D01*
X164929761Y-90205000D01*
X165072619Y-90157380D01*
X165167857Y-90157380D01*
X165310714Y-90205000D01*
X165358333Y-90252619D01*
X166310714Y-90205000D02*
X166215476Y-90157380D01*
X166072619Y-90157380D01*
X165929761Y-90205000D01*
X165834523Y-90300238D01*
X165786904Y-90395476D01*
X165739285Y-90585952D01*
X165739285Y-90728809D01*
X165786904Y-90919285D01*
X165834523Y-91014523D01*
X165929761Y-91109761D01*
X166072619Y-91157380D01*
X166167857Y-91157380D01*
X166310714Y-91109761D01*
X166358333Y-91062142D01*
X166358333Y-90728809D01*
X166167857Y-90728809D01*
X166786904Y-91157380D02*
X166786904Y-90157380D01*
X167025000Y-90157380D01*
X167167857Y-90205000D01*
X167263095Y-90300238D01*
X167310714Y-90395476D01*
X167358333Y-90585952D01*
X167358333Y-90728809D01*
X167310714Y-90919285D01*
X167263095Y-91014523D01*
X167167857Y-91109761D01*
X167025000Y-91157380D01*
X166786904Y-91157380D01*
X167977380Y-90157380D02*
X168072619Y-90157380D01*
X168167857Y-90205000D01*
X168215476Y-90252619D01*
X168263095Y-90347857D01*
X168310714Y-90538333D01*
X168310714Y-90776428D01*
X168263095Y-90966904D01*
X168215476Y-91062142D01*
X168167857Y-91109761D01*
X168072619Y-91157380D01*
X167977380Y-91157380D01*
X167882142Y-91109761D01*
X167834523Y-91062142D01*
X167786904Y-90966904D01*
X167739285Y-90776428D01*
X167739285Y-90538333D01*
X167786904Y-90347857D01*
X167834523Y-90252619D01*
X167882142Y-90205000D01*
X167977380Y-90157380D01*
%TO.C,CF1B0*%
X142953571Y-108562142D02*
X142905952Y-108609761D01*
X142763095Y-108657380D01*
X142667857Y-108657380D01*
X142525000Y-108609761D01*
X142429761Y-108514523D01*
X142382142Y-108419285D01*
X142334523Y-108228809D01*
X142334523Y-108085952D01*
X142382142Y-107895476D01*
X142429761Y-107800238D01*
X142525000Y-107705000D01*
X142667857Y-107657380D01*
X142763095Y-107657380D01*
X142905952Y-107705000D01*
X142953571Y-107752619D01*
X143715476Y-108133571D02*
X143382142Y-108133571D01*
X143382142Y-108657380D02*
X143382142Y-107657380D01*
X143858333Y-107657380D01*
X144763095Y-108657380D02*
X144191666Y-108657380D01*
X144477380Y-108657380D02*
X144477380Y-107657380D01*
X144382142Y-107800238D01*
X144286904Y-107895476D01*
X144191666Y-107943095D01*
X145525000Y-108133571D02*
X145667857Y-108181190D01*
X145715476Y-108228809D01*
X145763095Y-108324047D01*
X145763095Y-108466904D01*
X145715476Y-108562142D01*
X145667857Y-108609761D01*
X145572619Y-108657380D01*
X145191666Y-108657380D01*
X145191666Y-107657380D01*
X145525000Y-107657380D01*
X145620238Y-107705000D01*
X145667857Y-107752619D01*
X145715476Y-107847857D01*
X145715476Y-107943095D01*
X145667857Y-108038333D01*
X145620238Y-108085952D01*
X145525000Y-108133571D01*
X145191666Y-108133571D01*
X146382142Y-107657380D02*
X146477380Y-107657380D01*
X146572619Y-107705000D01*
X146620238Y-107752619D01*
X146667857Y-107847857D01*
X146715476Y-108038333D01*
X146715476Y-108276428D01*
X146667857Y-108466904D01*
X146620238Y-108562142D01*
X146572619Y-108609761D01*
X146477380Y-108657380D01*
X146382142Y-108657380D01*
X146286904Y-108609761D01*
X146239285Y-108562142D01*
X146191666Y-108466904D01*
X146144047Y-108276428D01*
X146144047Y-108038333D01*
X146191666Y-107847857D01*
X146239285Y-107752619D01*
X146286904Y-107705000D01*
X146382142Y-107657380D01*
%TO.C,R1*%
X194372380Y-80106666D02*
X193896190Y-80440000D01*
X194372380Y-80678095D02*
X193372380Y-80678095D01*
X193372380Y-80297142D01*
X193420000Y-80201904D01*
X193467619Y-80154285D01*
X193562857Y-80106666D01*
X193705714Y-80106666D01*
X193800952Y-80154285D01*
X193848571Y-80201904D01*
X193896190Y-80297142D01*
X193896190Y-80678095D01*
X194372380Y-79154285D02*
X194372380Y-79725714D01*
X194372380Y-79440000D02*
X193372380Y-79440000D01*
X193515238Y-79535238D01*
X193610476Y-79630476D01*
X193658095Y-79725714D01*
%TO.C,LBUCK0*%
X147352380Y-54165476D02*
X147352380Y-54641666D01*
X146352380Y-54641666D01*
X146828571Y-53498809D02*
X146876190Y-53355952D01*
X146923809Y-53308333D01*
X147019047Y-53260714D01*
X147161904Y-53260714D01*
X147257142Y-53308333D01*
X147304761Y-53355952D01*
X147352380Y-53451190D01*
X147352380Y-53832142D01*
X146352380Y-53832142D01*
X146352380Y-53498809D01*
X146400000Y-53403571D01*
X146447619Y-53355952D01*
X146542857Y-53308333D01*
X146638095Y-53308333D01*
X146733333Y-53355952D01*
X146780952Y-53403571D01*
X146828571Y-53498809D01*
X146828571Y-53832142D01*
X146352380Y-52832142D02*
X147161904Y-52832142D01*
X147257142Y-52784523D01*
X147304761Y-52736904D01*
X147352380Y-52641666D01*
X147352380Y-52451190D01*
X147304761Y-52355952D01*
X147257142Y-52308333D01*
X147161904Y-52260714D01*
X146352380Y-52260714D01*
X147257142Y-51213095D02*
X147304761Y-51260714D01*
X147352380Y-51403571D01*
X147352380Y-51498809D01*
X147304761Y-51641666D01*
X147209523Y-51736904D01*
X147114285Y-51784523D01*
X146923809Y-51832142D01*
X146780952Y-51832142D01*
X146590476Y-51784523D01*
X146495238Y-51736904D01*
X146400000Y-51641666D01*
X146352380Y-51498809D01*
X146352380Y-51403571D01*
X146400000Y-51260714D01*
X146447619Y-51213095D01*
X147352380Y-50784523D02*
X146352380Y-50784523D01*
X147352380Y-50213095D02*
X146780952Y-50641666D01*
X146352380Y-50213095D02*
X146923809Y-50784523D01*
X146352380Y-49594047D02*
X146352380Y-49498809D01*
X146400000Y-49403571D01*
X146447619Y-49355952D01*
X146542857Y-49308333D01*
X146733333Y-49260714D01*
X146971428Y-49260714D01*
X147161904Y-49308333D01*
X147257142Y-49355952D01*
X147304761Y-49403571D01*
X147352380Y-49498809D01*
X147352380Y-49594047D01*
X147304761Y-49689285D01*
X147257142Y-49736904D01*
X147161904Y-49784523D01*
X146971428Y-49832142D01*
X146733333Y-49832142D01*
X146542857Y-49784523D01*
X146447619Y-49736904D01*
X146400000Y-49689285D01*
X146352380Y-49594047D01*
%TO.C,C3*%
X202707142Y-76106666D02*
X202754761Y-76154285D01*
X202802380Y-76297142D01*
X202802380Y-76392380D01*
X202754761Y-76535238D01*
X202659523Y-76630476D01*
X202564285Y-76678095D01*
X202373809Y-76725714D01*
X202230952Y-76725714D01*
X202040476Y-76678095D01*
X201945238Y-76630476D01*
X201850000Y-76535238D01*
X201802380Y-76392380D01*
X201802380Y-76297142D01*
X201850000Y-76154285D01*
X201897619Y-76106666D01*
X201802380Y-75773333D02*
X201802380Y-75154285D01*
X202183333Y-75487619D01*
X202183333Y-75344761D01*
X202230952Y-75249523D01*
X202278571Y-75201904D01*
X202373809Y-75154285D01*
X202611904Y-75154285D01*
X202707142Y-75201904D01*
X202754761Y-75249523D01*
X202802380Y-75344761D01*
X202802380Y-75630476D01*
X202754761Y-75725714D01*
X202707142Y-75773333D01*
%TO.C,CF0A0*%
X159525000Y-87362142D02*
X159477380Y-87409761D01*
X159334523Y-87457380D01*
X159239285Y-87457380D01*
X159096428Y-87409761D01*
X159001190Y-87314523D01*
X158953571Y-87219285D01*
X158905952Y-87028809D01*
X158905952Y-86885952D01*
X158953571Y-86695476D01*
X159001190Y-86600238D01*
X159096428Y-86505000D01*
X159239285Y-86457380D01*
X159334523Y-86457380D01*
X159477380Y-86505000D01*
X159525000Y-86552619D01*
X160286904Y-86933571D02*
X159953571Y-86933571D01*
X159953571Y-87457380D02*
X159953571Y-86457380D01*
X160429761Y-86457380D01*
X161001190Y-86457380D02*
X161096428Y-86457380D01*
X161191666Y-86505000D01*
X161239285Y-86552619D01*
X161286904Y-86647857D01*
X161334523Y-86838333D01*
X161334523Y-87076428D01*
X161286904Y-87266904D01*
X161239285Y-87362142D01*
X161191666Y-87409761D01*
X161096428Y-87457380D01*
X161001190Y-87457380D01*
X160905952Y-87409761D01*
X160858333Y-87362142D01*
X160810714Y-87266904D01*
X160763095Y-87076428D01*
X160763095Y-86838333D01*
X160810714Y-86647857D01*
X160858333Y-86552619D01*
X160905952Y-86505000D01*
X161001190Y-86457380D01*
X161715476Y-87171666D02*
X162191666Y-87171666D01*
X161620238Y-87457380D02*
X161953571Y-86457380D01*
X162286904Y-87457380D01*
X162810714Y-86457380D02*
X162905952Y-86457380D01*
X163001190Y-86505000D01*
X163048809Y-86552619D01*
X163096428Y-86647857D01*
X163144047Y-86838333D01*
X163144047Y-87076428D01*
X163096428Y-87266904D01*
X163048809Y-87362142D01*
X163001190Y-87409761D01*
X162905952Y-87457380D01*
X162810714Y-87457380D01*
X162715476Y-87409761D01*
X162667857Y-87362142D01*
X162620238Y-87266904D01*
X162572619Y-87076428D01*
X162572619Y-86838333D01*
X162620238Y-86647857D01*
X162667857Y-86552619D01*
X162715476Y-86505000D01*
X162810714Y-86457380D01*
%TO.C,CPVDD1A0*%
X147025000Y-112062142D02*
X146977380Y-112109761D01*
X146834523Y-112157380D01*
X146739285Y-112157380D01*
X146596428Y-112109761D01*
X146501190Y-112014523D01*
X146453571Y-111919285D01*
X146405952Y-111728809D01*
X146405952Y-111585952D01*
X146453571Y-111395476D01*
X146501190Y-111300238D01*
X146596428Y-111205000D01*
X146739285Y-111157380D01*
X146834523Y-111157380D01*
X146977380Y-111205000D01*
X147025000Y-111252619D01*
X147453571Y-112157380D02*
X147453571Y-111157380D01*
X147834523Y-111157380D01*
X147929761Y-111205000D01*
X147977380Y-111252619D01*
X148025000Y-111347857D01*
X148025000Y-111490714D01*
X147977380Y-111585952D01*
X147929761Y-111633571D01*
X147834523Y-111681190D01*
X147453571Y-111681190D01*
X148310714Y-111157380D02*
X148644047Y-112157380D01*
X148977380Y-111157380D01*
X149310714Y-112157380D02*
X149310714Y-111157380D01*
X149548809Y-111157380D01*
X149691666Y-111205000D01*
X149786904Y-111300238D01*
X149834523Y-111395476D01*
X149882142Y-111585952D01*
X149882142Y-111728809D01*
X149834523Y-111919285D01*
X149786904Y-112014523D01*
X149691666Y-112109761D01*
X149548809Y-112157380D01*
X149310714Y-112157380D01*
X150310714Y-112157380D02*
X150310714Y-111157380D01*
X150548809Y-111157380D01*
X150691666Y-111205000D01*
X150786904Y-111300238D01*
X150834523Y-111395476D01*
X150882142Y-111585952D01*
X150882142Y-111728809D01*
X150834523Y-111919285D01*
X150786904Y-112014523D01*
X150691666Y-112109761D01*
X150548809Y-112157380D01*
X150310714Y-112157380D01*
X151834523Y-112157380D02*
X151263095Y-112157380D01*
X151548809Y-112157380D02*
X151548809Y-111157380D01*
X151453571Y-111300238D01*
X151358333Y-111395476D01*
X151263095Y-111443095D01*
X152215476Y-111871666D02*
X152691666Y-111871666D01*
X152120238Y-112157380D02*
X152453571Y-111157380D01*
X152786904Y-112157380D01*
X153310714Y-111157380D02*
X153405952Y-111157380D01*
X153501190Y-111205000D01*
X153548809Y-111252619D01*
X153596428Y-111347857D01*
X153644047Y-111538333D01*
X153644047Y-111776428D01*
X153596428Y-111966904D01*
X153548809Y-112062142D01*
X153501190Y-112109761D01*
X153405952Y-112157380D01*
X153310714Y-112157380D01*
X153215476Y-112109761D01*
X153167857Y-112062142D01*
X153120238Y-111966904D01*
X153072619Y-111776428D01*
X153072619Y-111538333D01*
X153120238Y-111347857D01*
X153167857Y-111252619D01*
X153215476Y-111205000D01*
X153310714Y-111157380D01*
%TO.C,R2*%
X194372380Y-86644166D02*
X193896190Y-86977500D01*
X194372380Y-87215595D02*
X193372380Y-87215595D01*
X193372380Y-86834642D01*
X193420000Y-86739404D01*
X193467619Y-86691785D01*
X193562857Y-86644166D01*
X193705714Y-86644166D01*
X193800952Y-86691785D01*
X193848571Y-86739404D01*
X193896190Y-86834642D01*
X193896190Y-87215595D01*
X193467619Y-86263214D02*
X193420000Y-86215595D01*
X193372380Y-86120357D01*
X193372380Y-85882261D01*
X193420000Y-85787023D01*
X193467619Y-85739404D01*
X193562857Y-85691785D01*
X193658095Y-85691785D01*
X193800952Y-85739404D01*
X194372380Y-86310833D01*
X194372380Y-85691785D01*
%TO.C,RB_FB1*%
X148023809Y-58632380D02*
X147690476Y-58156190D01*
X147452380Y-58632380D02*
X147452380Y-57632380D01*
X147833333Y-57632380D01*
X147928571Y-57680000D01*
X147976190Y-57727619D01*
X148023809Y-57822857D01*
X148023809Y-57965714D01*
X147976190Y-58060952D01*
X147928571Y-58108571D01*
X147833333Y-58156190D01*
X147452380Y-58156190D01*
X148785714Y-58108571D02*
X148928571Y-58156190D01*
X148976190Y-58203809D01*
X149023809Y-58299047D01*
X149023809Y-58441904D01*
X148976190Y-58537142D01*
X148928571Y-58584761D01*
X148833333Y-58632380D01*
X148452380Y-58632380D01*
X148452380Y-57632380D01*
X148785714Y-57632380D01*
X148880952Y-57680000D01*
X148928571Y-57727619D01*
X148976190Y-57822857D01*
X148976190Y-57918095D01*
X148928571Y-58013333D01*
X148880952Y-58060952D01*
X148785714Y-58108571D01*
X148452380Y-58108571D01*
X149214285Y-58727619D02*
X149976190Y-58727619D01*
X150547619Y-58108571D02*
X150214285Y-58108571D01*
X150214285Y-58632380D02*
X150214285Y-57632380D01*
X150690476Y-57632380D01*
X151404761Y-58108571D02*
X151547619Y-58156190D01*
X151595238Y-58203809D01*
X151642857Y-58299047D01*
X151642857Y-58441904D01*
X151595238Y-58537142D01*
X151547619Y-58584761D01*
X151452380Y-58632380D01*
X151071428Y-58632380D01*
X151071428Y-57632380D01*
X151404761Y-57632380D01*
X151500000Y-57680000D01*
X151547619Y-57727619D01*
X151595238Y-57822857D01*
X151595238Y-57918095D01*
X151547619Y-58013333D01*
X151500000Y-58060952D01*
X151404761Y-58108571D01*
X151071428Y-58108571D01*
X152595238Y-58632380D02*
X152023809Y-58632380D01*
X152309523Y-58632380D02*
X152309523Y-57632380D01*
X152214285Y-57775238D01*
X152119047Y-57870476D01*
X152023809Y-57918095D01*
%TO.C,CVGDC0*%
X164654761Y-104862142D02*
X164607142Y-104909761D01*
X164464285Y-104957380D01*
X164369047Y-104957380D01*
X164226190Y-104909761D01*
X164130952Y-104814523D01*
X164083333Y-104719285D01*
X164035714Y-104528809D01*
X164035714Y-104385952D01*
X164083333Y-104195476D01*
X164130952Y-104100238D01*
X164226190Y-104005000D01*
X164369047Y-103957380D01*
X164464285Y-103957380D01*
X164607142Y-104005000D01*
X164654761Y-104052619D01*
X164940476Y-103957380D02*
X165273809Y-104957380D01*
X165607142Y-103957380D01*
X166464285Y-104005000D02*
X166369047Y-103957380D01*
X166226190Y-103957380D01*
X166083333Y-104005000D01*
X165988095Y-104100238D01*
X165940476Y-104195476D01*
X165892857Y-104385952D01*
X165892857Y-104528809D01*
X165940476Y-104719285D01*
X165988095Y-104814523D01*
X166083333Y-104909761D01*
X166226190Y-104957380D01*
X166321428Y-104957380D01*
X166464285Y-104909761D01*
X166511904Y-104862142D01*
X166511904Y-104528809D01*
X166321428Y-104528809D01*
X166940476Y-104957380D02*
X166940476Y-103957380D01*
X167178571Y-103957380D01*
X167321428Y-104005000D01*
X167416666Y-104100238D01*
X167464285Y-104195476D01*
X167511904Y-104385952D01*
X167511904Y-104528809D01*
X167464285Y-104719285D01*
X167416666Y-104814523D01*
X167321428Y-104909761D01*
X167178571Y-104957380D01*
X166940476Y-104957380D01*
X168511904Y-104862142D02*
X168464285Y-104909761D01*
X168321428Y-104957380D01*
X168226190Y-104957380D01*
X168083333Y-104909761D01*
X167988095Y-104814523D01*
X167940476Y-104719285D01*
X167892857Y-104528809D01*
X167892857Y-104385952D01*
X167940476Y-104195476D01*
X167988095Y-104100238D01*
X168083333Y-104005000D01*
X168226190Y-103957380D01*
X168321428Y-103957380D01*
X168464285Y-104005000D01*
X168511904Y-104052619D01*
X169130952Y-103957380D02*
X169226190Y-103957380D01*
X169321428Y-104005000D01*
X169369047Y-104052619D01*
X169416666Y-104147857D01*
X169464285Y-104338333D01*
X169464285Y-104576428D01*
X169416666Y-104766904D01*
X169369047Y-104862142D01*
X169321428Y-104909761D01*
X169226190Y-104957380D01*
X169130952Y-104957380D01*
X169035714Y-104909761D01*
X168988095Y-104862142D01*
X168940476Y-104766904D01*
X168892857Y-104576428D01*
X168892857Y-104338333D01*
X168940476Y-104147857D01*
X168988095Y-104052619D01*
X169035714Y-104005000D01*
X169130952Y-103957380D01*
D11*
%TO.C,CF1B1*%
X145236252Y-110765000D02*
X143813748Y-110765000D01*
X145236252Y-108945000D02*
X143813748Y-108945000D01*
%TO.C,JP4*%
X136670000Y-87745000D02*
X136670000Y-92885000D01*
X136670000Y-86475000D02*
X136670000Y-85145000D01*
X136670000Y-92885000D02*
X139330000Y-92885000D01*
X136670000Y-85145000D02*
X138000000Y-85145000D01*
X136670000Y-87745000D02*
X139330000Y-87745000D01*
X139330000Y-87745000D02*
X139330000Y-92885000D01*
%TO.C,CF0A1*%
X160313748Y-86265000D02*
X161736252Y-86265000D01*
X160313748Y-84445000D02*
X161736252Y-84445000D01*
%TO.C,C7*%
X194470000Y-98720000D02*
X194470000Y-106160000D01*
X194470000Y-98720000D02*
X189730000Y-98720000D01*
X189730000Y-98720000D02*
X189730000Y-106160000D01*
X194470000Y-106160000D02*
X189730000Y-106160000D01*
%TO.C,RCLIP_ERROR_0*%
X168300000Y-58764564D02*
X168300000Y-57310436D01*
X166480000Y-58764564D02*
X166480000Y-57310436D01*
%TO.C,C11*%
X189730000Y-118220000D02*
X189730000Y-125660000D01*
X194470000Y-118220000D02*
X194470000Y-125660000D01*
X194470000Y-125660000D02*
X189730000Y-125660000D01*
X194470000Y-118220000D02*
X189730000Y-118220000D01*
%TO.C,CIN0*%
X129428748Y-60590000D02*
X130851252Y-60590000D01*
X129428748Y-62410000D02*
X130851252Y-62410000D01*
D10*
%TO.C,U2*%
X144120000Y-55650000D02*
X145270000Y-55650000D01*
X143345000Y-52400000D02*
X145270000Y-52400000D01*
D11*
%TO.C,C4*%
X201220000Y-83820000D02*
X201220000Y-97060000D01*
X201220000Y-97060000D02*
X195980000Y-97060000D01*
X201220000Y-83820000D02*
X195980000Y-83820000D01*
X195980000Y-83820000D02*
X195980000Y-97060000D01*
%TO.C,CPVDD0B3*%
X130876252Y-67590000D02*
X129453748Y-67590000D01*
X130876252Y-69410000D02*
X129453748Y-69410000D01*
%TO.C,CSUP2*%
X161533323Y-121096000D02*
X161533323Y-123644000D01*
X161733323Y-116254000D02*
X161733323Y-118614000D01*
X159733323Y-115031000D02*
X159733323Y-118614000D01*
X160613323Y-115415000D02*
X160613323Y-118614000D01*
X162333323Y-116966000D02*
X162333323Y-122744000D01*
X161333323Y-115898000D02*
X161333323Y-118614000D01*
X161573323Y-116102000D02*
X161573323Y-118614000D01*
X158933323Y-114837000D02*
X158933323Y-124873000D01*
X161733323Y-121096000D02*
X161733323Y-123456000D01*
X161493323Y-121096000D02*
X161493323Y-123679000D01*
X161053323Y-115689000D02*
X161053323Y-118614000D01*
X159933323Y-115101000D02*
X159933323Y-118614000D01*
X158452323Y-114785000D02*
X158452323Y-124925000D01*
X160733323Y-115484000D02*
X160733323Y-118614000D01*
X161453323Y-121096000D02*
X161453323Y-123713000D01*
X161253323Y-115835000D02*
X161253323Y-118614000D01*
X160533323Y-115372000D02*
X160533323Y-118614000D01*
X158973323Y-114844000D02*
X158973323Y-124866000D01*
X160013323Y-121096000D02*
X160013323Y-124578000D01*
X161213323Y-115805000D02*
X161213323Y-118614000D01*
X160453323Y-115330000D02*
X160453323Y-118614000D01*
X161813323Y-116335000D02*
X161813323Y-118614000D01*
X161853323Y-121096000D02*
X161853323Y-123333000D01*
X160413323Y-121096000D02*
X160413323Y-124400000D01*
X161293323Y-121096000D02*
X161293323Y-123844000D01*
X160533323Y-121096000D02*
X160533323Y-124338000D01*
X159413323Y-114937000D02*
X159413323Y-118614000D01*
X159453323Y-114948000D02*
X159453323Y-118614000D01*
X158212323Y-114775000D02*
X158212323Y-124935000D01*
X160133323Y-115181000D02*
X160133323Y-118614000D01*
X159293323Y-114908000D02*
X159293323Y-124802000D01*
X161773323Y-116294000D02*
X161773323Y-118614000D01*
X162413323Y-117085000D02*
X162413323Y-122625000D01*
X161373323Y-115930000D02*
X161373323Y-118614000D01*
X153152677Y-116480000D02*
X153152677Y-117480000D01*
X162853323Y-117911000D02*
X162853323Y-121799000D01*
X158332323Y-114778000D02*
X158332323Y-124932000D01*
X160013323Y-115132000D02*
X160013323Y-118614000D01*
X158492323Y-114787000D02*
X158492323Y-124923000D01*
X158692323Y-114805000D02*
X158692323Y-124905000D01*
X160053323Y-121096000D02*
X160053323Y-124562000D01*
X161933323Y-116463000D02*
X161933323Y-123247000D01*
X161773323Y-121096000D02*
X161773323Y-123416000D01*
X163093323Y-118625000D02*
X163093323Y-121085000D01*
X160333323Y-115271000D02*
X160333323Y-118614000D01*
X160133323Y-121096000D02*
X160133323Y-124529000D01*
X160653323Y-121096000D02*
X160653323Y-124272000D01*
X159133323Y-114873000D02*
X159133323Y-124837000D01*
X161053323Y-121096000D02*
X161053323Y-124021000D01*
X162573323Y-117345000D02*
X162573323Y-122365000D01*
X163213323Y-119256000D02*
X163213323Y-120454000D01*
X160853323Y-115557000D02*
X160853323Y-118614000D01*
X158252323Y-114776000D02*
X158252323Y-124934000D01*
X160773323Y-121096000D02*
X160773323Y-124202000D01*
X159813323Y-115058000D02*
X159813323Y-118614000D01*
X158893323Y-114831000D02*
X158893323Y-124879000D01*
X161013323Y-121096000D02*
X161013323Y-124049000D01*
X160293323Y-121096000D02*
X160293323Y-124458000D01*
X160933323Y-115608000D02*
X160933323Y-118614000D01*
X162373323Y-117025000D02*
X162373323Y-122685000D01*
X161133323Y-121096000D02*
X161133323Y-123965000D01*
X159853323Y-121096000D02*
X159853323Y-124638000D01*
X160373323Y-115291000D02*
X160373323Y-118614000D01*
X159973323Y-121096000D02*
X159973323Y-124593000D01*
X161893323Y-116419000D02*
X161893323Y-123291000D01*
X159853323Y-115072000D02*
X159853323Y-118614000D01*
X161013323Y-115661000D02*
X161013323Y-118614000D01*
X159573323Y-121096000D02*
X159573323Y-124729000D01*
X158732323Y-114810000D02*
X158732323Y-124900000D01*
X161173323Y-115775000D02*
X161173323Y-118614000D01*
X159213323Y-114890000D02*
X159213323Y-124820000D01*
X160333323Y-121096000D02*
X160333323Y-124439000D01*
X161093323Y-121096000D02*
X161093323Y-123993000D01*
X159413323Y-121096000D02*
X159413323Y-124773000D01*
X160853323Y-121096000D02*
X160853323Y-124153000D01*
X159613323Y-114993000D02*
X159613323Y-118614000D01*
X159693323Y-121096000D02*
X159693323Y-124692000D01*
X162653323Y-117490000D02*
X162653323Y-122220000D01*
X159733323Y-121096000D02*
X159733323Y-124679000D01*
X160213323Y-115216000D02*
X160213323Y-118614000D01*
X162493323Y-117210000D02*
X162493323Y-122500000D01*
X161253323Y-121096000D02*
X161253323Y-123875000D01*
X160693323Y-121096000D02*
X160693323Y-124250000D01*
X160213323Y-121096000D02*
X160213323Y-124494000D01*
X162693323Y-117566000D02*
X162693323Y-122144000D01*
X163013323Y-118345000D02*
X163013323Y-121365000D01*
X161813323Y-121096000D02*
X161813323Y-123375000D01*
X160693323Y-115460000D02*
X160693323Y-118614000D01*
X158612323Y-114797000D02*
X158612323Y-124913000D01*
X160653323Y-115438000D02*
X160653323Y-118614000D01*
X160813323Y-121096000D02*
X160813323Y-124178000D01*
X160093323Y-121096000D02*
X160093323Y-124545000D01*
X160733323Y-121096000D02*
X160733323Y-124226000D01*
X160173323Y-115198000D02*
X160173323Y-118614000D01*
X159893323Y-121096000D02*
X159893323Y-124623000D01*
X158292323Y-114777000D02*
X158292323Y-124933000D01*
X160413323Y-115310000D02*
X160413323Y-118614000D01*
X159773323Y-121096000D02*
X159773323Y-124666000D01*
X161213323Y-121096000D02*
X161213323Y-123905000D01*
X159493323Y-114958000D02*
X159493323Y-118614000D01*
X160573323Y-121096000D02*
X160573323Y-124317000D01*
X161653323Y-116176000D02*
X161653323Y-118614000D01*
X162173323Y-116749000D02*
X162173323Y-122961000D01*
X158412323Y-114782000D02*
X158412323Y-124928000D01*
X161373323Y-121096000D02*
X161373323Y-123780000D01*
X160893323Y-121096000D02*
X160893323Y-124128000D01*
X163133323Y-118793000D02*
X163133323Y-120917000D01*
X162773323Y-117730000D02*
X162773323Y-121980000D01*
X159493323Y-121096000D02*
X159493323Y-124752000D01*
X159373323Y-114927000D02*
X159373323Y-124783000D01*
X160973323Y-121096000D02*
X160973323Y-124076000D01*
X162973323Y-118225000D02*
X162973323Y-121485000D01*
X160173323Y-121096000D02*
X160173323Y-124512000D01*
X160813323Y-115532000D02*
X160813323Y-118614000D01*
X159573323Y-114981000D02*
X159573323Y-118614000D01*
X161413323Y-121096000D02*
X161413323Y-123747000D01*
X162093323Y-116649000D02*
X162093323Y-123061000D01*
X161693323Y-116215000D02*
X161693323Y-118614000D01*
X161133323Y-115745000D02*
X161133323Y-118614000D01*
X159053323Y-114858000D02*
X159053323Y-124852000D01*
X162133323Y-116699000D02*
X162133323Y-123011000D01*
X160093323Y-115165000D02*
X160093323Y-118614000D01*
X159933323Y-121096000D02*
X159933323Y-124609000D01*
X158372323Y-114780000D02*
X158372323Y-124930000D01*
X161653323Y-121096000D02*
X161653323Y-123534000D01*
X158172323Y-114775000D02*
X158172323Y-124935000D01*
X162533323Y-117276000D02*
X162533323Y-122434000D01*
X158652323Y-114801000D02*
X158652323Y-124909000D01*
X159773323Y-115044000D02*
X159773323Y-118614000D01*
X160253323Y-115234000D02*
X160253323Y-118614000D01*
X158532323Y-114790000D02*
X158532323Y-124920000D01*
X160893323Y-115582000D02*
X160893323Y-118614000D01*
X158853323Y-114825000D02*
X158853323Y-124885000D01*
X160053323Y-115148000D02*
X160053323Y-118614000D01*
X162453323Y-117146000D02*
X162453323Y-122564000D01*
X161453323Y-115997000D02*
X161453323Y-118614000D01*
X160973323Y-115634000D02*
X160973323Y-118614000D01*
X161973323Y-116508000D02*
X161973323Y-123202000D01*
X159693323Y-115018000D02*
X159693323Y-118614000D01*
X163053323Y-118477000D02*
X163053323Y-121233000D01*
X158812323Y-114820000D02*
X158812323Y-124890000D01*
X160613323Y-121096000D02*
X160613323Y-124295000D01*
X159973323Y-115117000D02*
X159973323Y-118614000D01*
X160493323Y-121096000D02*
X160493323Y-124359000D01*
X159333323Y-114917000D02*
X159333323Y-124793000D01*
X159613323Y-121096000D02*
X159613323Y-124717000D01*
X161173323Y-121096000D02*
X161173323Y-123935000D01*
X159653323Y-121096000D02*
X159653323Y-124705000D01*
X159453323Y-121096000D02*
X159453323Y-124762000D01*
X160253323Y-121096000D02*
X160253323Y-124476000D01*
X161533323Y-116066000D02*
X161533323Y-118614000D01*
X161573323Y-121096000D02*
X161573323Y-123608000D01*
X160293323Y-115252000D02*
X160293323Y-118614000D01*
X163173323Y-118993000D02*
X163173323Y-120717000D01*
X161613323Y-116139000D02*
X161613323Y-118614000D01*
X159653323Y-115005000D02*
X159653323Y-118614000D01*
X160373323Y-121096000D02*
X160373323Y-124419000D01*
X161093323Y-115717000D02*
X161093323Y-118614000D01*
X159173323Y-114881000D02*
X159173323Y-124829000D01*
X160453323Y-121096000D02*
X160453323Y-124380000D01*
X161293323Y-115866000D02*
X161293323Y-118614000D01*
X160493323Y-115351000D02*
X160493323Y-118614000D01*
X162053323Y-116601000D02*
X162053323Y-123109000D01*
X159253323Y-114899000D02*
X159253323Y-124811000D01*
X158772323Y-114815000D02*
X158772323Y-124895000D01*
X159813323Y-121096000D02*
X159813323Y-124652000D01*
X161493323Y-116031000D02*
X161493323Y-118614000D01*
X159893323Y-115087000D02*
X159893323Y-118614000D01*
X160573323Y-115393000D02*
X160573323Y-118614000D01*
X161613323Y-121096000D02*
X161613323Y-123571000D01*
X158132323Y-114775000D02*
X158132323Y-124935000D01*
X162733323Y-117646000D02*
X162733323Y-122064000D01*
X162013323Y-116554000D02*
X162013323Y-123156000D01*
X161413323Y-115963000D02*
X161413323Y-118614000D01*
X152652677Y-116980000D02*
X153652677Y-116980000D01*
X162253323Y-116855000D02*
X162253323Y-122855000D01*
X160773323Y-115508000D02*
X160773323Y-118614000D01*
X162213323Y-116801000D02*
X162213323Y-122909000D01*
X162813323Y-117818000D02*
X162813323Y-121892000D01*
X162933323Y-118113000D02*
X162933323Y-121597000D01*
X159533323Y-121096000D02*
X159533323Y-124740000D01*
X159533323Y-114970000D02*
X159533323Y-118614000D01*
X162613323Y-117416000D02*
X162613323Y-122294000D01*
X159093323Y-114865000D02*
X159093323Y-124845000D01*
X161693323Y-121096000D02*
X161693323Y-123495000D01*
X161853323Y-116377000D02*
X161853323Y-118614000D01*
X161333323Y-121096000D02*
X161333323Y-123812000D01*
X159013323Y-114851000D02*
X159013323Y-124859000D01*
X162893323Y-118009000D02*
X162893323Y-121701000D01*
X160933323Y-121096000D02*
X160933323Y-124102000D01*
X158572323Y-114793000D02*
X158572323Y-124917000D01*
X162293323Y-116910000D02*
X162293323Y-122800000D01*
X163252323Y-119855000D02*
G75*
G03*
X163252323Y-119855000I-5120000J0D01*
G01*
%TO.C,CCREF0*%
X145211252Y-87945000D02*
X143788748Y-87945000D01*
X145211252Y-89765000D02*
X143788748Y-89765000D01*
%TO.C,COUTBUCK2*%
X156478748Y-60995000D02*
X157901252Y-60995000D01*
X156478748Y-62815000D02*
X157901252Y-62815000D01*
%TO.C,RIN0B1*%
X126660000Y-88764564D02*
X126660000Y-87310436D01*
X124840000Y-88764564D02*
X124840000Y-87310436D01*
%TO.C,CAPIN0A1*%
X143788748Y-94090000D02*
X145211252Y-94090000D01*
X143788748Y-95910000D02*
X145211252Y-95910000D01*
%TO.C,CAPIN0B1*%
X143788748Y-92910000D02*
X145211252Y-92910000D01*
X143788748Y-91090000D02*
X145211252Y-91090000D01*
%TO.C,L2*%
X184800000Y-82190000D02*
X173300000Y-82190000D01*
X172600000Y-81490000D02*
X172600000Y-78590000D01*
X173300000Y-69390000D02*
X184800000Y-69390000D01*
X172600000Y-72990000D02*
X172600000Y-70090000D01*
X185500000Y-81540000D02*
X185500000Y-78590000D01*
X185500000Y-72990000D02*
X185500000Y-70090000D01*
X184800000Y-82190000D02*
G75*
G03*
X185500000Y-81490000I1J699999D01*
G01*
X172600000Y-81490000D02*
G75*
G03*
X173300000Y-82190000I699999J-1D01*
G01*
X185500000Y-70090000D02*
G75*
G03*
X184800000Y-69390000I-699999J1D01*
G01*
X173300000Y-69390000D02*
G75*
G03*
X172600000Y-70090000I-1J-699999D01*
G01*
%TO.C,R3*%
X191190000Y-108250436D02*
X191190000Y-109704564D01*
X193010000Y-108250436D02*
X193010000Y-109704564D01*
%TO.C,RMUTE1*%
X147840000Y-114090436D02*
X147840000Y-115544564D01*
X149660000Y-114090436D02*
X149660000Y-115544564D01*
%TO.C,CLIP_LED_0*%
X168945000Y-53285000D02*
X171215000Y-53285000D01*
X171215000Y-53285000D02*
X171215000Y-49400000D01*
X168945000Y-49400000D02*
X168945000Y-53285000D01*
%TO.C,L3*%
X184800000Y-96795000D02*
X173300000Y-96795000D01*
X172600000Y-87595000D02*
X172600000Y-84695000D01*
X173300000Y-83995000D02*
X184800000Y-83995000D01*
X185500000Y-87595000D02*
X185500000Y-84695000D01*
X172600000Y-96095000D02*
X172600000Y-93195000D01*
X185500000Y-96145000D02*
X185500000Y-93195000D01*
X184800000Y-96795000D02*
G75*
G03*
X185500000Y-96095000I1J699999D01*
G01*
X173300000Y-83995000D02*
G75*
G03*
X172600000Y-84695000I-1J-699999D01*
G01*
X172600000Y-96095000D02*
G75*
G03*
X173300000Y-96795000I699999J-1D01*
G01*
X185500000Y-84695000D02*
G75*
G03*
X184800000Y-83995000I-699999J1D01*
G01*
%TO.C,RCLK1*%
X127340000Y-95522936D02*
X127340000Y-96977064D01*
X129160000Y-95522936D02*
X129160000Y-96977064D01*
%TO.C,CGD0N1*%
X165813748Y-91445000D02*
X167236252Y-91445000D01*
X165813748Y-93265000D02*
X167236252Y-93265000D01*
%TO.C,L5*%
X185500000Y-125355000D02*
X185500000Y-122405000D01*
X172600000Y-125305000D02*
X172600000Y-122405000D01*
X184800000Y-126005000D02*
X173300000Y-126005000D01*
X185500000Y-116805000D02*
X185500000Y-113905000D01*
X173300000Y-113205000D02*
X184800000Y-113205000D01*
X172600000Y-116805000D02*
X172600000Y-113905000D01*
X172600000Y-125305000D02*
G75*
G03*
X173300000Y-126005000I699999J-1D01*
G01*
X184800000Y-126005000D02*
G75*
G03*
X185500000Y-125305000I1J699999D01*
G01*
X185500000Y-113905000D02*
G75*
G03*
X184800000Y-113205000I-699999J1D01*
G01*
X173300000Y-113205000D02*
G75*
G03*
X172600000Y-113905000I-1J-699999D01*
G01*
%TO.C,COUTBUCK0*%
X159556000Y-48793000D02*
X159556000Y-50705000D01*
X159036000Y-52785000D02*
X159036000Y-54876000D01*
X159836000Y-52785000D02*
X159836000Y-54557000D01*
X159316000Y-52785000D02*
X159316000Y-54792000D01*
X159796000Y-52785000D02*
X159796000Y-54579000D01*
X159036000Y-48614000D02*
X159036000Y-50705000D01*
X159476000Y-52785000D02*
X159476000Y-54731000D01*
X158475000Y-52785000D02*
X158475000Y-54967000D01*
X161196000Y-50395000D02*
X161196000Y-53095000D01*
X160116000Y-49109000D02*
X160116000Y-50705000D01*
X160276000Y-49229000D02*
X160276000Y-50705000D01*
X158875000Y-52785000D02*
X158875000Y-54912000D01*
X158795000Y-48563000D02*
X158795000Y-50705000D01*
X161396000Y-50943000D02*
X161396000Y-52547000D01*
X158675000Y-52785000D02*
X158675000Y-54946000D01*
X159356000Y-52785000D02*
X159356000Y-54778000D01*
X160956000Y-49969000D02*
X160956000Y-53521000D01*
X160036000Y-49055000D02*
X160036000Y-50705000D01*
X160316000Y-52785000D02*
X160316000Y-54229000D01*
X160076000Y-49081000D02*
X160076000Y-50705000D01*
X160916000Y-49911000D02*
X160916000Y-53579000D01*
X159996000Y-52785000D02*
X159996000Y-54461000D01*
X159516000Y-48775000D02*
X159516000Y-50705000D01*
X158595000Y-48534000D02*
X158595000Y-50705000D01*
X161036000Y-50095000D02*
X161036000Y-53395000D01*
X160236000Y-49197000D02*
X160236000Y-50705000D01*
X159716000Y-52785000D02*
X159716000Y-54621000D01*
X161156000Y-50313000D02*
X161156000Y-53177000D01*
X160036000Y-52785000D02*
X160036000Y-54435000D01*
X160116000Y-52785000D02*
X160116000Y-54381000D01*
X158835000Y-48570000D02*
X158835000Y-50705000D01*
X158675000Y-48544000D02*
X158675000Y-50705000D01*
X159876000Y-48955000D02*
X159876000Y-50705000D01*
X159636000Y-48829000D02*
X159636000Y-50705000D01*
X158835000Y-52785000D02*
X158835000Y-54920000D01*
X159796000Y-48911000D02*
X159796000Y-50705000D01*
X159676000Y-52785000D02*
X159676000Y-54641000D01*
X155049759Y-49591000D02*
X155049759Y-50221000D01*
X159316000Y-48698000D02*
X159316000Y-50705000D01*
X159156000Y-48647000D02*
X159156000Y-50705000D01*
X161236000Y-50483000D02*
X161236000Y-53007000D01*
X160516000Y-52785000D02*
X160516000Y-54050000D01*
X158956000Y-52785000D02*
X158956000Y-54895000D01*
X159676000Y-48849000D02*
X159676000Y-50705000D01*
X160556000Y-49480000D02*
X160556000Y-54010000D01*
X160436000Y-52785000D02*
X160436000Y-54125000D01*
X158395000Y-48518000D02*
X158395000Y-54972000D01*
X159556000Y-52785000D02*
X159556000Y-54697000D01*
X159956000Y-52785000D02*
X159956000Y-54487000D01*
X159196000Y-52785000D02*
X159196000Y-54831000D01*
X161316000Y-50686000D02*
X161316000Y-52804000D01*
X160196000Y-52785000D02*
X160196000Y-54323000D01*
X160596000Y-49521000D02*
X160596000Y-53969000D01*
X161076000Y-50164000D02*
X161076000Y-53326000D01*
X160876000Y-49855000D02*
X160876000Y-53635000D01*
X160396000Y-49329000D02*
X160396000Y-50705000D01*
X159076000Y-48624000D02*
X159076000Y-50705000D01*
X158515000Y-52785000D02*
X158515000Y-54963000D01*
X158355000Y-48517000D02*
X158355000Y-54973000D01*
X160716000Y-49653000D02*
X160716000Y-53837000D01*
X159516000Y-52785000D02*
X159516000Y-54715000D01*
X159996000Y-49029000D02*
X159996000Y-50705000D01*
X159116000Y-48635000D02*
X159116000Y-50705000D01*
X161116000Y-50236000D02*
X161116000Y-53254000D01*
X160356000Y-49295000D02*
X160356000Y-50705000D01*
X158515000Y-48527000D02*
X158515000Y-50705000D01*
X158235000Y-48515000D02*
X158235000Y-54975000D01*
X160516000Y-49440000D02*
X160516000Y-50705000D01*
X159196000Y-48659000D02*
X159196000Y-50705000D01*
X159396000Y-48727000D02*
X159396000Y-50705000D01*
X160676000Y-49608000D02*
X160676000Y-53882000D01*
X159956000Y-49003000D02*
X159956000Y-50705000D01*
X158755000Y-52785000D02*
X158755000Y-54934000D01*
X159716000Y-48869000D02*
X159716000Y-50705000D01*
X160156000Y-52785000D02*
X160156000Y-54352000D01*
X160476000Y-52785000D02*
X160476000Y-54088000D01*
X159596000Y-52785000D02*
X159596000Y-54679000D01*
X159436000Y-48743000D02*
X159436000Y-50705000D01*
X160476000Y-49402000D02*
X160476000Y-50705000D01*
X158915000Y-48586000D02*
X158915000Y-50705000D01*
X160316000Y-49261000D02*
X160316000Y-50705000D01*
X158875000Y-48578000D02*
X158875000Y-50705000D01*
X159596000Y-48811000D02*
X159596000Y-50705000D01*
X160996000Y-50031000D02*
X160996000Y-53459000D01*
X159356000Y-48712000D02*
X159356000Y-50705000D01*
X158956000Y-48595000D02*
X158956000Y-50705000D01*
X160436000Y-49365000D02*
X160436000Y-50705000D01*
X160396000Y-52785000D02*
X160396000Y-54161000D01*
X160276000Y-52785000D02*
X160276000Y-54261000D01*
X160156000Y-49138000D02*
X160156000Y-50705000D01*
X158315000Y-48515000D02*
X158315000Y-54975000D01*
X158435000Y-48521000D02*
X158435000Y-54969000D01*
X160756000Y-49701000D02*
X160756000Y-53789000D01*
X160836000Y-49801000D02*
X160836000Y-53689000D01*
X161436000Y-51112000D02*
X161436000Y-52378000D01*
X154734759Y-49906000D02*
X155364759Y-49906000D01*
X160196000Y-49167000D02*
X160196000Y-50705000D01*
X159876000Y-52785000D02*
X159876000Y-54535000D01*
X158715000Y-48550000D02*
X158715000Y-50705000D01*
X158915000Y-52785000D02*
X158915000Y-54904000D01*
X158715000Y-52785000D02*
X158715000Y-54940000D01*
X158555000Y-48530000D02*
X158555000Y-50705000D01*
X158475000Y-48523000D02*
X158475000Y-50705000D01*
X159116000Y-52785000D02*
X159116000Y-54855000D01*
X158635000Y-48539000D02*
X158635000Y-50705000D01*
X159156000Y-52785000D02*
X159156000Y-54843000D01*
X158275000Y-48515000D02*
X158275000Y-54975000D01*
X158996000Y-48604000D02*
X158996000Y-50705000D01*
X158635000Y-52785000D02*
X158635000Y-54951000D01*
X159636000Y-52785000D02*
X159636000Y-54661000D01*
X159916000Y-48979000D02*
X159916000Y-50705000D01*
X160636000Y-49563000D02*
X160636000Y-53927000D01*
X161476000Y-51343000D02*
X161476000Y-52147000D01*
X160236000Y-52785000D02*
X160236000Y-54293000D01*
X159916000Y-52785000D02*
X159916000Y-54511000D01*
X158595000Y-52785000D02*
X158595000Y-54956000D01*
X159236000Y-52785000D02*
X159236000Y-54819000D01*
X160356000Y-52785000D02*
X160356000Y-54195000D01*
X161276000Y-50580000D02*
X161276000Y-52910000D01*
X161356000Y-50805000D02*
X161356000Y-52685000D01*
X159396000Y-52785000D02*
X159396000Y-54763000D01*
X158755000Y-48556000D02*
X158755000Y-50705000D01*
X160076000Y-52785000D02*
X160076000Y-54409000D01*
X159236000Y-48671000D02*
X159236000Y-50705000D01*
X159076000Y-52785000D02*
X159076000Y-54866000D01*
X158555000Y-52785000D02*
X158555000Y-54960000D01*
X158996000Y-52785000D02*
X158996000Y-54886000D01*
X159276000Y-48684000D02*
X159276000Y-50705000D01*
X159436000Y-52785000D02*
X159436000Y-54747000D01*
X159756000Y-52785000D02*
X159756000Y-54601000D01*
X159756000Y-48889000D02*
X159756000Y-50705000D01*
X159276000Y-52785000D02*
X159276000Y-54806000D01*
X159476000Y-48759000D02*
X159476000Y-50705000D01*
X158795000Y-52785000D02*
X158795000Y-54927000D01*
X160796000Y-49750000D02*
X160796000Y-53740000D01*
X159836000Y-48933000D02*
X159836000Y-50705000D01*
X161505000Y-51745000D02*
G75*
G03*
X161505000Y-51745000I-3270000J0D01*
G01*
%TO.C,RIN1B1*%
X126660000Y-95522936D02*
X126660000Y-96977064D01*
X124840000Y-95522936D02*
X124840000Y-96977064D01*
%TO.C,CSUP1*%
X160313323Y-73032000D02*
X160313323Y-76114000D01*
X162633323Y-76293000D02*
X162633323Y-78417000D01*
X158152323Y-72301000D02*
X158152323Y-82409000D01*
X160473323Y-78596000D02*
X160473323Y-81576000D01*
X160633323Y-78596000D02*
X160633323Y-81465000D01*
X160913323Y-78596000D02*
X160913323Y-81247000D01*
X159473323Y-78596000D02*
X159473323Y-82093000D01*
X157832323Y-72278000D02*
X157832323Y-82432000D01*
X160593323Y-73217000D02*
X160593323Y-76114000D01*
X160673323Y-73275000D02*
X160673323Y-76114000D01*
X158232323Y-72310000D02*
X158232323Y-82400000D01*
X159953323Y-72830000D02*
X159953323Y-76114000D01*
X158513323Y-72351000D02*
X158513323Y-82359000D01*
X158913323Y-72437000D02*
X158913323Y-76114000D01*
X161313323Y-78596000D02*
X161313323Y-80875000D01*
X160233323Y-78596000D02*
X160233323Y-81726000D01*
X160313323Y-78596000D02*
X160313323Y-81678000D01*
X159553323Y-72648000D02*
X159553323Y-76114000D01*
X162353323Y-75411000D02*
X162353323Y-79299000D01*
X160513323Y-78596000D02*
X160513323Y-81549000D01*
X160673323Y-78596000D02*
X160673323Y-81435000D01*
X158633323Y-72373000D02*
X158633323Y-82337000D01*
X161233323Y-73754000D02*
X161233323Y-76114000D01*
X159433323Y-72601000D02*
X159433323Y-76114000D01*
X160393323Y-78596000D02*
X160393323Y-81628000D01*
X160353323Y-78596000D02*
X160353323Y-81653000D01*
X161313323Y-73835000D02*
X161313323Y-76114000D01*
X162073323Y-74845000D02*
X162073323Y-79865000D01*
X159313323Y-72558000D02*
X159313323Y-76114000D01*
X158112323Y-72297000D02*
X158112323Y-82413000D01*
X162233323Y-75146000D02*
X162233323Y-79564000D01*
X158753323Y-72399000D02*
X158753323Y-82311000D01*
X157792323Y-72277000D02*
X157792323Y-82433000D01*
X160953323Y-73497000D02*
X160953323Y-76114000D01*
X159233323Y-78596000D02*
X159233323Y-82179000D01*
X158553323Y-72358000D02*
X158553323Y-82352000D01*
X159033323Y-72470000D02*
X159033323Y-76114000D01*
X159633323Y-72681000D02*
X159633323Y-76114000D01*
X161193323Y-78596000D02*
X161193323Y-80995000D01*
X160193323Y-78596000D02*
X160193323Y-81750000D01*
X160033323Y-72872000D02*
X160033323Y-76114000D01*
X160153323Y-72938000D02*
X160153323Y-76114000D01*
X161913323Y-74585000D02*
X161913323Y-80125000D01*
X161593323Y-74149000D02*
X161593323Y-80561000D01*
X161033323Y-78596000D02*
X161033323Y-81144000D01*
X159793323Y-72752000D02*
X159793323Y-76114000D01*
X159873323Y-72791000D02*
X159873323Y-76114000D01*
X161673323Y-74249000D02*
X161673323Y-80461000D01*
X159273323Y-72544000D02*
X159273323Y-76114000D01*
X158473323Y-72344000D02*
X158473323Y-82366000D01*
X160273323Y-73008000D02*
X160273323Y-76114000D01*
X161793323Y-74410000D02*
X161793323Y-80300000D01*
X158913323Y-78596000D02*
X158913323Y-82273000D01*
X159953323Y-78596000D02*
X159953323Y-81880000D01*
X159713323Y-78596000D02*
X159713323Y-81994000D01*
X158192323Y-72305000D02*
X158192323Y-82405000D01*
X159513323Y-78596000D02*
X159513323Y-82078000D01*
X158793323Y-72408000D02*
X158793323Y-82302000D01*
X161993323Y-74710000D02*
X161993323Y-80000000D01*
X162033323Y-74776000D02*
X162033323Y-79934000D01*
X159273323Y-78596000D02*
X159273323Y-82166000D01*
X160993323Y-73531000D02*
X160993323Y-76114000D01*
X158393323Y-72331000D02*
X158393323Y-82379000D01*
X160913323Y-73463000D02*
X160913323Y-76114000D01*
X158032323Y-72290000D02*
X158032323Y-82420000D01*
X161153323Y-73676000D02*
X161153323Y-76114000D01*
X162473323Y-75725000D02*
X162473323Y-78985000D01*
X160593323Y-78596000D02*
X160593323Y-81493000D01*
X158072323Y-72293000D02*
X158072323Y-82417000D01*
X160433323Y-78596000D02*
X160433323Y-81602000D01*
X160073323Y-72893000D02*
X160073323Y-76114000D01*
X159353323Y-78596000D02*
X159353323Y-82138000D01*
X161033323Y-73566000D02*
X161033323Y-76114000D01*
X161393323Y-73919000D02*
X161393323Y-80791000D01*
X160273323Y-78596000D02*
X160273323Y-81702000D01*
X158593323Y-72365000D02*
X158593323Y-82345000D01*
X160073323Y-78596000D02*
X160073323Y-81817000D01*
X160833323Y-73398000D02*
X160833323Y-76114000D01*
X159073323Y-78596000D02*
X159073323Y-82229000D01*
X157752323Y-72276000D02*
X157752323Y-82434000D01*
X159673323Y-72698000D02*
X159673323Y-76114000D01*
X160153323Y-78596000D02*
X160153323Y-81772000D01*
X160753323Y-73335000D02*
X160753323Y-76114000D01*
X161113323Y-73639000D02*
X161113323Y-76114000D01*
X160553323Y-78596000D02*
X160553323Y-81521000D01*
X157672323Y-72275000D02*
X157672323Y-82435000D01*
X162193323Y-75066000D02*
X162193323Y-79644000D01*
X159593323Y-72665000D02*
X159593323Y-76114000D01*
X158993323Y-78596000D02*
X158993323Y-82252000D01*
X159473323Y-72617000D02*
X159473323Y-76114000D01*
X159673323Y-78596000D02*
X159673323Y-82012000D01*
X162313323Y-75318000D02*
X162313323Y-79392000D01*
X160713323Y-73305000D02*
X160713323Y-76114000D01*
X158673323Y-72381000D02*
X158673323Y-82329000D01*
X159993323Y-72851000D02*
X159993323Y-76114000D01*
X162713323Y-76756000D02*
X162713323Y-77954000D01*
X157952323Y-72285000D02*
X157952323Y-82425000D01*
X162553323Y-75977000D02*
X162553323Y-78733000D01*
X161513323Y-74054000D02*
X161513323Y-80656000D01*
X161353323Y-73877000D02*
X161353323Y-76114000D01*
X162433323Y-75613000D02*
X162433323Y-79097000D01*
X161193323Y-73715000D02*
X161193323Y-76114000D01*
X159833323Y-72771000D02*
X159833323Y-76114000D01*
X159033323Y-78596000D02*
X159033323Y-82240000D01*
X162393323Y-75509000D02*
X162393323Y-79201000D01*
X161473323Y-74008000D02*
X161473323Y-80702000D01*
X160233323Y-72984000D02*
X160233323Y-76114000D01*
X158953323Y-72448000D02*
X158953323Y-76114000D01*
X158312323Y-72320000D02*
X158312323Y-82390000D01*
X158353323Y-72325000D02*
X158353323Y-82385000D01*
X161273323Y-78596000D02*
X161273323Y-80916000D01*
X161713323Y-74301000D02*
X161713323Y-80409000D01*
X152652677Y-73980000D02*
X152652677Y-74980000D01*
X160873323Y-73430000D02*
X160873323Y-76114000D01*
X160633323Y-73245000D02*
X160633323Y-76114000D01*
X162153323Y-74990000D02*
X162153323Y-79720000D01*
X161433323Y-73963000D02*
X161433323Y-80747000D01*
X159193323Y-72518000D02*
X159193323Y-76114000D01*
X161273323Y-73794000D02*
X161273323Y-76114000D01*
X161953323Y-74646000D02*
X161953323Y-80064000D01*
X159833323Y-78596000D02*
X159833323Y-81939000D01*
X159753323Y-72734000D02*
X159753323Y-76114000D01*
X159153323Y-72505000D02*
X159153323Y-76114000D01*
X157992323Y-72287000D02*
X157992323Y-82423000D01*
X160713323Y-78596000D02*
X160713323Y-81405000D01*
X152152677Y-74480000D02*
X153152677Y-74480000D01*
X161073323Y-73602000D02*
X161073323Y-76114000D01*
X160753323Y-78596000D02*
X160753323Y-81375000D01*
X160833323Y-78596000D02*
X160833323Y-81312000D01*
X159313323Y-78596000D02*
X159313323Y-82152000D01*
X161553323Y-74101000D02*
X161553323Y-80609000D01*
X159913323Y-72810000D02*
X159913323Y-76114000D01*
X160393323Y-73082000D02*
X160393323Y-76114000D01*
X161113323Y-78596000D02*
X161113323Y-81071000D01*
X162593323Y-76125000D02*
X162593323Y-78585000D01*
X160433323Y-73108000D02*
X160433323Y-76114000D01*
X158433323Y-72337000D02*
X158433323Y-82373000D01*
X160113323Y-78596000D02*
X160113323Y-81795000D01*
X161833323Y-74466000D02*
X161833323Y-80244000D01*
X159873323Y-78596000D02*
X159873323Y-81919000D01*
X159393323Y-72587000D02*
X159393323Y-76114000D01*
X159113323Y-72493000D02*
X159113323Y-76114000D01*
X161353323Y-78596000D02*
X161353323Y-80833000D01*
X159553323Y-78596000D02*
X159553323Y-82062000D01*
X160793323Y-78596000D02*
X160793323Y-81344000D01*
X159393323Y-78596000D02*
X159393323Y-82123000D01*
X160033323Y-78596000D02*
X160033323Y-81838000D01*
X159353323Y-72572000D02*
X159353323Y-76114000D01*
X162273323Y-75230000D02*
X162273323Y-79480000D01*
X160553323Y-73189000D02*
X160553323Y-76114000D01*
X158272323Y-72315000D02*
X158272323Y-82395000D01*
X158993323Y-72458000D02*
X158993323Y-76114000D01*
X160793323Y-73366000D02*
X160793323Y-76114000D01*
X161153323Y-78596000D02*
X161153323Y-81034000D01*
X159753323Y-78596000D02*
X159753323Y-81976000D01*
X159433323Y-78596000D02*
X159433323Y-82109000D01*
X160353323Y-73057000D02*
X160353323Y-76114000D01*
X159193323Y-78596000D02*
X159193323Y-82192000D01*
X158953323Y-78596000D02*
X158953323Y-82262000D01*
X160113323Y-72915000D02*
X160113323Y-76114000D01*
X159153323Y-78596000D02*
X159153323Y-82205000D01*
X159913323Y-78596000D02*
X159913323Y-81900000D01*
X159993323Y-78596000D02*
X159993323Y-81859000D01*
X162513323Y-75845000D02*
X162513323Y-78865000D01*
X160193323Y-72960000D02*
X160193323Y-76114000D01*
X160473323Y-73134000D02*
X160473323Y-76114000D01*
X161753323Y-74355000D02*
X161753323Y-80355000D01*
X160873323Y-78596000D02*
X160873323Y-81280000D01*
X162673323Y-76493000D02*
X162673323Y-78217000D01*
X158713323Y-72390000D02*
X158713323Y-82320000D01*
X161233323Y-78596000D02*
X161233323Y-80956000D01*
X160513323Y-73161000D02*
X160513323Y-76114000D01*
X161873323Y-74525000D02*
X161873323Y-80185000D01*
X157912323Y-72282000D02*
X157912323Y-82428000D01*
X158833323Y-72417000D02*
X158833323Y-82293000D01*
X159513323Y-72632000D02*
X159513323Y-76114000D01*
X159113323Y-78596000D02*
X159113323Y-82217000D01*
X162113323Y-74916000D02*
X162113323Y-79794000D01*
X158873323Y-72427000D02*
X158873323Y-82283000D01*
X160993323Y-78596000D02*
X160993323Y-81179000D01*
X159593323Y-78596000D02*
X159593323Y-82045000D01*
X157712323Y-72275000D02*
X157712323Y-82435000D01*
X161633323Y-74199000D02*
X161633323Y-80511000D01*
X159073323Y-72481000D02*
X159073323Y-76114000D01*
X159633323Y-78596000D02*
X159633323Y-82029000D01*
X159793323Y-78596000D02*
X159793323Y-81958000D01*
X159233323Y-72531000D02*
X159233323Y-76114000D01*
X157632323Y-72275000D02*
X157632323Y-82435000D01*
X157872323Y-72280000D02*
X157872323Y-82430000D01*
X159713323Y-72716000D02*
X159713323Y-76114000D01*
X160953323Y-78596000D02*
X160953323Y-81213000D01*
X161073323Y-78596000D02*
X161073323Y-81108000D01*
X162752323Y-77355000D02*
G75*
G03*
X162752323Y-77355000I-5120000J0D01*
G01*
%TO.C,CGD1N1*%
X160538748Y-110660000D02*
X161961252Y-110660000D01*
X160538748Y-108840000D02*
X161961252Y-108840000D01*
%TO.C,RB_FB2*%
X145384564Y-60910000D02*
X143930436Y-60910000D01*
X145384564Y-59090000D02*
X143930436Y-59090000D01*
%TO.C,CGD1N0*%
X167461252Y-108840000D02*
X166038748Y-108840000D01*
X167461252Y-110660000D02*
X166038748Y-110660000D01*
%TO.C,JP2*%
X155225000Y-59425000D02*
X155225000Y-58095000D01*
X157825000Y-59425000D02*
X157825000Y-56765000D01*
X157825000Y-56765000D02*
X162965000Y-56765000D01*
X162965000Y-59425000D02*
X162965000Y-56765000D01*
X156555000Y-59425000D02*
X155225000Y-59425000D01*
X157825000Y-59425000D02*
X162965000Y-59425000D01*
%TO.C,L4*%
X172600000Y-102200000D02*
X172600000Y-99300000D01*
X172600000Y-110700000D02*
X172600000Y-107800000D01*
X185500000Y-102200000D02*
X185500000Y-99300000D01*
X185500000Y-110750000D02*
X185500000Y-107800000D01*
X184800000Y-111400000D02*
X173300000Y-111400000D01*
X173300000Y-98600000D02*
X184800000Y-98600000D01*
X172600000Y-110700000D02*
G75*
G03*
X173300000Y-111400000I699999J-1D01*
G01*
X173300000Y-98600000D02*
G75*
G03*
X172600000Y-99300000I-1J-699999D01*
G01*
X184800000Y-111400000D02*
G75*
G03*
X185500000Y-110700000I1J699999D01*
G01*
X185500000Y-99300000D02*
G75*
G03*
X184800000Y-98600000I-699999J1D01*
G01*
%TO.C,JP3*%
X139330000Y-107495000D02*
X139330000Y-112635000D01*
X136670000Y-107495000D02*
X136670000Y-112635000D01*
X136670000Y-104895000D02*
X138000000Y-104895000D01*
X136670000Y-106225000D02*
X136670000Y-104895000D01*
X136670000Y-112635000D02*
X139330000Y-112635000D01*
X136670000Y-107495000D02*
X139330000Y-107495000D01*
%TO.C,CF0B0*%
X150736252Y-86265000D02*
X149313748Y-86265000D01*
X150736252Y-84445000D02*
X149313748Y-84445000D01*
%TO.C,RPVDD1*%
X136354564Y-62410000D02*
X134900436Y-62410000D01*
X136354564Y-60590000D02*
X134900436Y-60590000D01*
%TO.C,RENABLE1*%
X146660000Y-114090436D02*
X146660000Y-115544564D01*
X144840000Y-114090436D02*
X144840000Y-115544564D01*
%TO.C,CF1A0*%
X155313748Y-110765000D02*
X156736252Y-110765000D01*
X155313748Y-108945000D02*
X156736252Y-108945000D01*
%TO.C,COUTBUCK1*%
X156478748Y-65990000D02*
X157901252Y-65990000D01*
X156478748Y-64170000D02*
X157901252Y-64170000D01*
%TO.C,CCDC0*%
X165838748Y-101945000D02*
X167261252Y-101945000D01*
X165838748Y-103765000D02*
X167261252Y-103765000D01*
%TO.C,CGD0N0*%
X167236252Y-94945000D02*
X165813748Y-94945000D01*
X167236252Y-96765000D02*
X165813748Y-96765000D01*
%TO.C,C5*%
X189730000Y-89220000D02*
X189730000Y-96660000D01*
X194470000Y-89220000D02*
X194470000Y-96660000D01*
X194470000Y-96660000D02*
X189730000Y-96660000D01*
X194470000Y-89220000D02*
X189730000Y-89220000D01*
%TO.C,CPVDD0B1*%
X145211252Y-86265000D02*
X143788748Y-86265000D01*
X145211252Y-84445000D02*
X143788748Y-84445000D01*
%TO.C,C10*%
X195980000Y-112820000D02*
X195980000Y-126060000D01*
X201220000Y-112820000D02*
X195980000Y-112820000D01*
X201220000Y-126060000D02*
X195980000Y-126060000D01*
X201220000Y-112820000D02*
X201220000Y-126060000D01*
%TO.C,CIN1*%
X129478748Y-65910000D02*
X130901252Y-65910000D01*
X129478748Y-64090000D02*
X130901252Y-64090000D01*
%TO.C,R4*%
X191190000Y-114750436D02*
X191190000Y-116204564D01*
X193010000Y-114750436D02*
X193010000Y-116204564D01*
%TO.C,C9*%
X201205000Y-98320000D02*
X201205000Y-111560000D01*
X195965000Y-98320000D02*
X195965000Y-111560000D01*
X201205000Y-111560000D02*
X195965000Y-111560000D01*
X201205000Y-98320000D02*
X195965000Y-98320000D01*
%TO.C,CPVDD0A0*%
X156211252Y-87945000D02*
X154788748Y-87945000D01*
X156211252Y-89765000D02*
X154788748Y-89765000D01*
%TO.C,CFGD0*%
X165813748Y-84445000D02*
X167236252Y-84445000D01*
X165813748Y-86265000D02*
X167236252Y-86265000D01*
%TO.C,RB_PG0*%
X149272936Y-55590000D02*
X150727064Y-55590000D01*
X149272936Y-57410000D02*
X150727064Y-57410000D01*
%TO.C,C1*%
X194470000Y-77122500D02*
X189730000Y-77122500D01*
X189730000Y-69682500D02*
X189730000Y-77122500D01*
X194470000Y-69682500D02*
X194470000Y-77122500D01*
X194470000Y-69682500D02*
X189730000Y-69682500D01*
%TO.C,CAPIN1A1*%
X145211252Y-97340000D02*
X143788748Y-97340000D01*
X145211252Y-99160000D02*
X143788748Y-99160000D01*
%TO.C,RCLIP_LED_0*%
X169170000Y-58802064D02*
X169170000Y-57347936D01*
X170990000Y-58802064D02*
X170990000Y-57347936D01*
%TO.C,LSUP0*%
X137550000Y-68064564D02*
X137550000Y-65260436D01*
X134830000Y-68064564D02*
X134830000Y-65260436D01*
%TO.C,ERROR_LED_0*%
X166255000Y-49452500D02*
X166255000Y-53337500D01*
X168525000Y-53337500D02*
X168525000Y-49452500D01*
X166255000Y-53337500D02*
X168525000Y-53337500D01*
%TO.C,CAPIN1B1*%
X143788748Y-100340000D02*
X145211252Y-100340000D01*
X143788748Y-102160000D02*
X145211252Y-102160000D01*
%TO.C,PAUDIO1*%
X120920000Y-83132500D02*
X122250000Y-83132500D01*
X120920000Y-84462500D02*
X120920000Y-83132500D01*
X120920000Y-85732500D02*
X120920000Y-95952500D01*
X120920000Y-85732500D02*
X123580000Y-85732500D01*
X120920000Y-95952500D02*
X123580000Y-95952500D01*
X123580000Y-85732500D02*
X123580000Y-95952500D01*
%TO.C,CF0B1*%
X150736252Y-87945000D02*
X149313748Y-87945000D01*
X150736252Y-89765000D02*
X149313748Y-89765000D01*
%TO.C,J3*%
X137940000Y-46795000D02*
X137440000Y-46795000D01*
X128865000Y-52764000D02*
X128912000Y-52718000D01*
X137700000Y-56956000D02*
X137700000Y-47035000D01*
X131174000Y-50456000D02*
X131209000Y-50421000D01*
X137700000Y-47035000D02*
X127580000Y-47035000D01*
X129070000Y-52970000D02*
X129105000Y-52934000D01*
X127580000Y-56956000D02*
X127580000Y-47035000D01*
X137940000Y-47535000D02*
X137940000Y-46795000D01*
X137700000Y-47595000D02*
X127580000Y-47595000D01*
X131367000Y-50672000D02*
X131414000Y-50626000D01*
X137700000Y-53996000D02*
X127580000Y-53996000D01*
X137700000Y-49095000D02*
X127580000Y-49095000D01*
X137700000Y-56956000D02*
X127580000Y-56956000D01*
X135824000Y-50160000D02*
G75*
G03*
X135111195Y-50014747I-683999J-1535001D01*
G01*
X133605000Y-51011000D02*
G75*
G03*
X133604573Y-52378042I1534993J-684001D01*
G01*
X136675000Y-52379000D02*
G75*
G03*
X136675427Y-51011958I-1534993J684001D01*
G01*
X135140000Y-50015000D02*
G75*
G03*
X134456682Y-50160244I-1J-1679992D01*
G01*
X134456000Y-53230000D02*
G75*
G03*
X135823042Y-53230427I684001J1534993D01*
G01*
X131820000Y-51695000D02*
G75*
G03*
X131820000Y-51695000I-1680000J0D01*
G01*
%TO.C,CGD1*%
X160538748Y-107265000D02*
X161961252Y-107265000D01*
X160538748Y-105445000D02*
X161961252Y-105445000D01*
%TO.C,PCTRL1*%
X120965000Y-103307500D02*
X120965000Y-113527500D01*
X120965000Y-100707500D02*
X122295000Y-100707500D01*
X120965000Y-103307500D02*
X123625000Y-103307500D01*
X120965000Y-113527500D02*
X123625000Y-113527500D01*
X120965000Y-102037500D02*
X120965000Y-100707500D01*
X123625000Y-103307500D02*
X123625000Y-113527500D01*
%TO.C,CPVDD1B0*%
X150736252Y-107265000D02*
X149313748Y-107265000D01*
X150736252Y-105445000D02*
X149313748Y-105445000D01*
%TO.C,CFDC0*%
X165838748Y-98445000D02*
X167261252Y-98445000D01*
X165838748Y-100265000D02*
X167261252Y-100265000D01*
%TO.C,JP1*%
X136557500Y-94630000D02*
X137887500Y-94630000D01*
X136557500Y-95960000D02*
X136557500Y-94630000D01*
X136557500Y-97230000D02*
X136557500Y-102370000D01*
X136557500Y-97230000D02*
X139217500Y-97230000D01*
X136557500Y-102370000D02*
X139217500Y-102370000D01*
X139217500Y-97230000D02*
X139217500Y-102370000D01*
%TO.C,U1*%
X150850000Y-93205000D02*
X151300000Y-93205000D01*
X150850000Y-93655000D02*
X150850000Y-93205000D01*
X160070000Y-102425000D02*
X159620000Y-102425000D01*
X150850000Y-101975000D02*
X150850000Y-102425000D01*
X160070000Y-93655000D02*
X160070000Y-93205000D01*
X160070000Y-101975000D02*
X160070000Y-102425000D01*
X150850000Y-102425000D02*
X151300000Y-102425000D01*
%TO.C,J2*%
X211980000Y-107560000D02*
X211980000Y-87439000D01*
X210403000Y-101227000D02*
X210449000Y-101274000D01*
X204119000Y-107560000D02*
X204119000Y-87439000D01*
X207079000Y-107560000D02*
X207079000Y-87439000D01*
X214280000Y-107800000D02*
X214280000Y-107300000D01*
X214040000Y-107560000D02*
X214040000Y-87439000D01*
X204119000Y-87439000D02*
X214040000Y-87439000D01*
X210619000Y-101034000D02*
X210654000Y-101069000D01*
X208105000Y-88930000D02*
X208141000Y-88965000D01*
X210403000Y-91227000D02*
X210449000Y-91274000D01*
X208311000Y-93725000D02*
X208357000Y-93772000D01*
X204119000Y-107560000D02*
X214040000Y-107560000D01*
X210619000Y-96034000D02*
X210654000Y-96069000D01*
X208105000Y-93930000D02*
X208141000Y-93965000D01*
X208311000Y-88725000D02*
X208357000Y-88772000D01*
X213540000Y-107800000D02*
X214280000Y-107800000D01*
X208105000Y-98930000D02*
X208141000Y-98965000D01*
X210403000Y-96227000D02*
X210449000Y-96274000D01*
X208311000Y-98725000D02*
X208357000Y-98772000D01*
X210619000Y-91034000D02*
X210654000Y-91069000D01*
X213480000Y-107560000D02*
X213480000Y-87439000D01*
X210064000Y-103465000D02*
G75*
G03*
X208696958Y-103464573I-684001J-1534993D01*
G01*
X211060000Y-105000000D02*
G75*
G03*
X210914756Y-104316682I-1679992J1D01*
G01*
X207845000Y-104316000D02*
G75*
G03*
X207844573Y-105683042I1534993J-684001D01*
G01*
X208696000Y-106535000D02*
G75*
G03*
X210063042Y-106535427I684001J1534993D01*
G01*
X210915000Y-105684000D02*
G75*
G03*
X211060253Y-104971195I-1535001J683999D01*
G01*
X211060000Y-95000000D02*
G75*
G03*
X211060000Y-95000000I-1680000J0D01*
G01*
X211060000Y-90000000D02*
G75*
G03*
X211060000Y-90000000I-1680000J0D01*
G01*
X211060000Y-100000000D02*
G75*
G03*
X211060000Y-100000000I-1680000J0D01*
G01*
%TO.C,CF1A1*%
X155313748Y-105445000D02*
X156736252Y-105445000D01*
X155313748Y-107265000D02*
X156736252Y-107265000D01*
%TO.C,CPVDD0B0*%
X156236252Y-86265000D02*
X154813748Y-86265000D01*
X156236252Y-84445000D02*
X154813748Y-84445000D01*
%TO.C,CGD0*%
X167236252Y-87945000D02*
X165813748Y-87945000D01*
X167236252Y-89765000D02*
X165813748Y-89765000D01*
%TO.C,CF1B0*%
X145236252Y-105445000D02*
X143813748Y-105445000D01*
X145236252Y-107265000D02*
X143813748Y-107265000D01*
%TO.C,R1*%
X191190000Y-79212936D02*
X191190000Y-80667064D01*
X193010000Y-79212936D02*
X193010000Y-80667064D01*
%TO.C,LBUCK0*%
X152110000Y-49590000D02*
X152110000Y-50615000D01*
X147890000Y-54360000D02*
X147890000Y-53335000D01*
X147890000Y-54360000D02*
X148915000Y-54360000D01*
X152110000Y-49590000D02*
X151085000Y-49590000D01*
X152110000Y-54360000D02*
X152110000Y-53335000D01*
X152110000Y-54360000D02*
X151085000Y-54360000D01*
X147890000Y-49590000D02*
X147890000Y-50615000D01*
X147890000Y-49590000D02*
X148915000Y-49590000D01*
%TO.C,C3*%
X201220000Y-69320000D02*
X195980000Y-69320000D01*
X201220000Y-69320000D02*
X201220000Y-82560000D01*
X195980000Y-69320000D02*
X195980000Y-82560000D01*
X201220000Y-82560000D02*
X195980000Y-82560000D01*
%TO.C,CF0A0*%
X160313748Y-87945000D02*
X161736252Y-87945000D01*
X160313748Y-89765000D02*
X161736252Y-89765000D01*
%TO.C,CPVDD1A0*%
X150736252Y-110765000D02*
X149313748Y-110765000D01*
X150736252Y-108945000D02*
X149313748Y-108945000D01*
%TO.C,R2*%
X193010000Y-85750436D02*
X193010000Y-87204564D01*
X191190000Y-85750436D02*
X191190000Y-87204564D01*
%TO.C,RB_FB1*%
X149272936Y-60910000D02*
X150727064Y-60910000D01*
X149272936Y-59090000D02*
X150727064Y-59090000D01*
%TO.C,CVGDC0*%
X166038748Y-107265000D02*
X167461252Y-107265000D01*
X166038748Y-105445000D02*
X167461252Y-105445000D01*
%TD*%
M02*
