%TF.GenerationSoftware,KiCad,Pcbnew,(6.0.0-rc1-314-g10be483430)*%
%TF.CreationDate,2021-12-21T20:43:16+01:00*%
%TF.ProjectId,ma12070p_amp_v1,6d613132-3037-4307-905f-616d705f7631,rev?*%
%TF.SameCoordinates,Original*%
%TF.FileFunction,Soldermask,Top*%
%TF.FilePolarity,Negative*%
%FSLAX45Y45*%
G04 Gerber Fmt 4.5, Leading zero omitted, Abs format (unit mm)*
G04 Created by KiCad (PCBNEW (6.0.0-rc1-314-g10be483430)) date 2021-12-21 20:43:16*
%MOMM*%
%LPD*%
G01*
G04 APERTURE LIST*
G04 Aperture macros list*
%AMRoundRect*
0 Rectangle with rounded corners*
0 $1 Rounding radius*
0 $2 $3 $4 $5 $6 $7 $8 $9 X,Y pos of 4 corners*
0 Add a 4 corners polygon primitive as box body*
4,1,4,$2,$3,$4,$5,$6,$7,$8,$9,$2,$3,0*
0 Add four circle primitives for the rounded corners*
1,1,$1+$1,$2,$3*
1,1,$1+$1,$4,$5*
1,1,$1+$1,$6,$7*
1,1,$1+$1,$8,$9*
0 Add four rect primitives between the rounded corners*
20,1,$1+$1,$2,$3,$4,$5,0*
20,1,$1+$1,$4,$5,$6,$7,0*
20,1,$1+$1,$6,$7,$8,$9,0*
20,1,$1+$1,$8,$9,$2,$3,0*%
G04 Aperture macros list end*
%TA.AperFunction,Profile*%
%ADD10C,0.050000*%
%TD*%
%ADD11R,1.353299X0.279400*%
%ADD12R,1.879600X2.514600*%
%ADD13C,1.600000*%
%ADD14R,1.000000X1.500000*%
%ADD15RoundRect,0.250000X0.412500X0.650000X-0.412500X0.650000X-0.412500X-0.650000X0.412500X-0.650000X0*%
%ADD16RoundRect,0.250000X-0.412500X-0.650000X0.412500X-0.650000X0.412500X0.650000X-0.412500X0.650000X0*%
%ADD17R,1.700000X1.700000*%
%ADD18O,1.700000X1.700000*%
%ADD19R,2.600000X2.600000*%
%ADD20C,2.600000*%
%ADD21C,1.700000*%
%ADD22C,8.000000*%
%ADD23RoundRect,0.250000X0.625000X-0.400000X0.625000X0.400000X-0.625000X0.400000X-0.625000X-0.400000X0*%
%ADD24RoundRect,0.250000X-0.400000X-0.625000X0.400000X-0.625000X0.400000X0.625000X-0.400000X0.625000X0*%
%ADD25R,2.000000X2.000000*%
%ADD26C,2.000000*%
%ADD27RoundRect,0.249999X0.512501X1.075001X-0.512501X1.075001X-0.512501X-1.075001X0.512501X-1.075001X0*%
%ADD28RoundRect,0.250000X-0.625000X0.400000X-0.625000X-0.400000X0.625000X-0.400000X0.625000X0.400000X0*%
%ADD29R,1.500000X1.000000*%
%ADD30R,1.422400X1.422400*%
%ADD31C,1.422400*%
%ADD32RoundRect,0.250001X-0.462499X-0.624999X0.462499X-0.624999X0.462499X0.624999X-0.462499X0.624999X0*%
%ADD33RoundRect,0.075000X-0.075000X0.362500X-0.075000X-0.362500X0.075000X-0.362500X0.075000X0.362500X0*%
%ADD34RoundRect,0.075000X-0.362500X0.075000X-0.362500X-0.075000X0.362500X-0.075000X0.362500X0.075000X0*%
%ADD35R,5.450000X5.450000*%
G04 APERTURE END LIST*
D10*
X21500000Y-4700000D02*
G75*
G03*
X21000000Y-4200000I-500000J0D01*
G01*
X21000000Y-12700000D02*
G75*
G03*
X21500000Y-12200000I0J500000D01*
G01*
X11000000Y-12200000D02*
G75*
G03*
X11500000Y-12700000I500000J0D01*
G01*
X11500000Y-4199375D02*
G75*
G03*
X11000000Y-4675000I0J-500625D01*
G01*
X11000000Y-12200000D02*
X11000000Y-4675000D01*
X21000000Y-12700000D02*
X11500000Y-12700000D01*
X21500000Y-4700000D02*
X21500000Y-12200000D01*
X11500000Y-4199375D02*
X21000000Y-4200000D01*
D11*
%TO.C,U1*%
X14445065Y-5287186D03*
X14445065Y-5237185D03*
X14445065Y-5187186D03*
X14445065Y-5137186D03*
X14445065Y-5087185D03*
X14004935Y-5087185D03*
X14004935Y-5137186D03*
X14004935Y-5187186D03*
X14004935Y-5237185D03*
X14004935Y-5287186D03*
D12*
X14225000Y-5187186D03*
%TD*%
D13*
%TO.C,C27*%
X19050000Y-11400000D03*
X19550000Y-11400000D03*
%TD*%
D14*
%TO.C,JP4*%
X13210000Y-10800000D03*
X13340000Y-10800000D03*
%TD*%
D15*
%TO.C,C7*%
X13981250Y-7600000D03*
X13668750Y-7600000D03*
%TD*%
D16*
%TO.C,C29*%
X16043750Y-9700000D03*
X16356250Y-9700000D03*
%TD*%
D17*
%TO.C,CONN4*%
X12025000Y-8242500D03*
D18*
X12025000Y-8496500D03*
X12025000Y-8750500D03*
X12025000Y-9004500D03*
X12025000Y-9258500D03*
%TD*%
D16*
%TO.C,CIN2*%
X12362500Y-5950000D03*
X12675000Y-5950000D03*
%TD*%
D15*
%TO.C,C36*%
X16356250Y-8200000D03*
X16043750Y-8200000D03*
%TD*%
D16*
%TO.C,C10*%
X15445750Y-7600000D03*
X15758250Y-7600000D03*
%TD*%
D15*
%TO.C,C18*%
X14556250Y-7900000D03*
X14243750Y-7900000D03*
%TD*%
D16*
%TO.C,C40*%
X16043750Y-7600000D03*
X16356250Y-7600000D03*
%TD*%
D15*
%TO.C,C4*%
X15158250Y-7600000D03*
X14845750Y-7600000D03*
%TD*%
%TO.C,C16*%
X13525000Y-6200000D03*
X13212500Y-6200000D03*
%TD*%
D16*
%TO.C,C21*%
X15437500Y-10000000D03*
X15750000Y-10000000D03*
%TD*%
D15*
%TO.C,C20*%
X13525000Y-5500000D03*
X13212500Y-5500000D03*
%TD*%
D17*
%TO.C,CONN3*%
X12025000Y-9917500D03*
D18*
X12025000Y-10171500D03*
X12025000Y-10425500D03*
X12025000Y-10679500D03*
X12025000Y-10933500D03*
%TD*%
D19*
%TO.C,CONN2*%
X20869500Y-8050000D03*
D20*
X20869500Y-8550000D03*
X20869500Y-9050000D03*
X20869500Y-9550000D03*
%TD*%
D21*
%TO.C,L2*%
X18050000Y-6800000D03*
X17550000Y-6800000D03*
%TD*%
D13*
%TO.C,C23*%
X19050000Y-10100000D03*
X19550000Y-10100000D03*
%TD*%
D16*
%TO.C,C42*%
X15687500Y-12200000D03*
X16000000Y-12200000D03*
%TD*%
%TO.C,C34*%
X16045750Y-8800000D03*
X16358250Y-8800000D03*
%TD*%
D15*
%TO.C,C15*%
X13525000Y-5900000D03*
X13212500Y-5900000D03*
%TD*%
%TO.C,C25*%
X14556250Y-10000000D03*
X14243750Y-10000000D03*
%TD*%
D16*
%TO.C,C32*%
X13212500Y-6525000D03*
X13525000Y-6525000D03*
%TD*%
D21*
%TO.C,L4*%
X18050000Y-8100000D03*
X17550000Y-8100000D03*
%TD*%
D22*
%TO.C,H2*%
X11500000Y-4700000D03*
%TD*%
D13*
%TO.C,C12*%
X19050000Y-7500000D03*
X19550000Y-7500000D03*
%TD*%
D15*
%TO.C,C17*%
X14556250Y-7600000D03*
X14243750Y-7600000D03*
%TD*%
%TO.C,C19*%
X13525000Y-5200000D03*
X13212500Y-5200000D03*
%TD*%
D23*
%TO.C,R7*%
X18600000Y-11155000D03*
X18600000Y-10845000D03*
%TD*%
D22*
%TO.C,H4*%
X21000000Y-4700000D03*
%TD*%
D16*
%TO.C,C37*%
X16043750Y-9400000D03*
X16356250Y-9400000D03*
%TD*%
D15*
%TO.C,C26*%
X14556250Y-9700000D03*
X14243750Y-9700000D03*
%TD*%
D16*
%TO.C,C30*%
X16043750Y-10000000D03*
X16356250Y-10000000D03*
%TD*%
%TO.C,C45*%
X13666750Y-9100000D03*
X13979250Y-9100000D03*
%TD*%
D14*
%TO.C,JP2*%
X13220000Y-10450000D03*
X13350000Y-10450000D03*
%TD*%
%TO.C,JP3*%
X13930000Y-9850000D03*
X13800000Y-9850000D03*
X13670000Y-9850000D03*
%TD*%
D13*
%TO.C,C8*%
X19050000Y-6200000D03*
X19550000Y-6200000D03*
%TD*%
D24*
%TO.C,R8*%
X15688750Y-5200000D03*
X15998750Y-5200000D03*
%TD*%
D16*
%TO.C,C44*%
X13666750Y-8500000D03*
X13979250Y-8500000D03*
%TD*%
D15*
%TO.C,C31*%
X16356250Y-10300000D03*
X16043750Y-10300000D03*
%TD*%
D14*
%TO.C,JP5*%
X13330000Y-9525000D03*
X13200000Y-9525000D03*
X13070000Y-9525000D03*
%TD*%
D15*
%TO.C,C6*%
X15158250Y-7900000D03*
X14845750Y-7900000D03*
%TD*%
D25*
%TO.C,C2*%
X15163232Y-6725000D03*
D26*
X15663232Y-6725000D03*
%TD*%
D16*
%TO.C,C35*%
X16043750Y-8500000D03*
X16356250Y-8500000D03*
%TD*%
D15*
%TO.C,C5*%
X15156250Y-10000000D03*
X14843750Y-10000000D03*
%TD*%
D16*
%TO.C,CIN1*%
X11600000Y-5900000D03*
X11912500Y-5900000D03*
%TD*%
D27*
%TO.C,L1*%
X12675000Y-6300000D03*
X12207500Y-6300000D03*
%TD*%
D28*
%TO.C,R4*%
X18600000Y-7745000D03*
X18600000Y-8055000D03*
%TD*%
D21*
%TO.C,L6*%
X18050000Y-10800000D03*
X17550000Y-10800000D03*
%TD*%
D13*
%TO.C,C24*%
X19550000Y-9500000D03*
X19050000Y-9500000D03*
%TD*%
D22*
%TO.C,H3*%
X11500000Y-12200000D03*
%TD*%
D25*
%TO.C,C1*%
X15163232Y-10850000D03*
D26*
X15663232Y-10850000D03*
%TD*%
D28*
%TO.C,R5*%
X18600000Y-9545000D03*
X18600000Y-9855000D03*
%TD*%
D14*
%TO.C,JP8*%
X13890000Y-10150000D03*
X13760000Y-10150000D03*
%TD*%
D24*
%TO.C,R3*%
X13220000Y-4875000D03*
X13530000Y-4875000D03*
%TD*%
D29*
%TO.C,JP6*%
X13225000Y-8360000D03*
X13225000Y-8490000D03*
%TD*%
D21*
%TO.C,L5*%
X18050000Y-9500000D03*
X17550000Y-9500000D03*
%TD*%
D16*
%TO.C,C43*%
X13666750Y-8200000D03*
X13979250Y-8200000D03*
%TD*%
D13*
%TO.C,C9*%
X19550000Y-6800000D03*
X19050000Y-6800000D03*
%TD*%
D16*
%TO.C,C33*%
X13218750Y-6825000D03*
X13531250Y-6825000D03*
%TD*%
D13*
%TO.C,C28*%
X19050000Y-10800000D03*
X19550000Y-10800000D03*
%TD*%
D22*
%TO.C,H1*%
X21000000Y-12200000D03*
%TD*%
D16*
%TO.C,C22*%
X15437500Y-9700000D03*
X15750000Y-9700000D03*
%TD*%
D15*
%TO.C,C38*%
X16356250Y-7900000D03*
X16043750Y-7900000D03*
%TD*%
D30*
%TO.C,L3*%
X14610010Y-6200000D03*
D31*
X14259490Y-6200000D03*
%TD*%
D16*
%TO.C,C11*%
X15445750Y-7900000D03*
X15758250Y-7900000D03*
%TD*%
D15*
%TO.C,C41*%
X13979250Y-7900000D03*
X13666750Y-7900000D03*
%TD*%
D16*
%TO.C,C39*%
X16043750Y-9100000D03*
X16356250Y-9100000D03*
%TD*%
D32*
%TO.C,LED1*%
X16295000Y-5500000D03*
X16592500Y-5500000D03*
%TD*%
%TO.C,LED2*%
X16295000Y-5200000D03*
X16592500Y-5200000D03*
%TD*%
D24*
%TO.C,R6*%
X15688750Y-5500000D03*
X15998750Y-5500000D03*
%TD*%
D15*
%TO.C,C46*%
X13979250Y-8800000D03*
X13666750Y-8800000D03*
%TD*%
D29*
%TO.C,JP1*%
X13850000Y-6950000D03*
X13850000Y-6820000D03*
X13850000Y-6690000D03*
%TD*%
D13*
%TO.C,C13*%
X19050000Y-8100000D03*
X19550000Y-8100000D03*
%TD*%
D24*
%TO.C,R1*%
X11586250Y-6325000D03*
X11896250Y-6325000D03*
%TD*%
D33*
%TO.C,U2*%
X15375000Y-8354250D03*
X15325000Y-8354250D03*
X15275000Y-8354250D03*
X15225000Y-8354250D03*
X15175000Y-8354250D03*
X15125000Y-8354250D03*
X15075000Y-8354250D03*
X15025000Y-8354250D03*
X14975000Y-8354250D03*
X14925000Y-8354250D03*
X14875000Y-8354250D03*
X14825000Y-8354250D03*
X14775000Y-8354250D03*
X14725000Y-8354250D03*
X14675000Y-8354250D03*
X14625000Y-8354250D03*
D34*
X14556250Y-8423000D03*
X14556250Y-8473000D03*
X14556250Y-8523000D03*
X14556250Y-8573000D03*
X14556250Y-8623000D03*
X14556250Y-8673000D03*
X14556250Y-8723000D03*
X14556250Y-8773000D03*
X14556250Y-8823000D03*
X14556250Y-8873000D03*
X14556250Y-8923000D03*
X14556250Y-8973000D03*
X14556250Y-9023000D03*
X14556250Y-9073000D03*
X14556250Y-9123000D03*
X14556250Y-9173000D03*
D33*
X14625000Y-9241750D03*
X14675000Y-9241750D03*
X14725000Y-9241750D03*
X14775000Y-9241750D03*
X14825000Y-9241750D03*
X14875000Y-9241750D03*
X14925000Y-9241750D03*
X14975000Y-9241750D03*
X15025000Y-9241750D03*
X15075000Y-9241750D03*
X15125000Y-9241750D03*
X15175000Y-9241750D03*
X15225000Y-9241750D03*
X15275000Y-9241750D03*
X15325000Y-9241750D03*
X15375000Y-9241750D03*
D34*
X15443750Y-9173000D03*
X15443750Y-9123000D03*
X15443750Y-9073000D03*
X15443750Y-9023000D03*
X15443750Y-8973000D03*
X15443750Y-8923000D03*
X15443750Y-8873000D03*
X15443750Y-8823000D03*
X15443750Y-8773000D03*
X15443750Y-8723000D03*
X15443750Y-8673000D03*
X15443750Y-8623000D03*
X15443750Y-8573000D03*
X15443750Y-8523000D03*
X15443750Y-8473000D03*
X15443750Y-8423000D03*
D35*
X15000000Y-8798000D03*
%TD*%
D14*
%TO.C,JP7*%
X13890000Y-10450000D03*
X13760000Y-10450000D03*
%TD*%
D15*
%TO.C,C3*%
X15156250Y-9700000D03*
X14843750Y-9700000D03*
%TD*%
D16*
%TO.C,C14*%
X14303750Y-5590000D03*
X14616250Y-5590000D03*
%TD*%
D14*
%TO.C,JP9*%
X13330000Y-9925000D03*
X13200000Y-9925000D03*
X13070000Y-9925000D03*
%TD*%
D19*
%TO.C,CONN1*%
X11650000Y-6975000D03*
D20*
X11650000Y-7475000D03*
%TD*%
D23*
%TO.C,R2*%
X18600000Y-6755000D03*
X18600000Y-6445000D03*
%TD*%
M02*
